solid CATIA STL
  facet normal  -0.000000e+000  0.000000e+000  1.000000e+000
    outer loop
      vertex -1.139682e+002  3.211465e+001  0.000000e+000
      vertex -1.185631e+002  3.128376e+001  0.000000e+000
      vertex -1.138897e+002  3.061670e+001  0.000000e+000
    endloop
  endfacet
  facet normal  0.000000e+000  -0.000000e+000  1.000000e+000
    outer loop
      vertex -1.139682e+002  3.211465e+001  0.000000e+000
      vertex -1.138897e+002  3.061670e+001  0.000000e+000
      vertex -4.159502e+001  3.440551e+001  0.000000e+000
    endloop
  endfacet
  facet normal  0.000000e+000  -0.000000e+000  9.999999e-001
    outer loop
      vertex -1.139682e+002  3.211465e+001  0.000000e+000
      vertex -4.159502e+001  3.440551e+001  0.000000e+000
      vertex -3.938478e+001  3.602340e+001  0.000000e+000
    endloop
  endfacet
  facet normal  0.000000e+000  0.000000e+000  1.000000e+000
    outer loop
      vertex -3.926579e+001 -1.985443e+001  0.000000e+000
      vertex -4.223841e+001 -1.232543e+001  0.000000e+000
      vertex -4.520121e+001 -8.661939e+000  0.000000e+000
    endloop
  endfacet
  facet normal  0.000000e+000  0.000000e+000  1.000000e+000
    outer loop
      vertex -3.926579e+001 -1.985443e+001  0.000000e+000
      vertex -4.520121e+001 -8.661939e+000  0.000000e+000
      vertex -4.292475e+001 -1.660256e+001  0.000000e+000
    endloop
  endfacet
  facet normal  0.000000e+000  0.000000e+000  1.000000e+000
    outer loop
      vertex -3.926579e+001 -1.985443e+001  0.000000e+000
      vertex -4.292475e+001 -1.660256e+001  0.000000e+000
      vertex -4.294248e+001 -1.772856e+001  0.000000e+000
    endloop
  endfacet
  facet normal  0.000000e+000  0.000000e+000  1.000000e+000
    outer loop
      vertex -3.926579e+001 -1.985443e+001  0.000000e+000
      vertex -4.294248e+001 -1.772856e+001  0.000000e+000
      vertex -4.373875e+001 -1.852489e+001  0.000000e+000
    endloop
  endfacet
  facet normal  0.000000e+000  0.000000e+000  1.000000e+000
    outer loop
      vertex -3.926579e+001 -1.985443e+001  0.000000e+000
      vertex -4.373875e+001 -1.852489e+001  0.000000e+000
      vertex -4.607874e+001 -1.900000e+001  0.000000e+000
    endloop
  endfacet
  facet normal  0.000000e+000  0.000000e+000  1.000000e+000
    outer loop
      vertex -1.138897e+002  3.061670e+001  0.000000e+000
      vertex -1.185631e+002  3.128376e+001  0.000000e+000
      vertex -1.189257e+002  2.957379e+001  0.000000e+000
    endloop
  endfacet
  facet normal  0.000000e+000  -0.000000e+000  1.000000e+000
    outer loop
      vertex -1.189257e+002  2.957379e+001  0.000000e+000
      vertex -1.185631e+002  3.128376e+001  0.000000e+000
      vertex -1.228035e+002  2.932889e+001  0.000000e+000
    endloop
  endfacet
  facet normal  -0.000000e+000  0.000000e+000  1.000000e+000
    outer loop
      vertex -1.189257e+002  2.957379e+001  0.000000e+000
      vertex -1.228035e+002  2.932889e+001  0.000000e+000
      vertex -1.234194e+002  2.707264e+001  0.000000e+000
    endloop
  endfacet
  facet normal  0.000000e+000  -0.000000e+000  1.000000e+000
    outer loop
      vertex -1.234194e+002  2.707264e+001  0.000000e+000
      vertex -1.228035e+002  2.932889e+001  0.000000e+000
      vertex -1.264194e+002  2.637456e+001  0.000000e+000
    endloop
  endfacet
  facet normal  -0.000000e+000  0.000000e+000  1.000000e+000
    outer loop
      vertex -1.234194e+002  2.707264e+001  0.000000e+000
      vertex -1.264194e+002  2.637456e+001  0.000000e+000
      vertex -1.269595e+002  2.334213e+001  0.000000e+000
    endloop
  endfacet
  facet normal  0.000000e+000  -0.000000e+000  1.000000e+000
    outer loop
      vertex -1.269595e+002  2.334213e+001  0.000000e+000
      vertex -1.264194e+002  2.637456e+001  0.000000e+000
      vertex -1.291805e+002  2.260898e+001  0.000000e+000
    endloop
  endfacet
  facet normal  -0.000000e+000  0.000000e+000  1.000000e+000
    outer loop
      vertex -1.269595e+002  2.334213e+001  0.000000e+000
      vertex -1.291805e+002  2.260898e+001  0.000000e+000
      vertex -1.292221e+002  1.872369e+001  0.000000e+000
    endloop
  endfacet
  facet normal  0.000000e+000  -0.000000e+000  1.000000e+000
    outer loop
      vertex -1.292221e+002  1.872369e+001  0.000000e+000
      vertex -1.291805e+002  2.260898e+001  0.000000e+000
      vertex -1.309107e+002  1.827203e+001  0.000000e+000
    endloop
  endfacet
  facet normal  -0.000000e+000  0.000000e+000  1.000000e+000
    outer loop
      vertex -1.292221e+002  1.872369e+001  0.000000e+000
      vertex -1.309107e+002  1.827203e+001  0.000000e+000
      vertex -1.300000e+002  1.364000e+001  0.000000e+000
    endloop
  endfacet
  facet normal  0.000000e+000  0.000000e+000  1.000000e+000
    outer loop
      vertex -1.300000e+002  1.364000e+001  0.000000e+000
      vertex -1.309107e+002  1.827203e+001  0.000000e+000
      vertex -1.315000e+002  1.364000e+001  0.000000e+000
    endloop
  endfacet
  facet normal  -0.000000e+000  0.000000e+000  1.000000e+000
    outer loop
      vertex -1.300000e+002  1.364000e+001  0.000000e+000
      vertex -1.315000e+002  1.364000e+001  0.000000e+000
      vertex -1.300000e+002 -1.400000e+001  0.000000e+000
    endloop
  endfacet
  facet normal  0.000000e+000  0.000000e+000  1.000000e+000
    outer loop
      vertex -1.300000e+002 -1.400000e+001  0.000000e+000
      vertex -1.315000e+002  1.364000e+001  0.000000e+000
      vertex -1.315000e+002 -1.450000e+001  0.000000e+000
    endloop
  endfacet
  facet normal  -0.000000e+000  0.000000e+000  1.000000e+000
    outer loop
      vertex -1.300000e+002 -1.400000e+001  0.000000e+000
      vertex -1.315000e+002 -1.450000e+001  0.000000e+000
      vertex -1.293301e+002 -1.650000e+001  0.000000e+000
    endloop
  endfacet
  facet normal  0.000000e+000  0.000000e+000  1.000000e+000
    outer loop
      vertex -1.293301e+002 -1.650000e+001  0.000000e+000
      vertex -1.315000e+002 -1.450000e+001  0.000000e+000
      vertex -1.310433e+002 -1.679610e+001  0.000000e+000
    endloop
  endfacet
  facet normal  -0.000000e+000  0.000000e+000  1.000000e+000
    outer loop
      vertex -1.293301e+002 -1.650000e+001  0.000000e+000
      vertex -1.310433e+002 -1.679610e+001  0.000000e+000
      vertex -1.275000e+002 -1.833013e+001  0.000000e+000
    endloop
  endfacet
  facet normal  0.000000e+000  0.000000e+000  1.000000e+000
    outer loop
      vertex -1.275000e+002 -1.833013e+001  0.000000e+000
      vertex -1.310433e+002 -1.679610e+001  0.000000e+000
      vertex -1.297426e+002 -1.874264e+001  0.000000e+000
    endloop
  endfacet
  facet normal  -0.000000e+000  0.000000e+000  1.000000e+000
    outer loop
      vertex -1.275000e+002 -1.833013e+001  0.000000e+000
      vertex -1.297426e+002 -1.874264e+001  0.000000e+000
      vertex -1.250000e+002 -1.900000e+001  0.000000e+000
    endloop
  endfacet
  facet normal  0.000000e+000  0.000000e+000  1.000000e+000
    outer loop
      vertex -1.250000e+002 -1.900000e+001  0.000000e+000
      vertex -1.297426e+002 -1.874264e+001  0.000000e+000
      vertex -1.277961e+002 -2.004328e+001  0.000000e+000
    endloop
  endfacet
  facet normal  0.000000e+000  0.000000e+000  1.000000e+000
    outer loop
      vertex -1.250000e+002 -1.900000e+001  0.000000e+000
      vertex -1.277961e+002 -2.004328e+001  0.000000e+000
      vertex -4.607874e+001 -1.900000e+001  0.000000e+000
    endloop
  endfacet
  facet normal  0.000000e+000  0.000000e+000  1.000000e+000
    outer loop
      vertex -4.607874e+001 -1.900000e+001  0.000000e+000
      vertex -1.277961e+002 -2.004328e+001  0.000000e+000
      vertex -1.255000e+002 -2.050000e+001  0.000000e+000
    endloop
  endfacet
  facet normal  0.000000e+000  0.000000e+000  1.000000e+000
    outer loop
      vertex -4.607874e+001 -1.900000e+001  0.000000e+000
      vertex -1.255000e+002 -2.050000e+001  0.000000e+000
      vertex -3.926579e+001 -1.985443e+001  0.000000e+000
    endloop
  endfacet
  facet normal  0.000000e+000  0.000000e+000  1.000000e+000
    outer loop
      vertex -3.926579e+001 -1.985443e+001  0.000000e+000
      vertex -1.255000e+002 -2.050000e+001  0.000000e+000
      vertex -4.197321e+001 -2.050000e+001  0.000000e+000
    endloop
  endfacet
  facet normal  0.000000e+000  0.000000e+000  1.000000e+000
    outer loop
      vertex -3.591704e+001  3.569901e+001  0.000000e+000
      vertex -3.938478e+001  3.602340e+001  0.000000e+000
      vertex -3.268851e+001  3.439245e+001  0.000000e+000
    endloop
  endfacet
  facet normal  0.000000e+000  0.000000e+000  1.000000e+000
    outer loop
      vertex -3.268851e+001  3.439245e+001  0.000000e+000
      vertex -3.938478e+001  3.602340e+001  0.000000e+000
      vertex -4.159502e+001  3.440551e+001  0.000000e+000
    endloop
  endfacet
  facet normal  0.000000e+000  0.000000e+000  1.000000e+000
    outer loop
      vertex -3.268851e+001  3.439245e+001  0.000000e+000
      vertex -4.159502e+001  3.440551e+001  0.000000e+000
      vertex -3.808658e+001  3.388980e+001  0.000000e+000
    endloop
  endfacet
  facet normal  -0.000000e+000  0.000000e+000  1.000000e+000
    outer loop
      vertex -3.268851e+001  3.439245e+001  0.000000e+000
      vertex -3.808658e+001  3.388980e+001  0.000000e+000
      vertex -2.997117e+001  3.221380e+001  0.000000e+000
    endloop
  endfacet
  facet normal  0.000000e+000  0.000000e+000  1.000000e+000
    outer loop
      vertex -2.997117e+001  3.221380e+001  0.000000e+000
      vertex -3.808658e+001  3.388980e+001  0.000000e+000
      vertex -3.504969e+001  3.205883e+001  0.000000e+000
    endloop
  endfacet
  facet normal  -0.000000e+000  0.000000e+000  1.000000e+000
    outer loop
      vertex -2.997117e+001  3.221380e+001  0.000000e+000
      vertex -3.504969e+001  3.205883e+001  0.000000e+000
      vertex -3.456481e+001  3.104243e+001  0.000000e+000
    endloop
  endfacet
  facet normal  -0.000000e+000  0.000000e+000  1.000000e+000
    outer loop
      vertex -2.997117e+001  3.221380e+001  0.000000e+000
      vertex -3.456481e+001  3.104243e+001  0.000000e+000
      vertex -3.536517e+001  2.617832e+001  0.000000e+000
    endloop
  endfacet
  facet normal  0.000000e+000  0.000000e+000  1.000000e+000
    outer loop
      vertex -3.536517e+001  2.617832e+001  0.000000e+000
      vertex -3.456481e+001  3.104243e+001  0.000000e+000
      vertex -3.492384e+001  2.997506e+001  0.000000e+000
    endloop
  endfacet
  facet normal  0.000000e+000  0.000000e+000  1.000000e+000
    outer loop
      vertex -3.536517e+001  2.617832e+001  0.000000e+000
      vertex -3.492384e+001  2.997506e+001  0.000000e+000
      vertex -3.971964e+001  2.324928e+001  0.000000e+000
    endloop
  endfacet
  facet normal  -0.000000e+000  0.000000e+000  1.000000e+000
    outer loop
      vertex -3.536517e+001  2.617832e+001  0.000000e+000
      vertex -3.971964e+001  2.324928e+001  0.000000e+000
      vertex -3.956227e+001  1.925686e+001  0.000000e+000
    endloop
  endfacet
  facet normal  0.000000e+000  0.000000e+000  1.000000e+000
    outer loop
      vertex -3.956227e+001  1.925686e+001  0.000000e+000
      vertex -3.971964e+001  2.324928e+001  0.000000e+000
      vertex -4.323590e+001  1.577454e+001  0.000000e+000
    endloop
  endfacet
  facet normal  -0.000000e+000  0.000000e+000  1.000000e+000
    outer loop
      vertex -3.956227e+001  1.925686e+001  0.000000e+000
      vertex -4.323590e+001  1.577454e+001  0.000000e+000
      vertex -4.242042e+001  1.168367e+001  0.000000e+000
    endloop
  endfacet
  facet normal  0.000000e+000  0.000000e+000  1.000000e+000
    outer loop
      vertex -4.242042e+001  1.168367e+001  0.000000e+000
      vertex -4.323590e+001  1.577454e+001  0.000000e+000
      vertex -4.535934e+001  7.791632e+000  0.000000e+000
    endloop
  endfacet
  facet normal  -0.000000e+000  0.000000e+000  1.000000e+000
    outer loop
      vertex -4.242042e+001  1.168367e+001  0.000000e+000
      vertex -4.535934e+001  7.791632e+000  0.000000e+000
      vertex -4.384288e+001  3.715052e+000  0.000000e+000
    endloop
  endfacet
  facet normal  0.000000e+000  0.000000e+000  1.000000e+000
    outer loop
      vertex -4.384288e+001  3.715052e+000  0.000000e+000
      vertex -4.535934e+001  7.791632e+000  0.000000e+000
      vertex -4.602155e+001 -4.422774e-001  0.000000e+000
    endloop
  endfacet
  facet normal  -0.000000e+000  0.000000e+000  1.000000e+000
    outer loop
      vertex -4.384288e+001  3.715052e+000  0.000000e+000
      vertex -4.602155e+001 -4.422774e-001  0.000000e+000
      vertex -4.378152e+001 -4.379298e+000  0.000000e+000
    endloop
  endfacet
  facet normal  0.000000e+000  0.000000e+000  1.000000e+000
    outer loop
      vertex -4.520121e+001 -8.661939e+000  0.000000e+000
      vertex -4.223841e+001 -1.232543e+001  0.000000e+000
      vertex -4.602155e+001 -4.422774e-001  0.000000e+000
    endloop
  endfacet
  facet normal  0.000000e+000  0.000000e+000  1.000000e+000
    outer loop
      vertex -4.602155e+001 -4.422774e-001  0.000000e+000
      vertex -4.223841e+001 -1.232543e+001  0.000000e+000
      vertex -4.378152e+001 -4.379298e+000  0.000000e+000
    endloop
  endfacet
  facet normal -2.588188e-001 -9.659259e-001  -0.000000e+000
    outer loop
      vertex -1.250000e+002 -1.900000e+001  0.000000e+000
      vertex -1.250000e+002 -1.900000e+001  1.500000e+000
      vertex -1.275000e+002 -1.833013e+001  0.000000e+000
    endloop
  endfacet
  facet normal -2.588188e-001 -9.659259e-001  0.000000e+000
    outer loop
      vertex -1.275000e+002 -1.833013e+001  0.000000e+000
      vertex -1.250000e+002 -1.900000e+001  1.500000e+000
      vertex -1.275000e+002 -1.833013e+001  1.500000e+000
    endloop
  endfacet
  facet normal -7.071075e-001 -7.071060e-001  -0.000000e+000
    outer loop
      vertex -1.275000e+002 -1.833013e+001  0.000000e+000
      vertex -1.275000e+002 -1.833013e+001  1.500000e+000
      vertex -1.293301e+002 -1.650000e+001  0.000000e+000
    endloop
  endfacet
  facet normal -7.071075e-001 -7.071060e-001  0.000000e+000
    outer loop
      vertex -1.293301e+002 -1.650000e+001  0.000000e+000
      vertex -1.275000e+002 -1.833013e+001  1.500000e+000
      vertex -1.293301e+002 -1.650000e+001  1.500000e+000
    endloop
  endfacet
  facet normal -9.659256e-001 -2.588202e-001  -0.000000e+000
    outer loop
      vertex -1.293301e+002 -1.650000e+001  0.000000e+000
      vertex -1.293301e+002 -1.650000e+001  1.500000e+000
      vertex -1.300000e+002 -1.400000e+001  0.000000e+000
    endloop
  endfacet
  facet normal -9.659256e-001 -2.588202e-001  0.000000e+000
    outer loop
      vertex -1.300000e+002 -1.400000e+001  0.000000e+000
      vertex -1.293301e+002 -1.650000e+001  1.500000e+000
      vertex -1.300000e+002 -1.400000e+001  1.500000e+000
    endloop
  endfacet
  facet normal -1.000000e+000  -0.000000e+000  0.000000e+000
    outer loop
      vertex -1.300000e+002 -1.400000e+001  1.500000e+000
      vertex -1.300000e+002  1.364000e+001  1.500000e+000
      vertex -1.300000e+002 -1.400000e+001  0.000000e+000
    endloop
  endfacet
  facet normal -1.000000e+000  0.000000e+000  0.000000e+000
    outer loop
      vertex -1.300000e+002 -1.400000e+001  0.000000e+000
      vertex -1.300000e+002  1.364000e+001  1.500000e+000
      vertex -1.300000e+002  1.364000e+001  0.000000e+000
    endloop
  endfacet
  facet normal -9.884940e-001  1.512597e-001  0.000000e+000
    outer loop
      vertex -1.300000e+002  1.364000e+001  0.000000e+000
      vertex -1.300000e+002  1.364000e+001  1.500000e+000
      vertex -1.292221e+002  1.872369e+001  0.000000e+000
    endloop
  endfacet
  facet normal -9.884940e-001  1.512597e-001  0.000000e+000
    outer loop
      vertex -1.292221e+002  1.872369e+001  0.000000e+000
      vertex -1.300000e+002  1.364000e+001  1.500000e+000
      vertex -1.292221e+002  1.872369e+001  1.500000e+000
    endloop
  endfacet
  facet normal -8.980269e-001  4.399406e-001  0.000000e+000
    outer loop
      vertex -1.292221e+002  1.872369e+001  0.000000e+000
      vertex -1.292221e+002  1.872369e+001  1.500000e+000
      vertex -1.269595e+002  2.334213e+001  0.000000e+000
    endloop
  endfacet
  facet normal -8.980269e-001  4.399406e-001  0.000000e+000
    outer loop
      vertex -1.269595e+002  2.334213e+001  0.000000e+000
      vertex -1.292221e+002  1.872369e+001  1.500000e+000
      vertex -1.269595e+002  2.334213e+001  1.500000e+000
    endloop
  endfacet
  facet normal -7.253745e-001  6.883544e-001  0.000000e+000
    outer loop
      vertex -1.269595e+002  2.334213e+001  0.000000e+000
      vertex -1.269595e+002  2.334213e+001  1.500000e+000
      vertex -1.234194e+002  2.707264e+001  0.000000e+000
    endloop
  endfacet
  facet normal -7.253745e-001  6.883544e-001  0.000000e+000
    outer loop
      vertex -1.234194e+002  2.707264e+001  0.000000e+000
      vertex -1.269595e+002  2.334213e+001  1.500000e+000
      vertex -1.234194e+002  2.707264e+001  1.500000e+000
    endloop
  endfacet
  facet normal -4.863357e-001  8.737721e-001  0.000000e+000
    outer loop
      vertex -1.234194e+002  2.707264e+001  0.000000e+000
      vertex -1.234194e+002  2.707264e+001  1.500000e+000
      vertex -1.189257e+002  2.957379e+001  0.000000e+000
    endloop
  endfacet
  facet normal -4.863357e-001  8.737721e-001  0.000000e+000
    outer loop
      vertex -1.189257e+002  2.957379e+001  0.000000e+000
      vertex -1.234194e+002  2.707264e+001  1.500000e+000
      vertex -1.189257e+002  2.957379e+001  1.500000e+000
    endloop
  endfacet
  facet normal -2.027874e-001  9.792228e-001  0.000000e+000
    outer loop
      vertex -1.189257e+002  2.957379e+001  0.000000e+000
      vertex -1.189257e+002  2.957379e+001  1.500000e+000
      vertex -1.138897e+002  3.061670e+001  0.000000e+000
    endloop
  endfacet
  facet normal -2.027874e-001  9.792228e-001  0.000000e+000
    outer loop
      vertex -1.138897e+002  3.061670e+001  0.000000e+000
      vertex -1.189257e+002  2.957379e+001  1.500000e+000
      vertex -1.138897e+002  3.061670e+001  1.500000e+000
    endloop
  endfacet
  facet normal -5.233594e-002  9.986295e-001  0.000000e+000
    outer loop
      vertex -1.138897e+002  3.061670e+001  1.500000e+000
      vertex -4.159502e+001  3.440551e+001  1.500000e+000
      vertex -1.138897e+002  3.061670e+001  0.000000e+000
    endloop
  endfacet
  facet normal -5.233594e-002  9.986295e-001  0.000000e+000
    outer loop
      vertex -1.138897e+002  3.061670e+001  0.000000e+000
      vertex -4.159502e+001  3.440551e+001  1.500000e+000
      vertex -4.159502e+001  3.440551e+001  0.000000e+000
    endloop
  endfacet
  facet normal  1.454271e-001  9.893690e-001  0.000000e+000
    outer loop
      vertex -4.159502e+001  3.440551e+001  0.000000e+000
      vertex -4.159502e+001  3.440551e+001  1.500000e+000
      vertex -3.808658e+001  3.388980e+001  0.000000e+000
    endloop
  endfacet
  facet normal  1.454271e-001  9.893690e-001  -0.000000e+000
    outer loop
      vertex -3.808658e+001  3.388980e+001  0.000000e+000
      vertex -4.159502e+001  3.440551e+001  1.500000e+000
      vertex -3.808658e+001  3.388980e+001  1.500000e+000
    endloop
  endfacet
  facet normal  5.163263e-001  8.563919e-001  0.000000e+000
    outer loop
      vertex -3.808658e+001  3.388980e+001  0.000000e+000
      vertex -3.808658e+001  3.388980e+001  1.500000e+000
      vertex -3.504969e+001  3.205883e+001  0.000000e+000
    endloop
  endfacet
  facet normal  5.163263e-001  8.563919e-001  -0.000000e+000
    outer loop
      vertex -3.504969e+001  3.205883e+001  0.000000e+000
      vertex -3.808658e+001  3.388980e+001  1.500000e+000
      vertex -3.504969e+001  3.205883e+001  1.500000e+000
    endloop
  endfacet
  facet normal  9.025553e-001  4.305738e-001  0.000000e+000
    outer loop
      vertex -3.504969e+001  3.205883e+001  0.000000e+000
      vertex -3.504969e+001  3.205883e+001  1.500000e+000
      vertex -3.456481e+001  3.104243e+001  0.000000e+000
    endloop
  endfacet
  facet normal  9.025553e-001  4.305738e-001  -0.000000e+000
    outer loop
      vertex -3.456481e+001  3.104243e+001  0.000000e+000
      vertex -3.504969e+001  3.205883e+001  1.500000e+000
      vertex -3.456481e+001  3.104243e+001  1.500000e+000
    endloop
  endfacet
  facet normal  9.478155e-001 -3.188195e-001  0.000000e+000
    outer loop
      vertex -3.456481e+001  3.104243e+001  0.000000e+000
      vertex -3.456481e+001  3.104243e+001  1.500000e+000
      vertex -3.492384e+001  2.997506e+001  0.000000e+000
    endloop
  endfacet
  facet normal  9.478155e-001 -3.188195e-001  0.000000e+000
    outer loop
      vertex -3.492384e+001  2.997506e+001  0.000000e+000
      vertex -3.456481e+001  3.104243e+001  1.500000e+000
      vertex -3.492384e+001  2.997506e+001  1.500000e+000
    endloop
  endfacet
  facet normal  9.967815e-001 -8.016665e-002  0.000000e+000
    outer loop
      vertex -4.535934e+001  7.791632e+000  0.000000e+000
      vertex -4.602155e+001 -4.422774e-001  1.500000e+000
      vertex -4.602155e+001 -4.422774e-001  0.000000e+000
    endloop
  endfacet
  facet normal  9.950567e-001  9.930871e-002  -0.000000e+000
    outer loop
      vertex -4.602155e+001 -4.422774e-001  0.000000e+000
      vertex -4.602155e+001 -4.422774e-001  1.500000e+000
      vertex -4.520121e+001 -8.661939e+000  1.500000e+000
    endloop
  endfacet
  facet normal  9.950567e-001  9.930871e-002  0.000000e+000
    outer loop
      vertex -4.602155e+001 -4.422774e-001  0.000000e+000
      vertex -4.520121e+001 -8.661939e+000  1.500000e+000
      vertex -4.520121e+001 -8.661939e+000  0.000000e+000
    endloop
  endfacet
  facet normal  9.612768e-001  2.755847e-001  -0.000000e+000
    outer loop
      vertex -4.520121e+001 -8.661939e+000  0.000000e+000
      vertex -4.520121e+001 -8.661939e+000  1.500000e+000
      vertex -4.292475e+001 -1.660256e+001  1.500000e+000
    endloop
  endfacet
  facet normal  9.612768e-001  2.755847e-001  0.000000e+000
    outer loop
      vertex -4.520121e+001 -8.661939e+000  0.000000e+000
      vertex -4.292475e+001 -1.660256e+001  1.500000e+000
      vertex -4.292475e+001 -1.660256e+001  0.000000e+000
    endloop
  endfacet
  facet normal  9.967815e-001 -8.016665e-002  0.000000e+000
    outer loop
      vertex -4.602155e+001 -4.422774e-001  1.500000e+000
      vertex -4.535934e+001  7.791632e+000  0.000000e+000
      vertex -4.535934e+001  7.791632e+000  1.500000e+000
    endloop
  endfacet
  facet normal  9.663955e-001 -2.570595e-001  0.000000e+000
    outer loop
      vertex -4.535934e+001  7.791632e+000  1.500000e+000
      vertex -4.535934e+001  7.791632e+000  0.000000e+000
      vertex -4.323590e+001  1.577454e+001  0.000000e+000
    endloop
  endfacet
  facet normal  9.663955e-001 -2.570595e-001  0.000000e+000
    outer loop
      vertex -4.535934e+001  7.791632e+000  1.500000e+000
      vertex -4.323590e+001  1.577454e+001  0.000000e+000
      vertex -4.323590e+001  1.577454e+001  1.500000e+000
    endloop
  endfacet
  facet normal  9.048779e-001 -4.256711e-001  0.000000e+000
    outer loop
      vertex -4.323590e+001  1.577454e+001  1.500000e+000
      vertex -4.323590e+001  1.577454e+001  0.000000e+000
      vertex -3.971964e+001  2.324928e+001  0.000000e+000
    endloop
  endfacet
  facet normal  9.048779e-001 -4.256711e-001  0.000000e+000
    outer loop
      vertex -4.323590e+001  1.577454e+001  1.500000e+000
      vertex -3.971964e+001  2.324928e+001  0.000000e+000
      vertex -3.971964e+001  2.324928e+001  1.500000e+000
    endloop
  endfacet
  facet normal  8.142101e-001 -5.805705e-001  0.000000e+000
    outer loop
      vertex -3.971964e+001  2.324928e+001  1.500000e+000
      vertex -3.971964e+001  2.324928e+001  0.000000e+000
      vertex -3.492384e+001  2.997506e+001  0.000000e+000
    endloop
  endfacet
  facet normal  8.142101e-001 -5.805705e-001  0.000000e+000
    outer loop
      vertex -3.971964e+001  2.324928e+001  1.500000e+000
      vertex -3.492384e+001  2.997506e+001  0.000000e+000
      vertex -3.492384e+001  2.997506e+001  1.500000e+000
    endloop
  endfacet
  facet normal  9.998760e-001 -1.574467e-002  0.000000e+000
    outer loop
      vertex -4.292475e+001 -1.660256e+001  0.000000e+000
      vertex -4.292475e+001 -1.660256e+001  1.500000e+000
      vertex -4.294248e+001 -1.772856e+001  0.000000e+000
    endloop
  endfacet
  facet normal  9.998760e-001 -1.574467e-002  0.000000e+000
    outer loop
      vertex -4.294248e+001 -1.772856e+001  0.000000e+000
      vertex -4.292475e+001 -1.660256e+001  1.500000e+000
      vertex -4.294248e+001 -1.772856e+001  1.500000e+000
    endloop
  endfacet
  facet normal  7.071331e-001 -7.070805e-001  0.000000e+000
    outer loop
      vertex -4.294248e+001 -1.772856e+001  0.000000e+000
      vertex -4.294248e+001 -1.772856e+001  1.500000e+000
      vertex -4.373875e+001 -1.852489e+001  0.000000e+000
    endloop
  endfacet
  facet normal  7.071331e-001 -7.070805e-001  0.000000e+000
    outer loop
      vertex -4.373875e+001 -1.852489e+001  0.000000e+000
      vertex -4.294248e+001 -1.772856e+001  1.500000e+000
      vertex -4.373875e+001 -1.852489e+001  1.500000e+000
    endloop
  endfacet
  facet normal  1.989778e-001 -9.800040e-001  0.000000e+000
    outer loop
      vertex -4.607874e+001 -1.900000e+001  1.500000e+000
      vertex -4.607874e+001 -1.900000e+001  0.000000e+000
      vertex -4.373875e+001 -1.852489e+001  1.500000e+000
    endloop
  endfacet
  facet normal  1.989778e-001 -9.800040e-001  0.000000e+000
    outer loop
      vertex -4.373875e+001 -1.852489e+001  1.500000e+000
      vertex -4.607874e+001 -1.900000e+001  0.000000e+000
      vertex -4.373875e+001 -1.852489e+001  0.000000e+000
    endloop
  endfacet
  facet normal  0.000000e+000 -1.000000e+000  0.000000e+000
    outer loop
      vertex -1.250000e+002 -1.900000e+001  1.500000e+000
      vertex -1.250000e+002 -1.900000e+001  0.000000e+000
      vertex -4.607874e+001 -1.900000e+001  1.500000e+000
    endloop
  endfacet
  facet normal  0.000000e+000 -1.000000e+000  -0.000000e+000
    outer loop
      vertex -4.607874e+001 -1.900000e+001  1.500000e+000
      vertex -1.250000e+002 -1.900000e+001  0.000000e+000
      vertex -4.607874e+001 -1.900000e+001  0.000000e+000
    endloop
  endfacet
  facet normal  0.000000e+000  0.000000e+000 -1.000000e+000
    outer loop
      vertex -3.926579e+001 -1.985443e+001 -1.500000e+000
      vertex -4.197321e+001 -2.050000e+001 -1.500000e+000
      vertex -1.255000e+002 -2.050000e+001 -1.500000e+000
    endloop
  endfacet
  facet normal  0.000000e+000  0.000000e+000 -1.000000e+000
    outer loop
      vertex -3.926579e+001 -1.985443e+001 -1.500000e+000
      vertex -1.255000e+002 -2.050000e+001 -1.500000e+000
      vertex -1.277961e+002 -2.004328e+001 -1.500000e+000
    endloop
  endfacet
  facet normal  0.000000e+000  0.000000e+000 -1.000000e+000
    outer loop
      vertex -3.926579e+001 -1.985443e+001 -1.500000e+000
      vertex -1.277961e+002 -2.004328e+001 -1.500000e+000
      vertex -1.297426e+002 -1.874264e+001 -1.500000e+000
    endloop
  endfacet
  facet normal  0.000000e+000  0.000000e+000 -1.000000e+000
    outer loop
      vertex -3.926579e+001 -1.985443e+001 -1.500000e+000
      vertex -1.297426e+002 -1.874264e+001 -1.500000e+000
      vertex -1.310433e+002 -1.679610e+001 -1.500000e+000
    endloop
  endfacet
  facet normal  0.000000e+000  0.000000e+000 -9.999999e-001
    outer loop
      vertex -3.926579e+001 -1.985443e+001 -1.500000e+000
      vertex -1.310433e+002 -1.679610e+001 -1.500000e+000
      vertex -1.315000e+002 -1.450000e+001 -1.500000e+000
    endloop
  endfacet
  facet normal  0.000000e+000  0.000000e+000 -1.000000e+000
    outer loop
      vertex -3.926579e+001 -1.985443e+001 -1.500000e+000
      vertex -1.315000e+002 -1.450000e+001 -1.500000e+000
      vertex -4.223841e+001 -1.232543e+001 -1.500000e+000
    endloop
  endfacet
  facet normal  0.000000e+000  -0.000000e+000 -1.000000e+000
    outer loop
      vertex -1.139682e+002  3.211465e+001 -1.500000e+000
      vertex -3.938478e+001  3.602340e+001 -1.500000e+000
      vertex -3.591704e+001  3.569901e+001 -1.500000e+000
    endloop
  endfacet
  facet normal  0.000000e+000  -0.000000e+000 -1.000000e+000
    outer loop
      vertex -1.139682e+002  3.211465e+001 -1.500000e+000
      vertex -3.591704e+001  3.569901e+001 -1.500000e+000
      vertex -3.268851e+001  3.439245e+001 -1.500000e+000
    endloop
  endfacet
  facet normal  0.000000e+000  -0.000000e+000 -1.000000e+000
    outer loop
      vertex -1.139682e+002  3.211465e+001 -1.500000e+000
      vertex -3.268851e+001  3.439245e+001 -1.500000e+000
      vertex -2.997117e+001  3.221380e+001 -1.500000e+000
    endloop
  endfacet
  facet normal  0.000000e+000  0.000000e+000 -1.000000e+000
    outer loop
      vertex -1.139682e+002  3.211465e+001 -1.500000e+000
      vertex -2.997117e+001  3.221380e+001 -1.500000e+000
      vertex -3.536517e+001  2.617832e+001 -1.500000e+000
    endloop
  endfacet
  facet normal  0.000000e+000  0.000000e+000 -1.000000e+000
    outer loop
      vertex -3.536517e+001  2.617832e+001 -1.500000e+000
      vertex -3.956227e+001  1.925686e+001 -1.500000e+000
      vertex -1.291805e+002  2.260898e+001 -1.500000e+000
    endloop
  endfacet
  facet normal  0.000000e+000  0.000000e+000 -1.000000e+000
    outer loop
      vertex -3.536517e+001  2.617832e+001 -1.500000e+000
      vertex -1.291805e+002  2.260898e+001 -1.500000e+000
      vertex -1.264194e+002  2.637456e+001 -1.500000e+000
    endloop
  endfacet
  facet normal  0.000000e+000  0.000000e+000 -1.000000e+000
    outer loop
      vertex -3.536517e+001  2.617832e+001 -1.500000e+000
      vertex -1.264194e+002  2.637456e+001 -1.500000e+000
      vertex -1.228035e+002  2.932889e+001 -1.500000e+000
    endloop
  endfacet
  facet normal  0.000000e+000  0.000000e+000 -1.000000e+000
    outer loop
      vertex -3.536517e+001  2.617832e+001 -1.500000e+000
      vertex -1.228035e+002  2.932889e+001 -1.500000e+000
      vertex -1.185631e+002  3.128376e+001 -1.500000e+000
    endloop
  endfacet
  facet normal  0.000000e+000  0.000000e+000 -1.000000e+000
    outer loop
      vertex -3.536517e+001  2.617832e+001 -1.500000e+000
      vertex -1.185631e+002  3.128376e+001 -1.500000e+000
      vertex -1.139682e+002  3.211465e+001 -1.500000e+000
    endloop
  endfacet
  facet normal  0.000000e+000  0.000000e+000 -1.000000e+000
    outer loop
      vertex -1.315000e+002 -1.450000e+001 -1.500000e+000
      vertex -1.315000e+002  1.364000e+001 -1.500000e+000
      vertex -4.242042e+001  1.168367e+001 -1.500000e+000
    endloop
  endfacet
  facet normal  0.000000e+000  0.000000e+000 -1.000000e+000
    outer loop
      vertex -1.315000e+002 -1.450000e+001 -1.500000e+000
      vertex -4.242042e+001  1.168367e+001 -1.500000e+000
      vertex -4.384288e+001  3.715052e+000 -1.500000e+000
    endloop
  endfacet
  facet normal  0.000000e+000  -0.000000e+000 -1.000000e+000
    outer loop
      vertex -1.315000e+002 -1.450000e+001 -1.500000e+000
      vertex -4.384288e+001  3.715052e+000 -1.500000e+000
      vertex -4.378152e+001 -4.379298e+000 -1.500000e+000
    endloop
  endfacet
  facet normal  0.000000e+000  -0.000000e+000 -1.000000e+000
    outer loop
      vertex -1.315000e+002 -1.450000e+001 -1.500000e+000
      vertex -4.378152e+001 -4.379298e+000 -1.500000e+000
      vertex -4.223841e+001 -1.232543e+001 -1.500000e+000
    endloop
  endfacet
  facet normal  -0.000000e+000  0.000000e+000 -1.000000e+000
    outer loop
      vertex -1.291805e+002  2.260898e+001 -1.500000e+000
      vertex -3.956227e+001  1.925686e+001 -1.500000e+000
      vertex -1.309107e+002  1.827203e+001 -1.500000e+000
    endloop
  endfacet
  facet normal  0.000000e+000  0.000000e+000 -1.000000e+000
    outer loop
      vertex -1.309107e+002  1.827203e+001 -1.500000e+000
      vertex -3.956227e+001  1.925686e+001 -1.500000e+000
      vertex -4.242042e+001  1.168367e+001 -1.500000e+000
    endloop
  endfacet
  facet normal  0.000000e+000  0.000000e+000 -1.000000e+000
    outer loop
      vertex -1.309107e+002  1.827203e+001 -1.500000e+000
      vertex -4.242042e+001  1.168367e+001 -1.500000e+000
      vertex -1.315000e+002  1.364000e+001 -1.500000e+000
    endloop
  endfacet
  facet normal -1.950904e-001 -9.807853e-001  -0.000000e+000
    outer loop
      vertex -1.255000e+002 -2.050000e+001 -1.500000e+000
      vertex -1.255000e+002 -2.050000e+001  0.000000e+000
      vertex -1.277961e+002 -2.004328e+001 -1.500000e+000
    endloop
  endfacet
  facet normal -1.950904e-001 -9.807853e-001  0.000000e+000
    outer loop
      vertex -1.277961e+002 -2.004328e+001 -1.500000e+000
      vertex -1.255000e+002 -2.050000e+001  0.000000e+000
      vertex -1.277961e+002 -2.004328e+001  0.000000e+000
    endloop
  endfacet
  facet normal -5.555686e-001 -8.314708e-001  -0.000000e+000
    outer loop
      vertex -1.277961e+002 -2.004328e+001 -1.500000e+000
      vertex -1.277961e+002 -2.004328e+001  0.000000e+000
      vertex -1.297426e+002 -1.874264e+001 -1.500000e+000
    endloop
  endfacet
  facet normal -5.555686e-001 -8.314708e-001  0.000000e+000
    outer loop
      vertex -1.297426e+002 -1.874264e+001 -1.500000e+000
      vertex -1.277961e+002 -2.004328e+001  0.000000e+000
      vertex -1.297426e+002 -1.874264e+001  0.000000e+000
    endloop
  endfacet
  facet normal -8.314712e-001 -5.555677e-001  -0.000000e+000
    outer loop
      vertex -1.297426e+002 -1.874264e+001 -1.500000e+000
      vertex -1.297426e+002 -1.874264e+001  0.000000e+000
      vertex -1.310433e+002 -1.679610e+001 -1.500000e+000
    endloop
  endfacet
  facet normal -8.314712e-001 -5.555677e-001  0.000000e+000
    outer loop
      vertex -1.310433e+002 -1.679610e+001 -1.500000e+000
      vertex -1.297426e+002 -1.874264e+001  0.000000e+000
      vertex -1.310433e+002 -1.679610e+001  0.000000e+000
    endloop
  endfacet
  facet normal -9.807851e-001 -1.950917e-001  -0.000000e+000
    outer loop
      vertex -1.310433e+002 -1.679610e+001 -1.500000e+000
      vertex -1.310433e+002 -1.679610e+001  0.000000e+000
      vertex -1.315000e+002 -1.450000e+001 -1.500000e+000
    endloop
  endfacet
  facet normal -9.807851e-001 -1.950917e-001  0.000000e+000
    outer loop
      vertex -1.315000e+002 -1.450000e+001 -1.500000e+000
      vertex -1.310433e+002 -1.679610e+001  0.000000e+000
      vertex -1.315000e+002 -1.450000e+001  0.000000e+000
    endloop
  endfacet
  facet normal -1.000000e+000  0.000000e+000  0.000000e+000
    outer loop
      vertex -1.315000e+002 -1.450000e+001 -1.500000e+000
      vertex -1.315000e+002 -1.450000e+001  0.000000e+000
      vertex -1.315000e+002  1.364000e+001 -1.500000e+000
    endloop
  endfacet
  facet normal -1.000000e+000  0.000000e+000  0.000000e+000
    outer loop
      vertex -1.315000e+002  1.364000e+001 -1.500000e+000
      vertex -1.315000e+002 -1.450000e+001  0.000000e+000
      vertex -1.315000e+002  1.364000e+001  0.000000e+000
    endloop
  endfacet
  facet normal -9.920051e-001  1.261980e-001  0.000000e+000
    outer loop
      vertex -1.315000e+002  1.364000e+001 -1.500000e+000
      vertex -1.315000e+002  1.364000e+001  0.000000e+000
      vertex -1.309107e+002  1.827203e+001 -1.500000e+000
    endloop
  endfacet
  facet normal -9.920051e-001  1.261980e-001  0.000000e+000
    outer loop
      vertex -1.309107e+002  1.827203e+001 -1.500000e+000
      vertex -1.315000e+002  1.364000e+001  0.000000e+000
      vertex -1.309107e+002  1.827203e+001  0.000000e+000
    endloop
  endfacet
  facet normal -9.288093e-001  3.705581e-001  0.000000e+000
    outer loop
      vertex -1.309107e+002  1.827203e+001 -1.500000e+000
      vertex -1.309107e+002  1.827203e+001  0.000000e+000
      vertex -1.291805e+002  2.260898e+001 -1.500000e+000
    endloop
  endfacet
  facet normal -9.288093e-001  3.705581e-001  0.000000e+000
    outer loop
      vertex -1.291805e+002  2.260898e+001 -1.500000e+000
      vertex -1.309107e+002  1.827203e+001  0.000000e+000
      vertex -1.291805e+002  2.260898e+001  0.000000e+000
    endloop
  endfacet
  facet normal -8.064444e-001  5.913098e-001  0.000000e+000
    outer loop
      vertex -1.291805e+002  2.260898e+001 -1.500000e+000
      vertex -1.291805e+002  2.260898e+001  0.000000e+000
      vertex -1.264194e+002  2.637456e+001 -1.500000e+000
    endloop
  endfacet
  facet normal -8.064444e-001  5.913098e-001  0.000000e+000
    outer loop
      vertex -1.264194e+002  2.637456e+001 -1.500000e+000
      vertex -1.291805e+002  2.260898e+001  0.000000e+000
      vertex -1.264194e+002  2.637456e+001  0.000000e+000
    endloop
  endfacet
  facet normal -6.327052e-001  7.743927e-001  0.000000e+000
    outer loop
      vertex -1.264194e+002  2.637456e+001 -1.500000e+000
      vertex -1.264194e+002  2.637456e+001  0.000000e+000
      vertex -1.228035e+002  2.932889e+001 -1.500000e+000
    endloop
  endfacet
  facet normal -6.327052e-001  7.743927e-001  0.000000e+000
    outer loop
      vertex -1.228035e+002  2.932889e+001 -1.500000e+000
      vertex -1.264194e+002  2.637456e+001  0.000000e+000
      vertex -1.228035e+002  2.932889e+001  0.000000e+000
    endloop
  endfacet
  facet normal -4.186599e-001  9.081432e-001  0.000000e+000
    outer loop
      vertex -1.228035e+002  2.932889e+001 -1.500000e+000
      vertex -1.228035e+002  2.932889e+001  0.000000e+000
      vertex -1.185631e+002  3.128376e+001 -1.500000e+000
    endloop
  endfacet
  facet normal -4.186599e-001  9.081432e-001  0.000000e+000
    outer loop
      vertex -1.185631e+002  3.128376e+001 -1.500000e+000
      vertex -1.228035e+002  2.932889e+001  0.000000e+000
      vertex -1.185631e+002  3.128376e+001  0.000000e+000
    endloop
  endfacet
  facet normal -1.779436e-001  9.840407e-001  0.000000e+000
    outer loop
      vertex -1.185631e+002  3.128376e+001 -1.500000e+000
      vertex -1.185631e+002  3.128376e+001  0.000000e+000
      vertex -1.139682e+002  3.211465e+001 -1.500000e+000
    endloop
  endfacet
  facet normal -1.779436e-001  9.840407e-001  0.000000e+000
    outer loop
      vertex -1.139682e+002  3.211465e+001 -1.500000e+000
      vertex -1.185631e+002  3.128376e+001  0.000000e+000
      vertex -1.139682e+002  3.211465e+001  0.000000e+000
    endloop
  endfacet
  facet normal -5.233596e-002  9.986296e-001  0.000000e+000
    outer loop
      vertex -1.139682e+002  3.211465e+001 -1.500000e+000
      vertex -1.139682e+002  3.211465e+001  0.000000e+000
      vertex -3.938478e+001  3.602340e+001 -1.500000e+000
    endloop
  endfacet
  facet normal -5.233596e-002  9.986296e-001  0.000000e+000
    outer loop
      vertex -3.938478e+001  3.602340e+001 -1.500000e+000
      vertex -1.139682e+002  3.211465e+001  0.000000e+000
      vertex -3.938478e+001  3.602340e+001  0.000000e+000
    endloop
  endfacet
  facet normal  9.313957e-002  9.956530e-001  0.000000e+000
    outer loop
      vertex -3.938478e+001  3.602340e+001 -1.500000e+000
      vertex -3.938478e+001  3.602340e+001  0.000000e+000
      vertex -3.591704e+001  3.569901e+001 -1.500000e+000
    endloop
  endfacet
  facet normal  9.313957e-002  9.956530e-001  -0.000000e+000
    outer loop
      vertex -3.591704e+001  3.569901e+001 -1.500000e+000
      vertex -3.938478e+001  3.602340e+001  0.000000e+000
      vertex -3.591704e+001  3.569901e+001  0.000000e+000
    endloop
  endfacet
  facet normal  3.751355e-001  9.269699e-001  0.000000e+000
    outer loop
      vertex -3.591704e+001  3.569901e+001 -1.500000e+000
      vertex -3.591704e+001  3.569901e+001  0.000000e+000
      vertex -3.268851e+001  3.439245e+001 -1.500000e+000
    endloop
  endfacet
  facet normal  3.751355e-001  9.269699e-001  -0.000000e+000
    outer loop
      vertex -3.268851e+001  3.439245e+001 -1.500000e+000
      vertex -3.591704e+001  3.569901e+001  0.000000e+000
      vertex -3.268851e+001  3.439245e+001  0.000000e+000
    endloop
  endfacet
  facet normal  6.255313e-001  7.801991e-001  0.000000e+000
    outer loop
      vertex -3.268851e+001  3.439245e+001 -1.500000e+000
      vertex -3.268851e+001  3.439245e+001  0.000000e+000
      vertex -2.997117e+001  3.221380e+001 -1.500000e+000
    endloop
  endfacet
  facet normal  6.255313e-001  7.801991e-001  -0.000000e+000
    outer loop
      vertex -2.997117e+001  3.221380e+001 -1.500000e+000
      vertex -3.268851e+001  3.439245e+001  0.000000e+000
      vertex -2.997117e+001  3.221380e+001  0.000000e+000
    endloop
  endfacet
  facet normal  9.999713e-001  7.580306e-003  0.000000e+000
    outer loop
      vertex -4.384288e+001  3.715052e+000 -1.500000e+000
      vertex -4.378152e+001 -4.379298e+000  0.000000e+000
      vertex -4.378152e+001 -4.379298e+000 -1.500000e+000
    endloop
  endfacet
  facet normal  9.816610e-001  1.906349e-001  -0.000000e+000
    outer loop
      vertex -4.378152e+001 -4.379298e+000 -1.500000e+000
      vertex -4.378152e+001 -4.379298e+000  0.000000e+000
      vertex -4.223841e+001 -1.232543e+001  0.000000e+000
    endloop
  endfacet
  facet normal  9.816610e-001  1.906349e-001  0.000000e+000
    outer loop
      vertex -4.378152e+001 -4.379298e+000 -1.500000e+000
      vertex -4.223841e+001 -1.232543e+001  0.000000e+000
      vertex -4.223841e+001 -1.232543e+001 -1.500000e+000
    endloop
  endfacet
  facet normal  9.301274e-001  3.672369e-001  -0.000000e+000
    outer loop
      vertex -4.223841e+001 -1.232543e+001 -1.500000e+000
      vertex -4.223841e+001 -1.232543e+001  0.000000e+000
      vertex -3.926579e+001 -1.985443e+001  0.000000e+000
    endloop
  endfacet
  facet normal  9.301274e-001  3.672369e-001  0.000000e+000
    outer loop
      vertex -4.223841e+001 -1.232543e+001 -1.500000e+000
      vertex -3.926579e+001 -1.985443e+001  0.000000e+000
      vertex -3.926579e+001 -1.985443e+001 -1.500000e+000
    endloop
  endfacet
  facet normal  9.999713e-001  7.580306e-003  -0.000000e+000
    outer loop
      vertex -4.378152e+001 -4.379298e+000  0.000000e+000
      vertex -4.384288e+001  3.715052e+000 -1.500000e+000
      vertex -4.384288e+001  3.715052e+000  0.000000e+000
    endloop
  endfacet
  facet normal  9.844382e-001 -1.757307e-001  0.000000e+000
    outer loop
      vertex -4.384288e+001  3.715052e+000  0.000000e+000
      vertex -4.384288e+001  3.715052e+000 -1.500000e+000
      vertex -4.242042e+001  1.168367e+001 -1.500000e+000
    endloop
  endfacet
  facet normal  9.844382e-001 -1.757307e-001  0.000000e+000
    outer loop
      vertex -4.384288e+001  3.715052e+000  0.000000e+000
      vertex -4.242042e+001  1.168367e+001 -1.500000e+000
      vertex -4.242042e+001  1.168367e+001  0.000000e+000
    endloop
  endfacet
  facet normal  9.355880e-001 -3.530938e-001  0.000000e+000
    outer loop
      vertex -4.242042e+001  1.168367e+001  0.000000e+000
      vertex -4.242042e+001  1.168367e+001 -1.500000e+000
      vertex -3.956227e+001  1.925686e+001 -1.500000e+000
    endloop
  endfacet
  facet normal  9.355880e-001 -3.530938e-001  0.000000e+000
    outer loop
      vertex -4.242042e+001  1.168367e+001  0.000000e+000
      vertex -3.956227e+001  1.925686e+001 -1.500000e+000
      vertex -3.956227e+001  1.925686e+001  0.000000e+000
    endloop
  endfacet
  facet normal  8.550733e-001 -5.185071e-001  0.000000e+000
    outer loop
      vertex -3.956227e+001  1.925686e+001  0.000000e+000
      vertex -3.956227e+001  1.925686e+001 -1.500000e+000
      vertex -3.536517e+001  2.617832e+001 -1.500000e+000
    endloop
  endfacet
  facet normal  8.550733e-001 -5.185071e-001  0.000000e+000
    outer loop
      vertex -3.956227e+001  1.925686e+001  0.000000e+000
      vertex -3.536517e+001  2.617832e+001 -1.500000e+000
      vertex -3.536517e+001  2.617832e+001  0.000000e+000
    endloop
  endfacet
  facet normal  7.456194e-001 -6.663721e-001  0.000000e+000
    outer loop
      vertex -3.536517e+001  2.617832e+001  0.000000e+000
      vertex -3.536517e+001  2.617832e+001 -1.500000e+000
      vertex -2.997117e+001  3.221380e+001 -1.500000e+000
    endloop
  endfacet
  facet normal  7.456194e-001 -6.663721e-001  0.000000e+000
    outer loop
      vertex -3.536517e+001  2.617832e+001  0.000000e+000
      vertex -2.997117e+001  3.221380e+001 -1.500000e+000
      vertex -2.997117e+001  3.221380e+001  0.000000e+000
    endloop
  endfacet
  facet normal  2.319437e-001 -9.727292e-001  0.000000e+000
    outer loop
      vertex -4.197321e+001 -2.050000e+001  0.000000e+000
      vertex -4.197321e+001 -2.050000e+001 -1.500000e+000
      vertex -3.926579e+001 -1.985443e+001  0.000000e+000
    endloop
  endfacet
  facet normal  2.319437e-001 -9.727292e-001  0.000000e+000
    outer loop
      vertex -3.926579e+001 -1.985443e+001  0.000000e+000
      vertex -4.197321e+001 -2.050000e+001 -1.500000e+000
      vertex -3.926579e+001 -1.985443e+001 -1.500000e+000
    endloop
  endfacet
  facet normal  0.000000e+000 -1.000000e+000  0.000000e+000
    outer loop
      vertex -1.255000e+002 -2.050000e+001 -1.500000e+000
      vertex -4.197321e+001 -2.050000e+001 -1.500000e+000
      vertex -1.255000e+002 -2.050000e+001  0.000000e+000
    endloop
  endfacet
  facet normal  0.000000e+000 -1.000000e+000  0.000000e+000
    outer loop
      vertex -1.255000e+002 -2.050000e+001  0.000000e+000
      vertex -4.197321e+001 -2.050000e+001 -1.500000e+000
      vertex -4.197321e+001 -2.050000e+001  0.000000e+000
    endloop
  endfacet
  facet normal  -0.000000e+000  -0.000000e+000  1.000000e+000
    outer loop
      vertex -1.300000e+002 -1.400000e+001  1.500000e+000
      vertex -1.293301e+002 -1.650000e+001  1.500000e+000
      vertex -4.292475e+001 -1.660256e+001  1.500000e+000
    endloop
  endfacet
  facet normal  0.000000e+000  0.000000e+000  1.000000e+000
    outer loop
      vertex -1.300000e+002 -1.400000e+001  1.500000e+000
      vertex -4.292475e+001 -1.660256e+001  1.500000e+000
      vertex -4.520121e+001 -8.661939e+000  1.500000e+000
    endloop
  endfacet
  facet normal  0.000000e+000  0.000000e+000  1.000000e+000
    outer loop
      vertex -1.300000e+002 -1.400000e+001  1.500000e+000
      vertex -4.520121e+001 -8.661939e+000  1.500000e+000
      vertex -4.602155e+001 -4.422774e-001  1.500000e+000
    endloop
  endfacet
  facet normal  0.000000e+000  -0.000000e+000  1.000000e+000
    outer loop
      vertex -1.300000e+002 -1.400000e+001  1.500000e+000
      vertex -4.602155e+001 -4.422774e-001  1.500000e+000
      vertex -4.535934e+001  7.791632e+000  1.500000e+000
    endloop
  endfacet
  facet normal  0.000000e+000  -0.000000e+000  1.000000e+000
    outer loop
      vertex -1.300000e+002 -1.400000e+001  1.500000e+000
      vertex -4.535934e+001  7.791632e+000  1.500000e+000
      vertex -4.323590e+001  1.577454e+001  1.500000e+000
    endloop
  endfacet
  facet normal  0.000000e+000  0.000000e+000  1.000000e+000
    outer loop
      vertex -1.300000e+002 -1.400000e+001  1.500000e+000
      vertex -4.323590e+001  1.577454e+001  1.500000e+000
      vertex -1.300000e+002  1.364000e+001  1.500000e+000
    endloop
  endfacet
  facet normal  0.000000e+000  0.000000e+000  1.000000e+000
    outer loop
      vertex -1.138897e+002  3.061670e+001  1.500000e+000
      vertex -1.189257e+002  2.957379e+001  1.500000e+000
      vertex -3.492384e+001  2.997506e+001  1.500000e+000
    endloop
  endfacet
  facet normal  0.000000e+000  -0.000000e+000  1.000000e+000
    outer loop
      vertex -1.138897e+002  3.061670e+001  1.500000e+000
      vertex -3.492384e+001  2.997506e+001  1.500000e+000
      vertex -3.456481e+001  3.104243e+001  1.500000e+000
    endloop
  endfacet
  facet normal  0.000000e+000  0.000000e+000  1.000000e+000
    outer loop
      vertex -1.138897e+002  3.061670e+001  1.500000e+000
      vertex -3.456481e+001  3.104243e+001  1.500000e+000
      vertex -3.504969e+001  3.205883e+001  1.500000e+000
    endloop
  endfacet
  facet normal  0.000000e+000  0.000000e+000  1.000000e+000
    outer loop
      vertex -1.138897e+002  3.061670e+001  1.500000e+000
      vertex -3.504969e+001  3.205883e+001  1.500000e+000
      vertex -3.808658e+001  3.388980e+001  1.500000e+000
    endloop
  endfacet
  facet normal  0.000000e+000  0.000000e+000  1.000000e+000
    outer loop
      vertex -1.138897e+002  3.061670e+001  1.500000e+000
      vertex -3.808658e+001  3.388980e+001  1.500000e+000
      vertex -4.159502e+001  3.440551e+001  1.500000e+000
    endloop
  endfacet
  facet normal  -0.000000e+000  0.000000e+000  1.000000e+000
    outer loop
      vertex -3.492384e+001  2.997506e+001  1.500000e+000
      vertex -1.189257e+002  2.957379e+001  1.500000e+000
      vertex -3.971964e+001  2.324928e+001  1.500000e+000
    endloop
  endfacet
  facet normal  0.000000e+000  0.000000e+000  1.000000e+000
    outer loop
      vertex -3.971964e+001  2.324928e+001  1.500000e+000
      vertex -1.189257e+002  2.957379e+001  1.500000e+000
      vertex -1.234194e+002  2.707264e+001  1.500000e+000
    endloop
  endfacet
  facet normal  0.000000e+000  0.000000e+000  1.000000e+000
    outer loop
      vertex -3.971964e+001  2.324928e+001  1.500000e+000
      vertex -1.234194e+002  2.707264e+001  1.500000e+000
      vertex -1.269595e+002  2.334213e+001  1.500000e+000
    endloop
  endfacet
  facet normal  0.000000e+000  0.000000e+000  1.000000e+000
    outer loop
      vertex -3.971964e+001  2.324928e+001  1.500000e+000
      vertex -1.269595e+002  2.334213e+001  1.500000e+000
      vertex -4.323590e+001  1.577454e+001  1.500000e+000
    endloop
  endfacet
  facet normal  0.000000e+000  0.000000e+000  9.999999e-001
    outer loop
      vertex -4.323590e+001  1.577454e+001  1.500000e+000
      vertex -1.269595e+002  2.334213e+001  1.500000e+000
      vertex -1.292221e+002  1.872369e+001  1.500000e+000
    endloop
  endfacet
  facet normal  0.000000e+000  0.000000e+000  1.000000e+000
    outer loop
      vertex -4.323590e+001  1.577454e+001  1.500000e+000
      vertex -1.292221e+002  1.872369e+001  1.500000e+000
      vertex -1.300000e+002  1.364000e+001  1.500000e+000
    endloop
  endfacet
  facet normal  0.000000e+000  0.000000e+000  1.000000e+000
    outer loop
      vertex -4.292475e+001 -1.660256e+001  1.500000e+000
      vertex -1.293301e+002 -1.650000e+001  1.500000e+000
      vertex -4.294248e+001 -1.772856e+001  1.500000e+000
    endloop
  endfacet
  facet normal  0.000000e+000  0.000000e+000  1.000000e+000
    outer loop
      vertex -4.294248e+001 -1.772856e+001  1.500000e+000
      vertex -1.293301e+002 -1.650000e+001  1.500000e+000
      vertex -1.275000e+002 -1.833013e+001  1.500000e+000
    endloop
  endfacet
  facet normal  -0.000000e+000  0.000000e+000  1.000000e+000
    outer loop
      vertex -4.294248e+001 -1.772856e+001  1.500000e+000
      vertex -1.275000e+002 -1.833013e+001  1.500000e+000
      vertex -4.373875e+001 -1.852489e+001  1.500000e+000
    endloop
  endfacet
  facet normal  0.000000e+000  0.000000e+000  1.000000e+000
    outer loop
      vertex -1.250000e+002 -1.900000e+001  1.500000e+000
      vertex -4.607874e+001 -1.900000e+001  1.500000e+000
      vertex -1.275000e+002 -1.833013e+001  1.500000e+000
    endloop
  endfacet
  facet normal  0.000000e+000  0.000000e+000  9.999999e-001
    outer loop
      vertex -1.275000e+002 -1.833013e+001  1.500000e+000
      vertex -4.607874e+001 -1.900000e+001  1.500000e+000
      vertex -4.373875e+001 -1.852489e+001  1.500000e+000
    endloop
  endfacet
endsolid CATIA STL
