<?xml version="1.0" encoding="UTF-8" standalone="no"?>
<!-- Created with Inkscape (http://www.inkscape.org/) -->

<svg
   xmlns:dc="http://purl.org/dc/elements/1.1/"
   xmlns:cc="http://creativecommons.org/ns#"
   xmlns:rdf="http://www.w3.org/1999/02/22-rdf-syntax-ns#"
   xmlns:svg="http://www.w3.org/2000/svg"
   xmlns="http://www.w3.org/2000/svg"
   xmlns:sodipodi="http://sodipodi.sourceforge.net/DTD/sodipodi-0.dtd"
   xmlns:inkscape="http://www.inkscape.org/namespaces/inkscape"
   id="svg3620"
   version="1.1"
   inkscape:version="0.48.2 r9819"
   width="1052.3625"
   height="744.1"
   xml:space="preserve"
   sodipodi:docname="Scheibe_Folie.pdf"><metadata
     id="metadata3626"><rdf:RDF><cc:Work
         rdf:about=""><dc:format>image/svg+xml</dc:format><dc:type
           rdf:resource="http://purl.org/dc/dcmitype/StillImage" /><dc:title></dc:title></cc:Work></rdf:RDF></metadata><defs
     id="defs3624"><inkscape:path-effect
       effect="spiro"
       id="path-effect3714"
       is_visible="true" /><clipPath
       clipPathUnits="userSpaceOnUse"
       id="clipPath3658"><path
         d="m -0.03,-0.03 841.95,0 0,595.33 -841.95,0"
         id="path3660" /></clipPath><clipPath
       clipPathUnits="userSpaceOnUse"
       id="clipPath3670"><path
         d="m -0.03,-0.03 841.95,0 0,595.33 -841.95,0"
         id="path3672" /></clipPath><clipPath
       clipPathUnits="userSpaceOnUse"
       id="clipPath3682"><path
         d="m -0.03,-0.03 841.95,0 0,595.33 -841.95,0"
         id="path3684" /></clipPath><inkscape:path-effect
       effect="spiro"
       id="path-effect3714-8"
       is_visible="true" /></defs><sodipodi:namedview
     pagecolor="#ffffff"
     bordercolor="#666666"
     borderopacity="1"
     objecttolerance="10"
     gridtolerance="10"
     guidetolerance="10"
     inkscape:pageopacity="0"
     inkscape:pageshadow="2"
     inkscape:window-width="1280"
     inkscape:window-height="968"
     id="namedview3622"
     showgrid="false"
     inkscape:zoom="0.8970687"
     inkscape:cx="518.57746"
     inkscape:cy="440.73472"
     inkscape:window-x="-4"
     inkscape:window-y="-4"
     inkscape:window-maximized="1"
     inkscape:current-layer="g3628" /><g
     id="g3628"
     inkscape:groupmode="layer"
     inkscape:label="Scheibe_Folie"
     transform="matrix(1.25,0,0,-1.25,0,744.1)"><path
       d="m 294.05,217.5 236.77,0"
       style="fill:none;stroke:#000000;stroke-opacity:1;stroke-width:0.99;stroke-linecap:butt;stroke-linejoin:miter;stroke-miterlimit:2;stroke-dasharray:none"
       id="path3630" /><path
       d="m 530.82,217.5 0.71,0.02 0.71,0.04 0.7,0.08 0.7,0.1 0.7,0.13 0.69,0.16 0.68,0.19 0.68,0.22 0.66,0.24 0.65,0.28 0.65,0.3 0.15,0.07"
       style="fill:none;stroke:#000000;stroke-opacity:1;stroke-width:0.99;stroke-linecap:butt;stroke-linejoin:miter;stroke-miterlimit:2;stroke-dasharray:none"
       id="path3632" /><path
       d="m 564.84,366.93 -0.51,-0.49 -0.52,-0.48 -0.51,-0.49 -0.51,-0.5 -0.51,-0.49 -0.5,-0.5 -0.5,-0.5 -0.5,-0.51 -0.49,-0.5 -0.49,-0.51 -0.49,-0.52 -0.49,-0.51 -0.48,-0.52 -0.48,-0.52 -0.48,-0.53 -0.48,-0.52 -0.47,-0.53 -0.46,-0.53 -0.47,-0.54 -0.46,-0.53 -0.46,-0.54 -0.46,-0.55 -0.45,-0.54 -0.45,-0.55 -0.45,-0.55 -0.44,-0.55 -0.44,-0.56 -0.44,-0.55 -0.43,-0.56 -0.43,-0.57 -0.43,-0.56 -0.43,-0.57 -0.42,-0.57 -0.42,-0.57 -0.41,-0.58 -0.41,-0.57 -0.41,-0.58 -0.41,-0.58 -0.4,-0.59 -0.4,-0.58 -0.39,-0.59 -0.39,-0.59 -0.39,-0.6 -0.39,-0.59 -0.38,-0.6 -0.38,-0.6 -0.37,-0.6 -0.37,-0.6 -0.37,-0.61 -0.36,-0.6 -0.37,-0.61 -0.35,-0.62 -0.36,-0.61 -0.35,-0.62 -0.34,-0.61 -0.35,-0.62 -0.34,-0.63 -0.33,-0.62 -0.34,-0.63 -0.33,-0.62 -0.32,-0.63 -0.33,-0.63 -0.31,-0.64 -0.32,-0.63 -0.31,-0.64 -0.31,-0.64 -0.3,-0.64 -0.3,-0.64 -0.3,-0.64 -0.29,-0.65 -0.29,-0.64 -0.29,-0.65 -0.28,-0.65 -0.28,-0.65 -0.27,-0.66 -0.27,-0.65 -0.27,-0.66 -0.27,-0.66 -0.26,-0.65 -0.25,-0.67 -0.25,-0.66 -0.25,-0.66 -0.25,-0.67 -0.24,-0.66 -0.24,-0.67 -0.23,-0.67 -0.23,-0.67 -0.22,-0.67 -0.23,-0.67 -0.21,-0.68 -0.22,-0.67 -0.21,-0.68 -0.21,-0.68 -0.2,-0.68 -0.2,-0.68 -0.19,-0.68 -0.19,-0.68 -0.19,-0.69 -0.18,-0.68 -0.18,-0.69 -0.18,-0.68 -0.17,-0.69 -0.17,-0.69 -0.16,-0.69 -0.16,-0.69 -0.16,-0.69 -0.15,-0.69 -0.15,-0.69 -0.14,-0.7 -0.14,-0.69 -0.14,-0.7 -0.13,-0.69 -0.13,-0.7 -0.13,-0.7 -0.12,-0.7 -0.11,-0.7 -0.12,-0.7 -0.1,-0.7 -0.11,-0.7 -0.1,-0.7 -0.1,-0.7 -0.09,-0.7 -0.09,-0.71 -0.08,-0.7 -0.08,-0.7 -0.08,-0.71 -0.07,-0.7 -0.07,-0.71 -0.06,-0.7 -0.07,-0.71 -0.05,-0.71 -0.05,-0.7 -0.05,-0.71 -0.05,-0.71 -0.04,-0.71 -0.03,-0.7 -0.04,-0.71 -0.03,-0.71 -0.02,-0.71 -0.02,-0.71 -0.02,-0.7 -0.01,-0.71 -0.01,-0.71 0,-0.71 0,-0.71 0,-0.71 0.01,-0.71 0.01,-0.7 0.02,-0.71 0.02,-0.71 0.02,-0.71 0.03,-0.71 0.03,-0.71 0.04,-0.7 0.04,-0.71 0.04,-0.71 0.05,-0.7 0.05,-0.71 0.06,-0.71 0.06,-0.7 0.06,-0.71 0.07,-0.71 0.07,-0.7 0.08,-0.7 0.08,-0.71 0.08,-0.7 0.09,-0.71 0.09,-0.7 0.1,-0.7 0.1,-0.7 0.1,-0.7 0.11,-0.7 0.11,-0.7 0.12,-0.7 0.12,-0.7 0.12,-0.7 0.13,-0.7 0.13,-0.69 0.14,-0.7 0.14,-0.69 0.14,-0.7 0.15,-0.69 0.15,-0.69 0.15,-0.69 0.16,-0.69 0.17,-0.69 0.16,-0.69 0.17,-0.69 0.18,-0.69 0.18,-0.68 0.18,-0.69 0.19,-0.68 0.19,-0.68 0.19,-0.68 0.2,-0.68 0.2,-0.68 0.21,-0.68 0.21,-0.68 0.21,-0.67 0.22,-0.68 0.22,-0.67 0.23,-0.67 0.23,-0.67 0.23,-0.67 0.24,-0.67 0.24,-0.67 0.24,-0.66 0.25,-0.67 0.25,-0.66 0.26,-0.66 0.26,-0.66 0.26,-0.66 0.27,-0.65 0.27,-0.66 0.27,-0.65 0.28,-0.66 0.28,-0.65 0.28,-0.64 0.29,-0.65 0.3,-0.65 0.29,-0.64 0.3,-0.64 0.31,-0.64 0.3,-0.64 0.31,-0.64 0.32,-0.63 0.31,-0.62"
       style="fill:none;stroke:#000000;stroke-opacity:1;stroke-width:0.99;stroke-linecap:butt;stroke-linejoin:miter;stroke-miterlimit:2;stroke-dasharray:none"
       id="path3634" /><path
       d="m 564.84,366.93 -0.48,0.51 -0.5,0.5 -0.51,0.5 -0.52,0.48 -0.53,0.47 -0.54,0.46 -0.55,0.45 -0.55,0.44 -0.57,0.42 -0.58,0.42 -0.58,0.4 -0.59,0.39 -0.6,0.38 -0.61,0.36 -0.62,0.35 -0.62,0.34 -0.63,0.33 -0.63,0.31 -0.65,0.3 -0.64,0.28 -0.66,0.28 -0.66,0.25 -0.66,0.25 -0.67,0.23 -0.68,0.22 -0.68,0.2 -0.68,0.19 -0.69,0.17 -0.69,0.16 -0.69,0.15 -0.7,0.13 -0.7,0.12 -0.7,0.1 -0.7,0.09 -0.7,0.07 -0.71,0.06 -0.71,0.04 -0.71,0.03 -0.7,0.01 -0.71,0 -0.71,-0.02 -0.67,-0.02"
       style="fill:none;stroke:#000000;stroke-opacity:1;stroke-width:0.99;stroke-linecap:butt;stroke-linejoin:miter;stroke-miterlimit:2;stroke-dasharray:none"
       id="path3636" /><path
       d="m 326.74,366.65 211.42,11.08"
       style="fill:none;stroke:#000000;stroke-opacity:1;stroke-width:0.99;stroke-linecap:butt;stroke-linejoin:miter;stroke-miterlimit:2;stroke-dasharray:none"
       id="path3638" /><path
       d="m 326.74,366.65 -0.71,-0.05 -0.7,-0.05 -0.71,-0.06 -0.7,-0.07 -0.71,-0.08 -0.7,-0.09 -0.7,-0.1 -0.7,-0.11 -0.7,-0.11 -0.7,-0.13 -0.69,-0.14 -0.7,-0.14 -0.69,-0.16 -0.69,-0.16 -0.68,-0.18 -0.69,-0.18 -0.68,-0.19 -0.68,-0.21 -0.68,-0.21 -0.67,-0.22 -0.67,-0.23 -0.67,-0.23 -0.66,-0.25 -0.66,-0.26 -0.66,-0.26 -0.65,-0.28 -0.65,-0.28 -0.65,-0.29 -0.64,-0.3 -0.64,-0.31 -0.63,-0.32 -0.63,-0.32 -0.63,-0.34 -0.62,-0.34 -0.61,-0.35 -0.61,-0.36 -0.61,-0.37 -0.6,-0.38 -0.59,-0.38 -0.6,-0.39 -0.58,-0.4 -0.58,-0.41 -0.57,-0.42 -0.57,-0.42 -0.56,-0.43 -0.56,-0.44 -0.55,-0.44 -0.55,-0.46 -0.54,-0.46 -0.53,-0.47 -0.52,-0.47 -0.52,-0.48 -0.52,-0.49 -0.5,-0.5 -0.5,-0.5 -0.49,-0.51 -0.49,-0.52 -0.48,-0.52 -0.47,-0.53 -0.46,-0.53 -0.46,-0.55 -0.45,-0.54 -0.44,-0.56 -0.44,-0.56 -0.42,-0.56 -0.42,-0.57 -0.41,-0.58 -0.41,-0.58 -0.39,-0.59 -0.39,-0.59 -0.38,-0.6 -0.37,-0.6 -0.37,-0.61 -0.35,-0.62 -0.35,-0.61 -0.34,-0.63 -0.33,-0.62 -0.32,-0.64 -0.31,-0.63 -0.31,-0.64 -0.29,-0.64 -0.29,-0.65 -0.28,-0.65 -0.27,-0.66 -0.26,-0.66 -0.25,-0.66 -0.24,-0.67 -0.24,-0.67 -0.22,-0.67 -0.22,-0.67 -0.2,-0.68 -0.2,-0.68 -0.19,-0.68 -0.18,-0.69 -0.17,-0.69 -0.16,-0.69 -0.15,-0.69 -0.14,-0.7 -0.13,-0.69 -0.12,-0.7 -0.12,-0.7 -0.1,-0.7 -0.09,-0.7 -0.09,-0.71 -0.07,-0.7 -0.07,-0.71 -0.06,-0.7 -0.04,-0.71 -0.04,-0.71 -0.03,-0.71 -0.02,-0.7 0,-0.71 0,-0.26"
       style="fill:none;stroke:#000000;stroke-opacity:1;stroke-width:0.99;stroke-linecap:butt;stroke-linejoin:miter;stroke-miterlimit:2;stroke-dasharray:none"
       id="path3640" /><path
       d="m 277.05,234.51 0,79.77"
       style="fill:none;stroke:#000000;stroke-opacity:1;stroke-width:0.99;stroke-linecap:butt;stroke-linejoin:miter;stroke-miterlimit:2;stroke-dasharray:none"
       id="path3642" /><path
       d="m 277.05,234.51 0.01,-0.71 0.04,-0.71 0.08,-0.7 0.1,-0.7 0.13,-0.7 0.16,-0.69 0.19,-0.68 0.22,-0.67 0.25,-0.67 0.27,-0.65 0.3,-0.64 0.33,-0.63 0.35,-0.62 0.38,-0.6 0.4,-0.58 0.43,-0.57 0.45,-0.54 0.47,-0.53 0.49,-0.51 0.52,-0.49 0.53,-0.46 0.55,-0.45 0.57,-0.41 0.59,-0.4 0.61,-0.37 0.62,-0.35 0.63,-0.31 0.64,-0.3 0.66,-0.26 0.67,-0.24 0.67,-0.21 0.69,-0.18 0.69,-0.15 0.7,-0.13 0.7,-0.09 0.71,-0.06 0.7,-0.04 0.5,-0.01"
       style="fill:none;stroke:#000000;stroke-opacity:1;stroke-width:0.99;stroke-linecap:butt;stroke-linejoin:miter;stroke-miterlimit:2;stroke-dasharray:none"
       id="path3644" /><path
       d="m 496.73,235.93 0,96.38"
       style="fill:none;stroke:#000000;stroke-opacity:1;stroke-width:0.99;stroke-linecap:butt;stroke-linejoin:miter;stroke-miterlimit:2;stroke-dasharray:none"
       id="path3646" /><path
       d="m 496.73,235.93 -181.42,0"
       style="fill:none;stroke:#000000;stroke-opacity:1;stroke-width:0.99;stroke-linecap:butt;stroke-linejoin:miter;stroke-miterlimit:2;stroke-dasharray:none"
       id="path3648" /><path
       d="m 315.31,332.31 0,-96.38"
       style="fill:none;stroke:#000000;stroke-opacity:1;stroke-width:0.99;stroke-linecap:butt;stroke-linejoin:miter;stroke-miterlimit:2;stroke-dasharray:none"
       id="path3650" /><path
       d="m 315.31,332.31 181.42,0"
       style="fill:none;stroke:#000000;stroke-opacity:1;stroke-width:0.99;stroke-linecap:butt;stroke-linejoin:miter;stroke-miterlimit:2;stroke-dasharray:none"
       id="path3652" /><text
       xml:space="preserve"
       style="font-size:16px;font-style:normal;font-variant:normal;font-weight:normal;font-stretch:normal;line-height:125%;letter-spacing:0px;word-spacing:0px;fill:#000000;fill-opacity:1;stroke:none;font-family:Ultra 911;-inkscape-font-specification:Ultra 911"
       x="455.92941"
       y="599.18353"
       id="text3690"
       sodipodi:linespacing="125%"
       transform="matrix(0.8,0,0,-0.8,0,595.28)"><tspan
         sodipodi:role="line"
         id="tspan3692"
         x="455.92941"
         y="599.18353"
         style="-inkscape-font-specification:Arial;font-family:Arial;font-weight:normal;font-style:normal;font-stretch:normal;font-variant:normal">Außenmaß 61.5mm</tspan></text>
<path
       inkscape:connector-curvature="0"
       d="m 503.16447,133.32314 -181.42,0"
       style="fill:none;stroke:#000000;stroke-width:0.98999995;stroke-linecap:butt;stroke-linejoin:miter;stroke-miterlimit:2;stroke-opacity:1;stroke-dasharray:none"
       id="path3648-4" /><path
       style="fill:none;stroke:#000000;stroke-width:0.80000001px;stroke-linecap:butt;stroke-linejoin:miter;stroke-opacity:1"
       d="m 322.04892,139.5657 0,-10.813 -0.22296,0"
       id="path3712"
       inkscape:path-effect="#path-effect3714"
       inkscape:original-d="m 322.04892,139.5657 0,-10.813 -0.22296,0"
       inkscape:connector-curvature="0" /><path
       style="fill:none;stroke:#000000;stroke-width:0.80000001px;stroke-linecap:butt;stroke-linejoin:miter;stroke-opacity:1"
       d="m 502.86004,138.84111 0,-10.813 -0.22296,0"
       id="path3712-8"
       inkscape:path-effect="#path-effect3714-8"
       inkscape:original-d="m 502.86004,138.84111 0,-10.813 -0.22296,0"
       inkscape:connector-curvature="0" /><text
       xml:space="preserve"
       style="font-size:12.80000019px;font-style:normal;font-variant:normal;font-weight:normal;font-stretch:normal;line-height:125%;letter-spacing:0px;word-spacing:0px;fill:#000000;fill-opacity:1;stroke:none;font-family:Ultra 911;-inkscape-font-specification:Ultra 911"
       x="299.64261"
       y="-94.530144"
       id="text3737"
       sodipodi:linespacing="125%"
       transform="scale(1,-1)"><tspan
         sodipodi:role="line"
         id="tspan3739"
         x="299.64261"
         y="-94.530144"
         style="font-style:normal;font-variant:normal;font-weight:normal;font-stretch:normal;font-family:Arial;-inkscape-font-specification:Arial">Auf der  Vorderseite Schwarz und klebend</tspan><tspan
         sodipodi:role="line"
         x="299.64261"
         y="-78.530144"
         style="font-style:normal;font-variant:normal;font-weight:normal;font-stretch:normal;font-family:Arial;-inkscape-font-specification:Arial"
         id="tspan3741">Wie von innen geklebte Fensterfolie die von</tspan><tspan
         sodipodi:role="line"
         x="299.64261"
         y="-62.530148"
         style="font-style:normal;font-variant:normal;font-weight:normal;font-stretch:normal;font-family:Arial;-inkscape-font-specification:Arial"
         id="tspan3743">Außen lesbar sein soll </tspan></text>
</g></svg>