<?xml version="1.0" encoding="UTF-8" standalone="no"?>
<!-- Created with Inkscape (http://www.inkscape.org/) -->

<svg
   xmlns:dc="http://purl.org/dc/elements/1.1/"
   xmlns:cc="http://creativecommons.org/ns#"
   xmlns:rdf="http://www.w3.org/1999/02/22-rdf-syntax-ns#"
   xmlns:svg="http://www.w3.org/2000/svg"
   xmlns="http://www.w3.org/2000/svg"
   xmlns:sodipodi="http://sodipodi.sourceforge.net/DTD/sodipodi-0.dtd"
   xmlns:inkscape="http://www.inkscape.org/namespaces/inkscape"
   id="svg3620"
   version="1.1"
   inkscape:version="0.48.2 r9819"
   width="1052.3625"
   height="744.1"
   xml:space="preserve"
   sodipodi:docname="Scheibe_Folie.svg"><metadata
     id="metadata3626"><rdf:RDF><cc:Work
         rdf:about=""><dc:format>image/svg+xml</dc:format><dc:type
           rdf:resource="http://purl.org/dc/dcmitype/StillImage" /><dc:title /></cc:Work></rdf:RDF></metadata><defs
     id="defs3624"><inkscape:path-effect
       effect="spiro"
       id="path-effect3714"
       is_visible="true" /><clipPath
       clipPathUnits="userSpaceOnUse"
       id="clipPath3658"><path
         d="m -0.03,-0.03 841.95,0 0,595.33 -841.95,0"
         id="path3660" /></clipPath><clipPath
       clipPathUnits="userSpaceOnUse"
       id="clipPath3670"><path
         d="m -0.03,-0.03 841.95,0 0,595.33 -841.95,0"
         id="path3672" /></clipPath><clipPath
       clipPathUnits="userSpaceOnUse"
       id="clipPath3682"><path
         d="m -0.03,-0.03 841.95,0 0,595.33 -841.95,0"
         id="path3684" /></clipPath><inkscape:path-effect
       effect="spiro"
       id="path-effect3714-8"
       is_visible="true" /></defs><sodipodi:namedview
     pagecolor="#ffffff"
     bordercolor="#666666"
     borderopacity="1"
     objecttolerance="10"
     gridtolerance="10"
     guidetolerance="10"
     inkscape:pageopacity="0"
     inkscape:pageshadow="2"
     inkscape:window-width="1280"
     inkscape:window-height="968"
     id="namedview3622"
     showgrid="false"
     inkscape:zoom="1.2686467"
     inkscape:cx="581.47901"
     inkscape:cy="243.5115"
     inkscape:window-x="-4"
     inkscape:window-y="-4"
     inkscape:window-maximized="1"
     inkscape:current-layer="g3628" /><g
     id="g3628"
     inkscape:groupmode="layer"
     inkscape:label="Scheibe_Folie"
     transform="matrix(1.25,0,0,-1.25,0,744.1)"><text
   xml:space="preserve"
   style="font-size:16px;font-style:normal;font-variant:normal;font-weight:normal;font-stretch:normal;line-height:125%;letter-spacing:0px;word-spacing:0px;fill:#000000;fill-opacity:1;stroke:none;font-family:Ultra 911;-inkscape-font-specification:Ultra 911"
   x="455.92941"
   y="599.18353"
   id="text3690"
   sodipodi:linespacing="125%"
   transform="matrix(0.8,0,0,-0.8,0,595.28)"><tspan
     sodipodi:role="line"
     id="tspan3692"
     x="455.92941"
     y="599.18353"
     style="-inkscape-font-specification:Arial;font-family:Arial;font-weight:normal;font-style:normal;font-stretch:normal;font-variant:normal">Außenmaß 61.5mm</tspan></text>

<path
   inkscape:connector-curvature="0"
   d="m 503.16447,133.32314 -181.42,0"
   style="fill:none;stroke:#000000;stroke-width:0.98999995;stroke-linecap:butt;stroke-linejoin:miter;stroke-miterlimit:2;stroke-opacity:1;stroke-dasharray:none"
   id="path3648-4" /><path
   style="fill:none;stroke:#000000;stroke-width:0.80000001px;stroke-linecap:butt;stroke-linejoin:miter;stroke-opacity:1"
   d="m 322.04892,139.5657 0,-10.813 -0.22296,0"
   id="path3712"
   inkscape:path-effect="#path-effect3714"
   inkscape:original-d="m 322.04892,139.5657 0,-10.813 -0.22296,0"
   inkscape:connector-curvature="0" /><path
   style="fill:none;stroke:#000000;stroke-width:0.80000001px;stroke-linecap:butt;stroke-linejoin:miter;stroke-opacity:1"
   d="m 502.86004,138.84111 0,-10.813 -0.22296,0"
   id="path3712-8"
   inkscape:path-effect="#path-effect3714-8"
   inkscape:original-d="m 502.86004,138.84111 0,-10.813 -0.22296,0"
   inkscape:connector-curvature="0" />
<path
   style="fill:#000000;fill-opacity:1;stroke:#ffffff;stroke-width:0.5911811;stroke-linecap:round;stroke-miterlimit:4;stroke-opacity:1;stroke-dasharray:none"
   d="m 362.27653,470.68887 c -6.73416,-1.81514 -12.41275,-7.48902 -14.40516,-14.39321 -0.57535,-1.99371 -0.62472,-7.58587 -0.51323,-58.13281 l 0.12336,-55.92689 0.88139,-3.84713 c 2.8568,-12.46949 8.35628,-22.88297 16.69994,-31.62203 11.34735,-11.88505 26.11675,-18.86568 42.49331,-20.08407 1.84252,-0.13708 62.58638,-3.35715 134.98636,-7.1557 86.1837,-4.52173 132.87992,-6.82757 135.2379,-6.678 9.1304,0.57915 18.46593,4.55852 24.87884,10.60488 l 2.07432,1.95575 -4.64698,4.7659 c -23.55262,24.15539 -38.29818,54.27418 -43.04651,87.92539 -4.17531,29.59029 0.48421,60.41409 13.32651,88.1578 l 1.58393,3.42184 -1.84174,0.71643 c -1.76765,0.6876 -7.95469,0.71939 -153.7753,0.7903 -131.75364,0.0641 -152.21558,-0.002 -154.05694,-0.49845 z m 259.04795,-21.2843 c 0.31273,-0.81494 0.31273,-120.11567 0,-120.9306 -0.21737,-0.56648 -10.61617,-0.62342 -113.85873,-0.62342 -103.24255,0 -113.64135,0.0569 -113.85873,0.62342 -0.31272,0.81493 -0.31272,120.11566 0,120.9306 0.21738,0.56647 10.61618,0.62341 113.85873,0.62341 103.24256,0 113.64136,-0.0569 113.85873,-0.62341 z"
   id="path5010"
   inkscape:connector-curvature="0"
   transform="matrix(0.8,0,0,-0.8,0,595.28)" /></g></svg>