  0
SECTION
  2
HEADER
  9
$ACADVER
  1
AC1021
  9
$ACADMAINTVER
 70
    25
  9
$DWGCODEPAGE
  3
ANSI_1252
  9
$INSBASE
 10
0.0
 20
0.0
 30
0.0
  9
$EXTMIN
 10
-72.2395260656
 20
-13.4251139927
 30
0.0
  9
$EXTMAX
 10
-15.3133901744
 20
52.047569848
 30
0.0
  9
$LIMMIN
 10
0.0
 20
0.0
  9
$LIMMAX
 10
420.0
 20
297.0
  9
$ORTHOMODE
 70
     0
  9
$REGENMODE
 70
     1
  9
$FILLMODE
 70
     1
  9
$QTEXTMODE
 70
     0
  9
$MIRRTEXT
 70
     1
  9
$LTSCALE
 40
1.0
  9
$ATTMODE
 70
     1
  9
$TEXTSIZE
 40
3.5
  9
$TRACEWID
 40
1.0
  9
$TEXTSTYLE
  7
Standard
  9
$CLAYER
  8
0
  9
$CELTYPE
  6
ByLayer
  9
$CECOLOR
 62
   256
  9
$CELTSCALE
 40
1.0
  9
$DISPSILH
 70
     0
  9
$DIMSCALE
 40
1.0
  9
$DIMASZ
 40
3.5
  9
$DIMEXO
 40
1.0
  9
$DIMDLI
 40
3.75
  9
$DIMRND
 40
0.0
  9
$DIMDLE
 40
0.0
  9
$DIMEXE
 40
1.0
  9
$DIMTP
 40
0.0
  9
$DIMTM
 40
0.0
  9
$DIMTXT
 40
3.5
  9
$DIMCEN
 40
2.5
  9
$DIMTSZ
 40
0.0
  9
$DIMTOL
 70
     0
  9
$DIMLIM
 70
     0
  9
$DIMTIH
 70
     1
  9
$DIMTOH
 70
     1
  9
$DIMSE1
 70
     0
  9
$DIMSE2
 70
     0
  9
$DIMTAD
 70
     1
  9
$DIMZIN
 70
     1
  9
$DIMBLK
  1

  9
$DIMASO
 70
     1
  9
$DIMSHO
 70
     1
  9
$DIMPOST
  1

  9
$DIMAPOST
  1

  9
$DIMALT
 70
     0
  9
$DIMALTD
 70
     3
  9
$DIMALTF
 40
0.0393700787
  9
$DIMLFAC
 40
1.0
  9
$DIMTOFL
 70
     1
  9
$DIMTVP
 40
0.0
  9
$DIMTIX
 70
     0
  9
$DIMSOXD
 70
     0
  9
$DIMSAH
 70
     0
  9
$DIMBLK1
  1

  9
$DIMBLK2
  1

  9
$DIMSTYLE
  2
ISO-25
  9
$DIMCLRD
 70
     0
  9
$DIMCLRE
 70
     0
  9
$DIMCLRT
 70
     0
  9
$DIMTFAC
 40
1.0
  9
$DIMGAP
 40
3.0
  9
$DIMJUST
 70
     0
  9
$DIMSD1
 70
     0
  9
$DIMSD2
 70
     0
  9
$DIMTOLJ
 70
     0
  9
$DIMTZIN
 70
     1
  9
$DIMALTZ
 70
     0
  9
$DIMALTTZ
 70
     0
  9
$DIMUPT
 70
     0
  9
$DIMDEC
 70
     2
  9
$DIMTDEC
 70
     2
  9
$DIMALTU
 70
     2
  9
$DIMALTTD
 70
     3
  9
$DIMTXSTY
  7
Standard
  9
$DIMAUNIT
 70
     0
  9
$DIMADEC
 70
     2
  9
$DIMALTRND
 40
0.0
  9
$DIMAZIN
 70
     0
  9
$DIMDSEP
 70
    44
  9
$DIMATFIT
 70
     3
  9
$DIMFRAC
 70
     0
  9
$DIMLDRBLK
  1

  9
$DIMLUNIT
 70
     2
  9
$DIMLWD
 70
    -2
  9
$DIMLWE
 70
    -2
  9
$DIMTMOVE
 70
     0
  9
$DIMFXL
 40
1.0
  9
$DIMFXLON
 70
     0
  9
$DIMJOGANG
 40
0.7853981634
  9
$DIMTFILL
 70
     0
  9
$DIMTFILLCLR
 70
     0
  9
$DIMARCSYM
 70
     0
  9
$DIMLTYPE
  6

  9
$DIMLTEX1
  6

  9
$DIMLTEX2
  6

  9
$LUNITS
 70
     2
  9
$LUPREC
 70
     2
  9
$SKETCHINC
 40
1.0
  9
$FILLETRAD
 40
10.0
  9
$AUNITS
 70
     0
  9
$AUPREC
 70
     2
  9
$MENU
  1
.
  9
$ELEVATION
 40
0.0
  9
$PELEVATION
 40
0.0
  9
$THICKNESS
 40
0.0
  9
$LIMCHECK
 70
     0
  9
$CHAMFERA
 40
10.0
  9
$CHAMFERB
 40
10.0
  9
$CHAMFERC
 40
20.0
  9
$CHAMFERD
 40
0.0
  9
$SKPOLY
 70
     0
  9
$TDCREATE
 40
2456080.502094306
  9
$TDUCREATE
 40
2456080.418760972
  9
$TDUPDATE
 40
2456080.502094317
  9
$TDUUPDATE
 40
2456080.418760984
  9
$TDINDWG
 40
0.0000000116
  9
$TDUSRTIMER
 40
0.0000000116
  9
$USRTIMER
 70
     1
  9
$ANGBASE
 50
0.0
  9
$ANGDIR
 70
     0
  9
$PDMODE
 70
     0
  9
$PDSIZE
 40
-1.0
  9
$PLINEWID
 40
0.0
  9
$SPLFRAME
 70
     0
  9
$SPLINETYPE
 70
     6
  9
$SPLINESEGS
 70
     8
  9
$HANDSEED
  5
17E
  9
$SURFTAB1
 70
     6
  9
$SURFTAB2
 70
     6
  9
$SURFTYPE
 70
     6
  9
$SURFU
 70
     6
  9
$SURFV
 70
     6
  9
$UCSBASE
  2

  9
$UCSNAME
  2

  9
$UCSORG
 10
0.0
 20
0.0
 30
0.0
  9
$UCSXDIR
 10
1.0
 20
0.0
 30
0.0
  9
$UCSYDIR
 10
0.0
 20
1.0
 30
0.0
  9
$UCSORTHOREF
  2

  9
$UCSORTHOVIEW
 70
     0
  9
$UCSORGTOP
 10
0.0
 20
0.0
 30
0.0
  9
$UCSORGBOTTOM
 10
0.0
 20
0.0
 30
0.0
  9
$UCSORGLEFT
 10
0.0
 20
0.0
 30
0.0
  9
$UCSORGRIGHT
 10
0.0
 20
0.0
 30
0.0
  9
$UCSORGFRONT
 10
0.0
 20
0.0
 30
0.0
  9
$UCSORGBACK
 10
0.0
 20
0.0
 30
0.0
  9
$PUCSBASE
  2

  9
$PUCSNAME
  2

  9
$PUCSORG
 10
0.0
 20
0.0
 30
0.0
  9
$PUCSXDIR
 10
1.0
 20
0.0
 30
0.0
  9
$PUCSYDIR
 10
0.0
 20
1.0
 30
0.0
  9
$PUCSORTHOREF
  2

  9
$PUCSORTHOVIEW
 70
     0
  9
$PUCSORGTOP
 10
0.0
 20
0.0
 30
0.0
  9
$PUCSORGBOTTOM
 10
0.0
 20
0.0
 30
0.0
  9
$PUCSORGLEFT
 10
0.0
 20
0.0
 30
0.0
  9
$PUCSORGRIGHT
 10
0.0
 20
0.0
 30
0.0
  9
$PUCSORGFRONT
 10
0.0
 20
0.0
 30
0.0
  9
$PUCSORGBACK
 10
0.0
 20
0.0
 30
0.0
  9
$USERI1
 70
     0
  9
$USERI2
 70
     0
  9
$USERI3
 70
     0
  9
$USERI4
 70
     0
  9
$USERI5
 70
     0
  9
$USERR1
 40
0.0
  9
$USERR2
 40
0.0
  9
$USERR3
 40
0.0
  9
$USERR4
 40
0.0
  9
$USERR5
 40
0.0
  9
$WORLDVIEW
 70
     1
  9
$SHADEDGE
 70
     3
  9
$SHADEDIF
 70
    70
  9
$TILEMODE
 70
     1
  9
$MAXACTVP
 70
    64
  9
$PINSBASE
 10
0.0
 20
0.0
 30
0.0
  9
$PLIMCHECK
 70
     0
  9
$PEXTMIN
 10
31.1420835099
 20
-20.325
 30
0.0
  9
$PEXTMAX
 10
131.825
 20
36.39556387
 30
0.0
  9
$PLIMMIN
 10
0.0
 20
0.0
  9
$PLIMMAX
 10
420.0
 20
297.0
  9
$UNITMODE
 70
     0
  9
$VISRETAIN
 70
     1
  9
$PLINEGEN
 70
     0
  9
$PSLTSCALE
 70
     1
  9
$TREEDEPTH
 70
  3020
  9
$CMLSTYLE
  2
Standard
  9
$CMLJUST
 70
     0
  9
$CMLSCALE
 40
20.0
  9
$PROXYGRAPHICS
 70
     1
  9
$MEASUREMENT
 70
     1
  9
$CELWEIGHT
370
    -1
  9
$ENDCAPS
280
     0
  9
$JOINSTYLE
280
     0
  9
$LWDISPLAY
290
     1
  9
$INSUNITS
 70
     4
  9
$HYPERLINKBASE
  1

  9
$STYLESHEET
  1

  9
$XEDIT
290
     1
  9
$CEPSNTYPE
380
     0
  9
$PSTYLEMODE
290
     1
  9
$FINGERPRINTGUID
  2
{2DF9ADF4-B75B-4FAF-BB45-1846E19D50EF}
  9
$VERSIONGUID
  2
{FAEB1C32-E019-11D5-929B-00C0DF256EC4}
  9
$EXTNAMES
290
     1
  9
$PSVPSCALE
 40
0.0
  9
$OLESTARTUP
290
     0
  9
$SORTENTS
280
   127
  9
$INDEXCTL
280
     0
  9
$HIDETEXT
280
     1
  9
$XCLIPFRAME
290
     0
  9
$HALOGAP
280
     0
  9
$OBSCOLOR
 70
   257
  9
$OBSLTYPE
280
     0
  9
$INTERSECTIONDISPLAY
280
     0
  9
$INTERSECTIONCOLOR
 70
   257
  9
$DIMASSOC
280
     2
  9
$PROJECTNAME
  1

  9
$CAMERADISPLAY
290
     0
  9
$LENSLENGTH
 40
50.0
  9
$CAMERAHEIGHT
 40
0.0
  9
$STEPSPERSEC
 40
2.0
  9
$STEPSIZE
 40
6.0
  9
$3DDWFPREC
 40
2.0
  9
$PSOLWIDTH
 40
5.0
  9
$PSOLHEIGHT
 40
80.0
  9
$LOFTANG1
 40
1.5707963268
  9
$LOFTANG2
 40
1.5707963268
  9
$LOFTMAG1
 40
0.0
  9
$LOFTMAG2
 40
0.0
  9
$LOFTPARAM
 70
     7
  9
$LOFTNORMALS
280
     1
  9
$LATITUDE
 40
37.795
  9
$LONGITUDE
 40
-122.394
  9
$NORTHDIRECTION
 40
0.0
  9
$TIMEZONE
 70
 -8000
  9
$LIGHTGLYPHDISPLAY
280
     1
  9
$TILEMODELIGHTSYNCH
280
     1
  9
$SOLIDHIST
280
     1
  9
$SHOWHIST
280
     1
  9
$DWFFRAME
280
     2
  9
$DGNFRAME
280
     2
  9
$REALWORLDSCALE
290
     1
  9
$INTERFERECOLOR
 62
   256
  9
$CSHADOW
280
     0
  9
$SHADOWPLANELOCATION
 40
0.0
  0
ENDSEC
  0
SECTION
  2
CLASSES
  0
CLASS
  1
ACDBDICTIONARYWDFLT
  2
AcDbDictionaryWithDefault
  3
ObjectDBX Classes
 90
        0
 91
        4
280
     0
281
     0
  0
CLASS
  1
VISUALSTYLE
  2
AcDbVisualStyle
  3
ObjectDBX Classes
 90
     4095
 91
        4
280
     0
281
     0
  0
CLASS
  1
MATERIAL
  2
AcDbMaterial
  3
ObjectDBX Classes
 90
     1153
 91
        4
280
     0
281
     0
  0
ENDSEC
  0
SECTION
  2
TABLES
  0
TABLE
  2
VPORT
  5
8
330
0
100
AcDbSymbolTable
 70
     1
  0
VPORT
  5
29
330
8
100
AcDbSymbolTableRecord
100
AcDbViewportTableRecord
  2
*Active
 70
     0
 10
0.0
 20
0.0
 11
1.0
 21
1.0
 12
-43.77645812
 22
19.3112279277
 13
0.0
 23
0.0
 14
10.0
 24
10.0
 15
10.0
 25
10.0
 16
0.0
 26
0.0
 36
1.0
 17
0.0
 27
0.0
 37
0.0
 40
66.7821375176
 41
0.8694639131
 42
50.0
 43
0.0
 44
0.0
 50
0.0
 51
0.0
 71
     0
 72
   100
 73
     1
 74
     3
 75
     0
 76
     0
 77
     0
 78
     0
281
     0
 65
     1
110
0.0
120
0.0
130
0.0
111
1.0
121
0.0
131
0.0
112
0.0
122
1.0
132
0.0
 79
     0
146
0.0
 60
     3
 61
     5
292
     1
282
     1
141
0.0
142
0.0
 63
   250
  0
ENDTAB
  0
TABLE
  2
LTYPE
  5
5
330
0
100
AcDbSymbolTable
 70
     6
  0
LTYPE
  5
14
330
5
100
AcDbSymbolTableRecord
100
AcDbLinetypeTableRecord
  2
ByBlock
 70
     0
  3

 72
    65
 73
     0
 40
0.0
  0
LTYPE
  5
15
330
5
100
AcDbSymbolTableRecord
100
AcDbLinetypeTableRecord
  2
ByLayer
 70
     0
  3

 72
    65
 73
     0
 40
0.0
  0
LTYPE
  5
16
330
5
100
AcDbSymbolTableRecord
100
AcDbLinetypeTableRecord
  2
Continuous
 70
     0
  3
Solid line
 72
    65
 73
     0
 40
0.0
  0
LTYPE
  5
3F
330
5
100
AcDbSymbolTableRecord
100
AcDbLinetypeTableRecord
  2
HIDDEN
 70
     0
  3
Hidden __ __ __ __ __ __ __ __ __ __ __ __ __ __
 72
    65
 73
     2
 40
1.905
 49
1.27
 74
     0
 49
-0.635
 74
     0
  0
LTYPE
  5
40
330
5
100
AcDbSymbolTableRecord
100
AcDbLinetypeTableRecord
  2
PHANTOM
 70
     0
  3
Phantom ______  __  __  ______  __  __  ______
 72
    65
 73
     6
 40
12.7
 49
6.35
 74
     0
 49
-1.27
 74
     0
 49
1.27
 74
     0
 49
-1.27
 74
     0
 49
1.27
 74
     0
 49
-1.27
 74
     0
  0
LTYPE
  5
41
330
5
100
AcDbSymbolTableRecord
100
AcDbLinetypeTableRecord
  2
CENTER
 70
     0
  3
Center ____ _ ____ _ ____ _ ____ _ ____ _ ____
 72
    65
 73
     4
 40
10.16
 49
6.35
 74
     0
 49
-1.27
 74
     0
 49
1.27
 74
     0
 49
-1.27
 74
     0
  0
LTYPE
  5
42
330
5
100
AcDbSymbolTableRecord
100
AcDbLinetypeTableRecord
  2
CENTERX2
 70
     0
  3
Center (2x) ________  __  ________  __  _____
 72
    65
 73
     4
 40
20.32
 49
12.7
 74
     0
 49
-2.54
 74
     0
 49
2.54
 74
     0
 49
-2.54
 74
     0
  0
LTYPE
  5
43
330
5
100
AcDbSymbolTableRecord
100
AcDbLinetypeTableRecord
  2
DOT2
 70
     0
  3
Dot (.5x) ........................................
 72
    65
 73
     2
 40
0.635
 49
0.0
 74
     0
 49
-0.635
 74
     0
  0
ENDTAB
  0
TABLE
  2
LAYER
  5
2
330
0
100
AcDbSymbolTable
 70
     1
  0
LAYER
  5
10
330
2
100
AcDbSymbolTableRecord
100
AcDbLayerTableRecord
  2
0
 70
     0
 62
     7
  6
Continuous
370
    -3
390
F
347
3E
  0
ENDTAB
  0
TABLE
  2
STYLE
  5
3
330
0
100
AcDbSymbolTable
 70
     1
  0
STYLE
  5
11
330
3
100
AcDbSymbolTableRecord
100
AcDbTextStyleTableRecord
  2
Standard
 70
     0
 40
0.0
 41
1.0
 50
0.0
 71
     0
 42
2.5
  3
txt
  4

  0
ENDTAB
  0
TABLE
  2
VIEW
  5
6
330
0
100
AcDbSymbolTable
 70
     0
  0
ENDTAB
  0
TABLE
  2
UCS
  5
7
330
0
100
AcDbSymbolTable
 70
     0
  0
ENDTAB
  0
TABLE
  2
APPID
  5
9
330
0
100
AcDbSymbolTable
 70
     1
  0
APPID
  5
12
330
9
100
AcDbSymbolTableRecord
100
AcDbRegAppTableRecord
  2
ACAD
 70
     0
  0
ENDTAB
  0
TABLE
  2
DIMSTYLE
  5
A
330
0
100
AcDbSymbolTable
 70
     1
100
AcDbDimStyleTable
  0
DIMSTYLE
105
27
330
A
100
AcDbSymbolTableRecord
100
AcDbDimStyleTableRecord
  2
ISO-25
 70
     0
 41
2.5
 42
0.625
 43
3.75
 44
1.25
 73
     0
 74
     0
 77
     1
 78
     8
140
2.5
141
2.5
143
0.0393700787
147
0.625
171
     3
172
     1
271
     2
272
     2
274
     3
278
    44
283
     0
284
     8
340
11
  0
ENDTAB
  0
TABLE
  2
BLOCK_RECORD
  5
1
330
0
100
AcDbSymbolTable
 70
     8
  0
BLOCK_RECORD
  5
1F
330
1
100
AcDbSymbolTableRecord
100
AcDbBlockTableRecord
  2
*Model_Space
340
22
 70
     0
280
     1
281
     0
  0
BLOCK_RECORD
  5
1B
330
1
100
AcDbSymbolTableRecord
100
AcDbBlockTableRecord
  2
*Paper_Space
340
1E
 70
     0
280
     1
281
     0
  0
BLOCK_RECORD
  5
23
330
1
100
AcDbSymbolTableRecord
100
AcDbBlockTableRecord
  2
*Paper_Space0
340
26
 70
     0
280
     1
281
     0
  0
BLOCK_RECORD
  5
A2
330
1
100
AcDbSymbolTableRecord
100
AcDbBlockTableRecord
  2
*Paper_Space1
340
A3
 70
     0
280
     1
281
     0
  0
BLOCK_RECORD
  5
BA
330
1
100
AcDbSymbolTableRecord
100
AcDbBlockTableRecord
  2
*Paper_Space2
340
BB
 70
     0
280
     1
281
     0
  0
BLOCK_RECORD
  5
D8
330
1
100
AcDbSymbolTableRecord
100
AcDbBlockTableRecord
  2
*Paper_Space3
340
D9
 70
     0
280
     1
281
     0
  0
BLOCK_RECORD
  5
F2
330
1
100
AcDbSymbolTableRecord
100
AcDbBlockTableRecord
  2
*Paper_Space4
340
F3
 70
     0
280
     1
281
     0
  0
BLOCK_RECORD
  5
112
330
1
100
AcDbSymbolTableRecord
100
AcDbBlockTableRecord
  2
*Paper_Space5
340
113
 70
     0
280
     1
281
     0
  0
BLOCK_RECORD
  5
136
330
1
100
AcDbSymbolTableRecord
100
AcDbBlockTableRecord
  2
*Paper_Space6
340
137
 70
     0
280
     1
281
     0
  0
BLOCK_RECORD
  5
156
330
1
100
AcDbSymbolTableRecord
100
AcDbBlockTableRecord
  2
*Paper_Space7
340
157
 70
     0
280
     1
281
     0
  0
ENDTAB
  0
ENDSEC
  0
SECTION
  2
BLOCKS
  0
BLOCK
  5
20
330
1F
100
AcDbEntity
  8
0
100
AcDbBlockBegin
  2
*Model_Space
 70
     0
 10
0.0
 20
0.0
 30
0.0
  3
*Model_Space
  1

  0
ENDBLK
  5
21
330
1F
100
AcDbEntity
  8
0
100
AcDbBlockEnd
  0
BLOCK
  5
1C
330
1B
100
AcDbEntity
 67
     1
  8
0
100
AcDbBlockBegin
  2
*Paper_Space
 70
     0
 10
0.0
 20
0.0
 30
0.0
  3
*Paper_Space
  1

  0
ENDBLK
  5
1D
330
1B
100
AcDbEntity
 67
     1
  8
0
100
AcDbBlockEnd
  0
BLOCK
  5
24
330
23
100
AcDbEntity
  8
0
100
AcDbBlockBegin
  2
*Paper_Space0
 70
     0
 10
0.0
 20
0.0
 30
0.0
  3
*Paper_Space0
  1

  0
LINE
  5
92
330
23
100
AcDbEntity
  8
0
  6
Continuous
 62
     7
370
    15
100
AcDbLine
 10
-49.08
 20
-18.825
 30
0.0
 11
-125.0
 21
-18.825
 31
0.0
  0
LINE
  5
93
330
23
100
AcDbEntity
  8
0
  6
Continuous
 62
     7
370
    15
100
AcDbLine
 10
-129.825
 20
-14.0
 30
0.0
 11
-129.825
 21
13.64
 31
0.0
  0
LINE
  5
94
330
23
100
AcDbEntity
  8
0
  6
Continuous
 62
     7
370
    15
100
AcDbLine
 10
-113.8805524638
 20
30.4419419222
 30
0.0
 11
-41.8325209889
 21
34.2178192535
 31
0.0
  0
LINE
  5
95
330
23
100
AcDbEntity
  8
0
  6
Continuous
 62
     7
370
    15
100
AcDbLine
 10
-113.0375603325
 20
32.4888659598
 30
0.0
 11
-38.7502476009
 21
36.382099049
 31
0.0
  0
LINE
  5
96
330
23
100
AcDbEntity
  8
0
  6
Continuous
 62
     7
370
    15
100
AcDbLine
 10
-37.5239923249
 20
-20.325
 30
0.0
 11
-127.0
 21
-20.325
 31
0.0
  0
LINE
  5
97
330
23
100
AcDbEntity
  8
0
  6
Continuous
 62
     7
370
    15
100
AcDbLine
 10
-131.825
 20
-15.5
 30
0.0
 11
-131.825
 21
12.6910354333
 31
0.0
  0
ARC
  5
98
330
23
100
AcDbEntity
  8
0
  6
Continuous
 62
     7
370
    15
100
AcDbCircle
 10
-49.08
 20
-14.0
 30
0.0
 40
4.825000000000024
100
AcDbArc
 50
270.0
 51
15.7659077158
  0
ARC
  5
99
330
23
100
AcDbEntity
  8
0
  6
Continuous
 62
     7
370
    15
100
AcDbCircle
 10
-125.0
 20
-14.0
 30
0.0
 40
4.82499999999996
100
AcDbArc
 50
180.0
 51
270.0
  0
ARC
  5
9A
330
23
100
AcDbEntity
  8
0
  6
Continuous
 62
     7
370
    15
100
AcDbCircle
 10
-113.0
 20
13.64
 30
0.0
 40
16.82499999999985
100
AcDbArc
 50
93.0
 51
180.0
  0
ARC
  5
9B
330
23
100
AcDbEntity
  8
0
  6
Continuous
 62
     7
370
    15
100
AcDbCircle
 10
-41.58
 20
29.3994317484
 30
0.0
 40
4.824999999968609
100
AcDbArc
 50
324.6248201591
 51
93.0
  0
ARC
  5
9C
330
23
100
AcDbEntity
  8
0
  6
Continuous
 62
     7
370
    15
100
AcDbCircle
 10
0.020619237
 20
-0.1374753188
 30
0.0
 40
46.19500000000503
100
AcDbArc
 50
144.6248201591
 51
195.7659077158
  0
ARC
  5
9D
330
23
100
AcDbEntity
  8
0
  6
Continuous
 62
     7
370
    15
100
AcDbCircle
 10
-112.0
 20
12.6910354333
 30
0.0
 40
19.82499999999985
100
AcDbArc
 50
93.0
 51
180.0
  0
ARC
  5
9E
330
23
100
AcDbEntity
  8
0
  6
Continuous
 62
     7
370
    15
100
AcDbCircle
 10
-38.2360468308
 20
26.57056387
 30
0.0
 40
9.824999999992263
100
AcDbArc
 50
63.0127210088
 51
93.0
  0
ARC
  5
9F
330
23
100
AcDbEntity
  8
0
  6
Continuous
 62
     7
370
    15
100
AcDbCircle
 10
-35.9670835099
 20
31.0261003639
 30
0.0
 40
4.824999999999999
100
AcDbArc
 50
319.2181282151
 51
63.0127210088
  0
ARC
  5
A0
330
23
100
AcDbEntity
  8
0
  6
Continuous
 62
     7
370
    15
100
AcDbCircle
 10
0.0
 20
0.0
 30
0.0
 40
42.67500000000588
100
AcDbArc
 50
139.2181282151
 51
208.4423432602
  0
ARC
  5
A1
330
23
100
AcDbEntity
  8
0
  6
Continuous
 62
     7
370
    15
100
AcDbCircle
 10
-127.0
 20
-15.5
 30
0.0
 40
4.825000000000035
100
AcDbArc
 50
180.0
 51
270.0
  0
VIEWPORT
  5
174
330
23
100
AcDbEntity
  8
0
100
AcDbViewport
 10
0.0
 20
0.0
 30
0.0
 40
243.84
 41
204.216
 68
     1
 69
     1
 12
-43.77645812
 22
19.3112279277
 13
0.0
 23
0.0
 14
10.0
 24
10.0
 15
10.0
 25
10.0
 16
0.0
 26
0.0
 36
1.0
 17
0.0
 27
0.0
 37
0.0
 42
50.0
 43
0.0
 44
0.0
 45
66.7821375176
 50
0.0
 51
0.0
 72
   100
 90
   557152
  1

281
     0
 71
     1
 74
     0
110
0.0
120
0.0
130
0.0
111
1.0
121
0.0
131
0.0
112
0.0
122
1.0
132
0.0
 79
     0
146
0.0
170
     0
 61
     5
292
     1
282
     1
141
0.0
142
0.0
 63
   256
  0
ENDBLK
  5
25
330
23
100
AcDbEntity
  8
0
100
AcDbBlockEnd
  0
BLOCK
  5
A4
330
A2
100
AcDbEntity
  8
0
100
AcDbBlockBegin
  2
*Paper_Space1
 70
     0
 10
0.0
 20
0.0
 30
0.0
  3
*Paper_Space1
  1

  0
LINE
  5
B3
330
A2
100
AcDbEntity
  8
0
  6
Continuous
 62
     7
370
    15
100
AcDbLine
 10
1.5
 20
36.39556387
 30
0.0
 11
0.0
 21
36.39556387
 31
0.0
  0
LINE
  5
B4
330
A2
100
AcDbEntity
  8
0
  6
Continuous
 62
     7
370
    15
100
AcDbLine
 10
0.0
 20
34.2244317483
 30
0.0
 11
-1.5
 21
34.2244317483
 31
0.0
  0
LINE
  5
B5
330
A2
100
AcDbEntity
  8
0
  6
Continuous
 62
     7
370
    15
100
AcDbLine
 10
1.5
 20
36.39556387
 30
0.0
 11
1.5
 21
-20.325
 31
0.0
  0
LINE
  5
B6
330
A2
100
AcDbEntity
  8
0
  6
Continuous
 62
     7
370
    15
100
AcDbLine
 10
0.0
 20
-20.325
 30
0.0
 11
0.0
 21
36.39556387
 31
0.0
  0
LINE
  5
B7
330
A2
100
AcDbEntity
  8
0
  6
Continuous
 62
     7
370
    15
100
AcDbLine
 10
1.5
 20
-20.325
 30
0.0
 11
0.0
 21
-20.325
 31
0.0
  0
LINE
  5
B8
330
A2
100
AcDbEntity
  8
0
  6
Continuous
 62
     7
370
    15
100
AcDbLine
 10
-1.5
 20
-18.825
 30
0.0
 11
-1.5
 21
34.2244317483
 31
0.0
  0
LINE
  5
B9
330
A2
100
AcDbEntity
  8
0
  6
Continuous
 62
     7
370
    15
100
AcDbLine
 10
-1.5
 20
-18.825
 30
0.0
 11
0.0
 21
-18.825
 31
0.0
  0
VIEWPORT
  5
175
330
A2
100
AcDbEntity
  8
0
100
AcDbViewport
 10
0.0
 20
0.0
 30
0.0
 40
243.84
 41
204.216
 68
     1
 69
     1
 12
-43.77645812
 22
19.3112279277
 13
0.0
 23
0.0
 14
10.0
 24
10.0
 15
10.0
 25
10.0
 16
0.0
 26
0.0
 36
1.0
 17
0.0
 27
0.0
 37
0.0
 42
50.0
 43
0.0
 44
0.0
 45
66.7821375176
 50
0.0
 51
0.0
 72
   100
 90
   557152
  1

281
     0
 71
     1
 74
     0
110
0.0
120
0.0
130
0.0
111
1.0
121
0.0
131
0.0
112
0.0
122
1.0
132
0.0
 79
     0
146
0.0
170
     0
 61
     5
292
     1
282
     1
141
0.0
142
0.0
 63
   256
  0
ENDBLK
  5
A5
330
A2
100
AcDbEntity
  8
0
100
AcDbBlockEnd
  0
BLOCK
  5
BC
330
BA
100
AcDbEntity
  8
0
100
AcDbBlockBegin
  2
*Paper_Space2
 70
     0
 10
0.0
 20
0.0
 30
0.0
  3
*Paper_Space2
  1

  0
LINE
  5
D1
330
BA
100
AcDbEntity
  8
0
  6
Continuous
 62
     7
370
    15
100
AcDbLine
 10
1.5
 20
34.2244317483
 30
0.0
 11
0.0
 21
34.2244317483
 31
0.0
  0
LINE
  5
D2
330
BA
100
AcDbEntity
  8
0
  6
Continuous
 62
     7
370
    15
100
AcDbLine
 10
0.0
 20
36.39556387
 30
0.0
 11
-1.5
 21
36.39556387
 31
0.0
  0
LINE
  5
D3
330
BA
100
AcDbEntity
  8
0
  6
Continuous
 62
     7
370
    15
100
AcDbLine
 10
-1.5
 20
-20.325
 30
0.0
 11
-1.5
 21
36.39556387
 31
0.0
  0
LINE
  5
D4
330
BA
100
AcDbEntity
  8
0
  6
Continuous
 62
     7
370
    15
100
AcDbLine
 10
0.0
 20
-20.325
 30
0.0
 11
0.0
 21
36.39556387
 31
0.0
  0
LINE
  5
D5
330
BA
100
AcDbEntity
  8
0
  6
Continuous
 62
     7
370
    15
100
AcDbLine
 10
-1.5
 20
-20.325
 30
0.0
 11
0.0
 21
-20.325
 31
0.0
  0
LINE
  5
D6
330
BA
100
AcDbEntity
  8
0
  6
Continuous
 62
     7
370
    15
100
AcDbLine
 10
1.5
 20
-18.825
 30
0.0
 11
0.0
 21
-18.825
 31
0.0
  0
LINE
  5
D7
330
BA
100
AcDbEntity
  8
0
  6
Continuous
 62
     7
370
    15
100
AcDbLine
 10
1.5
 20
-18.825
 30
0.0
 11
1.5
 21
34.2244317483
 31
0.0
  0
VIEWPORT
  5
176
330
BA
100
AcDbEntity
  8
0
100
AcDbViewport
 10
0.0
 20
0.0
 30
0.0
 40
243.84
 41
204.216
 68
     1
 69
     1
 12
-43.77645812
 22
19.3112279277
 13
0.0
 23
0.0
 14
10.0
 24
10.0
 15
10.0
 25
10.0
 16
0.0
 26
0.0
 36
1.0
 17
0.0
 27
0.0
 37
0.0
 42
50.0
 43
0.0
 44
0.0
 45
66.7821375176
 50
0.0
 51
0.0
 72
   100
 90
   557152
  1

281
     0
 71
     1
 74
     0
110
0.0
120
0.0
130
0.0
111
1.0
121
0.0
131
0.0
112
0.0
122
1.0
132
0.0
 79
     0
146
0.0
170
     0
 61
     5
292
     1
282
     1
141
0.0
142
0.0
 63
   256
  0
ENDBLK
  5
BD
330
BA
100
AcDbEntity
  8
0
100
AcDbBlockEnd
  0
BLOCK
  5
DA
330
D8
100
AcDbEntity
  8
0
100
AcDbBlockBegin
  2
*Paper_Space3
 70
     0
 10
0.0
 20
0.0
 30
0.0
  3
*Paper_Space3
  1

  0
LINE
  5
EB
330
D8
100
AcDbEntity
  8
0
  6
Continuous
 62
     7
370
    15
100
AcDbLine
 10
31.1420835099
 20
0.0
 30
0.0
 11
31.1420835099
 21
-1.5
 31
0.0
  0
LINE
  5
EC
330
D8
100
AcDbEntity
  8
0
  6
Continuous
 62
     7
370
    15
100
AcDbLine
 10
36.755
 20
1.5
 30
0.0
 11
36.755
 21
0.0
 31
0.0
  0
LINE
  5
ED
330
D8
100
AcDbEntity
  8
0
  6
Continuous
 62
     7
370
    15
100
AcDbLine
 10
131.825
 20
-1.5
 30
0.0
 11
31.1420835099
 21
-1.5
 31
0.0
  0
LINE
  5
EE
330
D8
100
AcDbEntity
  8
0
  6
Continuous
 62
     7
370
    15
100
AcDbLine
 10
131.825
 20
0.0
 30
0.0
 11
31.1420835099
 21
0.0
 31
0.0
  0
LINE
  5
EF
330
D8
100
AcDbEntity
  8
0
  6
Continuous
 62
     7
370
    15
100
AcDbLine
 10
129.825
 20
1.5
 30
0.0
 11
36.755
 21
1.5
 31
0.0
  0
LINE
  5
F0
330
D8
100
AcDbEntity
  8
0
  6
Continuous
 62
     7
370
    15
100
AcDbLine
 10
131.825
 20
-1.5
 30
0.0
 11
131.825
 21
0.0
 31
0.0
  0
LINE
  5
F1
330
D8
100
AcDbEntity
  8
0
  6
Continuous
 62
     7
370
    15
100
AcDbLine
 10
129.825
 20
1.5
 30
0.0
 11
129.825
 21
0.0
 31
0.0
  0
VIEWPORT
  5
177
330
D8
100
AcDbEntity
  8
0
100
AcDbViewport
 10
0.0
 20
0.0
 30
0.0
 40
243.84
 41
204.216
 68
     1
 69
     1
 12
-43.77645812
 22
19.3112279277
 13
0.0
 23
0.0
 14
10.0
 24
10.0
 15
10.0
 25
10.0
 16
0.0
 26
0.0
 36
1.0
 17
0.0
 27
0.0
 37
0.0
 42
50.0
 43
0.0
 44
0.0
 45
66.7821375176
 50
0.0
 51
0.0
 72
   100
 90
   557152
  1

281
     0
 71
     1
 74
     0
110
0.0
120
0.0
130
0.0
111
1.0
121
0.0
131
0.0
112
0.0
122
1.0
132
0.0
 79
     0
146
0.0
170
     0
 61
     5
292
     1
282
     1
141
0.0
142
0.0
 63
   256
  0
ENDBLK
  5
DB
330
D8
100
AcDbEntity
  8
0
100
AcDbBlockEnd
  0
BLOCK
  5
F4
330
F2
100
AcDbEntity
  8
0
100
AcDbBlockBegin
  2
*Paper_Space4
 70
     0
 10
0.0
 20
0.0
 30
0.0
  3
*Paper_Space4
  1

  0
LINE
  5
109
330
F2
100
AcDbEntity
  8
0
  6
Continuous
 62
     7
370
    15
100
AcDbLine
 10
44.255
 20
0.0
 30
0.0
 11
44.255
 21
-1.5
 31
0.0
  0
LINE
  5
10A
330
F2
100
AcDbEntity
  8
0
  6
Continuous
 62
     7
370
    15
100
AcDbLine
 10
36.755
 20
0.0
 30
0.0
 11
36.755
 21
-1.5
 31
0.0
  0
LINE
  5
10B
330
F2
100
AcDbEntity
  8
0
  6
Continuous
 62
     7
370
    15
100
AcDbLine
 10
31.1420835099
 20
1.5
 30
0.0
 11
31.1420835099
 21
0.0
 31
0.0
  0
LINE
  5
10C
330
F2
100
AcDbEntity
  8
0
  6
Continuous
 62
     7
370
    15
100
AcDbLine
 10
37.5239923249
 20
1.5
 30
0.0
 11
37.5239923249
 21
0.0
 31
0.0
  0
LINE
  5
10D
330
F2
100
AcDbEntity
  8
0
  6
Continuous
 62
     7
370
    15
100
AcDbLine
 10
31.1420835099
 20
1.5
 30
0.0
 11
131.825
 21
1.5
 31
0.0
  0
LINE
  5
10E
330
F2
100
AcDbEntity
  8
0
  6
Continuous
 62
     7
370
    15
100
AcDbLine
 10
31.1420835099
 20
0.0
 30
0.0
 11
131.825
 21
0.0
 31
0.0
  0
LINE
  5
10F
330
F2
100
AcDbEntity
  8
0
  6
Continuous
 62
     7
370
    15
100
AcDbLine
 10
131.825
 20
0.0
 30
0.0
 11
131.825
 21
1.5
 31
0.0
  0
LINE
  5
110
330
F2
100
AcDbEntity
  8
0
  6
Continuous
 62
     7
370
    15
100
AcDbLine
 10
129.825
 20
-1.5
 30
0.0
 11
129.825
 21
0.0
 31
0.0
  0
LINE
  5
111
330
F2
100
AcDbEntity
  8
0
  6
Continuous
 62
     7
370
    15
100
AcDbLine
 10
36.755
 20
-1.5
 30
0.0
 11
129.825
 21
-1.5
 31
0.0
  0
VIEWPORT
  5
178
330
F2
100
AcDbEntity
  8
0
100
AcDbViewport
 10
0.0
 20
0.0
 30
0.0
 40
243.84
 41
204.216
 68
     1
 69
     1
 12
-43.77645812
 22
19.3112279277
 13
0.0
 23
0.0
 14
10.0
 24
10.0
 15
10.0
 25
10.0
 16
0.0
 26
0.0
 36
1.0
 17
0.0
 27
0.0
 37
0.0
 42
50.0
 43
0.0
 44
0.0
 45
66.7821375176
 50
0.0
 51
0.0
 72
   100
 90
   557152
  1

281
     0
 71
     1
 74
     0
110
0.0
120
0.0
130
0.0
111
1.0
121
0.0
131
0.0
112
0.0
122
1.0
132
0.0
 79
     0
146
0.0
170
     0
 61
     5
292
     1
282
     1
141
0.0
142
0.0
 63
   256
  0
ENDBLK
  5
F5
330
F2
100
AcDbEntity
  8
0
100
AcDbBlockEnd
  0
BLOCK
  5
114
330
112
100
AcDbEntity
  8
0
100
AcDbBlockBegin
  2
*Paper_Space5
 70
     0
 10
0.0
 20
0.0
 30
0.0
  3
*Paper_Space5
  1

  0
LWPOLYLINE
  5
118
330
112
100
AcDbEntity
  8
0
  6
Continuous
 62
     7
370
    15
100
AcDbPolyline
 90
      107
 70
   128
 43
0.0
 10
21.7884949253
 20
8.9578257353
 10
22.0116637344
 20
8.5267802163
 10
22.2318351364
 20
8.0945474064
 10
22.4489805281
 20
7.6611834584
 10
22.6630716995
 20
7.2267446722
 10
22.8740808371
 20
6.7912874873
 10
23.081980528
 20
6.3548684753
 10
23.2867437632
 20
5.9175443332
 10
23.4883439413
 20
5.4793718751
 10
23.6867548715
 20
5.0404080256
 10
23.8819507778
 20
4.6007098121
 10
24.0739063014
 20
4.1603343573
 10
24.2625965047
 20
3.7193388719
 10
24.4479968744
 20
3.2777806472
 10
24.6300833245
 20
2.8357170477
 10
24.8088321993
 20
2.3932055033
 10
24.9842202771
 20
1.9503035022
 10
25.1562247725
 20
1.5070685835
 10
25.3248233399
 20
1.0635583294
 10
25.489994076
 20
0.6198303578
 10
25.6517155229
 20
0.175942315
 10
25.8099666707
 20
-0.2680481319
 10
25.9647269606
 20
-0.7120833026
 10
26.1159762871
 20
-1.1561055109
 10
26.2636950008
 20
-1.6000570723
 10
26.407863911
 20
-2.0438803114
 10
26.5484642883
 20
-2.4875175697
 10
26.6854778669
 20
-2.9309112127
 10
26.8188868467
 20
-3.3740036374
 10
26.9486738961
 20
-3.8167372803
 10
27.0748221541
 20
-4.2590546243
 10
27.1973152322
 20
-4.7008982062
 10
27.3161372171
 20
-5.1422106248
 10
27.431272672
 20
-5.5829345474
 10
27.5427066394
 20
-6.0230127181
 10
27.6504246424
 20
-6.4623879649
 10
27.754412687
 20
-6.9010032068
 10
27.8546572639
 20
-7.338801462
 10
27.9511453497
 20
-7.7757258543
 10
28.0438644096
 20
-8.2117196216
 10
28.1328023979
 20
-8.6467261221
 10
28.2179477604
 20
-9.0806888429
 10
28.2992894356
 20
-9.5135514061
 10
28.3768168562
 20
-9.9452575771
 10
28.4505199502
 20
-10.3757512714
 10
28.5203891426
 20
-10.8049765622
 10
28.5864153565
 20
-11.2328776871
 10
28.6485900141
 20
-11.6593990561
 10
28.7069050382
 20
-12.0844852582
 10
28.7613528529
 20
-12.5080810691
 10
28.8119263846
 20
-12.9301314578
 10
28.8586190631
 20
-13.3505815944
 10
28.9014248224
 20
-13.7693768566
 10
28.9403381015
 20
-14.1864628373
 10
28.975353845
 20
-14.6017853514
 10
29.006467504
 20
-15.0152904429
 10
29.0336750362
 20
-15.4269243918
 10
29.0569729072
 20
-15.8366337214
 10
29.0763580901
 20
-16.2443652049
 10
29.0918280666
 20
-16.6500658723
 10
29.1033808269
 20
-17.0536830178
 10
29.1110148702
 20
-17.455164206
 10
29.1147292047
 20
-17.854457279
 10
29.1145233479
 20
-18.2515103633
 10
29.1103973264
 20
-18.6462718763
 10
29.1023516764
 20
-19.0386905332
 10
29.090387443
 20
-19.4287153534
 10
29.0745061806
 20
-19.8162956675
 10
29.0547099524
 20
-20.2013811235
 10
29.0310013302
 20
-20.5839216936
 10
29.0033833939
 20
-20.9638676806
 10
28.9718597317
 20
-21.3411697245
 10
28.9364344388
 20
-21.7157788085
 10
28.8971121175
 20
-22.0876462658
 10
28.8538978762
 20
-22.456723786
 10
28.8067973291
 20
-22.8229634207
 10
28.7558165952
 20
-23.1863175905
 10
28.7009622975
 20
-23.5467390908
 10
28.6422415625
 20
-23.904181098
 10
28.5796620186
 20
-24.2585971755
 10
28.5132317958
 20
-24.6099412798
 10
28.4429595243
 20
-24.9581677666
 10
28.3688543335
 20
-25.3032313966
 10
28.2909258505
 20
-25.6450873414
 10
28.2091841994
 20
-25.9836911892
 10
28.1236399996
 20
-26.3189989508
 10
28.0343043642
 20
-26.6509670651
 10
27.9411888994
 20
-26.9795524052
 10
27.8443057019
 20
-27.3047122831
 10
27.7436673583
 20
-27.6264044564
 10
27.6392869429
 20
-27.9445871328
 10
27.531178016
 20
-28.2592189761
 10
27.4193546225
 20
-28.5702591114
 10
27.3038312897
 20
-28.8776671303
 10
27.1846230257
 20
-29.1814030964
 10
27.0617453173
 20
-29.4814275502
 10
26.935214128
 20
-29.7777015146
 10
26.8050458958
 20
-30.0701864995
 10
26.6712575313
 20
-30.3588445072
 10
26.5338664156
 20
-30.6436380371
 10
26.3928903975
 20
-30.9245300906
 10
26.2483477917
 20
-31.2014841762
 10
26.1002573764
 20
-31.4744643136
 10
25.9486383903
 20
-31.7434350391
 10
25.793510531
 20
-32.0083614098
 10
25.6348939515
 20
-32.2692090081
 10
25.4728092584
 20
-32.5259439465
  0
LWPOLYLINE
  5
119
330
112
100
AcDbEntity
  8
0
  6
Continuous
 62
     7
370
    15
100
AcDbPolyline
 90
       54
 70
   128
 43
0.0
 10
22.8236631044
 20
14.4444376857
 10
22.7206701871
 20
14.440745983
 10
22.6196062151
 20
14.4319132506
 10
22.5205892494
 20
14.4179498066
 10
22.4237349599
 20
14.398871963
 10
22.3291564899
 20
14.3747020059
 10
22.2369643241
 20
14.3454681705
 10
22.1472661597
 20
14.311204607
 10
22.0601667804
 20
14.2719513415
 10
21.975767934
 20
14.2277542289
 10
21.8941682137
 20
14.1786648995
 10
21.8154629428
 20
14.1247406986
 10
21.7397440631
 20
14.0660446192
 10
21.6671000282
 20
14.0026452291
 10
21.5976156994
 20
13.9346165903
 10
21.5313722469
 20
13.8620381724
 10
21.4684470551
 20
13.7849947604
 10
21.4089136321
 20
13.7035763547
 10
21.3528415236
 20
13.6178780669
 10
21.3002962321
 20
13.528000008
 10
21.2513391399
 20
13.434047172
 10
21.2060274378
 20
13.3361293127
 10
21.164414058
 20
13.2343608159
 10
21.1265476126
 20
13.1288605658
 10
21.0924723364
 20
13.0197518055
 10
21.0622280355
 20
12.9071619941
 10
21.0358500407
 20
12.7912226567
 10
21.0133691663
 20
12.6720692314
 10
20.994811674
 20
12.5498409112
 10
20.9801992423
 20
12.4246804807
 10
20.9695489413
 20
12.29673415
 10
20.9628732123
 20
12.1661513837
 10
20.9601798538
 20
12.033084726
 10
20.9614720122
 20
11.8976896228
 10
20.966748178
 20
11.7601242403
 10
20.9760021877
 20
11.6205492796
 10
20.9892232309
 20
11.4791277896
 10
21.0063958631
 20
11.3360249762
 10
21.0275000234
 20
11.1914080094
 10
21.0525110585
 20
11.045445828
 10
21.0813997508
 20
10.8983089423
 10
21.1141323533
 20
10.7501692348
 10
21.1506706282
 20
10.6011997595
 10
21.1909718922
 20
10.4515745397
 10
21.2349890663
 20
10.3014683648
 10
21.2826707302
 20
10.151056586
 10
21.3339611833
 20
10.0005149114
 10
21.388800509
 20
9.850019201
 10
21.447124645
 20
9.6997452611
 10
21.5088654582
 20
9.5498686389
 10
21.5739508241
 20
9.4005644172
 10
21.6423047112
 20
9.2520070107
 10
21.7138472698
 20
9.1043699611
 10
21.7884949253
 20
8.9578257353
  0
LINE
  5
127
330
112
100
AcDbEntity
  8
0
  6
Continuous
 62
     7
370
    15
100
AcDbLine
 10
91.1542049814
 20
-69.2892895298
 30
0.0
 11
92.2148651532
 21
-68.676983446
 31
0.0
  0
LINE
  5
128
330
112
100
AcDbEntity
  8
0
  6
Continuous
 62
     7
370
    15
100
AcDbLine
 10
23.0202647069
 20
14.8308535737
 30
0.0
 11
21.9596045351
 21
14.2185474899
 31
0.0
  0
LINE
  5
129
330
112
100
AcDbEntity
  8
0
  6
Continuous
 62
     7
370
    15
100
AcDbLine
 10
78.8689652681
 20
-20.2262116939
 30
0.0
 11
26.3399026795
 21
13.2771543734
 31
0.0
  0
LINE
  5
12A
330
112
100
AcDbEntity
  8
0
  6
Continuous
 62
     7
370
    15
100
AcDbLine
 10
92.1536912581
 20
-67.0801883386
 30
0.0
 11
92.1536912581
 21
-44.061057378
 31
0.0
  0
LINE
  5
12B
330
112
100
AcDbEntity
  8
0
  6
Continuous
 62
     7
370
    15
100
AcDbLine
 10
25.4728092584
 20
-32.5259439465
 30
0.0
 11
88.7419010389
 21
-69.0504131862
 31
0.0
  0
LINE
  5
12C
330
112
100
AcDbEntity
  8
0
  6
Continuous
 62
     7
370
    15
100
AcDbLine
 10
79.9296254399
 20
-19.61390561
 30
0.0
 11
27.4005628512
 21
13.8894604573
 31
0.0
  0
LINE
  5
12D
330
112
100
AcDbEntity
  8
0
  6
Continuous
 62
     7
370
    15
100
AcDbLine
 10
93.2143514299
 20
-66.4678822547
 30
0.0
 11
93.2143514299
 21
-43.4487512942
 31
0.0
  0
ARC
  5
12E
330
112
100
AcDbEntity
  8
0
  6
Continuous
 62
     7
370
    15
100
AcDbCircle
 10
22.5916329666
 20
7.8658127603
 30
0.0
 40
6.582715541012657
100
AcDbArc
 50
55.2908466064
 51
87.9799974652
  0
ARC
  5
12F
330
112
100
AcDbEntity
  8
0
  6
Continuous
 62
     7
370
    15
100
AcDbCircle
 10
61.5099032731
 20
-45.5212061212
 30
0.0
 40
30.67855564435812
100
AcDbArc
 50
2.7280286441
 51
55.5395654729
  0
ARC
  5
130
330
112
100
AcDbEntity
  8
0
  6
Continuous
 62
     7
370
    15
100
AcDbCircle
 10
90.0701821353
 20
-67.4113958041
 30
0.0
 40
2.109670270439281
100
AcDbArc
 50
230.978239683
 51
9.0325120718
  0
ARC
  5
131
330
112
100
AcDbEntity
  8
0
  6
Continuous
 62
     7
370
    15
100
AcDbCircle
 10
62.5705634449
 20
-44.9089000373
 30
0.0
 40
30.67855564435809
100
AcDbArc
 50
2.7280286441
 51
55.5395654729
  0
ARC
  5
132
330
112
100
AcDbEntity
  8
0
  6
Continuous
 62
     7
370
    15
100
AcDbCircle
 10
65.8334366366
 20
-43.1024195485
 30
0.0
 40
27.19881883700656
100
AcDbArc
 50
9.4579809078
 51
49.8564387631
  0
ARC
  5
133
330
112
100
AcDbEntity
  8
0
  6
Continuous
 62
     7
370
    15
100
AcDbCircle
 10
90.817090185
 20
-66.7139192997
 30
0.0
 40
2.409853876041757
100
AcDbArc
 50
305.4522856647
 51
5.8598947287
  0
ARC
  5
134
330
112
100
AcDbEntity
  8
0
  6
Continuous
 62
     7
370
    15
100
AcDbCircle
 10
23.6522931384
 20
8.4781188442
 30
0.0
 40
6.582715541012847
100
AcDbArc
 50
55.2908466064
 51
87.9799974652
  0
ARC
  5
135
330
112
100
AcDbEntity
  8
0
  6
Continuous
 62
     7
370
    15
100
AcDbCircle
 10
23.8787762598
 20
13.312450055
 30
0.0
 40
1.744302534606113
100
AcDbArc
 50
89.8177947013
 51
119.4839952326
  0
VIEWPORT
  5
179
330
112
100
AcDbEntity
  8
0
100
AcDbViewport
 10
0.0
 20
0.0
 30
0.0
 40
243.84
 41
204.216
 68
     1
 69
     1
 12
-43.77645812
 22
19.3112279277
 13
0.0
 23
0.0
 14
10.0
 24
10.0
 15
10.0
 25
10.0
 16
0.0
 26
0.0
 36
1.0
 17
0.0
 27
0.0
 37
0.0
 42
50.0
 43
0.0
 44
0.0
 45
66.7821375176
 50
0.0
 51
0.0
 72
   100
 90
   557152
  1

281
     0
 71
     1
 74
     0
110
0.0
120
0.0
130
0.0
111
1.0
121
0.0
131
0.0
112
0.0
122
1.0
132
0.0
 79
     0
146
0.0
170
     0
 61
     5
292
     1
282
     1
141
0.0
142
0.0
 63
   256
  0
ENDBLK
  5
115
330
112
100
AcDbEntity
  8
0
100
AcDbBlockEnd
  0
BLOCK
  5
138
330
136
100
AcDbEntity
  8
0
100
AcDbBlockBegin
  2
*Paper_Space6
 70
     0
 10
0.0
 20
0.0
 30
0.0
  3
*Paper_Space6
  1

  0
LWPOLYLINE
  5
13C
330
136
100
AcDbEntity
  8
0
  6
Continuous
 62
     7
370
    15
100
AcDbPolyline
 90
      107
 70
   128
 43
0.0
 10
27.8786770909
 20
15.4427641361
 10
28.1578068407
 20
15.0496533249
 10
28.4331875654
 20
14.654498595
 10
28.7047834892
 20
14.2573512822
 10
28.9725593283
 20
13.8582629815
 10
29.2364802948
 20
13.4572855397
 10
29.4965121019
 20
13.0544710493
 10
29.7526209679
 20
12.6498718413
 10
30.0047736209
 20
12.2435404786
 10
30.2529373027
 20
11.8355297492
 10
30.4970797736
 20
11.4258926592
 10
30.7371693162
 20
11.0146824259
 10
30.9731747395
 20
10.6019524712
 10
31.2050653833
 20
10.1877564143
 10
31.4328111219
 20
9.7721480648
 10
31.6563823679
 20
9.3551814159
 10
31.8757500765
 20
8.9369106371
 10
32.0908857489
 20
8.5173900676
 10
32.3017614359
 20
8.0966742087
 10
32.508349742
 20
7.6748177171
 10
32.7106238286
 20
7.2518753977
 10
32.9085574175
 20
6.8279021963
 10
33.1021247945
 20
6.4029531929
 10
33.2913008125
 20
5.9770835941
 10
33.4760608951
 20
5.5503487261
 10
33.6563810394
 20
5.1228040275
 10
33.8322378194
 20
4.6945050422
 10
34.0036083888
 20
4.265507412
 10
34.1704704844
 20
3.8358668695
 10
34.3328024285
 20
3.4056392308
 10
34.490583132
 20
2.9748803883
 10
34.6437920971
 20
2.5436463035
 10
34.7924094197
 20
2.1119929994
 10
34.9364157926
 20
1.6799765536
 10
35.0757925073
 20
1.247653091
 10
35.2105214569
 20
0.8150787762
 10
35.3405851383
 20
0.3823098065
 10
35.4659666545
 20
-0.0505975956
 10
35.5866497167
 20
-0.4835871896
 10
35.7026186466
 20
-0.9166027242
 10
35.8138583782
 20
-1.3495879449
 10
35.92035446
 20
-1.7824866011
 10
36.0220930567
 20
-2.2152424533
 10
36.1190609511
 20
-2.6477992807
 10
36.2112455456
 20
-3.0801008883
 10
36.2986348644
 20
-3.5120911144
 10
36.3812175544
 20
-3.9437138374
 10
36.4589828869
 20
-4.3749129839
 10
36.5319207592
 20
-4.8056325351
 10
36.6000216956
 20
-5.2358165348
 10
36.6632768489
 20
-5.6654090963
 10
36.7216780015
 20
-6.0943544097
 10
36.7752175662
 20
-6.5225967491
 10
36.8238885876
 20
-6.9500804802
 10
36.8676847425
 20
-7.3767500669
 10
36.9066003413
 20
-7.8025500792
 10
36.9406303282
 20
-8.2274251998
 10
36.9697702825
 20
-8.6513202318
 10
36.9940164183
 20
-9.0741801054
 10
37.0133655859
 20
-9.4959498853
 10
37.0278152713
 20
-9.9165747781
 10
37.0373635976
 20
-10.3360001389
 10
37.0420093241
 20
-10.7541714785
 10
37.0417518474
 20
-11.171034471
 10
37.0365912009
 20
-11.5865349601
 10
37.026528055
 20
-12.0006189667
 10
37.0115637171
 20
-12.4132326958
 10
36.9917001313
 20
-12.8243225431
 10
36.966939878
 20
-13.2338351026
 10
36.9372861741
 20
-13.641717173
 10
36.9027428718
 20
-14.047915765
 10
36.8633144589
 20
-14.4523781079
 10
36.8190060576
 20
-14.8550516564
 10
36.7698234243
 20
-15.255884098
 10
36.7157729483
 20
-15.6548233589
 10
36.6568616516
 20
-16.0518176117
 10
36.5930971875
 20
-16.4468152814
 10
36.52448784
 20
-16.8397650524
 10
36.4510425222
 20
-17.2306158753
 10
36.3727707758
 20
-17.6193169732
 10
36.2896827693
 20
-18.0058178487
 10
36.2017892969
 20
-18.3900682899
 10
36.1091017772
 20
-18.7720183777
 10
36.0116322516
 20
-19.1516184914
 10
35.9093933827
 20
-19.528819316
 10
35.8023984527
 20
-19.9035718479
 10
35.6906613616
 20
-20.2758274017
 10
35.5741966257
 20
-20.6455376164
 10
35.4530193752
 20
-21.0126544616
 10
35.3271453528
 20
-21.3771302438
 10
35.1965909112
 20
-21.7389176128
 10
35.0613730112
 20
-22.0979695674
 10
34.9215092194
 20
-22.454239462
 10
34.7770177059
 20
-22.8076810123
 10
34.6279172423
 20
-23.1582483014
 10
34.4742271987
 20
-23.5058957858
 10
34.3159675414
 20
-23.8505783016
 10
34.1531588307
 20
-24.1922510697
 10
33.9858222174
 20
-24.5308697023
 10
33.8139794409
 20
-24.8663902082
 10
33.637652826
 20
-25.1987689987
 10
33.4568652798
 20
-25.5279628933
 10
33.271640289
 20
-25.8539291254
 10
33.082001917
 20
-26.1766253475
 10
32.8879748002
 20
-26.4960096369
 10
32.6895841455
 20
-26.8120405014
 10
32.4868557265
 20
-27.1246768843
  0
LWPOLYLINE
  5
13D
330
136
100
AcDbEntity
  8
0
  6
Continuous
 62
     7
370
    15
100
AcDbPolyline
 90
       54
 70
   128
 43
0.0
 10
29.173420008
 20
21.4777983157
 10
29.0446009881
 20
21.4465184143
 10
28.9181946084
 20
21.4103549512
 10
28.7943485344
 20
21.3693501718
 10
28.6732074408
 20
21.3235519773
 10
28.5549128422
 20
21.2730138681
 10
28.4396029282
 20
21.217794882
 10
28.3274124017
 20
21.1579595246
 10
28.2184723215
 20
21.0935776946
 10
28.1129099494
 20
21.0247246016
 10
28.0108486013
 20
20.9514806784
 10
27.9124075033
 20
20.8739314873
 10
27.8177016526
 20
20.7921676197
 10
27.7268416826
 20
20.7062845906
 10
27.6399337342
 20
20.6163827269
 10
27.5570793318
 20
20.5225670504
 10
27.4783752642
 20
20.4249471547
 10
27.403913472
 20
20.3236370775
 10
27.3337809402
 20
20.2187551674
 10
27.2680595961
 20
20.1104239454
 10
27.2068262143
 20
19.998769962
 10
27.1501523264
 20
19.8839236492
 10
27.0981041377
 20
19.7660191684
 10
27.05074245
 20
19.6451942534
 10
27.0081225904
 20
19.5215900495
 10
26.9702943465
 20
19.3953509488
 10
26.9373019085
 20
19.2666244214
 10
26.9091838176
 20
19.1355608433
 10
26.8859729209
 20
19.0023133205
 10
26.8676963328
 20
18.8670375101
 10
26.8543754037
 20
18.7298914388
 10
26.846025695
 20
18.5910353181
 10
26.8426569604
 20
18.4506313571
 10
26.8442731355
 20
18.308843573
 10
26.8508723321
 20
18.1658375996
 10
26.8624468411
 20
18.0217804938
 10
26.8789831416
 20
17.8768405403
 10
26.900461916
 20
17.7311870554
 10
26.9268580734
 20
17.5849901887
 10
26.9581407781
 20
17.4384207244
 10
26.9942734864
 20
17.2916498825
 10
27.0352139886
 20
17.1448491176
 10
27.080914459
 20
16.9981899199
 10
27.1313215109
 20
16.8518436136
 10
27.1863762599
 20
16.7059811579
 10
27.2460143921
 20
16.5607729465
 10
27.3101662393
 20
16.4163886088
 10
27.3787568606
 20
16.272996812
 10
27.4517061296
 20
16.1307650636
 10
27.5289288285
 20
15.989859516
 10
27.6103347471
 20
15.8504447725
 10
27.6958287885
 20
15.7126836947
 10
27.7853110803
 20
15.5767372125
 10
27.8786770909
 20
15.4427641361
  0
LWPOLYLINE
  5
140
330
136
100
AcDbEntity
  8
0
  6
Continuous
 62
     7
370
    15
100
AcDbPolyline
 90
       92
 70
   128
 43
0.0
 10
115.8883758067
 20
-21.4911569915
 10
115.8859349561
 20
-21.206953927
 10
115.8786130836
 20
-20.9215032484
 10
115.8664122279
 20
-20.6348844311
 10
115.849335786
 20
-20.3471772753
 10
115.8273885122
 20
-20.0584618844
 10
115.8005765171
 20
-19.7688186426
 10
115.7689072658
 20
-19.4783281925
 10
115.7323895755
 20
-19.1870714122
 10
115.6910336135
 20
-18.8951293935
 10
115.6448508942
 20
-18.6025834189
 10
115.5938542757
 20
-18.309514939
 10
115.5380579566
 20
-18.01600555
 10
115.4774774715
 20
-17.7221369707
 10
115.4121296874
 20
-17.4279910201
 10
115.3420327984
 20
-17.1336495941
 10
115.2672063208
 20
-16.8391946434
 10
115.1876710878
 20
-16.54470815
 10
115.1034492437
 20
-16.250272105
 10
115.0145642374
 20
-15.9559684851
 10
114.9210408164
 20
-15.6618792304
 10
114.8229050194
 20
-15.3680862213
 10
114.7201841693
 20
-15.0746712554
 10
114.6129068658
 20
-14.7817160255
 10
114.5011029769
 20
-14.4893020961
 10
114.3848036312
 20
-14.1975108811
 10
114.2640412086
 20
-13.9064236209
 10
114.1388493318
 20
-13.6161213602
 10
114.0092628567
 20
-13.3266849248
 10
113.8753178629
 20
-13.0381948996
 10
113.7370516432
 20
-12.750731606
 10
113.5945026938
 20
-12.4643750796
 10
113.4477107031
 20
-12.1792050477
 10
113.2967165409
 20
-11.8953009073
 10
113.1415622471
 20
-11.612741703
 10
112.9822910197
 20
-11.3316061049
 10
112.8189472029
 20
-11.0519723869
 10
112.6515762749
 20
-10.7739184045
 10
112.4802248353
 20
-10.4975215734
 10
112.3049405915
 20
-10.2228588482
 10
112.1257723464
 20
-9.9500067003
 10
111.9427699837
 20
-9.6790410973
 10
111.7559844552
 20
-9.4100374815
 10
111.5654677656
 20
-9.1430707486
 10
111.3712729585
 20
-8.8782152278
 10
111.1734541017
 20
-8.6155446599
 10
110.9720662719
 20
-8.3551321778
 10
110.7671655395
 20
-8.0970502855
 10
110.5588089529
 20
-7.8413708381
 10
110.3470545228
 20
-7.5881650219
 10
110.1319612059
 20
-7.3375033345
 10
109.9135888883
 20
-7.089455565
 10
109.6919983693
 20
-6.844090775
 10
109.4672513442
 20
-6.6014772788
 10
109.239410387
 20
-6.361682625
 10
109.0085389332
 20
-6.1247735771
 10
108.774701262
 20
-5.8908160953
 10
108.5379624785
 20
-5.6598753181
 10
108.2983884954
 20
-5.4320155441
 10
108.056046015
 20
-5.2073002138
 10
107.8110025103
 20
-4.9857918926
 10
107.5633262062
 20
-4.7675522528
 10
107.3130860608
 20
-4.5526420567
 10
107.0603517459
 20
-4.3411211395
 10
106.8051936279
 20
-4.133048393
 10
106.5476827478
 20
-3.9284817486
 10
106.2878908017
 20
-3.7274781619
 10
106.0258901211
 20
-3.5300935963
 10
105.761753652
 20
-3.3363830075
 10
105.4955549354
 20
-3.1464003285
 10
105.2273680863
 20
-2.9601984542
 10
104.9572677732
 20
-2.777829227
 10
104.6853291976
 20
-2.5993434221
 10
104.4116280724
 20
-2.4247907335
 10
104.1362406017
 20
-2.2542197601
 10
103.8592434586
 20
-2.0876779923
 10
103.5807137649
 20
-1.9252117988
 10
103.3007290687
 20
-1.7668664132
 10
103.0193673233
 20
-1.6126859221
 10
102.7367068655
 20
-1.4627132525
 10
102.4528263935
 20
-1.3169901598
 10
102.1678049455
 20
-1.1755572161
 10
101.8817218769
 20
-1.0384537992
 10
101.5946568392
 20
-0.9057180814
 10
101.3066897569
 20
-0.7773870191
 10
101.0179008057
 20
-0.6534963421
 10
100.7283703904
 20
-0.5340805441
 10
100.438179122
 20
-0.4191728728
 10
100.1474077954
 20
-0.3088053208
 10
99.8561373673
 20
-0.2030086167
 10
99.5644489332
 20
-0.1018122163
 10
99.2724237049
 20
-0.0052442948
  0
LWPOLYLINE
  5
144
330
136
100
AcDbEntity
  8
0
  6
Continuous
 62
     7
370
    15
100
AcDbPolyline
 90
       92
 70
   128
 43
0.0
 10
116.5884188901
 20
-20.8078934813
 10
116.5859780394
 20
-20.5236904168
 10
116.578656167
 20
-20.2382397382
 10
116.5664553113
 20
-19.9516209209
 10
116.5493788694
 20
-19.663913765
 10
116.5274315956
 20
-19.3751983742
 10
116.5006196005
 20
-19.0855551324
 10
116.4689503492
 20
-18.7950646822
 10
116.4324326589
 20
-18.503807902
 10
116.3910766969
 20
-18.2118658833
 10
116.3448939776
 20
-17.9193199087
 10
116.2938973591
 20
-17.6262514288
 10
116.23810104
 20
-17.3327420398
 10
116.1775205549
 20
-17.0388734605
 10
116.1121727708
 20
-16.7447275099
 10
116.0420758818
 20
-16.4503860839
 10
115.9672494042
 20
-16.1559311332
 10
115.8877141712
 20
-15.8614446398
 10
115.8034923271
 20
-15.5670085948
 10
115.7146073208
 20
-15.2727049749
 10
115.6210838998
 20
-14.9786157202
 10
115.5229481028
 20
-14.6848227111
 10
115.4202272527
 20
-14.3914077452
 10
115.3129499492
 20
-14.0984525153
 10
115.2011460603
 20
-13.8060385859
 10
115.0848467146
 20
-13.5142473708
 10
114.964084292
 20
-13.2231601107
 10
114.8388924152
 20
-12.93285785
 10
114.7093059401
 20
-12.6434214146
 10
114.5753609463
 20
-12.3549313894
 10
114.4370947266
 20
-12.0674680958
 10
114.2945457772
 20
-11.7811115694
 10
114.1477537865
 20
-11.4959415375
 10
113.9967596243
 20
-11.2120373971
 10
113.8416053305
 20
-10.9294781928
 10
113.6823341031
 20
-10.6483425947
 10
113.5189902863
 20
-10.3687088767
 10
113.3516193583
 20
-10.0906548943
 10
113.1802679187
 20
-9.8142580632
 10
113.0049836749
 20
-9.539595338
 10
112.8258154297
 20
-9.2667431901
 10
112.6428130671
 20
-8.9957775871
 10
112.4560275386
 20
-8.7267739713
 10
112.265510849
 20
-8.4598072384
 10
112.0713160419
 20
-8.1949517176
 10
111.8734971851
 20
-7.9322811497
 10
111.6721093553
 20
-7.6718686676
 10
111.4672086229
 20
-7.4137867753
 10
111.2588520363
 20
-7.1581073279
 10
111.0470976062
 20
-6.9049015117
 10
110.8320042892
 20
-6.6542398243
 10
110.6136319717
 20
-6.4061920548
 10
110.3920414527
 20
-6.1608272648
 10
110.1672944276
 20
-5.9182137686
 10
109.9394534704
 20
-5.6784191148
 10
109.7085820166
 20
-5.4415100668
 10
109.4747443454
 20
-5.2075525851
 10
109.2380055619
 20
-4.9766118079
 10
108.9984315788
 20
-4.7487520339
 10
108.7560890984
 20
-4.5240367036
 10
108.5110455937
 20
-4.3025283824
 10
108.2633692896
 20
-4.0842887426
 10
108.0131291442
 20
-3.8693785465
 10
107.7603948293
 20
-3.6578576293
 10
107.5052367113
 20
-3.4497848828
 10
107.2477258312
 20
-3.2452182384
 10
106.9879338851
 20
-3.0442146517
 10
106.7259332045
 20
-2.8468300861
 10
106.4617967354
 20
-2.6531194973
 10
106.1955980188
 20
-2.4631368183
 10
105.9274111697
 20
-2.276934944
 10
105.6573108566
 20
-2.0945657168
 10
105.385372281
 20
-1.9160799119
 10
105.1116711558
 20
-1.7415272232
 10
104.8362836851
 20
-1.5709562499
 10
104.559286542
 20
-1.4044144821
 10
104.2807568483
 20
-1.2419482885
 10
104.0007721521
 20
-1.083602903
 10
103.7194104067
 20
-0.9294224119
 10
103.4367499488
 20
-0.7794497423
 10
103.1528694769
 20
-0.6337266496
 10
102.8678480289
 20
-0.4922937059
 10
102.5817649603
 20
-0.355190289
 10
102.2946999226
 20
-0.2224545712
 10
102.0067328403
 20
-0.0941235089
 10
101.7179438891
 20
0.0297671681
 10
101.4284134738
 20
0.1491829661
 10
101.1382222054
 20
0.2640906374
 10
100.8474508788
 20
0.3744581894
 10
100.5561804507
 20
0.4802548935
 10
100.2644920166
 20
0.5814512939
 10
99.9724667883
 20
0.6780192154
  0
LINE
  5
14A
330
136
100
AcDbEntity
  8
0
  6
Continuous
 62
     7
370
    15
100
AcDbLine
 10
114.9912154851
 20
-47.9487466702
 30
0.0
 11
115.6912585685
 21
-47.26548316
 31
0.0
  0
LINE
  5
14B
330
136
100
AcDbEntity
  8
0
  6
Continuous
 62
     7
370
    15
100
AcDbLine
 10
28.4397833246
 20
21.4022198675
 30
0.0
 11
27.7397402412
 21
20.7189563573
 31
0.0
  0
LINE
  5
14C
330
136
100
AcDbEntity
  8
0
  6
Continuous
 62
     7
370
    15
100
AcDbLine
 10
99.2724237049
 20
-0.0052442948
 30
0.0
 11
33.5713781143
 21
21.1880441917
 31
0.0
  0
LINE
  5
14D
330
136
100
AcDbEntity
  8
0
  6
Continuous
 62
     7
370
    15
100
AcDbLine
 10
115.8883758067
 20
-45.6555907378
 30
0.0
 11
115.8883758067
 21
-21.4911569915
 31
0.0
  0
LINE
  5
14E
330
136
100
AcDbEntity
  8
0
  6
Continuous
 62
     7
370
    15
100
AcDbLine
 10
32.4868557265
 20
-27.1246768843
 30
0.0
 11
111.6210583696
 21
-48.6316575218
 31
0.0
  0
LINE
  5
14F
330
136
100
AcDbEntity
  8
0
  6
Continuous
 62
     7
370
    15
100
AcDbLine
 10
99.9724667883
 20
0.6780192154
 30
0.0
 11
34.2714211977
 21
21.8713077019
 31
0.0
  0
LINE
  5
150
330
136
100
AcDbEntity
  8
0
  6
Continuous
 62
     7
370
    15
100
AcDbLine
 10
116.5884188901
 20
-44.9723272276
 30
0.0
 11
116.5884188901
 21
-20.8078934813
 31
0.0
  0
ARC
  5
151
330
136
100
AcDbEntity
  8
0
  6
Continuous
 62
     7
370
    15
100
AcDbCircle
 10
30.8367750391
 20
13.2030904264
 30
0.0
 40
8.440233445425854
100
AcDbArc
 50
71.0952323381
 51
101.3659373521
  0
ARC
  5
152
330
136
100
AcDbEntity
  8
0
  6
Continuous
 62
     7
370
    15
100
AcDbCircle
 10
112.7496157816
 20
-45.7024312256
 30
0.0
 40
3.139109511714932
100
AcDbArc
 50
248.9295775758
 51
0.8549755447
  0
ARC
  5
153
330
136
100
AcDbEntity
  8
0
  6
Continuous
 62
     7
370
    15
100
AcDbCircle
 10
113.4479298207
 20
-45.0657391932
 30
0.0
 40
3.141878003749501
100
AcDbArc
 50
315.5620308431
 51
1.7037263027
  0
ARC
  5
154
330
136
100
AcDbEntity
  8
0
  6
Continuous
 62
     7
370
    15
100
AcDbCircle
 10
31.5368181225
 20
13.8863539366
 30
0.0
 40
8.440233445426106
100
AcDbArc
 50
71.0952323381
 51
101.3659373521
  0
ARC
  5
155
330
136
100
AcDbEntity
  8
0
  6
Continuous
 62
     7
370
    15
100
AcDbCircle
 10
30.4798047268
 20
19.2817546052
 30
0.0
 40
2.94245819855394
100
AcDbArc
 50
101.8919295693
 51
133.892312414
  0
VIEWPORT
  5
17A
330
136
100
AcDbEntity
  8
0
100
AcDbViewport
 10
0.0
 20
0.0
 30
0.0
 40
243.84
 41
204.216
 68
     1
 69
     1
 12
-43.77645812
 22
19.3112279277
 13
0.0
 23
0.0
 14
10.0
 24
10.0
 15
10.0
 25
10.0
 16
0.0
 26
0.0
 36
1.0
 17
0.0
 27
0.0
 37
0.0
 42
50.0
 43
0.0
 44
0.0
 45
66.7821375176
 50
0.0
 51
0.0
 72
   100
 90
   557152
  1

281
     0
 71
     1
 74
     0
110
0.0
120
0.0
130
0.0
111
1.0
121
0.0
131
0.0
112
0.0
122
1.0
132
0.0
 79
     0
146
0.0
170
     0
 61
     5
292
     1
282
     1
141
0.0
142
0.0
 63
   256
  0
ENDBLK
  5
139
330
136
100
AcDbEntity
  8
0
100
AcDbBlockEnd
  0
BLOCK
  5
158
330
156
100
AcDbEntity
  8
0
100
AcDbBlockBegin
  2
*Paper_Space7
 70
     0
 10
0.0
 20
0.0
 30
0.0
  3
*Paper_Space7
  1

  0
LWPOLYLINE
  5
15C
330
156
100
AcDbEntity
  8
0
  6
Continuous
 62
     7
370
    15
100
AcDbPolyline
 90
      107
 70
   128
 43
0.0
 10
21.7884949253
 20
20.44980797
 10
22.0116637344
 20
20.0334349246
 10
22.2318351364
 20
19.6144223484
 10
22.4489805281
 20
19.1928246768
 10
22.6630716995
 20
18.768696681
 10
22.8740808371
 20
18.3420934611
 10
23.081980528
 20
17.9130704384
 10
23.2867437632
 20
17.481683349
 10
23.4883439413
 20
17.0479882359
 10
23.6867548715
 20
16.6120414418
 10
23.8819507778
 20
16.1738996023
 10
24.0739063014
 20
15.7336196378
 10
24.2625965047
 20
15.2912587466
 10
24.4479968744
 20
14.8468743975
 10
24.6300833245
 20
14.400524322
 10
24.8088321993
 20
13.952266507
 10
24.9842202771
 20
13.5021591872
 10
25.1562247725
 20
13.0502608377
 10
25.3248233399
 20
12.5966301662
 10
25.489994076
 20
12.1413261054
 10
25.6517155229
 20
11.6844078056
 10
25.8099666707
 20
11.2259346265
 10
25.9647269606
 20
10.7659661301
 10
26.1159762871
 20
10.3045620724
 10
26.2636950008
 20
9.8417823962
 10
26.407863911
 20
9.3776872226
 10
26.5484642883
 20
8.9123368441
 10
26.6854778669
 20
8.4457917159
 10
26.8188868467
 20
7.9781124485
 10
26.9486738961
 20
7.5093597998
 10
27.0748221541
 20
7.0395946671
 10
27.1973152322
 20
6.5688780792
 10
27.3161372171
 20
6.0972711886
 10
27.431272672
 20
5.6248352635
 10
27.5427066394
 20
5.1516316796
 10
27.6504246424
 20
4.6777219124
 10
27.754412687
 20
4.2031675293
 10
27.8546572639
 20
3.7280301814
 10
27.9511453497
 20
3.2523715953
 10
28.0438644096
 20
2.7762535656
 10
28.1328023979
 20
2.2997379464
 10
28.2179477604
 20
1.8228866435
 10
28.2992894356
 20
1.3457616065
 10
28.3768168562
 20
0.8684248203
 10
28.4505199502
 20
0.3909382973
 10
28.5203891426
 20
-0.0866359303
 10
28.5864153565
 20
-0.5642358194
 10
28.6485900141
 20
-1.0417993232
 10
28.7069050382
 20
-1.5192643996
 10
28.7613528529
 20
-1.9965690197
 10
28.8119263846
 20
-2.473651175
 10
28.8586190631
 20
-2.9504488861
 10
28.9014248224
 20
-3.4269002105
 10
28.9403381015
 20
-3.9029432508
 10
28.975353845
 20
-4.3785161625
 10
29.006467504
 20
-4.8535571623
 10
29.0336750362
 20
-5.328004536
 10
29.0569729072
 20
-5.8017966463
 10
29.0763580901
 20
-6.2748719413
 10
29.0918280666
 20
-6.7471689621
 10
29.1033808269
 20
-7.2186263509
 10
29.1110148702
 20
-7.689182859
 10
29.1147292047
 20
-8.1587773549
 10
29.1145233479
 20
-8.6273488317
 10
29.1103973264
 20
-9.0948364158
 10
29.1023516764
 20
-9.5611793741
 10
29.090387443
 20
-10.0263171224
 10
29.0745061806
 20
-10.4901892331
 10
29.0547099524
 20
-10.9527354428
 10
29.0310013302
 20
-11.4138956605
 10
29.0033833939
 20
-11.8736099753
 10
28.9718597317
 20
-12.3318186642
 10
28.9364344388
 20
-12.7884621995
 10
28.8971121175
 20
-13.243481257
 10
28.8538978762
 20
-13.6968167238
 10
28.8067973291
 20
-14.1484097053
 10
28.7558165952
 20
-14.5982015335
 10
28.7009622975
 20
-15.0461337745
 10
28.6422415625
 20
-15.4921482356
 10
28.5796620186
 20
-15.9361869736
 10
28.5132317958
 20
-16.3781923019
 10
28.4429595243
 20
-16.818106798
 10
28.3688543335
 20
-17.255873311
 10
28.2909258505
 20
-17.6914349692
 10
28.2091841994
 20
-18.1247351872
 10
28.1236399996
 20
-18.5557176734
 10
28.0343043642
 20
-18.9843264375
 10
27.9411888994
 20
-19.4105057972
 10
27.8443057019
 20
-19.8342003861
 10
27.7436673583
 20
-20.2553551607
 10
27.6392869429
 20
-20.6739154071
 10
27.531178016
 20
-21.0898267488
 10
27.4193546225
 20
-21.5030351532
 10
27.3038312897
 20
-21.913486939
 10
27.1846230257
 20
-22.3211287829
 10
27.0617453173
 20
-22.7259077267
 10
26.935214128
 20
-23.1277711842
 10
26.8050458958
 20
-23.5266669479
 10
26.6712575313
 20
-23.9225431958
 10
26.5338664156
 20
-24.3153484982
 10
26.3928903975
 20
-24.7050318245
 10
26.2483477917
 20
-25.0915425494
 10
26.1002573764
 20
-25.47483046
 10
25.9486383903
 20
-25.8548457621
 10
25.793510531
 20
-26.2315390865
 10
25.6348939515
 20
-26.6048614955
 10
25.4728092584
 20
-26.9747644897
  0
LWPOLYLINE
  5
15D
330
156
100
AcDbEntity
  8
0
  6
Continuous
 62
     7
370
    15
100
AcDbPolyline
 90
       54
 70
   128
 43
0.0
 10
22.8236631044
 20
27.3512779546
 10
22.7206701871
 20
27.3043617246
 10
22.6196062151
 20
27.2521766577
 10
22.5205892494
 20
27.1947837157
 10
22.4237349599
 20
27.1322499438
 10
22.3291564899
 20
27.0646483928
 10
22.2369643241
 20
26.9920580337
 10
22.1472661597
 20
26.9145636649
 10
22.0601667804
 20
26.8322558142
 10
21.975767934
 20
26.7452306317
 10
21.8941682137
 20
26.6535897789
 10
21.8154629428
 20
26.5574403087
 10
21.7397440631
 20
26.4568945412
 10
21.6671000282
 20
26.3520699321
 10
21.5976156994
 20
26.2430889354
 10
21.5313722469
 20
26.1300788607
 10
21.4684470551
 20
26.0131717242
 10
21.4089136321
 20
25.8925040947
 10
21.3528415236
 20
25.7682169338
 10
21.3002962321
 20
25.6404554313
 10
21.2513391399
 20
25.5093688359
 10
21.2060274378
 20
25.3751102805
 10
21.164414058
 20
25.2378366033
 10
21.1265476126
 20
25.0977081649
 10
21.0924723364
 20
24.9548886607
 10
21.0622280355
 20
24.8095449296
 10
21.0358500407
 20
24.6618467596
 10
21.0133691663
 20
24.5119666887
 10
20.994811674
 20
24.3600798042
 10
20.9801992423
 20
24.2063635373
 10
20.9695489413
 20
24.0509974565
 10
20.9628732123
 20
23.8941630575
 10
20.9601798538
 20
23.7360435513
 10
20.9614720122
 20
23.5768236502
 10
20.966748178
 20
23.4166893517
 10
20.9760021877
 20
23.2558277218
 10
20.9892232309
 20
23.0944266759
 10
21.0063958631
 20
22.9326747598
 10
21.0275000234
 20
22.7707609289
 10
21.0525110585
 20
22.6088743279
 10
21.0813997508
 20
22.4472040697
 10
21.1141323533
 20
22.2859390145
 10
21.1506706282
 20
22.1252675489
 10
21.1909718922
 20
21.9653773665
 10
21.2349890663
 20
21.8064552478
 10
21.2826707302
 20
21.6486868427
 10
21.3339611833
 20
21.4922564532
 10
21.388800509
 20
21.3373468185
 10
21.447124645
 20
21.1841389009
 10
21.5088654582
 20
21.032811675
 10
21.5739508241
 20
20.8835419186
 10
21.6423047112
 20
20.7365040057
 10
21.7138472698
 20
20.5918697031
 10
21.7884949253
 20
20.44980797
  0
LWPOLYLINE
  5
160
330
156
100
AcDbEntity
  8
0
  6
Continuous
 62
     7
370
    15
100
AcDbPolyline
 90
       92
 70
   128
 43
0.0
 10
92.1536912581
 20
-13.0302200125
 10
92.151739758
 20
-12.7110026687
 10
92.145885801
 20
-12.3908285444
 10
92.136131017
 20
-12.0697867825
 10
92.1224781218
 20
-11.7479667676
 10
92.1049309167
 20
-11.4254581006
 10
92.0834942873
 20
-11.1023505746
 10
92.0581742019
 20
-10.7787341489
 10
92.0289777101
 20
-10.454698925
 10
91.9959129408
 20
-10.1303351207
 10
91.9589890999
 20
-9.8057330454
 10
91.9182164678
 20
-9.4809830747
 10
91.8736063963
 20
-9.1561756255
 10
91.8251713058
 20
-8.8314011308
 10
91.7729246815
 20
-8.5067500142
 10
91.7168810701
 20
-8.1823126651
 10
91.6570560751
 20
-7.8581794132
 10
91.593466353
 20
-7.5344405039
 10
91.5261296085
 20
-7.2111860724
 10
91.4550645894
 20
-6.8885061193
 10
91.3802910817
 20
-6.566490485
 10
91.3018299038
 20
-6.2452288252
 10
91.219702901
 20
-5.9248105856
 10
91.1339329388
 20
-5.6053249769
 10
91.0445438976
 20
-5.2868609503
 10
90.9515606648
 20
-4.9695071727
 10
90.855009129
 20
-4.6533520015
 10
90.754916172
 20
-4.3384834608
 10
90.6513096617
 20
-4.0249892162
 10
90.5442184442
 20
-3.7129565507
 10
90.4336723358
 20
-3.4024723406
 10
90.3197021148
 20
-3.0936230307
 10
90.2023395128
 20
-2.786494611
 10
90.0816172058
 20
-2.4811725921
 10
89.9575688054
 20
-2.1777419817
 10
89.830228849
 20
-1.876287261
 10
89.6996327908
 20
-1.576892361
 10
89.5658169912
 20
-1.2796406392
 10
89.4288187073
 20
-0.9846148565
 10
89.2886760821
 20
-0.6918971538
 10
89.145428134
 20
-0.4015690298
 10
88.9991147463
 20
-0.1137113174
 10
88.8497766554
 20
0.171595838
 10
88.69745544
 20
0.454273001
 10
88.5421935095
 20
0.7342414689
 10
88.3840340919
 20
1.0114232928
 10
88.2230212218
 20
1.2857412996
 10
88.0591997285
 20
1.5571191139
 10
87.8926152232
 20
1.8254811786
 10
87.7233140864
 20
2.0907527763
 10
87.5513434547
 20
2.3528600502
 10
87.3767512084
 20
2.6117300243
 10
87.1995859573
 20
2.8672906241
 10
87.0198970278
 20
3.1194706963
 10
86.8377344489
 20
3.3682000291
 10
86.6531489383
 20
3.6134093713
 10
86.4661918883
 20
3.8550304515
 10
86.2769153514
 20
4.0929959978
 10
86.0853720261
 20
4.3272397557
 10
85.8916152418
 20
4.5576965071
 10
85.6956989442
 20
4.7843020883
 10
85.4976776804
 20
5.0069934076
 10
85.2976065835
 20
5.2257084635
 10
85.0955413572
 20
5.4403863613
 10
84.8915382606
 20
5.6509673303
 10
84.6856540921
 20
5.8573927407
 10
84.4779461741
 20
6.0596051194
 10
84.2684723365
 20
6.2575481665
 10
84.0572909011
 20
6.4511667707
 10
83.844460665
 20
6.6404070247
 10
83.6300408844
 20
6.8252162403
 10
83.414091258
 20
7.0055429629
 10
83.1966719105
 20
7.1813369858
 10
82.9778433758
 20
7.3525493646
 10
82.7576665802
 20
7.5191324303
 10
82.5362028252
 20
7.6810398029
 10
82.3135137708
 20
7.838226404
 10
82.0896614181
 20
7.9906484699
 10
81.864708092
 20
8.1382635631
 10
81.638716424
 20
8.2810305848
 10
81.4117493347
 20
8.4189097856
 10
81.1838700164
 20
8.5518627773
 10
80.9551419151
 20
8.679852543
 10
80.7256287133
 20
8.802843448
 10
80.4953943121
 20
8.920801249
 10
80.2645028133
 20
9.0336931043
 10
80.0330185017
 20
9.1414875826
 10
79.8010058273
 20
9.2441546715
 10
79.5685293868
 20
9.3416657868
 10
79.3356539065
 20
9.4339937791
 10
79.1024442236
 20
9.5211129427
 10
78.8689652681
 20
9.6029990218
  0
LWPOLYLINE
  5
162
330
156
100
AcDbEntity
  8
0
  6
Continuous
 62
     7
370
    15
100
AcDbPolyline
 90
       47
 70
   128
 43
0.0
 10
88.7419010389
 20
-43.9252534193
 10
88.8583833447
 20
-43.9537502774
 10
88.9747298374
 20
-43.9767938316
 10
89.0908048621
 20
-43.9943572142
 10
89.2064730805
 20
-44.0064199469
 10
89.3215996287
 20
-44.0129679652
 10
89.4360502743
 20
-44.0139936345
 10
89.5496915729
 20
-44.0094957587
 10
89.6623910239
 20
-43.9994795823
 10
89.7740172248
 20
-43.9839567836
 10
89.8844400243
 20
-43.9629454616
 10
89.9935306745
 20
-43.9364701145
 10
90.1011619806
 20
-43.9045616113
 10
90.2072084492
 20
-43.8672571561
 10
90.3115464349
 20
-43.8246002439
 10
90.4140542842
 20
-43.7766406111
 10
90.5146124777
 20
-43.7234341762
 10
90.613103769
 20
-43.6650429757
 10
90.7094133215
 20
-43.6015350911
 10
90.8034288428
 20
-43.5329845697
 10
90.8950407148
 20
-43.4594713383
 10
90.9841421223
 20
-43.3810811102
 10
91.070629177
 20
-43.2979052848
 10
91.1544010389
 20
-43.2100408414
 10
91.2353600337
 20
-43.1175902259
 10
91.3134117668
 20
-43.0206612318
 10
91.3884652335
 20
-42.9193668739
 10
91.4604329247
 20
-42.8138252567
 10
91.5292309293
 20
-42.7041594373
 10
91.5947790319
 20
-42.5904972809
 10
91.6570008065
 20
-42.4729713127
 10
91.7158237051
 20
-42.3517185625
 10
91.7711791429
 20
-42.2268804057
 10
91.8230025779
 20
-42.0986023981
 10
91.8712335864
 20
-41.9670341059
 10
91.915815933
 20
-41.832328932
 10
91.956697637
 20
-41.6946439366
 10
91.9938310318
 20
-41.5541396542
 10
92.0271728218
 20
-41.4109799065
 10
92.0566841318
 20
-41.2653316114
 10
92.0823305531
 20
-41.1173645882
 10
92.1040821829
 20
-40.96725136
 10
92.1219136599
 20
-40.815166952
 10
92.1358041934
 20
-40.6612886878
 10
92.1457375877
 20
-40.5057959827
 10
92.1517022607
 20
-40.348870134
 10
92.1536912581
 20
-40.1906941105
  0
LWPOLYLINE
  5
164
330
156
100
AcDbEntity
  8
0
  6
Continuous
 62
     7
370
    15
100
AcDbPolyline
 90
       92
 70
   128
 43
0.0
 10
93.2143514299
 20
-12.7460574302
 10
93.2123999298
 20
-12.4268400864
 10
93.2065459728
 20
-12.1066659621
 10
93.1967911887
 20
-11.7856242002
 10
93.1831382936
 20
-11.4638041853
 10
93.1655910885
 20
-11.1412955183
 10
93.1441544591
 20
-10.8181879923
 10
93.1188343737
 20
-10.4945715666
 10
93.0896378819
 20
-10.1705363427
 10
93.0565731126
 20
-9.8461725384
 10
93.0196492717
 20
-9.5215704631
 10
92.9788766396
 20
-9.1968204924
 10
92.9342665681
 20
-8.8720130433
 10
92.8858314776
 20
-8.5472385485
 10
92.8335848533
 20
-8.2225874319
 10
92.7775412419
 20
-7.8981500828
 10
92.7177162469
 20
-7.574016831
 10
92.6541265248
 20
-7.2502779216
 10
92.5867897802
 20
-6.9270234901
 10
92.5157247612
 20
-6.604343537
 10
92.4409512535
 20
-6.2823279027
 10
92.3624900756
 20
-5.9610662429
 10
92.2803630727
 20
-5.6406480033
 10
92.1945931106
 20
-5.3211623946
 10
92.1052040693
 20
-5.002698368
 10
92.0122208366
 20
-4.6853445904
 10
91.9156693008
 20
-4.3691894192
 10
91.8155763438
 20
-4.0543208785
 10
91.7119698335
 20
-3.7408266339
 10
91.604878616
 20
-3.4287939684
 10
91.4943325076
 20
-3.1183097583
 10
91.3803622866
 20
-2.8094604484
 10
91.2629996845
 20
-2.5023320287
 10
91.1422773776
 20
-2.1970100098
 10
91.0182289771
 20
-1.8935793994
 10
90.8908890208
 20
-1.5921246787
 10
90.7602929626
 20
-1.2927297787
 10
90.626477163
 20
-0.9954780569
 10
90.4894788791
 20
-0.7004522742
 10
90.3493362538
 20
-0.4077345715
 10
90.2060883058
 20
-0.1174064475
 10
90.059774918
 20
0.1704512649
 10
89.9104368271
 20
0.4557584202
 10
89.7581156118
 20
0.7384355833
 10
89.6028536813
 20
1.0184040512
 10
89.4446942636
 20
1.2955858751
 10
89.2836813936
 20
1.5699038819
 10
89.1198599003
 20
1.8412816962
 10
88.953275395
 20
2.1096437609
 10
88.7839742581
 20
2.3749153586
 10
88.6120036265
 20
2.6370226325
 10
88.4374113802
 20
2.8958926066
 10
88.2602461291
 20
3.1514532064
 10
88.0805571996
 20
3.4036332786
 10
87.8983946207
 20
3.6523626114
 10
87.7138091101
 20
3.8975719536
 10
87.5268520601
 20
4.1391930338
 10
87.3375755232
 20
4.3771585801
 10
87.1460321979
 20
4.611402338
 10
86.9522754135
 20
4.8418590894
 10
86.756359116
 20
5.0684646705
 10
86.5583378522
 20
5.2911559899
 10
86.3582667553
 20
5.5098710458
 10
86.156201529
 20
5.7245489436
 10
85.9521984324
 20
5.9351299126
 10
85.7463142639
 20
6.141555323
 10
85.5386063459
 20
6.3437677017
 10
85.3291325083
 20
6.5417107488
 10
85.1179510729
 20
6.735329353
 10
84.9051208368
 20
6.924569607
 10
84.6907010561
 20
7.1093788226
 10
84.4747514297
 20
7.2897055452
 10
84.2573320823
 20
7.4654995681
 10
84.0385035476
 20
7.6367119469
 10
83.8183267519
 20
7.8032950126
 10
83.596862997
 20
7.9652023852
 10
83.3741739426
 20
8.1223889863
 10
83.1503215898
 20
8.2748110522
 10
82.9253682637
 20
8.4224261454
 10
82.6993765958
 20
8.5651931671
 10
82.4724095065
 20
8.7030723679
 10
82.2445301882
 20
8.8360253596
 10
82.0158020869
 20
8.9640151253
 10
81.7862888851
 20
9.0870060303
 10
81.5560544839
 20
9.2049638313
 10
81.3251629851
 20
9.3178556866
 10
81.0936786735
 20
9.4256501648
 10
80.861665999
 20
9.5283172538
 10
80.6291895586
 20
9.625828369
 10
80.3963140783
 20
9.7181563614
 10
80.1631043953
 20
9.805275525
 10
79.9296254399
 20
9.8871616041
  0
LINE
  5
169
330
156
100
AcDbEntity
  8
0
  6
Continuous
 62
     7
370
    15
100
AcDbLine
 10
89.990537079
 20
-43.9372743528
 30
0.0
 11
91.0511972508
 21
-43.6531117705
 31
0.0
  0
LINE
  5
16A
330
156
100
AcDbEntity
  8
0
  6
Continuous
 62
     7
370
    15
100
AcDbLine
 10
24.494408602
 20
27.8460502516
 30
0.0
 11
23.4337484303
 21
27.5618876693
 31
0.0
  0
LINE
  5
16B
330
156
100
AcDbEntity
  8
0
  6
Continuous
 62
     7
370
    15
100
AcDbLine
 10
78.8689652681
 20
9.6029990218
 30
0.0
 11
26.3399026795
 21
27.4270261344
 31
0.0
  0
LINE
  5
16C
330
156
100
AcDbEntity
  8
0
  6
Continuous
 62
     7
370
    15
100
AcDbLine
 10
92.1536912581
 20
-40.1906941105
 30
0.0
 11
92.1536912581
 21
-13.0302200125
 31
0.0
  0
LINE
  5
16D
330
156
100
AcDbEntity
  8
0
  6
Continuous
 62
     7
370
    15
100
AcDbLine
 10
25.4728092584
 20
-26.9747644897
 30
0.0
 11
88.7419010389
 21
-43.9252534193
 31
0.0
  0
LINE
  5
16E
330
156
100
AcDbEntity
  8
0
  6
Continuous
 62
     7
370
    15
100
AcDbLine
 10
93.2143514299
 20
-39.9065315282
 30
0.0
 11
93.2143514299
 21
-12.7460574302
 31
0.0
  0
LINE
  5
16F
330
156
100
AcDbEntity
  8
0
  6
Continuous
 62
     7
370
    15
100
AcDbLine
 10
79.9296254399
 20
9.8871616041
 30
0.0
 11
27.4005628512
 21
27.7111887167
 31
0.0
  0
ARC
  5
170
330
156
100
AcDbEntity
  8
0
  6
Continuous
 62
     7
370
    15
100
AcDbCircle
 10
24.6796490267
 20
22.8461943522
 30
0.0
 40
4.872418496806226
100
AcDbArc
 50
70.0777123514
 51
112.3904811457
  0
ARC
  5
171
330
156
100
AcDbEntity
  8
0
  6
Continuous
 62
     7
370
    15
100
AcDbCircle
 10
89.6615896474
 20
-40.3530395841
 30
0.0
 40
3.580710226631439
100
AcDbArc
 50
292.8351808909
 51
7.1633265188
  0
ARC
  5
172
330
156
100
AcDbEntity
  8
0
  6
Continuous
 62
     7
370
    15
100
AcDbCircle
 10
25.7267176277
 20
23.021250015
 30
0.0
 40
4.979687024077173
100
AcDbArc
 50
70.3584514078
 51
104.327682468
  0
VIEWPORT
  5
17B
330
156
100
AcDbEntity
  8
0
100
AcDbViewport
 10
0.0
 20
0.0
 30
0.0
 40
243.84
 41
204.216
 68
     1
 69
     1
 12
-43.77645812
 22
19.3112279277
 13
0.0
 23
0.0
 14
10.0
 24
10.0
 15
10.0
 25
10.0
 16
0.0
 26
0.0
 36
1.0
 17
0.0
 27
0.0
 37
0.0
 42
50.0
 43
0.0
 44
0.0
 45
66.7821375176
 50
0.0
 51
0.0
 72
   100
 90
   557152
  1

281
     0
 71
     1
 74
     0
110
0.0
120
0.0
130
0.0
111
1.0
121
0.0
131
0.0
112
0.0
122
1.0
132
0.0
 79
     0
146
0.0
170
     0
 61
     5
292
     1
282
     1
141
0.0
142
0.0
 63
   256
  0
ENDBLK
  5
159
330
156
100
AcDbEntity
  8
0
100
AcDbBlockEnd
  0
ENDSEC
  0
SECTION
  2
ENTITIES
  0
LWPOLYLINE
  5
47
330
1F
100
AcDbEntity
  8
0
  6
Continuous
 62
     7
370
    15
100
AcDbPolyline
 90
       76
 70
   128
 43
0.0
 10
-61.0018955365
 20
50.1495336494
 10
-61.1333837737
 20
50.1377195472
 10
-61.2938937804
 20
50.1182834768
 10
-61.4538925563
 20
50.093375705
 10
-61.6133278209
 20
50.0630043705
 10
-61.772147478
 20
50.0271793974
 10
-61.9302996323
 20
49.9859124916
 10
-62.0877326068
 20
49.9392171373
 10
-62.2443949593
 20
49.8871085926
 10
-62.4002354996
 20
49.829603884
 10
-62.555203306
 20
49.7667218017
 10
-62.7092477419
 20
49.6984828927
 10
-62.8623184723
 20
49.6249094544
 10
-63.0143654807
 20
49.5460255274
 10
-63.1653390849
 20
49.4618568873
 10
-63.3151899533
 20
49.3724310368
 10
-63.4638691214
 20
49.2777771962
 10
-63.6113280074
 20
49.1779262943
 10
-63.7575184285
 20
49.0729109577
 10
-63.9023926159
 20
48.962765501
 10
-64.0459032314
 20
48.8475259146
 10
-64.1880033821
 20
48.7272298537
 10
-64.3286466359
 20
48.6019166258
 10
-64.4677870369
 20
48.4716271777
 10
-64.6053791202
 20
48.336404082
 10
-64.7413779269
 20
48.1962915237
 10
-64.8757390185
 20
48.0513352854
 10
-65.008418492
 20
47.9015827323
 10
-65.1393729935
 20
47.7470827968
 10
-65.2685597329
 20
47.5878859626
 10
-65.3959364978
 20
47.4240442482
 10
-65.5214616671
 20
47.2556111898
 10
-65.6450942247
 20
47.0826418237
 10
-65.7667937732
 20
46.9051926687
 10
-65.8865205464
 20
46.7233217072
 10
-66.0042354231
 20
46.5370883665
 10
-66.1198999391
 20
46.3465534995
 10
-66.2334763006
 20
46.1517793644
 10
-66.3449273958
 20
45.9528296047
 10
-66.4542168075
 20
45.7497692284
 10
-66.5613088247
 20
45.5426645865
 10
-66.6661684546
 20
45.3315833517
 10
-66.7687614337
 20
45.1165944957
 10
-66.8690542392
 20
44.8977682676
 10
-66.9670140998
 20
44.6751761698
 10
-67.0626090067
 20
44.4488909355
 10
-67.1558077236
 20
44.2189865048
 10
-67.2465797975
 20
43.9855380002
 10
-67.334895568
 20
43.7486217021
 10
-67.4207261775
 20
43.5083150243
 10
-67.5040435803
 20
43.2646964884
 10
-67.584820552
 20
43.0178456979
 10
-67.6630306984
 20
42.7678433128
 10
-67.7386484638
 20
42.5147710227
 10
-67.8116491397
 20
42.2587115203
 10
-67.8820088727
 20
41.9997484745
 10
-67.9497046725
 20
41.7379665029
 10
-68.014714419
 20
41.4734511441
 10
-68.0770168699
 20
41.20628883
 10
-68.1365916677
 20
40.9365668573
 10
-68.1934193458
 20
40.6643733592
 10
-68.2474813356
 20
40.3897972763
 10
-68.298759972
 20
40.1129283279
 10
-68.3472384994
 20
39.8338569825
 10
-68.3929010772
 20
39.5526744281
 10
-68.4357327849
 20
39.2694725426
 10
-68.475719627
 20
38.9843438638
 10
-68.5128485376
 20
38.6973815591
 10
-68.5471073846
 20
38.4086793949
 10
-68.5784849738
 20
38.1183317063
 10
-68.6069710523
 20
37.826433366
 10
-68.6325563122
 20
37.5330797532
 10
-68.6552323933
 20
37.238366723
 10
-68.6749918862
 20
36.9423905744
 10
-68.6918283342
 20
36.6452480192
 10
-68.7057362361
 20
36.3470361505
  0
LWPOLYLINE
  5
49
330
1F
100
AcDbEntity
  8
0
  6
Continuous
 62
     7
370
    15
100
AcDbPolyline
 90
       47
 70
   128
 43
0.0
 10
-69.8364612979
 20
9.200069197
 10
-69.8416995643
 20
9.0377794981
 10
-69.843930303
 20
8.8746845097
 10
-69.8431509131
 20
8.7109743933
 10
-69.8393623034
 20
8.5468400275
 10
-69.8325688911
 20
8.3824727857
 10
-69.8227785971
 20
8.2180643127
 10
-69.8100028365
 20
8.0538063015
 10
-69.7942565052
 20
7.8898902695
 10
-69.7755579627
 20
7.7265073356
 10
-69.7539290106
 20
7.5638479968
 10
-69.7293948675
 20
7.4021019067
 10
-69.701984139
 20
7.2414576541
 10
-69.6717287847
 20
7.0821025429
 10
-69.6386640811
 20
6.924222374
 10
-69.6028285801
 20
6.7680012287
 10
-69.5642640644
 20
6.6136212539
 10
-69.5230154984
 20
6.4612624497
 10
-69.4791309761
 20
6.3111024596
 10
-69.4326616649
 20
6.1633163634
 10
-69.3836617459
 20
6.0180764732
 10
-69.3321883508
 20
5.8755521322
 10
-69.2783014954
 20
5.7359095173
 10
-69.2220640093
 20
5.5993114457
 10
-69.1635414628
 20
5.4659171845
 10
-69.1028020907
 20
5.3358822655
 10
-69.0399167124
 20
5.2093583035
 10
-68.9749586493
 20
5.08649282
 10
-68.9080036397
 20
4.9674290705
 10
-68.8391297501
 20
4.852305878
 10
-68.7684172845
 20
4.741257471
 10
-68.6959486902
 20
4.6344133271
 10
-68.6218084626
 20
4.5318980216
 10
-68.5460830458
 20
4.4338310829
 10
-68.4688607323
 20
4.3403268527
 10
-68.3902315597
 20
4.2514943525
 10
-68.3102872062
 20
4.1674371573
 10
-68.2291208834
 20
4.0882532739
 10
-68.1468272276
 20
4.0140350272
 10
-68.0635021894
 20
3.9448689523
 10
-67.9792429221
 20
3.8808356939
 10
-67.8941476684
 20
3.8220099117
 10
-67.8083156453
 20
3.768460194
 10
-67.7218469293
 20
3.7202489775
 10
-67.634842339
 20
3.6774324742
 10
-67.5474033178
 20
3.6400606063
 10
-67.4596318157
 20
3.6081769477
  0
LWPOLYLINE
  5
4C
330
1F
100
AcDbEntity
  8
0
  6
Continuous
 62
     7
370
    15
100
AcDbPolyline
 90
       92
 70
   128
 43
0.0
 10
-69.8115897529
 20
35.7685570219
 10
-69.7965851708
 20
36.092955551
 10
-69.7786399301
 20
36.416287998
 10
-69.757759027
 20
36.7384643405
 10
-69.7339482752
 20
37.0593948784
 10
-69.707214304
 20
37.3789902581
 10
-69.6775645568
 20
37.697161498
 10
-69.6450072887
 20
38.0138200127
 10
-69.6095515642
 20
38.3288776382
 10
-69.5712072549
 20
38.6422466562
 10
-69.5299850366
 20
38.9538398185
 10
-69.4858963864
 20
39.2635703713
 10
-69.4389535795
 20
39.5713520795
 10
-69.3891696857
 20
39.8770992505
 10
-69.3365585659
 20
40.1807267581
 10
-69.2811348679
 20
40.4821500665
 10
-69.2229140229
 20
40.7812852533
 10
-69.1619122407
 20
41.0780490334
 10
-69.0981465055
 20
41.3723587817
 10
-69.0316345709
 20
41.6641325566
 10
-68.9623949551
 20
41.9532891225
 10
-68.8904469358
 20
42.2397479722
 10
-68.8158105448
 20
42.5234293501
 10
-68.7385065624
 20
42.8042542735
 10
-68.6585565115
 20
43.0821445552
 10
-68.5759826518
 20
43.3570228249
 10
-68.4908079736
 20
43.6288125511
 10
-68.4030561911
 20
43.8974380621
 10
-68.3127517362
 20
44.1628245672
 10
-68.2199197515
 20
44.4248981774
 10
-68.1245860833
 20
44.6835859263
 10
-68.0267772743
 20
44.9388157899
 10
-67.9265205565
 20
45.1905167073
 10
-67.8238438433
 20
45.4386185999
 10
-67.718775722
 20
45.6830523911
 10
-67.6113454457
 20
45.9237500256
 10
-67.5015829251
 20
46.1606444886
 10
-67.3895187203
 20
46.3936698237
 10
-67.2751840321
 20
46.6227611522
 10
-67.1586106936
 20
46.8478546903
 10
-67.0398311613
 20
47.0688877677
 10
-66.9188785056
 20
47.2857988441
 10
-66.7957864023
 20
47.4985275274
 10
-66.6705891225
 20
47.7070145895
 10
-66.5433215238
 20
47.9112019835
 10
-66.41401904
 20
48.1110328595
 10
-66.2827176715
 20
48.3064515807
 10
-66.1494539751
 20
48.4974037386
 10
-66.0142650542
 20
48.6838361682
 10
-65.8771885481
 20
48.8656969631
 10
-65.7382626216
 20
49.0429354896
 10
-65.5975259544
 20
49.2155024009
 10
-65.4550177305
 20
49.383349651
 10
-65.3107776269
 20
49.5464305079
 10
-65.1648458031
 20
49.7046995665
 10
-65.0172628893
 20
49.8581127616
 10
-64.8680699756
 20
50.00662738
 10
-64.7173086002
 20
50.1502020721
 10
-64.5650207382
 20
50.2887968639
 10
-64.4112487895
 20
50.4223731679
 10
-64.2560355673
 20
50.5508937938
 10
-64.0994242861
 20
50.6743229588
 10
-63.9414585495
 20
50.7926262978
 10
-63.7821823384
 20
50.9057708727
 10
-63.6216399985
 20
51.013725182
 10
-63.4598762279
 20
51.1164591688
 10
-63.296936065
 20
51.2139442302
 10
-63.1328648755
 20
51.3061532242
 10
-62.96770834
 20
51.393060478
 10
-62.8015124416
 20
51.4746417949
 10
-62.6343234524
 20
51.5508744611
 10
-62.4661879212
 20
51.6217372519
 10
-62.2971526603
 20
51.6872104376
 10
-62.1272647324
 20
51.7472757891
 10
-61.9565714378
 20
51.8019165832
 10
-61.7851203009
 20
51.8511176067
 10
-61.6129590572
 20
51.8948651611
 10
-61.4401356396
 20
51.9331470662
 10
-61.2666981658
 20
51.9659526634
 10
-61.0926949242
 20
51.9932728192
 10
-60.9181743607
 20
52.015099927
 10
-60.7431850654
 20
52.0314279097
 10
-60.5677757588
 20
52.0422522213
 10
-60.3919952783
 20
52.047569848
 10
-60.2158925648
 20
52.0473793094
 10
-60.0395166487
 20
52.0416806585
 10
-59.8629166366
 20
52.0304754819
 10
-59.6861416976
 20
52.0137668994
 10
-59.5092410491
 20
51.9915595629
 10
-59.3322639441
 20
51.9638596554
 10
-59.1552596563
 20
51.9306748892
 10
-58.9782774673
 20
51.8920145035
  0
LWPOLYLINE
  5
50
330
1F
100
AcDbEntity
  8
0
  6
Continuous
 62
     7
370
    15
100
AcDbPolyline
 90
      107
 70
   128
 43
0.0
 10
-20.8511318455
 20
-13.3289932544
 10
-20.9558752961
 20
-12.8671137545
 10
-21.057896295
 20
-12.4035626424
 10
-21.1571815883
 20
-11.9384001397
 10
-21.2537182774
 20
-11.4716866774
 10
-21.3474938209
 20
-11.0034828877
 10
-21.4384960362
 20
-10.5338495967
 10
-21.5267131008
 20
-10.0628478161
 10
-21.6121335541
 20
-9.5905387354
 10
-21.6947462988
 20
-9.116983714
 10
-21.7745406025
 20
-8.6422442731
 10
-21.8515060988
 20
-8.1663820877
 10
-21.9256327887
 20
-7.6894589788
 10
-21.9969110424
 20
-7.2115369051
 10
-22.0653315996
 20
-6.7326779552
 10
-22.1308855718
 20
-6.2529443394
 10
-22.1935644425
 20
-5.7723983815
 10
-22.2533600689
 20
-5.2911025109
 10
-22.3102646827
 20
-4.8091192546
 10
-22.3642708913
 20
-4.3265112286
 10
-22.4153716786
 20
-3.8433411302
 10
-22.4635604057
 20
-3.3596717298
 10
-22.5088308125
 20
-2.8755658626
 10
-22.5511770176
 20
-2.3910864205
 10
-22.5905935197
 20
-1.906296344
 10
-22.6270751981
 20
-1.4212586137
 10
-22.6606173132
 20
-0.9360362427
 10
-22.6912155076
 20
-0.4506922679
 10
-22.7188658061
 20
0.0347102578
 10
-22.7435646165
 20
0.5201082743
 10
-22.7653087301
 20
1.0054387216
 10
-22.7840953222
 20
1.4906385489
 10
-22.799921952
 20
1.975644722
 10
-22.8127865635
 20
2.4603942322
 10
-22.8226874853
 20
2.9448241039
 10
-22.8296234313
 20
3.428871403
 10
-22.8335935003
 20
3.9124732454
 10
-22.8345971765
 20
4.3955668046
 10
-22.8326343297
 20
4.8780893201
 10
-22.8277052147
 20
5.3599781059
 10
-22.819810472
 20
5.841170558
 10
-22.8089511271
 20
6.321604163
 10
-22.7951285909
 20
6.8012165061
 10
-22.7783446591
 20
7.2799452792
 10
-22.7586015121
 20
7.7577282889
 10
-22.7359017149
 20
8.2345034647
 10
-22.7102482164
 20
8.7102088671
 10
-22.6816443495
 20
9.1847826955
 10
-22.65009383
 20
9.6581632964
 10
-22.6156007569
 20
10.1302891712
 10
-22.5781696113
 20
10.6010989843
 10
-22.537805256
 20
11.0705315713
 10
-22.4945129348
 20
11.5385259465
 10
-22.4482982721
 20
12.005021311
 10
-22.3991672717
 20
12.4699570608
 10
-22.3471263164
 20
12.9332727945
 10
-22.2921821671
 20
13.3949083211
 10
-22.2343419617
 20
13.8548036678
 10
-22.1736132144
 20
14.3128990881
 10
-22.1100038148
 20
14.7691350692
 10
-22.0435220266
 20
15.2234523398
 10
-21.9741764866
 20
15.6757918779
 10
-21.9019762038
 20
16.1260949186
 10
-21.8269305579
 20
16.5743029614
 10
-21.7490492984
 20
17.020357778
 10
-21.6683425432
 20
17.4642014199
 10
-21.5848207771
 20
17.9057762257
 10
-21.4984948508
 20
18.3450248289
 10
-21.4093759791
 20
18.7818901651
 10
-21.3174757398
 20
19.2163154798
 10
-21.222806072
 20
19.648244335
 10
-21.1253792746
 20
20.0776206175
 10
-21.0252080045
 20
20.5043885454
 10
-20.9223052755
 20
20.9284926759
 10
-20.8166844559
 20
21.3498779119
 10
-20.7083592674
 20
21.76848951
 10
-20.5973437829
 20
22.1842730868
 10
-20.4836524247
 20
22.5971746263
 10
-20.3672999629
 20
23.0071404872
 10
-20.2483015133
 20
23.4141174092
 10
-20.1266725354
 20
23.8180525205
 10
-20.0024288304
 20
24.2188933446
 10
-19.8755865393
 20
24.6165878068
 10
-19.7461621405
 20
25.0110842411
 10
-19.6141724482
 20
25.4023313973
 10
-19.4796346095
 20
25.7902784469
 10
-19.3425661026
 20
26.1748749903
 10
-19.2029847348
 20
26.5560710634
 10
-19.0609086394
 20
26.9338171436
 10
-18.9163562741
 20
27.3080641565
 10
-18.7693464182
 20
27.6787634824
 10
-18.6198981702
 20
28.0458669624
 10
-18.4680309456
 20
28.4093269049
 10
-18.3137644739
 20
28.7690960914
 10
-18.1571187963
 20
29.1251277831
 10
-17.9981142634
 20
29.4773757267
 10
-17.836771532
 20
29.8257941603
 10
-17.6731115625
 20
30.1703378198
 10
-17.5071556168
 20
30.5109619441
 10
-17.3389252547
 20
30.8476222817
 10
-17.1684423316
 20
31.1802750958
 10
-16.9957289956
 20
31.5088771703
 10
-16.8208076845
 20
31.8333858154
 10
-16.6437011228
 20
32.1537588729
 10
-16.4644323192
 20
32.4699547222
 10
-16.283024563
 20
32.781932285
 10
-16.0995014217
 20
33.0896510312
  0
LWPOLYLINE
  5
52
330
1F
100
AcDbEntity
  8
0
  6
Continuous
 62
     7
370
    15
100
AcDbPolyline
 90
       47
 70
   128
 43
0.0
 10
-68.5880276471
 20
2.488491571
 10
-68.6757991491
 20
2.5203752297
 10
-68.7632381703
 20
2.5577470976
 10
-68.8502427607
 20
2.6005636009
 10
-68.9367114767
 20
2.6487748174
 10
-69.0225434997
 20
2.702324535
 10
-69.1076387535
 20
2.7611503172
 10
-69.1918980207
 20
2.8251835757
 10
-69.2752230589
 20
2.8943496506
 10
-69.3575167148
 20
2.9685678973
 10
-69.4386830376
 20
3.0477517807
 10
-69.518627391
 20
3.1318089759
 10
-69.5972565636
 20
3.220641476
 10
-69.6744788772
 20
3.3141457063
 10
-69.750204294
 20
3.412212645
 10
-69.8243445216
 20
3.5147279505
 10
-69.8968131158
 20
3.6215720944
 10
-69.9675255815
 20
3.7326205014
 10
-70.0363994711
 20
3.8477436938
 10
-70.1033544807
 20
3.9668074434
 10
-70.1683125437
 20
4.0896729269
 10
-70.2311979221
 20
4.2161968888
 10
-70.2919372942
 20
4.3462318078
 10
-70.3504598406
 20
4.479626069
 10
-70.4066973268
 20
4.6162241407
 10
-70.4605841822
 20
4.7558667556
 10
-70.5120575772
 20
4.8983910966
 10
-70.5610574962
 20
5.0436309868
 10
-70.6075268074
 20
5.1914170829
 10
-70.6514113297
 20
5.341577073
 10
-70.6926598958
 20
5.4939358773
 10
-70.7312244115
 20
5.6483158521
 10
-70.7670599125
 20
5.8045369974
 10
-70.8001246161
 20
5.9624171662
 10
-70.8303799703
 20
6.1217722775
 10
-70.8577906989
 20
6.2824165301
 10
-70.882324842
 20
6.4441626202
 10
-70.903953794
 20
6.6068219589
 10
-70.9226523365
 20
6.7702048929
 10
-70.9383986678
 20
6.9341209249
 10
-70.9511744285
 20
7.0983789361
 10
-70.9609647224
 20
7.2627874091
 10
-70.9677581347
 20
7.4271546509
 10
-70.9715467445
 20
7.5912890166
 10
-70.9723261343
 20
7.754999133
 10
-70.9700953956
 20
7.9180941214
 10
-70.9648571293
 20
8.0803838203
  0
LWPOLYLINE
  5
54
330
1F
100
AcDbEntity
  8
0
  6
Continuous
 62
     7
370
    15
100
AcDbPolyline
 90
       47
 70
   128
 43
0.0
 10
-69.8552275783
 20
2.3923708327
 10
-69.9429990804
 20
2.4242544914
 10
-70.0304381015
 20
2.4616263593
 10
-70.1174426919
 20
2.5044428626
 10
-70.2039114079
 20
2.5526540791
 10
-70.2897434309
 20
2.6062037968
 10
-70.3748386847
 20
2.6650295789
 10
-70.459097952
 20
2.7290628374
 10
-70.5424229902
 20
2.7982289123
 10
-70.624716646
 20
2.872447159
 10
-70.7058829688
 20
2.9516310424
 10
-70.7858273223
 20
3.0356882376
 10
-70.8644564948
 20
3.1245207377
 10
-70.9416788084
 20
3.218024968
 10
-71.0174042252
 20
3.3160919067
 10
-71.0915444528
 20
3.4186072122
 10
-71.164013047
 20
3.5254513561
 10
-71.2347255127
 20
3.6364997631
 10
-71.3035994023
 20
3.7516229555
 10
-71.3705544119
 20
3.8706867051
 10
-71.435512475
 20
3.9935521886
 10
-71.4983978533
 20
4.1200761505
 10
-71.5591372254
 20
4.2501110695
 10
-71.6176597719
 20
4.3835053307
 10
-71.673897258
 20
4.5201034024
 10
-71.7277841134
 20
4.6597460173
 10
-71.7792575084
 20
4.8022703583
 10
-71.8282574274
 20
4.9475102485
 10
-71.8747267386
 20
5.0952963446
 10
-71.918611261
 20
5.2454563347
 10
-71.959859827
 20
5.397815139
 10
-71.9984243427
 20
5.5521951138
 10
-72.0342598437
 20
5.7084162591
 10
-72.0673245473
 20
5.8662964279
 10
-72.0975799015
 20
6.0256515392
 10
-72.1249906301
 20
6.1862957918
 10
-72.1495247732
 20
6.3480418819
 10
-72.1711537252
 20
6.5107012206
 10
-72.1898522677
 20
6.6740841546
 10
-72.2055985991
 20
6.8380001866
 10
-72.2183743597
 20
7.0022581978
 10
-72.2281646537
 20
7.1666666708
 10
-72.2349580659
 20
7.3310339126
 10
-72.2387466757
 20
7.4951682783
 10
-72.2395260656
 20
7.6588783947
 10
-72.2372953269
 20
7.8219733831
 10
-72.2320570605
 20
7.984263082
  0
LWPOLYLINE
  5
56
330
1F
100
AcDbEntity
  8
0
  6
Continuous
 62
     7
370
    15
100
AcDbPolyline
 90
       55
 70
   128
 43
0.0
 10
-22.959494897
 20
-4.5111015983
 10
-22.9435608768
 20
-4.6751685193
 10
-22.9306028692
 20
-4.8395890966
 10
-22.9206360151
 20
-5.0041712103
 10
-22.9136719605
 20
-5.1687225516
 10
-22.9097188427
 20
-5.3330508478
 10
-22.9087812807
 20
-5.4969640867
 10
-22.9108603701
 20
-5.6602707412
 10
-22.9159536814
 20
-5.822779993
 10
-22.9240552634
 20
-5.9843019553
 10
-22.9351556496
 20
-6.1446478951
 10
-22.9492418696
 20
-6.3036304536
 10
-22.9662974641
 20
-6.4610638649
 10
-22.9863025042
 20
-6.6167641734
 10
-23.0092336146
 20
-6.7705494484
 10
-23.0350640012
 20
-6.922239997
 10
-23.0637634821
 20
-7.0716585737
 10
-23.0952985227
 20
-7.2186305881
 10
-23.1296322755
 20
-7.3629843081
 10
-23.1667246226
 20
-7.5045510613
 10
-23.2065322229
 20
-7.6431654317
 10
-23.2490085624
 20
-7.778665453
 10
-23.2941040091
 20
-7.9108927978
 10
-23.3417658704
 20
-8.0396929631
 10
-23.3919384549
 20
-8.16491545
 10
-23.4445631378
 20
-8.2864139403
 10
-23.4995784288
 20
-8.404046467
 10
-23.5569200443
 20
-8.5176755805
 10
-23.6165209827
 20
-8.6271685089
 10
-23.6783116021
 20
-8.7323973134
 10
-23.7422197024
 20
-8.8332390376
 10
-23.808170609
 20
-8.9295758514
 10
-23.8760872606
 20
-9.0212951884
 10
-23.9458902987
 20
-9.1082898776
 10
-24.0174981608
 20
-9.1904582685
 10
-24.0908271756
 20
-9.2677043503
 10
-24.1657916605
 20
-9.3399378634
 10
-24.242304022
 20
-9.4070744054
 10
-24.320274858
 20
-9.4690355294
 10
-24.3996130622
 20
-9.5257488359
 10
-24.4802259305
 20
-9.5771480574
 10
-24.5620192694
 20
-9.6231731355
 10
-24.6448975063
 20
-9.6637702915
 10
-24.7287638006
 20
-9.698892089
 10
-24.8135201573
 20
-9.7284974893
 10
-24.8990675415
 20
-9.7525518995
 10
-24.9853059939
 20
-9.7710272129
 10
-25.0721347477
 20
-9.7839018415
 10
-25.1594523465
 20
-9.7911607419
 10
-25.2471567626
 20
-9.7927954323
 10
-25.3351455162
 20
-9.7888040026
 10
-25.4233157955
 20
-9.7791911166
 10
-25.5115645763
 20
-9.7639680067
 10
-25.599788743
 20
-9.7431524606
 10
-25.6878852086
 20
-9.7167688005
  0
LWPOLYLINE
  5
58
330
1F
100
AcDbEntity
  8
0
  6
Continuous
 62
     7
370
    15
100
AcDbPolyline
 90
       47
 70
   128
 43
0.0
 10
-66.1924318845
 20
3.704297686
 10
-66.2802033866
 20
3.7361813446
 10
-66.3676424078
 20
3.7735532125
 10
-66.4546469981
 20
3.8163697158
 10
-66.5411157141
 20
3.8645809323
 10
-66.6269477371
 20
3.91813065
 10
-66.7120429909
 20
3.9769564321
 10
-66.7963022582
 20
4.0409896906
 10
-66.8796272964
 20
4.1101557655
 10
-66.9619209522
 20
4.1843740122
 10
-67.043087275
 20
4.2635578956
 10
-67.1230316285
 20
4.3476150908
 10
-67.201660801
 20
4.4364475909
 10
-67.2788831146
 20
4.5299518212
 10
-67.3546085314
 20
4.6280187599
 10
-67.428748759
 20
4.7305340654
 10
-67.5012173532
 20
4.8373782093
 10
-67.5719298189
 20
4.9484266163
 10
-67.6408037085
 20
5.0635498088
 10
-67.7077587181
 20
5.1826135583
 10
-67.7727167812
 20
5.3054790418
 10
-67.8356021595
 20
5.4320030038
 10
-67.8963415316
 20
5.5620379228
 10
-67.9548640781
 20
5.695432184
 10
-68.0111015642
 20
5.8320302556
 10
-68.0649884196
 20
5.9716728705
 10
-68.1164618146
 20
6.1141972115
 10
-68.1654617336
 20
6.2594371017
 10
-68.2119310448
 20
6.4072231979
 10
-68.2558155672
 20
6.557383188
 10
-68.2970641332
 20
6.7097419922
 10
-68.3356286489
 20
6.864121967
 10
-68.3714641499
 20
7.0203431123
 10
-68.4045288535
 20
7.1782232812
 10
-68.4347842077
 20
7.3375783924
 10
-68.4621949363
 20
7.498222645
 10
-68.4867290794
 20
7.6599687351
 10
-68.5083580314
 20
7.8226280739
 10
-68.5270565739
 20
7.9860110078
 10
-68.5428029053
 20
8.1499270398
 10
-68.5555786659
 20
8.314185051
 10
-68.5653689599
 20
8.478593524
 10
-68.5721623721
 20
8.6429607658
 10
-68.5759509819
 20
8.8070951315
 10
-68.5767303718
 20
8.970805248
 10
-68.5744996331
 20
9.1339002364
 10
-68.5692613667
 20
9.2961899353
  0
LWPOLYLINE
  5
5A
330
1F
100
AcDbEntity
  8
0
  6
Continuous
 62
     7
370
    15
100
AcDbPolyline
 90
       85
 70
   128
 43
0.0
 10
-67.4385363048
 20
36.4431568887
 10
-67.424628403
 20
36.7413687575
 10
-67.407791955
 20
37.0385113127
 10
-67.3880324621
 20
37.3344874613
 10
-67.365356381
 20
37.6292004915
 10
-67.3397711211
 20
37.9225541043
 10
-67.3112850426
 20
38.2144524446
 10
-67.2799074534
 20
38.5048001332
 10
-67.2456486064
 20
38.7935022974
 10
-67.2085196958
 20
39.0804646021
 10
-67.1685328537
 20
39.3655932809
 10
-67.125701146
 20
39.6487951664
 10
-67.0800385682
 20
39.9299777208
 10
-67.0315600408
 20
40.2090490662
 10
-66.9802814044
 20
40.4859180146
 10
-66.9262194146
 20
40.7604940975
 10
-66.8693917365
 20
41.0326875956
 10
-66.8098169387
 20
41.3024095683
 10
-66.7475144878
 20
41.5695718824
 10
-66.6825047413
 20
41.8340872412
 10
-66.6148089415
 20
42.0958692128
 10
-66.5444492084
 20
42.3548322586
 10
-66.4714485325
 20
42.610891761
 10
-66.3958307672
 20
42.8639640511
 10
-66.3176206208
 20
43.1139664362
 10
-66.236843649
 20
43.3608172267
 10
-66.1535262462
 20
43.6044357626
 10
-66.0676956368
 20
43.8447424404
 10
-65.9793798663
 20
44.0816587385
 10
-65.8886077924
 20
44.3151072431
 10
-65.7954090754
 20
44.5450116738
 10
-65.6998141686
 20
44.7712969081
 10
-65.6018543079
 20
44.9938890059
 10
-65.5015615025
 20
45.212715234
 10
-65.3989685234
 20
45.42770409
 10
-65.2941088935
 20
45.6387853248
 10
-65.1870168763
 20
45.8458899667
 10
-65.0777274646
 20
46.048950343
 10
-64.9662763694
 20
46.2479001027
 10
-64.8527000079
 20
46.4426742378
 10
-64.7370354919
 20
46.6332091048
 10
-64.6193206152
 20
46.8194424455
 10
-64.499593842
 20
47.001313407
 10
-64.3778942935
 20
47.178762562
 10
-64.2542617358
 20
47.3517319281
 10
-64.1287365665
 20
47.5201649865
 10
-64.0013598016
 20
47.6840067009
 10
-63.8721730622
 20
47.8432035351
 10
-63.7412185607
 20
47.9977034706
 10
-63.6085390873
 20
48.1474560237
 10
-63.4741779956
 20
48.292412262
 10
-63.338179189
 20
48.4325248203
 10
-63.2005871057
 20
48.567747916
 10
-63.0614467047
 20
48.6980373641
 10
-62.9208034509
 20
48.823350592
 10
-62.7787033002
 20
48.9436466529
 10
-62.6351926847
 20
49.0588862393
 10
-62.4903184972
 20
49.169031696
 10
-62.3441280762
 20
49.2740470326
 10
-62.1966691901
 20
49.3738979345
 10
-62.047990022
 20
49.4685517751
 10
-61.8981391536
 20
49.5579776256
 10
-61.7471655495
 20
49.6421462657
 10
-61.5951185411
 20
49.7210301927
 10
-61.4420478107
 20
49.794603631
 10
-61.2880033748
 20
49.86284254
 10
-61.1330355684
 20
49.9257246223
 10
-60.9771950281
 20
49.9832293309
 10
-60.8205326755
 20
50.0353378756
 10
-60.6630997011
 20
50.0820332299
 10
-60.5049475468
 20
50.1233001357
 10
-60.3461278897
 20
50.1591251088
 10
-60.186692625
 20
50.1894964433
 10
-60.0266938492
 20
50.2144042151
 10
-59.8661838425
 20
50.2338402855
 10
-59.7052150526
 20
50.2477983036
 10
-59.5438400769
 20
50.2562737087
 10
-59.3821116456
 20
50.2592637312
 10
-59.2200826042
 20
50.2567673942
 10
-59.0578058967
 20
50.2487855135
 10
-58.8953345478
 20
50.235320697
 10
-58.732721646
 20
50.2163773446
 10
-58.5700203259
 20
50.191961646
 10
-58.4072837511
 20
50.1620815792
 10
-58.2445650966
 20
50.1267469078
  0
LWPOLYLINE
  5
5C
330
1F
100
AcDbEntity
  8
0
  6
Continuous
 62
     7
370
    15
100
AcDbPolyline
 90
       67
 70
   128
 43
0.0
 10
-19.651308783
 20
41.0986878887
 10
-19.5637411013
 20
41.0754424591
 10
-19.4763462261
 20
41.0467189128
 10
-19.3892248677
 20
41.0125503498
 10
-19.3024774209
 20
40.9729761444
 10
-19.2162038498
 20
40.9280419003
 10
-19.1305035725
 20
40.8777993977
 10
-19.0454753462
 20
40.822306534
 10
-18.9612171541
 20
40.7616272568
 10
-18.8778260915
 20
40.6958314904
 10
-18.7953982549
 20
40.624995055
 10
-18.7140286305
 20
40.5491995795
 10
-18.6338109854
 20
40.4685324074
 10
-18.5548377588
 20
40.3830864962
 10
-18.4771999563
 20
40.29296031
 10
-18.4009870443
 20
40.1982577065
 10
-18.3262868473
 20
40.099087817
 10
-18.2531854468
 20
39.9955649206
 10
-18.1817670816
 20
39.8878083128
 10
-18.1121140512
 20
39.7759421676
 10
-18.044306621
 20
39.6600953949
 10
-17.9784229291
 20
39.5404014917
 10
-17.9145388974
 20
39.416998388
 10
-17.8527281429
 20
39.2900282884
 10
-17.7930618938
 20
39.1596375079
 10
-17.735608907
 20
39.0259763032
 10
-17.6804353887
 20
38.8891987
 10
-17.6276049188
 20
38.7494623148
 10
-17.5771783767
 20
38.606928174
 10
-17.5292138719
 20
38.4617605279
 10
-17.4837666766
 20
38.3141266616
 10
-17.4408891622
 20
38.164196702
 10
-17.4006307391
 20
38.0121434221
 10
-17.3630377992
 20
37.8581420417
 10
-17.3281536631
 20
37.7023700253
 10
-17.2960185298
 20
37.5450068782
 10
-17.2666694305
 20
37.3862339389
 10
-17.2401401858
 20
37.2262341705
 10
-17.2164613669
 20
37.0651919502
 10
-17.1956602603
 20
36.9032928561
 10
-17.1777608362
 20
36.7407234538
 10
-17.1627837213
 20
36.5776710815
 10
-17.1507461744
 20
36.4143236338
 10
-17.1416620673
 20
36.2508693454
 10
-17.135541868
 20
36.087496574
 10
-17.1323926291
 20
35.9243935836
 10
-17.1322179798
 20
35.7617483271
 10
-17.1350181212
 20
35.5997482301
 10
-17.1407898266
 20
35.4385799745
 10
-17.149526445
 20
35.2784292839
 10
-17.1612179086
 20
35.119480709
 10
-17.1758507448
 20
34.9619174156
 10
-17.1934080911
 20
34.8059209729
 10
-17.2138697153
 20
34.6516711445
 10
-17.2372120383
 20
34.4993456815
 10
-17.2634081614
 20
34.3491201172
 10
-17.2924278973
 20
34.2011675653
 10
-17.3242378048
 20
34.0556585199
 10
-17.3588012275
 20
33.9127606596
 10
-17.3960783361
 20
33.7726386538
 10
-17.436026174
 20
33.6354539731
 10
-17.478598707
 20
33.5013647033
 10
-17.5237468763
 20
33.3705253634
 10
-17.571418655
 20
33.2430867269
 10
-17.6215591083
 20
33.1191956487
 10
-17.6741104564
 20
32.9989948957
 10
-17.7290121413
 20
32.8826229822
  0
LWPOLYLINE
  5
5D
330
1F
100
AcDbEntity
  8
0
  6
Continuous
 62
     7
370
    15
100
AcDbPolyline
 90
       82
 70
   128
 43
0.0
 10
-22.959494897
 20
-4.5111015983
 10
-23.0117729895
 20
-4.0052326101
 10
-23.0611022726
 20
-3.4988824393
 10
-23.1074767564
 20
-2.9921125714
 10
-23.1508908096
 20
-2.4849845425
 10
-23.1913391606
 20
-1.9775599324
 10
-23.2288168978
 20
-1.4699003569
 10
-23.2633194704
 20
-0.9620674602
 10
-23.2948426886
 20
-0.4541229077
 10
-23.3233827249
 20
0.0538716218
 10
-23.3489361134
 20
0.5618544433
 10
-23.3714997515
 20
1.0697638732
 10
-23.3910708991
 20
1.577538237
 10
-23.4076471798
 20
2.0851158764
 10
-23.4212265807
 20
2.592435157
 10
-23.431807453
 20
3.099434476
 10
-23.4393885118
 20
3.6060522692
 10
-23.4439688366
 20
4.1122270189
 10
-23.4455478712
 20
4.617897261
 10
-23.4441254238
 20
5.1230015928
 10
-23.4397016671
 20
5.6274786803
 10
-23.4322771384
 20
6.1312672658
 10
-23.4218527392
 20
6.6343061749
 10
-23.4084297353
 20
7.1365343244
 10
-23.3920097566
 20
7.6378907296
 10
-23.372594797
 20
8.1383145117
 10
-23.3501872141
 20
8.6377449048
 10
-23.3247897286
 20
9.1361212641
 10
-23.2964054247
 20
9.6333830725
 10
-23.2650377489
 20
10.1294699483
 10
-23.2306905103
 20
10.6243216524
 10
-23.1933678794
 20
11.1178780958
 10
-23.1530743884
 20
11.6100793468
 10
-23.10981493
 20
12.1008656381
 10
-23.0635947572
 20
12.5901773744
 10
-23.0144194824
 20
13.0779551393
 10
-22.9622950768
 20
13.5641397027
 10
-22.9072278699
 20
14.0486720281
 10
-22.8492245484
 20
14.5314932795
 10
-22.7882921554
 20
15.0125448287
 10
-22.72443809
 20
15.4917682623
 10
-22.6576701059
 20
15.969105389
 10
-22.5879963105
 20
16.4444982466
 10
-22.5154251643
 20
16.9178891088
 10
-22.4399654794
 20
17.3892204927
 10
-22.3616264188
 20
17.858435165
 10
-22.280417495
 20
18.32547615
 10
-22.1963485692
 20
18.7902867355
 10
-22.1094298497
 20
19.2528104804
 10
-22.0196718909
 20
19.7129912211
 10
-21.927085592
 20
20.1707730787
 10
-21.8316821955
 20
20.6261004654
 10
-21.7334732862
 20
21.0789180915
 10
-21.6324707893
 20
21.5291709722
 10
-21.5286869695
 20
21.9768044339
 10
-21.4221344291
 20
22.4217641213
 10
-21.3128261066
 20
22.8639960036
 10
-21.2007752751
 20
23.3034463813
 10
-21.0859955407
 20
23.7400618927
 10
-20.968500841
 20
24.1737895202
 10
-20.8483054431
 20
24.6045765971
 10
-20.7254239423
 20
25.0323708134
 10
-20.5998712597
 20
25.4571202229
 10
-20.4716626411
 20
25.878773249
 10
-20.3408136546
 20
26.2972786909
 10
-20.2073401891
 20
26.7125857302
 10
-20.0712584519
 20
27.124643937
 10
-19.9325849673
 20
27.5334032755
 10
-19.7913365741
 20
27.9388141109
 10
-19.6475304239
 20
28.3408272147
 10
-19.5011839789
 20
28.7393937711
 10
-19.3523150097
 20
29.1344653829
 10
-19.2009415932
 20
29.5259940771
 10
-19.0470821104
 20
29.9139323111
 10
-18.8907552443
 20
30.2982329781
 10
-18.7319799773
 20
30.6788494131
 10
-18.5707755893
 20
31.0557353985
 10
-18.4071616551
 20
31.4288451696
 10
-18.241158042
 20
31.7981334204
 10
-18.0727849076
 20
32.1635553086
 10
-17.9020626972
 20
32.5250664618
 10
-17.7290121413
 20
32.8826229822
  0
LWPOLYLINE
  5
60
330
1F
100
AcDbEntity
  8
0
  6
Continuous
 62
     7
370
    15
100
AcDbPolyline
 90
       83
 70
   128
 43
0.0
 10
-71.0787896841
 20
35.6724362836
 10
-71.063785102
 20
35.9968348127
 10
-71.0458398613
 20
36.3201672597
 10
-71.0249589582
 20
36.6423436022
 10
-71.0011482064
 20
36.9632741401
 10
-70.9744142352
 20
37.2828695198
 10
-70.9447644881
 20
37.6010407597
 10
-70.9122072199
 20
37.9176992744
 10
-70.8767514954
 20
38.2327568999
 10
-70.8384071861
 20
38.5461259179
 10
-70.7971849678
 20
38.8577190802
 10
-70.7530963176
 20
39.167449633
 10
-70.7061535107
 20
39.4752313412
 10
-70.6563696169
 20
39.7809785122
 10
-70.6037584971
 20
40.0846060198
 10
-70.5483347991
 20
40.3860293282
 10
-70.4901139541
 20
40.685164515
 10
-70.429112172
 20
40.9819282951
 10
-70.3653464367
 20
41.2762380434
 10
-70.2988345021
 20
41.5680118184
 10
-70.2295948863
 20
41.8571683842
 10
-70.157646867
 20
42.143627234
 10
-70.083010476
 20
42.4273086118
 10
-70.0057064936
 20
42.7081335352
 10
-69.9257564427
 20
42.9860238169
 10
-69.843182583
 20
43.2609020866
 10
-69.7580079048
 20
43.5326918128
 10
-69.6702561223
 20
43.8013173238
 10
-69.5799516675
 20
44.0667038289
 10
-69.4871196828
 20
44.3287774391
 10
-69.3917860145
 20
44.587465188
 10
-69.2939772055
 20
44.8426950516
 10
-69.1937204877
 20
45.094395969
 10
-69.0910437745
 20
45.3424978616
 10
-68.9859756533
 20
45.5869316528
 10
-68.878545377
 20
45.8276292874
 10
-68.7687828563
 20
46.0645237503
 10
-68.6567186515
 20
46.2975490854
 10
-68.5423839633
 20
46.5266404139
 10
-68.4258106249
 20
46.751733952
 10
-68.3070310925
 20
46.9727670294
 10
-68.1860784369
 20
47.1896781058
 10
-68.0629863335
 20
47.4024067891
 10
-67.9377890538
 20
47.6108938512
 10
-67.8105214551
 20
47.8150812452
 10
-67.6812189712
 20
48.0149121212
 10
-67.5499176027
 20
48.2103308424
 10
-67.4166539063
 20
48.4012830003
 10
-67.2814649854
 20
48.5877154299
 10
-67.1443884793
 20
48.7695762248
 10
-67.0054625528
 20
48.9468147513
 10
-66.8647258856
 20
49.1193816626
 10
-66.7222176617
 20
49.2872289127
 10
-66.5779775582
 20
49.4503097696
 10
-66.4320457343
 20
49.6085788282
 10
-66.2844628205
 20
49.7619920233
 10
-66.1352699068
 20
49.9105066417
 10
-65.9845085315
 20
50.0540813338
 10
-65.8322206695
 20
50.1926761256
 10
-65.6784487208
 20
50.3262524296
 10
-65.5232354986
 20
50.4547730555
 10
-65.3666242173
 20
50.5782022205
 10
-65.2086584807
 20
50.6965055595
 10
-65.0493822697
 20
50.8096501344
 10
-64.8888399297
 20
50.9176044437
 10
-64.7270761592
 20
51.0203384306
 10
-64.5641359962
 20
51.1178234919
 10
-64.4000648067
 20
51.2100324859
 10
-64.2349082713
 20
51.2969397397
 10
-64.0687123728
 20
51.3785210566
 10
-63.9015233836
 20
51.4547537228
 10
-63.7333878524
 20
51.5256165136
 10
-63.5643525915
 20
51.5910896993
 10
-63.3944646636
 20
51.6511550509
 10
-63.2237713691
 20
51.7057958449
 10
-63.0523202322
 20
51.7549968684
 10
-62.8801589884
 20
51.7987444228
 10
-62.7073355709
 20
51.8370263279
 10
-62.533898097
 20
51.8698319251
 10
-62.3598948554
 20
51.8971520809
 10
-62.1853742919
 20
51.9189791887
 10
-62.0103849966
 20
51.9353071714
 10
-62.001307255
 20
51.9360031732
  0
LINE
  5
61
330
1F
100
AcDbEntity
  8
0
  6
Continuous
 62
     7
370
    15
100
AcDbLine
 10
-60.7341073238
 20
52.0321239115
 30
0.0
 11
-62.001307255
 21
51.9360031732
 31
0.0
  0
LINE
  5
62
330
1F
100
AcDbEntity
  8
0
  6
Continuous
 62
     7
370
    15
100
AcDbLine
 10
-59.7346956053
 20
50.2456543877
 30
0.0
 11
-61.0018955365
 21
50.1495336494
 31
0.0
  0
LINE
  5
63
330
1F
100
AcDbEntity
  8
0
  6
Continuous
 62
     7
370
    15
100
AcDbLine
 10
-26.3927574838
 20
-9.8851351869
 30
0.0
 11
-25.1255575526
 21
-9.7890144486
 31
0.0
  0
LINE
  5
64
330
1F
100
AcDbEntity
  8
0
  6
Continuous
 62
     7
370
    15
100
AcDbLine
 10
-68.7057362361
 20
36.3470361505
 30
0.0
 11
-69.8364612979
 21
9.200069197
 31
0.0
  0
LINE
  5
65
330
1F
100
AcDbEntity
  8
0
  6
Continuous
 62
     7
370
    15
100
AcDbLine
 10
-67.4596318157
 20
3.6081769477
 30
0.0
 11
-26.9550851398
 21
-9.8128895388
 31
0.0
  0
LINE
  5
66
330
1F
100
AcDbEntity
  8
0
  6
Continuous
 62
     7
370
    15
100
AcDbLine
 10
-58.9782774673
 20
51.8920145035
 30
0.0
 11
-19.1855275142
 21
42.5833598466
 31
0.0
  0
LINE
  5
67
330
1F
100
AcDbEntity
  8
0
  6
Continuous
 62
     7
370
    15
100
AcDbLine
 10
-20.8511318455
 20
-13.3289932544
 30
0.0
 11
-68.5880276471
 21
2.488491571
 31
0.0
  0
LINE
  5
68
330
1F
100
AcDbEntity
  8
0
  6
Continuous
 62
     7
370
    15
100
AcDbLine
 10
-70.9648571293
 20
8.0803838203
 30
0.0
 11
-69.8115897529
 21
35.7685570219
 31
0.0
  0
LINE
  5
69
330
1F
100
AcDbEntity
  8
0
  6
Continuous
 62
     7
370
    15
100
AcDbLine
 10
-72.2320570605
 20
7.984263082
 30
0.0
 11
-71.0787896841
 21
35.6724362836
 31
0.0
  0
LINE
  5
6A
330
1F
100
AcDbEntity
  8
0
  6
Continuous
 62
     7
370
    15
100
AcDbLine
 10
-25.6878852086
 20
-9.7167688005
 30
0.0
 11
-66.1924318845
 21
3.704297686
 31
0.0
  0
LINE
  5
6B
330
1F
100
AcDbEntity
  8
0
  6
Continuous
 62
     7
370
    15
100
AcDbLine
 10
-68.5692613667
 20
9.2961899353
 30
0.0
 11
-67.4385363048
 21
36.4431568887
 31
0.0
  0
LINE
  5
6C
330
1F
100
AcDbEntity
  8
0
  6
Continuous
 62
     7
370
    15
100
AcDbLine
 10
-58.2445650966
 20
50.1267469078
 30
0.0
 11
-19.651308783
 21
41.0986878887
 31
0.0
  0
LINE
  5
6D
330
1F
100
AcDbEntity
  8
0
  6
Continuous
 62
     7
370
    15
100
AcDbLine
 10
-22.1183317767
 20
-13.4251139927
 30
0.0
 11
-20.8511318455
 21
-13.3289932544
 31
0.0
  0
LINE
  5
6E
330
1F
100
AcDbEntity
  8
0
  6
Continuous
 62
     7
370
    15
100
AcDbLine
 10
-22.1183317767
 20
-13.4251139927
 30
0.0
 11
-69.8552275783
 21
2.3923708327
 31
0.0
  0
ARC
  5
6F
330
1F
100
AcDbEntity
  8
0
  6
Continuous
 62
     7
370
    15
100
AcDbCircle
 10
-26.4957832471
 20
-8.4624657278
 30
0.0
 40
1.426395000649316
100
AcDbArc
 50
251.215965728
 51
274.1419704942
  0
ARC
  5
70
330
1F
100
AcDbEntity
  8
0
  6
Continuous
 62
     7
370
    15
100
AcDbCircle
 10
-20.5683612135
 20
37.9652548229
 30
0.0
 40
4.820697361339483
100
AcDbArc
 50
34.0827818419
 51
73.3303295268
  0
ARC
  5
71
330
1F
100
AcDbEntity
  8
0
  6
Continuous
 62
     7
370
    15
100
AcDbCircle
 10
-22.944140488
 20
36.462967856
 30
0.0
 40
7.630750313548221
100
AcDbArc
 50
333.7640450135
 51
33.428579114
  0
LINE
  5
7A
330
1B
100
AcDbEntity
 67
     1
  8
0
  6
Continuous
 62
     7
370
    15
100
AcDbLine
 10
113.0375603325
 20
32.4888659598
 30
0.0
 11
38.7502476009
 21
36.382099049
 31
0.0
  0
LINE
  5
7B
330
1B
100
AcDbEntity
 67
     1
  8
0
  6
Continuous
 62
     7
370
    15
100
AcDbLine
 10
131.825
 20
-15.5
 30
0.0
 11
131.825
 21
12.6910354333
 31
0.0
  0
LINE
  5
7C
330
1B
100
AcDbEntity
 67
     1
  8
0
  6
Continuous
 62
     7
370
    15
100
AcDbLine
 10
37.5239923249
 20
-20.325
 30
0.0
 11
127.0
 21
-20.325
 31
0.0
  0
ARC
  5
7D
330
1B
100
AcDbEntity
 67
     1
  8
0
  6
Continuous
 62
     7
370
    15
100
AcDbCircle
 10
0.0
 20
0.0
 30
0.0
 40
42.67500000000593
100
AcDbArc
 50
331.5576567398
 51
40.7818717849
  0
ARC
  5
7E
330
1B
100
AcDbEntity
 67
     1
  8
0
  6
Continuous
 62
     7
370
    15
100
AcDbCircle
 10
35.9670835099
 20
31.0261003639
 30
0.0
 40
4.825000000000008
100
AcDbArc
 50
116.9872789912
 51
220.7818717849
  0
ARC
  5
7F
330
1B
100
AcDbEntity
 67
     1
  8
0
  6
Continuous
 62
     7
370
    15
100
AcDbCircle
 10
38.2360468308
 20
26.57056387
 30
0.0
 40
9.824999999992112
100
AcDbArc
 50
87.0
 51
116.9872789912
  0
ARC
  5
80
330
1B
100
AcDbEntity
 67
     1
  8
0
  6
Continuous
 62
     7
370
    15
100
AcDbCircle
 10
112.0
 20
12.6910354333
 30
0.0
 40
19.82499999999984
100
AcDbArc
 50
0.0
 51
87.0
  0
ARC
  5
81
330
1B
100
AcDbEntity
 67
     1
  8
0
  6
Continuous
 62
     7
370
    15
100
AcDbCircle
 10
127.0
 20
-15.5
 30
0.0
 40
4.825000000000031
100
AcDbArc
 50
270.0
 51
0.0
  0
VIEWPORT
  5
173
330
1B
100
AcDbEntity
 67
     1
  8
0
100
AcDbViewport
 10
0.0
 20
0.0
 30
0.0
 40
243.84
 41
204.216
 68
     1
 69
     1
 12
-43.77645812
 22
19.3112279277
 13
0.0
 23
0.0
 14
10.0
 24
10.0
 15
10.0
 25
10.0
 16
0.0
 26
0.0
 36
1.0
 17
0.0
 27
0.0
 37
0.0
 42
50.0
 43
0.0
 44
0.0
 45
66.7821375176
 50
0.0
 51
0.0
 72
   100
 90
   557152
  1

281
     0
 71
     1
 74
     0
110
0.0
120
0.0
130
0.0
111
1.0
121
0.0
131
0.0
112
0.0
122
1.0
132
0.0
 79
     0
146
0.0
170
     0
 61
     5
292
     1
282
     1
141
0.0
142
0.0
 63
   256
  0
ENDSEC
  0
SECTION
  2
OBJECTS
  0
DICTIONARY
  5
C
330
0
100
AcDbDictionary
281
     1
  3
ACAD_GROUP
350
D
  3
ACAD_LAYOUT
350
1A
  3
ACAD_MATERIAL
350
3B
  3
ACAD_MLEADERSTYLE
350
17D
  3
ACAD_MLINESTYLE
350
17
  3
ACAD_PLOTSETTINGS
350
19
  3
ACAD_PLOTSTYLENAME
350
E
  3
ACAD_TABLESTYLE
350
17C
  3
ACAD_VISUALSTYLE
350
2A
  0
DICTIONARY
  5
D
102
{ACAD_REACTORS
330
C
102
}
330
C
100
AcDbDictionary
281
     1
  0
DICTIONARY
  5
1A
102
{ACAD_REACTORS
330
C
102
}
330
C
100
AcDbDictionary
281
     1
  3
_Back
350
26
  3
_Bottom
350
F3
  3
_Dimetric
350
157
  3
_Front
350
1E
  3
_Isometric
350
113
  3
_Left
350
A3
  3
_Right
350
BB
  3
_Top
350
D9
  3
_Trimetric
350
137
  3
Model
350
22
  0
DICTIONARY
  5
3B
102
{ACAD_REACTORS
330
C
102
}
330
C
100
AcDbDictionary
281
     1
  3
ByBlock
350
3D
  3
ByLayer
350
3C
  3
Global
350
3E
  0
DICTIONARY
  5
17D
102
{ACAD_REACTORS
330
C
102
}
330
C
100
AcDbDictionary
281
     1
  0
DICTIONARY
  5
17
102
{ACAD_REACTORS
330
C
102
}
330
C
100
AcDbDictionary
281
     1
  3
Standard
350
18
  0
DICTIONARY
  5
19
102
{ACAD_REACTORS
330
C
102
}
330
C
100
AcDbDictionary
281
     1
  0
ACDBDICTIONARYWDFLT
  5
E
102
{ACAD_REACTORS
330
C
102
}
330
C
100
AcDbDictionary
281
     1
  3
Normal
350
F
100
AcDbDictionaryWithDefault
340
F
  0
DICTIONARY
  5
17C
102
{ACAD_REACTORS
330
C
102
}
330
C
100
AcDbDictionary
281
     1
  0
DICTIONARY
  5
2A
102
{ACAD_REACTORS
330
C
102
}
330
C
100
AcDbDictionary
281
     1
  3
2dWireframe
350
2F
  3
3D Hidden
350
31
  3
3dWireframe
350
30
  3
Basic
350
32
  3
Brighten
350
36
  3
ColorChange
350
3A
  3
Conceptual
350
34
  3
Dim
350
35
  3
Facepattern
350
39
  3
Flat
350
2B
  3
FlatWithEdges
350
2C
  3
Gouraud
350
2D
  3
GouraudWithEdges
350
2E
  3
Linepattern
350
38
  3
Realistic
350
33
  3
Thicken
350
37
  0
LAYOUT
  5
26
102
{ACAD_REACTORS
330
1A
102
}
330
1A
100
AcDbPlotSettings
  1

  2
none_device
  4

  6

 40
0.0
 41
0.0
 42
0.0
 43
0.0
 44
0.0
 45
0.0
 46
0.0
 47
0.0
 48
0.0
 49
0.0
140
0.0
141
0.0
142
1.0
143
1.0
 70
   688
 72
     0
 73
     0
 74
     5
  7

 75
    16
 76
     0
 77
     2
 78
   300
147
1.0
148
0.0
149
0.0
100
AcDbLayout
  1
_Back
 70
     1
 71
     2
 10
0.0
 20
0.0
 11
0.0
 21
0.0
 12
0.0
 22
0.0
 32
0.0
 14
0.0
 24
0.0
 34
0.0
 15
0.0
 25
0.0
 35
0.0
146
0.0
 13
0.0
 23
0.0
 33
0.0
 16
1.0
 26
0.0
 36
0.0
 17
0.0
 27
1.0
 37
0.0
 76
     0
330
23
331
174
  0
LAYOUT
  5
F3
102
{ACAD_REACTORS
330
1A
102
}
330
1A
100
AcDbPlotSettings
  1

  2
none_device
  4

  6

 40
0.0
 41
0.0
 42
0.0
 43
0.0
 44
0.0
 45
0.0
 46
0.0
 47
0.0
 48
0.0
 49
0.0
140
0.0
141
0.0
142
1.0
143
1.0
 70
   688
 72
     0
 73
     0
 74
     5
  7

 75
    16
 76
     0
 77
     2
 78
   300
147
1.0
148
0.0
149
0.0
100
AcDbLayout
  1
_Bottom
 70
     1
 71
     6
 10
0.0
 20
0.0
 11
0.0
 21
0.0
 12
0.0
 22
0.0
 32
0.0
 14
0.0
 24
0.0
 34
0.0
 15
0.0
 25
0.0
 35
0.0
146
0.0
 13
0.0
 23
0.0
 33
0.0
 16
1.0
 26
0.0
 36
0.0
 17
0.0
 27
1.0
 37
0.0
 76
     0
330
F2
331
178
  0
LAYOUT
  5
157
102
{ACAD_REACTORS
330
1A
102
}
330
1A
100
AcDbPlotSettings
  1

  2
none_device
  4

  6

 40
0.0
 41
0.0
 42
0.0
 43
0.0
 44
0.0
 45
0.0
 46
0.0
 47
0.0
 48
0.0
 49
0.0
140
0.0
141
0.0
142
1.0
143
1.0
 70
   688
 72
     0
 73
     0
 74
     5
  7

 75
    16
 76
     0
 77
     2
 78
   300
147
1.0
148
0.0
149
0.0
100
AcDbLayout
  1
_Dimetric
 70
     1
 71
     9
 10
0.0
 20
0.0
 11
0.0
 21
0.0
 12
0.0
 22
0.0
 32
0.0
 14
0.0
 24
0.0
 34
0.0
 15
0.0
 25
0.0
 35
0.0
146
0.0
 13
0.0
 23
0.0
 33
0.0
 16
1.0
 26
0.0
 36
0.0
 17
0.0
 27
1.0
 37
0.0
 76
     0
330
156
331
17B
  0
LAYOUT
  5
1E
102
{ACAD_REACTORS
330
1A
102
}
330
1A
100
AcDbPlotSettings
  1

  2
none_device
  4

  6

 40
0.0
 41
0.0
 42
0.0
 43
0.0
 44
0.0
 45
0.0
 46
0.0
 47
0.0
 48
0.0
 49
0.0
140
0.0
141
0.0
142
1.0
143
1.0
 70
   688
 72
     0
 73
     0
 74
     5
  7

 75
    16
 76
     0
 77
     2
 78
   300
147
1.0
148
0.0
149
0.0
100
AcDbLayout
  1
_Front
 70
     1
 71
     1
 10
0.0
 20
0.0
 11
420.0
 21
297.0
 12
0.0
 22
0.0
 32
0.0
 14
31.1420835099
 24
-20.325
 34
0.0
 15
131.825
 25
36.39556387
 35
0.0
146
0.0
 13
0.0
 23
0.0
 33
0.0
 16
1.0
 26
0.0
 36
0.0
 17
0.0
 27
1.0
 37
0.0
 76
     0
330
1B
331
173
  0
LAYOUT
  5
113
102
{ACAD_REACTORS
330
1A
102
}
330
1A
100
AcDbPlotSettings
  1

  2
none_device
  4

  6

 40
0.0
 41
0.0
 42
0.0
 43
0.0
 44
0.0
 45
0.0
 46
0.0
 47
0.0
 48
0.0
 49
0.0
140
0.0
141
0.0
142
1.0
143
1.0
 70
   688
 72
     0
 73
     0
 74
     5
  7

 75
    16
 76
     0
 77
     2
 78
   300
147
1.0
148
0.0
149
0.0
100
AcDbLayout
  1
_Isometric
 70
     1
 71
     7
 10
0.0
 20
0.0
 11
0.0
 21
0.0
 12
0.0
 22
0.0
 32
0.0
 14
0.0
 24
0.0
 34
0.0
 15
0.0
 25
0.0
 35
0.0
146
0.0
 13
0.0
 23
0.0
 33
0.0
 16
1.0
 26
0.0
 36
0.0
 17
0.0
 27
1.0
 37
0.0
 76
     0
330
112
331
179
  0
LAYOUT
  5
A3
102
{ACAD_REACTORS
330
1A
102
}
330
1A
100
AcDbPlotSettings
  1

  2
none_device
  4

  6

 40
0.0
 41
0.0
 42
0.0
 43
0.0
 44
0.0
 45
0.0
 46
0.0
 47
0.0
 48
0.0
 49
0.0
140
0.0
141
0.0
142
1.0
143
1.0
 70
   688
 72
     0
 73
     0
 74
     5
  7

 75
    16
 76
     0
 77
     2
 78
   300
147
1.0
148
0.0
149
0.0
100
AcDbLayout
  1
_Left
 70
     1
 71
     3
 10
0.0
 20
0.0
 11
0.0
 21
0.0
 12
0.0
 22
0.0
 32
0.0
 14
0.0
 24
0.0
 34
0.0
 15
0.0
 25
0.0
 35
0.0
146
0.0
 13
0.0
 23
0.0
 33
0.0
 16
1.0
 26
0.0
 36
0.0
 17
0.0
 27
1.0
 37
0.0
 76
     0
330
A2
331
175
  0
LAYOUT
  5
BB
102
{ACAD_REACTORS
330
1A
102
}
330
1A
100
AcDbPlotSettings
  1

  2
none_device
  4

  6

 40
0.0
 41
0.0
 42
0.0
 43
0.0
 44
0.0
 45
0.0
 46
0.0
 47
0.0
 48
0.0
 49
0.0
140
0.0
141
0.0
142
1.0
143
1.0
 70
   688
 72
     0
 73
     0
 74
     5
  7

 75
    16
 76
     0
 77
     2
 78
   300
147
1.0
148
0.0
149
0.0
100
AcDbLayout
  1
_Right
 70
     1
 71
     4
 10
0.0
 20
0.0
 11
0.0
 21
0.0
 12
0.0
 22
0.0
 32
0.0
 14
0.0
 24
0.0
 34
0.0
 15
0.0
 25
0.0
 35
0.0
146
0.0
 13
0.0
 23
0.0
 33
0.0
 16
1.0
 26
0.0
 36
0.0
 17
0.0
 27
1.0
 37
0.0
 76
     0
330
BA
331
176
  0
LAYOUT
  5
D9
102
{ACAD_REACTORS
330
1A
102
}
330
1A
100
AcDbPlotSettings
  1

  2
none_device
  4

  6

 40
0.0
 41
0.0
 42
0.0
 43
0.0
 44
0.0
 45
0.0
 46
0.0
 47
0.0
 48
0.0
 49
0.0
140
0.0
141
0.0
142
1.0
143
1.0
 70
   688
 72
     0
 73
     0
 74
     5
  7

 75
    16
 76
     0
 77
     2
 78
   300
147
1.0
148
0.0
149
0.0
100
AcDbLayout
  1
_Top
 70
     1
 71
     5
 10
0.0
 20
0.0
 11
0.0
 21
0.0
 12
0.0
 22
0.0
 32
0.0
 14
0.0
 24
0.0
 34
0.0
 15
0.0
 25
0.0
 35
0.0
146
0.0
 13
0.0
 23
0.0
 33
0.0
 16
1.0
 26
0.0
 36
0.0
 17
0.0
 27
1.0
 37
0.0
 76
     0
330
D8
331
177
  0
LAYOUT
  5
137
102
{ACAD_REACTORS
330
1A
102
}
330
1A
100
AcDbPlotSettings
  1

  2
none_device
  4

  6

 40
0.0
 41
0.0
 42
0.0
 43
0.0
 44
0.0
 45
0.0
 46
0.0
 47
0.0
 48
0.0
 49
0.0
140
0.0
141
0.0
142
1.0
143
1.0
 70
   688
 72
     0
 73
     0
 74
     5
  7

 75
    16
 76
     0
 77
     2
 78
   300
147
1.0
148
0.0
149
0.0
100
AcDbLayout
  1
_Trimetric
 70
     1
 71
     8
 10
0.0
 20
0.0
 11
0.0
 21
0.0
 12
0.0
 22
0.0
 32
0.0
 14
0.0
 24
0.0
 34
0.0
 15
0.0
 25
0.0
 35
0.0
146
0.0
 13
0.0
 23
0.0
 33
0.0
 16
1.0
 26
0.0
 36
0.0
 17
0.0
 27
1.0
 37
0.0
 76
     0
330
136
331
17A
  0
LAYOUT
  5
22
102
{ACAD_REACTORS
330
1A
102
}
330
1A
100
AcDbPlotSettings
  1

  2
none_device
  4
ANSI_A_(11.00_x_8.50_Inches)
  6

 40
6.35
 41
19.05
 42
6.35000508
 43
19.05000254
 44
279.4
 45
215.9
 46
276.2618713307
 47
25.8568954638
 48
0.0
 49
0.0
140
0.0
141
0.0
142
0.1285268834
143
1.0
 70
  1696
 72
     0
 73
     0
 74
     0
  7

 75
     0
 76
     0
 77
     2
 78
   300
147
0.0179189148
148
0.0
149
0.0
100
AcDbLayout
  1
Model
 70
     1
 71
     0
 10
0.0
 20
0.0
 11
420.0
 21
297.0
 12
0.0
 22
0.0
 32
0.0
 14
-72.2395260656
 24
-13.4251139927
 34
0.0
 15
-15.3133901744
 25
52.047569848
 35
0.0
146
0.0
 13
0.0
 23
0.0
 33
0.0
 16
1.0
 26
0.0
 36
0.0
 17
0.0
 27
1.0
 37
0.0
 76
     0
330
1F
331
29
  0
MATERIAL
  5
3D
102
{ACAD_REACTORS
330
3B
102
}
330
3B
100
AcDbMaterial
  1
ByBlock
 72
     1
 94
      127
  0
MATERIAL
  5
3C
102
{ACAD_REACTORS
330
3B
102
}
330
3B
100
AcDbMaterial
  1
ByLayer
 72
     1
 94
      127
  0
MATERIAL
  5
3E
102
{ACAD_REACTORS
330
3B
102
}
330
3B
100
AcDbMaterial
  1
Global
 72
     1
 94
      127
  0
MLINESTYLE
  5
18
102
{ACAD_REACTORS
330
17
102
}
330
17
100
AcDbMlineStyle
  2
Standard
 70
     0
  3

 62
   256
 51
90.0
 52
90.0
 71
     2
 49
0.5
 62
   256
  6
BYLAYER
 49
-0.5
 62
   256
  6
BYLAYER
  0
ACDBPLACEHOLDER
  5
F
102
{ACAD_REACTORS
330
E
102
}
330
E
  0
VISUALSTYLE
  5
2F
102
{ACAD_REACTORS
330
2A
102
}
330
2A
100
AcDbVisualStyle
  2
2dWireframe
 70
     4
 71
     0
 72
     2
 73
     0
 90
        0
 40
-0.6
 41
-30.0
 62
     5
 63
     7
421
 16777215
 74
     1
 91
        4
 64
     7
 65
   257
 75
     1
175
     1
 42
1.0
 92
        0
 66
   257
 43
1.0
 76
     1
 77
     6
 78
     2
 67
     7
 79
     5
170
     0
171
     0
290
     0
174
     0
 93
        1
 44
0.0
173
     0
291
     0
 45
0.0
  0
VISUALSTYLE
  5
31
102
{ACAD_REACTORS
330
2A
102
}
330
2A
100
AcDbVisualStyle
  2
3D Hidden
 70
     6
 71
     1
 72
     2
 73
     2
 90
        0
 40
-0.6
 41
-30.0
 62
     5
 63
     7
421
 16777215
 74
     2
 91
        2
 64
     7
 65
   257
 75
     2
175
     1
 42
40.0
 92
        0
 66
   257
 43
1.0
 76
     1
 77
     6
 78
     2
 67
     7
 79
     3
170
     0
171
     0
290
     0
174
     0
 93
        1
 44
0.0
173
     0
291
     0
 45
0.0
  0
VISUALSTYLE
  5
30
102
{ACAD_REACTORS
330
2A
102
}
330
2A
100
AcDbVisualStyle
  2
3dWireframe
 70
     5
 71
     0
 72
     2
 73
     0
 90
        0
 40
-0.6
 41
-30.0
 62
     5
 63
     7
421
 16777215
 74
     1
 91
        4
 64
     7
 65
   257
 75
     1
175
     1
 42
1.0
 92
        0
 66
   257
 43
1.0
 76
     1
 77
     6
 78
     2
 67
     7
 79
     5
170
     0
171
     0
290
     0
174
     0
 93
        1
 44
0.0
173
     0
291
     0
 45
0.0
  0
VISUALSTYLE
  5
32
102
{ACAD_REACTORS
330
2A
102
}
330
2A
100
AcDbVisualStyle
  2
Basic
 70
     7
 71
     1
 72
     0
 73
     1
 90
        0
 40
-0.6
 41
-30.0
 62
     5
 63
     7
421
 16777215
 74
     0
 91
        4
 64
     7
 65
   257
 75
     1
175
     1
 42
1.0
 92
        8
 66
     7
 43
1.0
 76
     1
 77
     6
 78
     2
 67
     7
 79
     5
170
     0
171
     0
290
     0
174
     0
 93
        1
 44
0.0
173
     0
291
     1
 45
0.0
  0
VISUALSTYLE
  5
36
102
{ACAD_REACTORS
330
2A
102
}
330
2A
100
AcDbVisualStyle
  2
Brighten
 70
    12
 71
     2
 72
     2
 73
     0
 90
        0
 40
-0.6
 41
-30.0
 62
     5
 63
     7
421
 16777215
 74
     1
 91
        4
 64
     7
 65
   257
 75
     1
175
     1
 42
1.0
 92
        8
 66
     7
 43
1.0
 76
     1
 77
     6
 78
     2
 67
     7
 79
     5
170
     0
171
     0
290
     0
174
     0
 93
        1
 44
50.0
173
     0
291
     1
 45
0.0
  0
VISUALSTYLE
  5
3A
102
{ACAD_REACTORS
330
2A
102
}
330
2A
100
AcDbVisualStyle
  2
ColorChange
 70
    16
 71
     2
 72
     2
 73
     3
 90
        0
 40
-0.6
 41
-30.0
 62
     5
 63
     8
421
  8421504
 74
     1
 91
        4
 64
     7
 65
   257
 75
     1
175
     1
 42
1.0
 92
        8
 66
     8
424
  8421504
 43
1.0
 76
     1
 77
     6
 78
     2
 67
     7
 79
     5
170
     0
171
     0
290
     0
174
     0
 93
        1
 44
0.0
173
     0
291
     1
 45
0.0
  0
VISUALSTYLE
  5
34
102
{ACAD_REACTORS
330
2A
102
}
330
2A
100
AcDbVisualStyle
  2
Conceptual
 70
     9
 71
     3
 72
     2
 73
     0
 90
        0
 40
-0.6
 41
-30.0
 62
     5
 63
     7
421
 16777215
 74
     2
 91
        2
 64
     7
 65
   257
 75
     1
175
     1
 42
40.0
 92
        8
 66
     7
 43
1.0
 76
     1
 77
     6
 78
     2
 67
     7
 79
     3
170
     0
171
     0
290
     0
174
     0
 93
        1
 44
0.0
173
     0
291
     0
 45
0.0
  0
VISUALSTYLE
  5
35
102
{ACAD_REACTORS
330
2A
102
}
330
2A
100
AcDbVisualStyle
  2
Dim
 70
    11
 71
     2
 72
     2
 73
     0
 90
        0
 40
-0.6
 41
-30.0
 62
     5
 63
     7
421
 16777215
 74
     1
 91
        4
 64
     7
 65
   257
 75
     1
175
     1
 42
1.0
 92
        8
 66
     7
 43
1.0
 76
     1
 77
     6
 78
     2
 67
     7
 79
     5
170
     0
171
     0
290
     0
174
     0
 93
        1
 44
-50.0
173
     0
291
     1
 45
0.0
  0
VISUALSTYLE
  5
39
102
{ACAD_REACTORS
330
2A
102
}
330
2A
100
AcDbVisualStyle
  2
Facepattern
 70
    15
 71
     2
 72
     2
 73
     0
 90
        0
 40
-0.6
 41
-30.0
 62
     5
 63
     7
421
 16777215
 74
     1
 91
        4
 64
     7
 65
   257
 75
     1
175
     1
 42
1.0
 92
        8
 66
     7
 43
1.0
 76
     1
 77
     6
 78
     2
 67
     7
 79
     5
170
     0
171
     0
290
     0
174
     0
 93
        1
 44
0.0
173
     0
291
     1
 45
0.0
  0
VISUALSTYLE
  5
2B
102
{ACAD_REACTORS
330
2A
102
}
330
2A
100
AcDbVisualStyle
  2
Flat
 70
     0
 71
     2
 72
     1
 73
     1
 90
        2
 40
-0.6
 41
30.0
 62
     5
 63
     7
421
 16777215
 74
     0
 91
        4
 64
     7
 65
   257
 75
     1
175
     1
 42
1.0
 92
        8
 66
     7
 43
1.0
 76
     1
 77
     6
 78
     2
 67
     7
 79
     5
170
     0
171
     0
290
     0
174
     0
 93
       13
 44
0.0
173
     0
291
     1
 45
0.0
  0
VISUALSTYLE
  5
2C
102
{ACAD_REACTORS
330
2A
102
}
330
2A
100
AcDbVisualStyle
  2
FlatWithEdges
 70
     1
 71
     2
 72
     1
 73
     1
 90
        2
 40
-0.6
 41
30.0
 62
     5
 63
     7
421
 16777215
 74
     1
 91
        4
 64
     7
 65
   257
 75
     1
175
     1
 42
1.0
 92
        0
 66
   257
 43
1.0
 76
     1
 77
     6
 78
     2
 67
     7
 79
     5
170
     0
171
     0
290
     0
174
     0
 93
       13
 44
0.0
173
     0
291
     1
 45
0.0
  0
VISUALSTYLE
  5
2D
102
{ACAD_REACTORS
330
2A
102
}
330
2A
100
AcDbVisualStyle
  2
Gouraud
 70
     2
 71
     2
 72
     2
 73
     1
 90
        2
 40
-0.6
 41
30.0
 62
     5
 63
     7
421
 16777215
 74
     0
 91
        4
 64
     7
 65
   257
 75
     1
175
     1
 42
1.0
 92
        0
 66
     7
 43
1.0
 76
     1
 77
     6
 78
     2
 67
     7
 79
     5
170
     0
171
     0
290
     0
174
     0
 93
       13
 44
0.0
173
     0
291
     1
 45
0.0
  0
VISUALSTYLE
  5
2E
102
{ACAD_REACTORS
330
2A
102
}
330
2A
100
AcDbVisualStyle
  2
GouraudWithEdges
 70
     3
 71
     2
 72
     2
 73
     1
 90
        2
 40
-0.6
 41
30.0
 62
     5
 63
     7
421
 16777215
 74
     1
 91
        4
 64
     7
 65
   257
 75
     1
175
     1
 42
1.0
 92
        0
 66
   257
 43
1.0
 76
     1
 77
     6
 78
     2
 67
     7
 79
     5
170
     0
171
     0
290
     0
174
     0
 93
       13
 44
0.0
173
     0
291
     1
 45
0.0
  0
VISUALSTYLE
  5
38
102
{ACAD_REACTORS
330
2A
102
}
330
2A
100
AcDbVisualStyle
  2
Linepattern
 70
    14
 71
     2
 72
     2
 73
     0
 90
        0
 40
-0.6
 41
-30.0
 62
     5
 63
     7
421
 16777215
 74
     1
 91
        4
 64
     7
 65
   257
 75
     7
175
     7
 42
1.0
 92
        8
 66
     7
 43
1.0
 76
     1
 77
     6
 78
     2
 67
     7
 79
     5
170
     0
171
     0
290
     0
174
     0
 93
        1
 44
0.0
173
     0
291
     1
 45
0.0
  0
VISUALSTYLE
  5
33
102
{ACAD_REACTORS
330
2A
102
}
330
2A
100
AcDbVisualStyle
  2
Realistic
 70
     8
 71
     2
 72
     2
 73
     0
 90
        0
 40
-0.6
 41
-30.0
 62
     5
 63
     7
421
 16777215
 74
     1
 91
        0
 64
     7
 65
   257
 75
     1
175
     1
 42
1.0
 92
        8
 66
     8
424
  7895160
 43
1.0
 76
     1
 77
     6
 78
     2
 67
     7
 79
     5
170
     0
171
     0
290
     0
174
     0
 93
       13
 44
0.0
173
     0
291
     0
 45
0.0
  0
VISUALSTYLE
  5
37
102
{ACAD_REACTORS
330
2A
102
}
330
2A
100
AcDbVisualStyle
  2
Thicken
 70
    13
 71
     2
 72
     2
 73
     0
 90
        0
 40
-0.6
 41
-30.0
 62
     5
 63
     7
421
 16777215
 74
     1
 91
        4
 64
     7
 65
   257
 75
     1
175
     1
 42
1.0
 92
       12
 66
     7
 43
1.0
 76
     1
 77
     6
 78
     2
 67
     7
 79
     5
170
     0
171
     0
290
     0
174
     0
 93
        1
 44
0.0
173
     0
291
     1
 45
0.0
  0
ENDSEC
  0
EOF
