<?xml version="1.0" encoding="UTF-8" standalone="no"?>
<!-- Created with Inkscape (http://www.inkscape.org/) -->

<svg
   xmlns:dc="http://purl.org/dc/elements/1.1/"
   xmlns:cc="http://creativecommons.org/ns#"
   xmlns:rdf="http://www.w3.org/1999/02/22-rdf-syntax-ns#"
   xmlns:svg="http://www.w3.org/2000/svg"
   xmlns="http://www.w3.org/2000/svg"
   xmlns:sodipodi="http://sodipodi.sourceforge.net/DTD/sodipodi-0.dtd"
   xmlns:inkscape="http://www.inkscape.org/namespaces/inkscape"
   width="1052.3622"
   height="744.09448"
   id="svg2"
   version="1.1"
   inkscape:version="0.48.4 r9939"
   sodipodi:docname="Logo_V03.png">
  <defs
     id="defs4" />
  <sodipodi:namedview
     id="base"
     pagecolor="#ffffff"
     bordercolor="#666666"
     borderopacity="1.0"
     inkscape:pageopacity="0.0"
     inkscape:pageshadow="2"
     inkscape:zoom="1.3024671"
     inkscape:cx="537.80036"
     inkscape:cy="521.85474"
     inkscape:document-units="px"
     inkscape:current-layer="layer1"
     showgrid="false"
     showguides="true"
     inkscape:guide-bbox="true"
     inkscape:window-width="1366"
     inkscape:window-height="691"
     inkscape:window-x="-9"
     inkscape:window-y="-9"
     inkscape:window-maximized="1" />
  <metadata
     id="metadata7">
    <rdf:RDF>
      <cc:Work
         rdf:about="">
        <dc:format>image/svg+xml</dc:format>
        <dc:type
           rdf:resource="http://purl.org/dc/dcmitype/StillImage" />
        <dc:title></dc:title>
      </cc:Work>
    </rdf:RDF>
  </metadata>
  <g
     inkscape:label="Ebene 1"
     inkscape:groupmode="layer"
     id="layer1"
     transform="translate(0,-308.2677)">
    <path
       style="fill:#000000"
       d="m 75.96948,582.49431 c -1.382387,-1.38239 -1.539082,-4.85378 -0.276104,-6.11675 1.242696,-1.2427 4.726062,-1.11459 6.063654,0.223 0.971022,0.97103 8.209703,1.11504 56.04683,1.11504 l 54.93179,0 1.61629,-1.72046 c 0.92546,-0.98511 1.61629,-2.68334 1.61629,-3.97324 0,-4.07501 4.38019,-6.18979 6.94666,-3.35387 1.43905,1.59013 1.6137,4.64999 0.33822,5.92548 -0.49062,0.49061 -1.93029,0.89202 -3.19928,0.89202 -1.66096,0 -4.31615,0.0443 -4.82896,2.60174 l -2.5217,2.60175 -54.74725,0 c -53.803188,0 -54.770443,0.0256 -56.092697,1.48671 -1.612732,1.78205 -4.285785,1.92654 -5.893743,0.31858 z m 3.624439,-3.35549 c -0.239342,-0.38727 -0.75202,-0.50829 -1.139283,-0.26895 -0.387265,0.23934 -0.508291,0.75202 -0.268949,1.13928 0.239342,0.38727 0.75202,0.50829 1.139284,0.26895 0.387264,-0.23934 0.50829,-0.75202 0.268948,-1.13928 z m 121.166871,-8.17691 c -0.23933,-0.38726 -0.75201,-0.50829 -1.13928,-0.26894 -0.38726,0.23933 -0.50829,0.75201 -0.26894,1.13928 0.23933,0.38726 0.75201,0.50829 1.13928,0.26894 0.38726,-0.23934 0.50829,-0.75201 0.26894,-1.13928 z m 224.21396,11.21382 c -1.4477,-1.4477 -2.47785,-1.48671 -39.25719,-1.48671 l -37.77049,0 -14.05283,-14.12375 -32.05283,-14.12375 -38.49433,0 -26.49432,0 0,10.17945 c 0,5.80008 0.12799,6.30207 2.0849,8.1769 1.35751,1.30058 2.89888,1.99747 4.41797,1.99747 2.32429,0 4.64745,2.12641 4.64745,4.25385 0,1.462 -2.79797,3.92305 -4.46013,3.92305 -2.20784,0 -4.68206,-2.78784 -4.17956,-4.70937 0.31021,-1.18627 -0.35034,-2.3814 -2.56149,-4.63439 l -2.97951,-3.03589 0.21431,-7.37641 0.21431,-11.3764 27.77047,-0.1922 39.77048,-0.19221 32.11543,14.13012 14.11544,14.13011 38.01326,0 c 32.88271,0 38.13816,-0.1505 38.93866,-1.11504 1.40585,-1.69394 4.9246,-1.39283 6.27637,0.53709 0.63644,0.90865 1.15718,2.07944 1.15718,2.60174 0,1.462 -2.79797,3.92305 -4.46013,3.92305 -0.81769,0 -2.15573,-0.66902 -2.97342,-1.48671 z m 3.71677,-2.97342 c 0,-0.40885 -0.33451,-0.74336 -0.74335,-0.74336 -0.40885,0 -0.74336,0.33451 -0.74336,0.74336 0,0.40884 0.33451,0.74335 0.74336,0.74335 0.40884,0 0.74335,-0.33451 0.74335,-0.74335 z m -184.40521,-2.6902 c 0,-0.40884 -0.33451,-0.74335 -0.74336,-0.74335 -0.40884,0 -0.74335,0.33451 -0.74335,0.74335 0,0.40885 0.33451,0.74336 0.74335,0.74336 0.40885,0 0.74336,-0.33451 0.74336,-0.74336 z m 192.01499,-6.4252 -10.5832,-10.60211 0,-8.35345 c 0,-7.3623 -0.17639,-8.52984 -1.48671,-9.84015 -1.65996,-1.65997 -1.85913,-3.11863 -0.7172,-5.25236 0.88208,-1.64818 5.06278,-1.99841 6.51537,-0.54581 1.24607,1.24606 1.11365,4.68884 -0.223,5.79817 -0.86906,0.72125 -1.11504,2.75252 -1.11504,9.20784 l 0,8.28246 9.48811,9.46705 9.48812,9.46705 35.90042,0 c 23.74432,0 35.74485,-0.25171 35.441,-0.74336 -0.29557,-0.47823 -12.71909,-0.74335 -34.83289,-0.74335 l -34.37347,0 -8.32558,-8.32558 -8.32557,-8.32558 0,-13.23172 0,-13.23172 -12.46588,0 -12.46588,0 -7.03251,7.06188 -7.03251,7.06187 -5.82878,0 c -4.19,0 -6.14228,0.31349 -6.94382,1.11503 -3.06868,3.06868 -8.79837,-1.66634 -6.38678,-5.27804 1.12823,-1.68967 3.83566,-2.60924 5.32908,-1.80998 0.79081,0.42323 3.89241,0.7695 6.89244,0.7695 l 5.45461,0 6.11627,-6.1482 6.11626,-6.14821 0,-6.31849 0,-6.31849 -6.51906,-6.48886 -6.51907,-6.48886 -20.44396,0 -20.44398,0 -6.11626,6.14821 -6.11627,6.14821 0,21.18753 0,21.18753 5.77745,5.74356 5.77745,5.74357 30.37552,0 30.37552,0 -1.89005,-1.48671 c -1.81242,-1.42565 -3.01562,-1.48671 -29.29437,-1.48671 l -27.40433,0 -5.74356,-5.77745 -5.74356,-5.77745 0,-18.58293 0,-18.58293 6.51906,-6.48886 6.51906,-6.48885 17.9112,0 17.9112,0 6.79065,6.79064 6.79065,6.79065 0,3.8323 0,3.8323 -7.3132,7.21757 c -5.33342,5.26368 -7.81769,7.21758 -9.17673,7.21758 -2.1851,0 -4.32401,-2.08628 -4.32401,-4.21761 0,-3.52226 5.77382,-5.40647 7.6011,-2.48053 0.8735,1.39869 1.17574,1.22878 5.58146,-3.13779 4.49164,-4.4517 4.65796,-4.7507 4.65796,-8.3734 0,-3.67697 0.63165,-4.74904 -5.40681,-9.12757 l -5.4068,-5.37072 -17.84298,0 -17.84297,0 -4.99771,5.0363 -4.99771,5.0363 0,18.58849 0,18.58849 4.29585,4.25102 4.29584,4.25103 27.32684,0 c 27.0866,0 27.34653,-0.0146 29.56518,-1.65488 2.07488,-1.53402 2.38481,-1.57304 4.2442,-0.53432 2.74045,1.53092 3.15407,5.27775 0.76719,6.9496 -1.66699,1.1676 -1.64475,1.18644 1.40107,1.18644 1.70222,0 3.30168,-0.33451 3.55437,-0.74336 0.76195,-1.23286 4.51742,-0.83614 5.83162,0.61605 1.52611,1.68632 1.58568,4.11041 0.13071,5.31793 -0.84083,0.69783 -9.85683,0.88543 -38.31854,0.79733 -20.47043,-0.0633 -37.62103,-0.31341 -38.11243,-0.55566 -0.4914,-0.24226 -3.84202,-4.54842 -8.51284,-8.42581 l -7.61939,-7.98535 0,-13.09444 0,-13.09445 -23.46591,0 -5.46592,0 -6.83172,7.06188 -6.83172,7.06187 -34.90541,0 -22.90541,0 0,15.84981 c 0,7.09803 0.29808,12.03404 0.74335,12.30923 1.1412,0.7053 0.8824,3.84321 -0.42477,5.15039 -1.47845,1.47844 -5.05409,1.51266 -6.25978,0.0599 -0.60266,-0.72617 -0.7277,-1.94344 -0.36267,-3.53094 0.30639,-1.33249 0.73829,-7.69025 0.86422,-14.13055 l 0.30714,-15.70785 -11.55749,0 -11.5575,0 0,6.24035 0,6.24036 -8.18348,8.06923 -8.18349,8.06923 -51.09908,0.37168 c -28.1045,0.20442 -51.684473,0.10902 -52.399953,-0.21199 -1.523226,-0.68344 -1.798184,-4.9402 -0.408845,-6.32954 1.155919,-1.15591 4.501811,-1.14769 5.663441,0.014 0.71238,0.71238 0.80285,0.39039 0.42339,-1.50689 -0.89283,-4.46419 3.80391,-7.14029 6.77321,-3.85924 1.3158,1.45394 2.28951,1.48671 44.177607,1.48671 l 42.83215,0 5.37072,-5.40681 c 5.22933,-5.26447 5.37072,-5.50471 5.37072,-9.12604 0,-3.60566 -0.15379,-3.87184 -5.03631,-8.71694 l -5.0363,-4.99771 -9.52956,0 -37.52957,0 -9.41583,-9.41583 -9.41582,-9.41583 0,-9.73589 0,-9.73589 9.85941,-9.83913 9.85942,-9.83912 391.12448,0 c 392.9816,0 461.22921,-0.12618 462.04992,-1.11504 1.4557,-1.75412 4.9857,-1.39504 6.3211,0.64302 0.8756,1.33637 0.9732,2.22787 0.4072,3.71678 -0.7345,1.93188 -0.7,1.95872 2.52174,1.95872 1.7966,0 -19.74464,-0.56756 -18.53594,-1.26126 2.0693,-1.18761 2.3116,-1.18661 4.1487,0.0171 1.9752,1.29419 2.7726,5.10876 1.263,6.04173 -0.3783,0.23387 -197.83475,0.4187 -446.12529,0.41074 l -399.43733,-0.0145 -6.15305,6.12108 -6.15304,6.12108 0,6.72302 0,6.72302 6.1482,6.11627 6.14821,6.11627 37.18671,0 9.18672,0 6.92533,7.06187 6.92533,7.06187 12.48869,0 12.4887,0 0.19724,-21.37145 0.19724,-21.37146 25.26051,-0.19267 37.26051,-0.19266 8.26999,8.36222 8.26998,8.36221 0,6.14003 0,6.14004 4.08846,0 22.08845,0 0,-6.14004 0,-6.14003 8.26323,-8.35539 8.26324,-8.35539 22.13173,0 22.13173,0 8.2595,8.2595 8.2595,8.2595 0,6.23592 0,6.23593 11.522,0 11.52201,0 0,-6.20289 0,-6.20288 8.29254,-8.29254 8.29253,-8.29254 22.04858,0 22.04857,0 8.31335,8.23902 8.31335,8.23902 0,6.2564 0,6.25641 18.58388,0 6.58388,0 0,-13.6034 c 0,-9.58928 0.26322,-13.86662 0.89202,-14.49542 0.66378,-0.66378 8.42741,-0.89203 30.34112,-0.89203 l 29.44908,0 8.31336,8.23902 8.31334,8.23902 0,6.2564 0,6.25641 11.52201,0 11.522,0 0,-6.23593 0,-6.23592 8.2595,-8.2595 8.2595,-8.2595 22.0449,0 22.0449,0 7.97838,8.00321 7.97839,8.0032 0,6.49222 0,6.49222 11.55669,0 11.55667,0 -0.34939,-12.4512 c -0.19216,-6.84816 -0.40634,-13.26905 -0.47596,-14.26865 -0.13692,-1.96585 1.70921,-3.75771 3.8715,-3.75771 2.21409,0 4.55164,2.84719 3.87076,4.71469 -0.3216,0.88211 -0.70265,7.03961 -0.84676,13.68335 l -0.26201,12.07952 11.55668,0 11.55668,0 0,-6.23593 0,-6.23592 8.2595,-8.2595 8.2595,-8.2595 28.98303,0 14.98301,0 7.97843,8.00321 7.97836,8.0032 0,6.49222 0,6.49222 11.522,0 11.522,0 0,-6.14004 0,-6.14003 8.26321,-8.35539 8.26329,-8.35539 22.13168,0 22.13177,0 8.25949,8.2595 8.25949,8.2595 0,6.23592 0,6.23593 4.0446,0 c 2.22449,0 4.25132,-0.33451 4.50398,-0.74336 0.64152,-1.03799 5.09035,-0.93079 6.16985,0.14867 1.33299,1.33302 1.07638,4.65755 -0.46735,6.05464 -1.51005,1.36653 -4.24931,1.63547 -4.95914,0.48689 -0.25267,-0.40885 -2.44675,-0.74336 -4.87567,-0.74336 l -4.41627,0 0,13.27351 0,13.27352 -8.30134,8.28378 -8.30127,8.28379 -22.02762,0 -22.02754,0 -8.32558,-8.32558 -8.32558,-8.32558 0,-13.23172 0,-13.23172 -11.522,0 -11.522,0 0,22.91168 c 0,11.80595 0.27927,19.08431 0.74335,19.37111 1.03349,0.63874 0.93194,4.34588 -0.14867,5.42649 -1.26296,1.26298 -4.73435,1.10628 -6.11677,-0.2761 -1.30719,-1.30718 -1.56595,-4.44509 -0.42476,-5.15039 0.47374,-0.29278 0.74336,-12.35822 0.74336,-29.75026 l 0,-29.29084 -6.14822,-6.11627 -6.14821,-6.11627 -13.38035,0 -27.38036,0 -6.48886,6.51907 -6.48886,6.51906 0,28.88805 c 0,17.12351 0.26996,29.05488 0.74336,29.34746 1.03351,0.63874 0.93194,4.34588 -0.14867,5.42649 -1.26298,1.26298 -4.73436,1.10628 -6.11675,-0.2761 -1.30718,-1.30718 -1.56597,-4.44509 -0.42478,-5.15039 0.46406,-0.2868 0.74336,-7.56516 0.74336,-19.37111 l 0,-22.91168 -11.522,0 -11.52201,0 0,22.5489 c 0,12.31891 0.28509,19.1746 0.8488,20.41181 2.05913,4.51928 -4.52275,7.92265 -7.25563,3.75176 -1.00046,-1.5269 -1.07496,-2.24581 -0.38881,-3.75176 0.56372,-1.23721 0.8488,-8.0929 0.8488,-20.41181 l 0,-22.5489 -11.522,0 -11.52201,0 0,13.24395 0,13.24394 -8.23902,8.31336 -8.23902,8.31335 -21.80474,0 -21.80475,0 -8.23902,-8.31335 -8.23902,-8.31336 0,-13.24394 0,-13.24395 -11.522,0 -11.52201,0 0,13.23172 0,13.23172 -8.32557,8.32558 -8.32558,8.32558 -29.43686,0 c -21.9042,0 -29.66512,-0.22826 -30.32889,-0.89203 -0.65101,-0.65101 -0.89202,-6.47545 -0.89202,-21.5573 l 0,-20.66527 -7.96134,0 -19.96134,0 -6.83172,7.06188 -6.83172,7.06187 -5.56904,0 c -3.8678,0 -6.1271,0.36566 -7.39586,1.19698 -3.39004,2.22123 -7.809,-0.58003 -6.65426,-4.21828 0.74094,-2.33452 3.67472,-3.9345 5.46125,-2.97837 0.81822,0.4379 3.94226,0.79618 6.94229,0.79618 l 5.45461,0 6.11627,-6.1482 6.11626,-6.14821 0,-6.69108 0,-6.69108 -6.14821,-6.11627 -6.1482,-6.11627 -20.44315,0 -20.44315,0 -6.11627,6.14821 -6.11626,6.14821 0,21.18753 0,21.18753 5.77744,5.74356 5.77745,5.74357 30.27527,0 c 30.27528,0 30.27528,0 28.78857,-1.48671 -1.43445,-1.43445 -2.47785,-1.48671 -29.68103,-1.48671 l -28.19432,0 -5.62834,-5.73888 -5.62833,-5.73888 0,-19.3668 0,-19.36679 5.77744,-5.74356 5.77745,-5.74356 19.32822,0 19.32823,0 5.74356,5.77744 5.74357,5.77745 0,5.27302 0,5.27302 -7.07764,6.79005 c -7.417,7.11562 -9.40656,8.03417 -11.7627,5.43066 -1.61398,-1.78342 -1.56141,-4.05733 0.12915,-5.58726 1.83391,-1.65967 4.32764,-1.55066 5.87524,0.2568 1.25116,1.46125 2.71511,2.4552 5.93957,-3.13778 l 4.66631,-4.62484 0,-4.50308 0,-4.50307 -4.66597,-4.6245 -4.66597,-4.62449 -19.3305,0 -19.3305,0 -4.25102,4.29584 -4.25102,4.29585 0,19.32894 0,19.32895 4.29585,4.25102 4.29584,4.25103 28.14398,0 c 23.22524,0 28.28823,-0.18176 28.9693,-1.03997 1.6481,-2.07679 4.03319,-2.13824 6.01641,-0.15502 2.34773,2.34773 2.98637,3.92806 -0.0689,5.43231 l -1.93968,1.93968 5.05651,-0.47218 c 4.10242,-0.38309 5.30999,-0.2428 6.39982,0.74348 1.65397,1.49682 1.7362,4.20292 0.17517,5.76396 -1.06195,1.06193 -9.19101,1.16813 30.58033,1.16813 l 43.74849,0 4.41359,-4.46013 4.41358,-4.46013 16.23048,0 16.23047,0 4.1293,4.46013 4.12929,4.46013 25.80778,0 25.80778,0 1.79918,-1.91515 c 1.1532,-1.22754 1.7116,-2.58348 1.55524,-3.77663 -0.29793,-2.27351 1.75611,-4.71519 3.96661,-4.71519 2.10086,0 4.08845,2.21481 4.08845,4.55583 0,2.46413 -1.30718,3.62107 -4.0913,3.62107 -1.66097,0 -3.01362,0.72878 -4.82896,2.60174 l -2.52171,2.60175 -25.70904,0 -25.70904,0 -4.41359,-4.46013 -4.41358,-4.46013 -16.0781,0 -16.07808,0 -4.25425,4.46013 -4.25424,4.46013 -70.28356,0 -82.28355,0 -10.58319,-10.60211 z m -205.8063,7.10507 c -0.23934,-0.38727 -0.75202,-0.50829 -1.13928,-0.26895 -0.38727,0.23934 -0.5083,0.75202 -0.26895,1.13928 0.23934,0.38727 0.75201,0.50829 1.13928,0.26895 0.38727,-0.23934 0.50829,-0.75202 0.26895,-1.13928 z m 292.1917,-4 c -0.23934,-0.38727 -0.75202,-0.50829 -1.13928,-0.26895 -0.38727,0.23934 -0.50829,0.75202 -0.26895,1.13928 0.23934,0.38727 0.75202,0.50829 1.13928,0.26895 0.38727,-0.23934 0.5083,-0.75202 0.26895,-1.13928 z m 216.62093,4.80684 c 0,-0.40884 -0.33451,-0.74335 -0.74336,-0.74335 -0.40884,0 -0.74335,0.33451 -0.74335,0.74335 0,0.40885 0.33451,0.74336 0.74335,0.74336 0.40885,0 0.74336,-0.33451 0.74336,-0.74336 z m 28.57993,-0.80684 c -0.23934,-0.38727 -0.75202,-0.50829 -1.13929,-0.26895 -0.38726,0.23934 -0.50829,0.75202 -0.26894,1.13928 0.23934,0.38727 0.75201,0.50829 1.13928,0.26895 0.38727,-0.23934 0.50829,-0.75202 0.26895,-1.13928 z m 71.23833,0 c -0.23936,-0.38727 -0.75198,-0.50829 -1.13927,-0.26895 -0.38729,0.23934 -0.5083,0.75202 -0.26894,1.13928 0.23936,0.38727 0.75197,0.50829 1.13926,0.26895 0.38729,-0.23934 0.50831,-0.75202 0.26895,-1.13928 z M 87.515543,572.29193 c -0.95408,-0.95409 -1.92161,-0.21669 -1.21526,0.92621 0.27361,0.44271 0.83802,0.59446 1.25424,0.33723 0.50771,-0.31379 0.49489,-0.72958 -0.039,-1.26344 z m 335.561577,0.15669 c -0.23934,-0.38726 -0.75202,-0.50829 -1.13928,-0.26894 -0.38727,0.23933 -0.50829,0.75201 -0.26895,1.13928 0.23934,0.38726 0.75202,0.50829 1.13928,0.26894 0.38727,-0.23934 0.5083,-0.75201 0.26895,-1.13928 z m 285.34203,-1.48671 c -0.23934,-0.38726 -0.75202,-0.50829 -1.13928,-0.26894 -0.38727,0.23933 -0.50829,0.75201 -0.26895,1.13928 0.23934,0.38726 0.75202,0.50829 1.13928,0.26894 0.38727,-0.23934 0.50829,-0.75201 0.26895,-1.13928 z m -515.9983,-6.42343 5.77744,-5.74356 0,-7.06287 0,-7.06286 -5.74356,-5.77745 -5.74356,-5.77745 -9.23122,0 -37.23123,0 -8.04574,-7.99106 -8.04573,-7.99107 -0.27867,-7.80569 -0.27866,-7.80569 8.34463,-8.36228 8.34463,-8.36229 390.53774,0 c 393.06149,0 460.48994,-0.12466 460.10984,-1.11503 -0.37963,-0.98941 -68.35071,-1.11503 -461.56216,-1.11503 l -391.13431,0 -8.37437,8.35062 -8.37437,8.35062 0,9.6636 0,9.6636 7.97838,8.00321 7.97839,8.0032 37.48343,0 9.48342,0 6.1482,6.11627 6.14821,6.11627 0,4.49451 0,4.4945 -6.38506,6.48639 -6.38506,6.4864 -43.41973,0 c -28.45092,0 -43.419727,0.25627 -43.419727,0.74335 0,0.48735 15.419137,0.74336 44.770697,0.74336 l 44.7707,0 z m 408.79213,0 5.77744,-5.74356 0,-21.18753 0,-21.18753 -6.11626,-6.14821 -6.11627,-6.14821 -26.59136,0 -26.59135,0 0,33.07931 0,33.0793 26.93018,0 26.93017,0 z m -51.77948,0.85866 c -1.48136,-1.48136 -1.51165,-5.05493 -0.0531,-6.26542 0.94299,-0.78262 1.11503,-4.16598 1.11503,-21.92897 0,-17.763 -0.17204,-21.14636 -1.11503,-21.92898 -1.41963,-1.17818 -1.44875,-5.48784 -0.045,-6.65289 1.76856,-1.46778 5.07682,-0.63219 6.32235,1.59688 1.03902,1.8595 1.00006,2.16917 -0.53407,4.24419 -1.61783,2.18826 -1.65485,2.70207 -1.65485,22.96716 0,19.78478 0.0677,20.79011 1.48671,22.07429 0.81769,0.74 1.48671,1.96263 1.48671,2.71695 0,1.79459 -2.5868,4.34492 -4.40703,4.34492 -0.7885,0 -1.95928,-0.52565 -2.60175,-1.16813 z m 3.292,-3.292 c 0,-0.40884 -0.33451,-0.74335 -0.74335,-0.74335 -0.40885,0 -0.74336,0.33451 -0.74336,0.74335 0,0.40885 0.33451,0.74336 0.74336,0.74336 0.40884,0 0.74335,-0.33451 0.74335,-0.74336 z m 0,-50.22034 c 0,-0.63739 -0.33996,-0.94879 -0.75548,-0.69199 -0.41551,0.2568 -0.56303,0.77831 -0.3278,1.15891 0.63723,1.03106 1.08328,0.83881 1.08328,-0.46692 z m 148.46965,52.28098 6.14821,-6.11627 0,-20.81482 0,-20.81483 -6.11627,-6.14821 -6.11626,-6.14821 -20.44398,0 -20.44396,0 -6.51907,6.48886 -6.51906,6.48886 0,20.44224 0,20.44223 6.11626,6.14821 6.11627,6.14821 20.81483,0 20.81482,0 z M 652.07862,539.9318 c -0.67664,-0.74768 -1.23025,-2.03387 -1.23025,-2.85821 0,-3.52863 5.77428,-5.40574 7.60606,-2.47259 0.88226,1.41272 1.73353,1.48671 17.10347,1.48671 15.18386,0 16.2661,-0.0911 17.66171,-1.48671 2.76325,-2.76325 7.43355,-1.0475 7.43355,2.7309 0,3.52864 -5.77428,5.40574 -7.60606,2.47259 -0.8828,-1.41359 -1.73352,-1.48671 -17.29633,-1.48671 -15.56281,0 -16.41353,0.0731 -17.29634,1.48671 -1.18032,1.89 -4.7167,1.96061 -6.37581,0.12731 z m 3.56232,-3.16422 c -0.23934,-0.38727 -0.75202,-0.50829 -1.13928,-0.26895 -0.38727,0.23934 -0.50829,0.75202 -0.26895,1.13928 0.23934,0.38727 0.75202,0.50829 1.13928,0.26895 0.38727,-0.23934 0.50829,-0.75202 0.26895,-1.13928 z m 41.62788,0 c -0.23933,-0.38727 -0.75201,-0.50829 -1.13928,-0.26895 -0.38726,0.23934 -0.50829,0.75202 -0.26894,1.13928 0.23933,0.38727 0.75201,0.50829 1.13928,0.26895 0.38726,-0.23934 0.50829,-0.75202 0.26894,-1.13928 z m 232.75594,27.3982 6.14821,-6.11627 0,-20.44397 0,-20.44397 -6.48889,-6.51906 -6.48882,-6.51907 -20.44227,0 -20.44219,0 -6.14821,6.11627 -6.14822,6.11627 0,21.18559 0,21.18558 5.74354,5.77745 5.7436,5.77745 21.18756,0 21.18747,0 z m -49.92202,-24.04271 c -2.50339,-2.50338 -0.46437,-7.00878 3.17197,-7.00878 0.89173,0 2.19416,0.66902 2.89426,1.48671 1.20148,1.40323 2.19289,1.48671 17.65446,1.48671 15.57641,0 16.4271,-0.0731 17.30991,-1.48671 1.39134,-2.22788 5.02047,-1.97699 6.61556,0.45734 1.14076,1.74105 1.15949,2.14855 0.17975,3.90261 -1.45244,2.60032 -5.37654,3.11528 -6.76743,0.88809 -0.91857,-1.47086 -1.60253,-1.53126 -17.33779,-1.53126 -15.46157,0 -16.45298,0.0835 -17.65446,1.48671 -1.52425,1.78022 -4.45084,1.93392 -6.06623,0.31858 z m 3.62445,-3.35549 c -0.23936,-0.38727 -0.75198,-0.50829 -1.13926,-0.26895 -0.38729,0.23934 -0.50831,0.75202 -0.26895,1.13928 0.23936,0.38727 0.75198,0.50829 1.13927,0.26895 0.38729,-0.23934 0.5083,-0.75202 0.26894,-1.13928 z m 41.29546,0.39129 c 0,-0.63739 -0.33451,-0.95216 -0.74336,-0.69948 -0.40884,0.25268 -0.74335,0.77419 -0.74335,1.15891 0,0.38471 0.33451,0.69948 0.74335,0.69948 0.40885,0 0.74336,-0.52151 0.74336,-1.15891 z M 94.461023,566.50178 c -0.23935,-0.38726 -0.75202,-0.50829 -1.13929,-0.26894 -0.38726,0.23933 -0.50829,0.75201 -0.26895,1.13928 0.23935,0.38726 0.75203,0.50829 1.13929,0.26894 0.38726,-0.23934 0.50829,-0.75201 0.26895,-1.13928 z m 318.620047,-0.67986 c 0,-0.40885 -0.50177,-0.74336 -1.11503,-0.74336 -0.61327,0 -1.11504,0.33451 -1.11504,0.74336 0,0.40884 0.50177,0.74335 1.11504,0.74335 0.61326,0 1.11503,-0.33451 1.11503,-0.74335 z m 100.35293,0 c 0,-0.40885 -0.33451,-0.74336 -0.74335,-0.74336 -0.40885,0 -0.74336,0.33451 -0.74336,0.74336 0,0.40884 0.33451,0.74335 0.74336,0.74335 0.40884,0 0.74335,-0.33451 0.74335,-0.74335 z M 379.63009,545.00797 c 0,-0.40884 -0.33451,-0.74335 -0.74336,-0.74335 -0.40884,0 -0.74335,0.33451 -0.74335,0.74335 0,0.40885 0.33451,0.74336 0.74335,0.74336 0.40885,0 0.74336,-0.33451 0.74336,-0.74336 z m 99.60958,0 c 0,-0.40884 -0.33451,-0.74335 -0.74336,-0.74335 -0.40884,0 -0.74335,0.33451 -0.74335,0.74335 0,0.40885 0.33451,0.74336 0.74335,0.74336 0.40885,0 0.74336,-0.33451 0.74336,-0.74336 z m -184.7129,-9.08968 6.1482,-6.11627 0,-6.69108 0,-6.69108 -6.11626,-6.14821 -6.11627,-6.14821 -34.02491,0 -22.0249,0 0,18.95556 0,18.95555 21.99296,0 33.99297,0 z m -55.23587,-8.76578 c -3.2581,-1.311 -2.82933,-6.7224 0.61937,-7.81698 1.04284,-0.33098 2.28471,0.0276 3.68747,1.06469 2.04953,1.51529 -9.12287,1.56375 14.70599,1.56375 24.07076,0 24.6371,-0.0341 26.77375,-1.61384 1.8544,-1.37102 2.46817,-1.48383 4.07922,-0.74979 1.04301,0.47523 2.09032,1.36946 2.32736,1.98718 0.75114,1.95743 -0.4469,4.85669 -2.36873,5.73234 -1.56017,0.71086 -2.20196,0.58869 -4.03785,-0.76864 -2.13682,-1.57982 -2.70198,-1.61383 -26.81224,-1.61383 -23.50382,0 -12.71578,0.0679 -14.51945,1.48671 -2.10398,1.65498 -2.13825,1.66059 -4.45489,0.72841 z m 2.76534,-3.70183 c 0,-0.40885 -0.33451,-0.74336 -0.74335,-0.74336 -0.40885,0 -0.74336,0.33451 -0.74336,0.74336 0,0.40884 0.33451,0.74335 0.74336,0.74335 0.40884,0 0.74335,-0.33451 0.74335,-0.74335 z m 46.35338,0 c 0.25268,-0.40885 -0.0621,-0.74336 -0.69949,-0.74336 -0.63739,0 -1.1589,0.33451 -1.1589,0.74336 0,0.40884 0.31476,0.74335 0.69948,0.74335 0.38472,0 0.90622,-0.33451 1.15891,-0.74335 z m 139.53855,14.8671 c 0,-0.40885 -0.33451,-0.74336 -0.74336,-0.74336 -0.40884,0 -0.74335,0.33451 -0.74335,0.74336 0,0.40884 0.33451,0.74335 0.74335,0.74335 0.40885,0 0.74336,-0.33451 0.74336,-0.74335 z m -40.55209,-1.5502 c -0.23934,-0.38727 -0.75202,-0.50829 -1.13928,-0.26895 -0.38727,0.23934 -0.5083,0.75202 -0.26895,1.13928 0.23934,0.38727 0.75201,0.50829 1.13928,0.26895 0.38727,-0.23934 0.50829,-0.75202 0.26895,-1.13928 z m 99.60958,0 c -0.23934,-0.38727 -0.75202,-0.50829 -1.13928,-0.26895 -0.38727,0.23934 -0.5083,0.75202 -0.26895,1.13928 0.23934,0.38727 0.75201,0.50829 1.13928,0.26895 0.38727,-0.23934 0.50829,-0.75202 0.26895,-1.13928 z m 466.59691,-6.6902 c -0.23936,-0.38726 -0.75198,-0.50829 -1.13927,-0.26894 -0.38728,0.23933 -0.5083,0.75201 -0.26894,1.13928 0.23936,0.38726 0.75198,0.50829 1.13926,0.26894 0.38729,-0.23933 0.50831,-0.75201 0.26895,-1.13928 z m -214.29494,-28.184 c 0,-0.40885 -0.33451,-0.74336 -0.74336,-0.74336 -0.40884,0 -0.74335,0.33451 -0.74335,0.74336 0,0.40885 0.33451,0.74335 0.74335,0.74335 0.40885,0 0.74336,-0.3345 0.74336,-0.74335 z m 245.53323,-15.67395 c -0.2393,-0.38726 -0.7519,-0.50829 -1.1392,-0.26895 -0.3873,0.23935 -0.5083,0.75202 -0.269,1.13929 0.2394,0.38726 0.752,0.50829 1.1393,0.26895 0.3873,-0.23935 0.5083,-0.75202 0.2689,-1.13929 z m 10.2872,-5.13999 c 0,-0.40885 -0.3345,-0.74336 -0.7433,-0.74336 -0.4089,0 -0.7434,0.33451 -0.7434,0.74336 0,0.40884 0.3345,0.74335 0.7434,0.74335 0.4088,0 0.7433,-0.33451 0.7433,-0.74335 z m -120.17684,97.48911 c -1.48374,-1.54863 -2.53061,-2.02508 -3.88195,-1.76675 -3.72659,0.71239 -6.2899,-4.15195 -3.60356,-6.83833 1.38241,-1.38239 4.85381,-1.53908 6.11677,-0.27611 0.49061,0.49062 0.89202,1.94407 0.89202,3.22989 0,4.80494 -0.0387,4.79835 27.94703,4.79835 l 25.22821,0 7.95754,-7.99107 7.95762,-7.99107 0.20665,-8.92026 0.20665,-8.92026 2.97342,-0.37168 c 1.63538,-0.20442 3.8482,-0.96596 4.9173,-1.6923 2.4692,-1.67749 5.6075,-0.69309 6.27548,1.96845 1.06545,4.2451 -3.52187,7.20031 -6.63586,4.2749 -0.92362,-0.86769 -2.4104,-1.57763 -3.30399,-1.57763 -1.56573,0 -1.6246,0.2782 -1.6246,7.68134 l 0,7.68134 -9.41586,9.41582 -9.41578,9.41584 -25.38283,0 -25.38275,0 z m -3.86106,-6.11993 c -0.23936,-0.38726 -0.75198,-0.50829 -1.13927,-0.26894 -0.38729,0.23933 -0.50831,0.75201 -0.26895,1.13928 0.23937,0.38726 0.75198,0.50829 1.13927,0.26894 0.38729,-0.23934 0.50831,-0.75201 0.26895,-1.13928 z m 83.66669,-27.44065 c 0,-0.40884 -0.33451,-0.74335 -0.74335,-0.74335 -0.40885,0 -0.74336,0.33451 -0.74336,0.74335 0,0.40885 0.33451,0.74336 0.74336,0.74336 0.40884,0 0.74335,-0.33451 0.74335,-0.74336 z m -182.31682,31.07937 c -1.01831,-1.01831 -1.16814,-6.57184 -1.16814,-29.70639 l 0,-28.53826 6.14821,-6.11627 6.14821,-6.11626 26.34557,0 12.34558,0 6.00527,6.00529 6.00527,6.00529 0.10079,28.72873 c 0.0702,20.01095 -0.12629,29.00234 -0.80274,29.81736 -1.50381,1.81197 -4.97647,1.34935 -6.42111,-0.85541 -1.14134,-1.74198 -1.15985,-2.14762 -0.1781,-3.90261 0.60263,-1.07721 1.83712,-2.06547 2.74335,-2.19611 l 1.64772,-0.23754 0,-27.5713 0,-23.57129 -4.66597,-4.6245 -4.66596,-4.62449 -12.26684,0 -26.26684,0 -4.62449,4.66596 -4.62449,4.66597 0,23.58153 c 0,22.42564 0.0672,27.58152 1.37149,27.58152 1.78003,0 3.83199,2.29173 3.83199,4.27973 0,2.07031 -1.91653,3.89718 -4.08845,3.89718 -0.96371,0 -2.27786,-0.52566 -2.92032,-1.16813 z m 3.62443,-3.35549 c -0.23934,-0.38727 -0.75201,-0.50829 -1.13928,-0.26895 -0.38727,0.23934 -0.50829,0.75202 -0.26895,1.13928 0.23934,0.38727 0.75202,0.50829 1.13929,0.26895 0.38726,-0.23934 0.50829,-0.75202 0.26894,-1.13928 z m 55.29545,0.43516 c 0,-0.61326 -0.33451,-1.11503 -0.74336,-1.11503 -0.40884,0 -0.74335,0.50177 -0.74335,1.11503 0,0.61327 0.33451,1.11504 0.74335,1.11504 0.40885,0 0.74336,-0.50177 0.74336,-1.11504 z"
       id="path3027"
       inkscape:connector-curvature="0"
       sodipodi:nodetypes="sssscsssssscsssssssscccscsscccccssssssscccccccssssssssssssssssccsssssscccscscccccccccssssscccccccccccccccccsscccccccccccccssssssscccccccccssssssssscscccccccccsssssscccccccscscssscssscccccccccscccssscscccccccccccccccccccccccccccccccccccccccccccccccssscccccccccccccccccccssscscccccccccccccccccccccccccscccsscccccccccccccscsscscccccccsssssscccssssscccccccccccccccccccssscccccssssscccccccccccccccssscccccccccccccssssscccccccccccccsssscsssscccccccccsssssscccccccccccccsscsscssscssssssscssssssscscccscscsscscsccccccccccccccscscccccccccccccccsssccccccccccccccccssscssssssccssssssscscccccccccccccccccssssssssssssssscscsccccccccccccccccccsscsscssssssssssssssscccccsssssssssssssssssssscccccccccccccsssscssssscsssssscssscssssssscsssscssscscsssssscccccssssscscssscccccscssssccccccscccsssssssscccccccscccscccccccccssssscssscsssss" />
  </g>
</svg>
