<?xml version="1.0" encoding="UTF-8" standalone="no"?>
<!-- Created with Inkscape (http://www.inkscape.org/) -->

<svg
   xmlns:dc="http://purl.org/dc/elements/1.1/"
   xmlns:cc="http://creativecommons.org/ns#"
   xmlns:rdf="http://www.w3.org/1999/02/22-rdf-syntax-ns#"
   xmlns:svg="http://www.w3.org/2000/svg"
   xmlns="http://www.w3.org/2000/svg"
   xmlns:sodipodi="http://sodipodi.sourceforge.net/DTD/sodipodi-0.dtd"
   xmlns:inkscape="http://www.inkscape.org/namespaces/inkscape"
   width="1000"
   height="110"
   id="svg3013"
   version="1.1"
   inkscape:version="0.48.3.1 r9886"
   sodipodi:docname="Speedo_Logo.svg"
   inkscape:export-filename="/home/jkw/Store/17 - Speedmaster/pub/animation/Speedo_header.png"
   inkscape:export-xdpi="90"
   inkscape:export-ydpi="90">
  <defs
     id="defs3015" />
  <sodipodi:namedview
     id="base"
     pagecolor="#ffffff"
     bordercolor="#666666"
     borderopacity="1.0"
     inkscape:pageopacity="0.0"
     inkscape:pageshadow="2"
     inkscape:zoom="1"
     inkscape:cx="504.79252"
     inkscape:cy="-51.817152"
     inkscape:document-units="px"
     inkscape:current-layer="layer1"
     showgrid="false"
     inkscape:window-width="1680"
     inkscape:window-height="1026"
     inkscape:window-x="0"
     inkscape:window-y="24"
     inkscape:window-maximized="1" />
  <metadata
     id="metadata3018">
    <rdf:RDF>
      <cc:Work
         rdf:about="">
        <dc:format>image/svg+xml</dc:format>
        <dc:type
           rdf:resource="http://purl.org/dc/dcmitype/StillImage" />
        <dc:title></dc:title>
      </cc:Work>
    </rdf:RDF>
  </metadata>
  <g
     inkscape:label="Ebene 1"
     inkscape:groupmode="layer"
     id="layer1"
     transform="translate(0,-942.36217)">
    <path
       sodipodi:type="arc"
       style="fill:none;stroke:#ff0000;stroke-width:2;stroke-miterlimit:4;stroke-opacity:1;stroke-dasharray:none"
       id="path3085"
       sodipodi:cx="48.75"
       sodipodi:cy="61.25"
       sodipodi:rx="2.34375"
       sodipodi:ry="2.265625"
       d="m 51.09375,61.25 a 2.34375,2.265625 0 1 1 -4.6875,0 2.34375,2.265625 0 1 1 4.6875,0 z"
       transform="translate(6.7071067,972.73717)"
       inkscape:export-xdpi="90"
       inkscape:export-ydpi="90"
       inkscape:export-filename="/home/jkw/Arbeitsfläche/Speedo_header.png" />
    <path
       style="fill:none;stroke:#ff0000;stroke-width:2;stroke-linecap:butt;stroke-linejoin:miter;stroke-miterlimit:4;stroke-opacity:1;stroke-dasharray:none"
       d="m 56.957893,1034.202 86.696027,0.5695 11.55354,-10.8619 -0.11371,-9.4036 -10.48049,-10.4544 -44.825832,-0.3144 -18.158155,-17.15493 -0.143993,-18.71329 18.60022,-18.8498 852.40633,-0.50624"
       id="path3855"
       inkscape:connector-curvature="0"
       sodipodi:nodetypes="cccccccccc"
       inkscape:export-filename="/home/jkw/Arbeitsfläche/Speedo_header.png"
       inkscape:export-xdpi="90"
       inkscape:export-ydpi="90" />
    <path
       sodipodi:type="arc"
       style="fill:none;stroke:#ff0000;stroke-width:2;stroke-miterlimit:4;stroke-opacity:1;stroke-dasharray:none"
       id="path3085-7"
       sodipodi:cx="48.75"
       sodipodi:cy="61.25"
       sodipodi:rx="2.34375"
       sodipodi:ry="2.265625"
       d="m 51.09375,61.25 a 2.34375,2.265625 0 1 1 -4.6875,0 2.34375,2.265625 0 1 1 4.6875,0 z"
       transform="translate(906.07649,887.31143)"
       inkscape:export-filename="/home/jkw/Arbeitsfläche/Speedo_header.png"
       inkscape:export-xdpi="90"
       inkscape:export-ydpi="90" />
    <path
       sodipodi:type="arc"
       style="fill:none;stroke:#ff0000;stroke-width:2;stroke-miterlimit:4;stroke-opacity:1;stroke-dasharray:none"
       id="path3085-7-1"
       sodipodi:cx="48.75"
       sodipodi:cy="61.25"
       sodipodi:rx="2.34375"
       sodipodi:ry="2.265625"
       d="m 51.09375,61.25 a 2.34375,2.265625 0 1 1 -4.6875,0 2.34375,2.265625 0 1 1 4.6875,0 z"
       transform="translate(895.84998,894.17788)"
       inkscape:export-filename="/home/jkw/Arbeitsfläche/Speedo_header.png"
       inkscape:export-xdpi="90"
       inkscape:export-ydpi="90" />
    <path
       sodipodi:type="arc"
       style="fill:none;stroke:#ff0000;stroke-width:2;stroke-miterlimit:4;stroke-opacity:1;stroke-dasharray:none"
       id="path3085-7-1-4"
       sodipodi:cx="48.75"
       sodipodi:cy="61.25"
       sodipodi:rx="2.34375"
       sodipodi:ry="2.265625"
       d="m 51.09375,61.25 a 2.34375,2.265625 0 1 1 -4.6875,0 2.34375,2.265625 0 1 1 4.6875,0 z"
       transform="translate(865.36229,937.0185)"
       inkscape:export-filename="/home/jkw/Arbeitsfläche/Speedo_header.png"
       inkscape:export-xdpi="90"
       inkscape:export-ydpi="90" />
    <path
       sodipodi:type="arc"
       style="fill:none;stroke:#ff0000;stroke-width:2;stroke-miterlimit:4;stroke-opacity:1;stroke-dasharray:none"
       id="path3085-7-1-7"
       sodipodi:cx="48.75"
       sodipodi:cy="61.25"
       sodipodi:rx="2.34375"
       sodipodi:ry="2.265625"
       d="m 51.09375,61.25 a 2.34375,2.265625 0 1 1 -4.6875,0 2.34375,2.265625 0 1 1 4.6875,0 z"
       transform="translate(866.24617,951.69097)"
       inkscape:export-filename="/home/jkw/Arbeitsfläche/Speedo_header.png"
       inkscape:export-xdpi="90"
       inkscape:export-ydpi="90" />
    <path
       sodipodi:type="arc"
       style="fill:none;stroke:#ff0000;stroke-width:2;stroke-miterlimit:4;stroke-opacity:1;stroke-dasharray:none"
       id="path3085-7-1-7-5"
       sodipodi:cx="48.75"
       sodipodi:cy="61.25"
       sodipodi:rx="2.34375"
       sodipodi:ry="2.265625"
       d="m 51.09375,61.25 a 2.34375,2.265625 0 1 1 -4.6875,0 2.34375,2.265625 0 1 1 4.6875,0 z"
       transform="translate(836.54769,943.9128)"
       inkscape:export-filename="/home/jkw/Arbeitsfläche/Speedo_header.png"
       inkscape:export-xdpi="90"
       inkscape:export-ydpi="90" />
    <path
       sodipodi:type="arc"
       style="fill:none;stroke:#ff0000;stroke-width:2;stroke-miterlimit:4;stroke-opacity:1;stroke-dasharray:none"
       id="path3085-7-1-7-7"
       sodipodi:cx="48.75"
       sodipodi:cy="61.25"
       sodipodi:rx="2.34375"
       sodipodi:ry="2.265625"
       d="m 51.09375,61.25 a 2.34375,2.265625 0 1 1 -4.6875,0 2.34375,2.265625 0 1 1 4.6875,0 z"
       transform="translate(795.18194,943.91279)"
       inkscape:export-filename="/home/jkw/Arbeitsfläche/Speedo_header.png"
       inkscape:export-xdpi="90"
       inkscape:export-ydpi="90" />
    <path
       sodipodi:type="arc"
       style="fill:none;stroke:#ff0000;stroke-width:2;stroke-miterlimit:4;stroke-opacity:1;stroke-dasharray:none"
       id="path3085-7-1-7-1"
       sodipodi:cx="48.75"
       sodipodi:cy="61.25"
       sodipodi:rx="2.34375"
       sodipodi:ry="2.265625"
       d="m 51.09375,61.25 a 2.34375,2.265625 0 1 1 -4.6875,0 2.34375,2.265625 0 1 1 4.6875,0 z"
       transform="translate(782.63079,979.44491)"
       inkscape:export-filename="/home/jkw/Arbeitsfläche/Speedo_header.png"
       inkscape:export-xdpi="90"
       inkscape:export-ydpi="90" />
    <path
       sodipodi:type="arc"
       style="fill:none;stroke:#ff0000;stroke-width:2;stroke-miterlimit:4;stroke-opacity:1;stroke-dasharray:none"
       id="path3085-7-1-7-3"
       sodipodi:cx="48.75"
       sodipodi:cy="61.25"
       sodipodi:rx="2.34375"
       sodipodi:ry="2.265625"
       d="m 51.09375,61.25 a 2.34375,2.265625 0 1 1 -4.6875,0 2.34375,2.265625 0 1 1 4.6875,0 z"
       transform="translate(750.5,984.36217)"
       inkscape:export-filename="/home/jkw/Arbeitsfläche/Speedo_header.png"
       inkscape:export-xdpi="90"
       inkscape:export-ydpi="90" />
    <path
       sodipodi:type="arc"
       style="fill:none;stroke:#ff0000;stroke-width:2;stroke-miterlimit:4;stroke-opacity:1;stroke-dasharray:none"
       id="path3085-7-1-7-39"
       sodipodi:cx="48.75"
       sodipodi:cy="61.25"
       sodipodi:rx="2.34375"
       sodipodi:ry="2.265625"
       d="m 51.09375,61.25 a 2.34375,2.265625 0 1 1 -4.6875,0 2.34375,2.265625 0 1 1 4.6875,0 z"
       transform="translate(741.22075,979.64098)"
       inkscape:export-filename="/home/jkw/Arbeitsfläche/Speedo_header.png"
       inkscape:export-xdpi="90"
       inkscape:export-ydpi="90" />
    <path
       sodipodi:type="arc"
       style="fill:none;stroke:#ff0000;stroke-width:2;stroke-miterlimit:4;stroke-opacity:1;stroke-dasharray:none"
       id="path3085-7-1-7-18"
       sodipodi:cx="48.75"
       sodipodi:cy="61.25"
       sodipodi:rx="2.34375"
       sodipodi:ry="2.265625"
       d="m 51.09375,61.25 a 2.34375,2.265625 0 1 1 -4.6875,0 2.34375,2.265625 0 1 1 4.6875,0 z"
       transform="translate(688.9375,979.86217)"
       inkscape:export-filename="/home/jkw/Arbeitsfläche/Speedo_header.png"
       inkscape:export-xdpi="90"
       inkscape:export-ydpi="90" />
    <path
       sodipodi:type="arc"
       style="fill:none;stroke:#ff0000;stroke-width:2;stroke-miterlimit:4;stroke-opacity:1;stroke-dasharray:none"
       id="path3085-7-1-7-4"
       sodipodi:cx="48.75"
       sodipodi:cy="61.25"
       sodipodi:rx="2.34375"
       sodipodi:ry="2.265625"
       d="m 51.09375,61.25 a 2.34375,2.265625 0 1 1 -4.6875,0 2.34375,2.265625 0 1 1 4.6875,0 z"
       transform="translate(679.4816,984.39465)"
       inkscape:export-filename="/home/jkw/Arbeitsfläche/Speedo_header.png"
       inkscape:export-xdpi="90"
       inkscape:export-ydpi="90" />
    <path
       sodipodi:type="arc"
       style="fill:none;stroke:#ff0000;stroke-width:2;stroke-miterlimit:4;stroke-opacity:1;stroke-dasharray:none"
       id="path3085-7-1-7-6"
       sodipodi:cx="48.75"
       sodipodi:cy="61.25"
       sodipodi:rx="2.34375"
       sodipodi:ry="2.265625"
       d="m 51.09375,61.25 a 2.34375,2.265625 0 1 1 -4.6875,0 2.34375,2.265625 0 1 1 4.6875,0 z"
       transform="translate(650.75539,908.73423)"
       inkscape:export-filename="/home/jkw/Arbeitsfläche/Speedo_header.png"
       inkscape:export-xdpi="90"
       inkscape:export-ydpi="90" />
    <path
       sodipodi:type="arc"
       style="fill:none;stroke:#ff0000;stroke-width:2;stroke-miterlimit:4;stroke-opacity:1;stroke-dasharray:none"
       id="path3085-7-1-7-49"
       sodipodi:cx="48.75"
       sodipodi:cy="61.25"
       sodipodi:rx="2.34375"
       sodipodi:ry="2.265625"
       d="m 51.09375,61.25 a 2.34375,2.265625 0 1 1 -4.6875,0 2.34375,2.265625 0 1 1 4.6875,0 z"
       transform="translate(650.93216,984.7482)"
       inkscape:export-filename="/home/jkw/Arbeitsfläche/Speedo_header.png"
       inkscape:export-xdpi="90"
       inkscape:export-ydpi="90" />
    <path
       sodipodi:type="arc"
       style="fill:none;stroke:#ff0000;stroke-width:2;stroke-miterlimit:4;stroke-opacity:1;stroke-dasharray:none"
       id="path3085-7-1-7-2"
       sodipodi:cx="48.75"
       sodipodi:cy="61.25"
       sodipodi:rx="2.34375"
       sodipodi:ry="2.265625"
       d="m 51.09375,61.25 a 2.34375,2.265625 0 1 1 -4.6875,0 2.34375,2.265625 0 1 1 4.6875,0 z"
       transform="translate(608.875,943.98717)"
       inkscape:export-filename="/home/jkw/Arbeitsfläche/Speedo_header.png"
       inkscape:export-xdpi="90"
       inkscape:export-ydpi="90" />
    <path
       sodipodi:type="arc"
       style="fill:none;stroke:#ff0000;stroke-width:2;stroke-miterlimit:4;stroke-opacity:1;stroke-dasharray:none"
       id="path3085-7-1-7-63"
       sodipodi:cx="48.75"
       sodipodi:cy="61.25"
       sodipodi:rx="2.34375"
       sodipodi:ry="2.265625"
       d="m 51.09375,61.25 a 2.34375,2.265625 0 1 1 -4.6875,0 2.34375,2.265625 0 1 1 4.6875,0 z"
       transform="translate(620,977.86217)"
       inkscape:export-filename="/home/jkw/Arbeitsfläche/Speedo_header.png"
       inkscape:export-xdpi="90"
       inkscape:export-ydpi="90" />
    <path
       sodipodi:type="arc"
       style="fill:none;stroke:#ff0000;stroke-width:2;stroke-miterlimit:4;stroke-opacity:1;stroke-dasharray:none"
       id="path3085-7-1-7-72"
       sodipodi:cx="48.75"
       sodipodi:cy="61.25"
       sodipodi:rx="2.34375"
       sodipodi:ry="2.265625"
       d="m 51.09375,61.25 a 2.34375,2.265625 0 1 1 -4.6875,0 2.34375,2.265625 0 1 1 4.6875,0 z"
       transform="translate(567.25,943.86217)"
       inkscape:export-filename="/home/jkw/Arbeitsfläche/Speedo_header.png"
       inkscape:export-xdpi="90"
       inkscape:export-ydpi="90" />
    <path
       sodipodi:type="arc"
       style="fill:none;stroke:#ff0000;stroke-width:2;stroke-miterlimit:4;stroke-opacity:1;stroke-dasharray:none"
       id="path3085-7-1-7-20"
       sodipodi:cx="48.75"
       sodipodi:cy="61.25"
       sodipodi:rx="2.34375"
       sodipodi:ry="2.265625"
       d="m 51.09375,61.25 a 2.34375,2.265625 0 1 1 -4.6875,0 2.34375,2.265625 0 1 1 4.6875,0 z"
       transform="translate(339.95162,944.77522)"
       inkscape:export-filename="/home/jkw/Arbeitsfläche/Speedo_header.png"
       inkscape:export-xdpi="90"
       inkscape:export-ydpi="90" />
    <path
       sodipodi:type="arc"
       style="fill:none;stroke:#ff0000;stroke-width:2;stroke-miterlimit:4;stroke-opacity:1;stroke-dasharray:none"
       id="path3085-7-1-7-66"
       sodipodi:cx="48.75"
       sodipodi:cy="61.25"
       sodipodi:rx="2.34375"
       sodipodi:ry="2.265625"
       d="m 51.09375,61.25 a 2.34375,2.265625 0 1 1 -4.6875,0 2.34375,2.265625 0 1 1 4.6875,0 z"
       transform="translate(390.54008,951.33741)"
       inkscape:export-filename="/home/jkw/Arbeitsfläche/Speedo_header.png"
       inkscape:export-xdpi="90"
       inkscape:export-ydpi="90" />
    <path
       sodipodi:type="arc"
       style="fill:none;stroke:#ff0000;stroke-width:2;stroke-miterlimit:4;stroke-opacity:1;stroke-dasharray:none"
       id="path3085-7-1-7-78"
       sodipodi:cx="48.75"
       sodipodi:cy="61.25"
       sodipodi:rx="2.34375"
       sodipodi:ry="2.265625"
       d="m 51.09375,61.25 a 2.34375,2.265625 0 1 1 -4.6875,0 2.34375,2.265625 0 1 1 4.6875,0 z"
       transform="translate(398.84859,943.91279)"
       inkscape:export-filename="/home/jkw/Arbeitsfläche/Speedo_header.png"
       inkscape:export-xdpi="90"
       inkscape:export-ydpi="90" />
    <path
       sodipodi:type="arc"
       style="fill:none;stroke:#ff0000;stroke-width:2;stroke-miterlimit:4;stroke-opacity:1;stroke-dasharray:none"
       id="path3085-7-1-7-19"
       sodipodi:cx="48.75"
       sodipodi:cy="61.25"
       sodipodi:rx="2.34375"
       sodipodi:ry="2.265625"
       d="m 51.09375,61.25 a 2.34375,2.265625 0 1 1 -4.6875,0 2.34375,2.265625 0 1 1 4.6875,0 z"
       transform="translate(424.74637,972.02029)"
       inkscape:export-filename="/home/jkw/Arbeitsfläche/Speedo_header.png"
       inkscape:export-xdpi="90"
       inkscape:export-ydpi="90" />
    <path
       sodipodi:type="arc"
       style="fill:none;stroke:#ff0000;stroke-width:2;stroke-miterlimit:4;stroke-opacity:1;stroke-dasharray:none"
       id="path3085-7-1-7-8"
       sodipodi:cx="48.75"
       sodipodi:cy="61.25"
       sodipodi:rx="2.34375"
       sodipodi:ry="2.265625"
       d="m 51.09375,61.25 a 2.34375,2.265625 0 1 1 -4.6875,0 2.34375,2.265625 0 1 1 4.6875,0 z"
       transform="translate(434.29232,979.71007)"
       inkscape:export-filename="/home/jkw/Arbeitsfläche/Speedo_header.png"
       inkscape:export-xdpi="90"
       inkscape:export-ydpi="90" />
    <path
       sodipodi:type="arc"
       style="fill:none;stroke:#ff0000;stroke-width:2;stroke-miterlimit:4;stroke-opacity:1;stroke-dasharray:none"
       id="path3085-7-1-7-0"
       sodipodi:cx="48.75"
       sodipodi:cy="61.25"
       sodipodi:rx="2.34375"
       sodipodi:ry="2.265625"
       d="m 51.09375,61.25 a 2.34375,2.265625 0 1 1 -4.6875,0 2.34375,2.265625 0 1 1 4.6875,0 z"
       transform="translate(340.4605,986.0892)"
       inkscape:export-filename="/home/jkw/Arbeitsfläche/Speedo_header.png"
       inkscape:export-xdpi="90"
       inkscape:export-ydpi="90" />
    <path
       sodipodi:type="arc"
       style="fill:none;stroke:#ff0000;stroke-width:2;stroke-miterlimit:4;stroke-opacity:1;stroke-dasharray:none"
       id="path3085-7-1-7-81"
       sodipodi:cx="48.75"
       sodipodi:cy="61.25"
       sodipodi:rx="2.34375"
       sodipodi:ry="2.265625"
       d="m 51.09375,61.25 a 2.34375,2.265625 0 1 1 -4.6875,0 2.34375,2.265625 0 1 1 4.6875,0 z"
       transform="translate(334.67865,979.19491)"
       inkscape:export-filename="/home/jkw/Arbeitsfläche/Speedo_header.png"
       inkscape:export-xdpi="90"
       inkscape:export-ydpi="90" />
    <path
       sodipodi:type="arc"
       style="fill:none;stroke:#ff0000;stroke-width:2;stroke-miterlimit:4;stroke-opacity:1;stroke-dasharray:none"
       id="path3085-7-1-7-45"
       sodipodi:cx="48.75"
       sodipodi:cy="61.25"
       sodipodi:rx="2.34375"
       sodipodi:ry="2.265625"
       d="m 51.09375,61.25 a 2.34375,2.265625 0 1 1 -4.6875,0 2.34375,2.265625 0 1 1 4.6875,0 z"
       transform="translate(324.24882,972.37384)"
       inkscape:export-filename="/home/jkw/Arbeitsfläche/Speedo_header.png"
       inkscape:export-xdpi="90"
       inkscape:export-ydpi="90" />
    <path
       sodipodi:type="arc"
       style="fill:none;stroke:#ff0000;stroke-width:2;stroke-miterlimit:4;stroke-opacity:1;stroke-dasharray:none"
       id="path3085-7-1-7-73"
       sodipodi:cx="48.75"
       sodipodi:cy="61.25"
       sodipodi:rx="2.34375"
       sodipodi:ry="2.265625"
       d="m 51.09375,61.25 a 2.34375,2.265625 0 1 1 -4.6875,0 2.34375,2.265625 0 1 1 4.6875,0 z"
       transform="translate(290.57286,951.10518)"
       inkscape:export-filename="/home/jkw/Arbeitsfläche/Speedo_header.png"
       inkscape:export-xdpi="90"
       inkscape:export-ydpi="90" />
    <path
       sodipodi:type="arc"
       style="fill:none;stroke:#ff0000;stroke-width:2;stroke-miterlimit:4;stroke-opacity:1;stroke-dasharray:none"
       id="path3085-7-1-7-62"
       sodipodi:cx="48.75"
       sodipodi:cy="61.25"
       sodipodi:rx="2.34375"
       sodipodi:ry="2.265625"
       d="m 51.09375,61.25 a 2.34375,2.265625 0 1 1 -4.6875,0 2.34375,2.265625 0 1 1 4.6875,0 z"
       transform="translate(298.79298,943.73601)"
       inkscape:export-filename="/home/jkw/Arbeitsfläche/Speedo_header.png"
       inkscape:export-xdpi="90"
       inkscape:export-ydpi="90" />
    <path
       sodipodi:type="arc"
       style="fill:none;stroke:#ff0000;stroke-width:2;stroke-miterlimit:4;stroke-opacity:1;stroke-dasharray:none"
       id="path3085-7-1-7-9"
       sodipodi:cx="48.75"
       sodipodi:cy="61.25"
       sodipodi:rx="2.34375"
       sodipodi:ry="2.265625"
       d="m 51.09375,61.25 a 2.34375,2.265625 0 1 1 -4.6875,0 2.34375,2.265625 0 1 1 4.6875,0 z"
       transform="translate(464.60952,918.45694)"
       inkscape:export-filename="/home/jkw/Arbeitsfläche/Speedo_header.png"
       inkscape:export-xdpi="90"
       inkscape:export-ydpi="90" />
    <path
       sodipodi:type="arc"
       style="fill:none;stroke:#ff0000;stroke-width:2;stroke-miterlimit:4;stroke-opacity:1;stroke-dasharray:none"
       id="path3085-7-1-7-637"
       sodipodi:cx="48.75"
       sodipodi:cy="61.25"
       sodipodi:rx="2.34375"
       sodipodi:ry="2.265625"
       d="m 51.09375,61.25 a 2.34375,2.265625 0 1 1 -4.6875,0 2.34375,2.265625 0 1 1 4.6875,0 z"
       transform="translate(464.43275,968.83831)"
       inkscape:export-filename="/home/jkw/Arbeitsfläche/Speedo_header.png"
       inkscape:export-xdpi="90"
       inkscape:export-ydpi="90" />
    <path
       sodipodi:type="arc"
       style="fill:none;stroke:#ff0000;stroke-width:2;stroke-miterlimit:4;stroke-opacity:1;stroke-dasharray:none"
       id="path3085-7-1-7-09"
       sodipodi:cx="48.75"
       sodipodi:cy="61.25"
       sodipodi:rx="2.34375"
       sodipodi:ry="2.265625"
       d="m 51.09375,61.25 a 2.34375,2.265625 0 1 1 -4.6875,0 2.34375,2.265625 0 1 1 4.6875,0 z"
       transform="translate(199.875,930.23717)"
       inkscape:export-filename="/home/jkw/Arbeitsfläche/Speedo_header.png"
       inkscape:export-xdpi="90"
       inkscape:export-ydpi="90" />
    <path
       sodipodi:type="arc"
       style="fill:none;stroke:#ff0000;stroke-width:2;stroke-miterlimit:4;stroke-opacity:1;stroke-dasharray:none"
       id="path3085-7-1-7-31"
       sodipodi:cx="48.75"
       sodipodi:cy="61.25"
       sodipodi:rx="2.34375"
       sodipodi:ry="2.265625"
       d="m 51.09375,61.25 a 2.34375,2.265625 0 1 1 -4.6875,0 2.34375,2.265625 0 1 1 4.6875,0 z"
       transform="translate(153.375,930.36217)"
       inkscape:export-filename="/home/jkw/Arbeitsfläche/Speedo_header.png"
       inkscape:export-xdpi="90"
       inkscape:export-ydpi="90" />
    <path
       sodipodi:type="arc"
       style="fill:none;stroke:#ff0000;stroke-width:2;stroke-miterlimit:4;stroke-opacity:1;stroke-dasharray:none"
       id="path3085-7-1-7-41"
       sodipodi:cx="48.75"
       sodipodi:cy="61.25"
       sodipodi:rx="2.34375"
       sodipodi:ry="2.265625"
       d="m 51.09375,61.25 a 2.34375,2.265625 0 1 1 -4.6875,0 2.34375,2.265625 0 1 1 4.6875,0 z"
       transform="translate(155.69224,983.33399)"
       inkscape:export-filename="/home/jkw/Arbeitsfläche/Speedo_header.png"
       inkscape:export-xdpi="90"
       inkscape:export-ydpi="90" />
    <path
       sodipodi:type="arc"
       style="fill:none;stroke:#ff0000;stroke-width:2;stroke-miterlimit:4;stroke-opacity:1;stroke-dasharray:none"
       id="path3085-7-1-7-633"
       sodipodi:cx="48.75"
       sodipodi:cy="61.25"
       sodipodi:rx="2.34375"
       sodipodi:ry="2.265625"
       d="m 51.09375,61.25 a 2.34375,2.265625 0 1 1 -4.6875,0 2.34375,2.265625 0 1 1 4.6875,0 z"
       transform="translate(141.99205,984.48304)"
       inkscape:export-filename="/home/jkw/Arbeitsfläche/Speedo_header.png"
       inkscape:export-xdpi="90"
       inkscape:export-ydpi="90" />
    <path
       sodipodi:type="arc"
       style="fill:none;stroke:#ff0000;stroke-width:2;stroke-miterlimit:4;stroke-opacity:1;stroke-dasharray:none"
       id="path3085-7-1-7-95"
       sodipodi:cx="48.75"
       sodipodi:cy="61.25"
       sodipodi:rx="2.34375"
       sodipodi:ry="2.265625"
       d="m 51.09375,61.25 a 2.34375,2.265625 0 1 1 -4.6875,0 2.34375,2.265625 0 1 1 4.6875,0 z"
       transform="translate(112.375,978.23717)"
       inkscape:export-filename="/home/jkw/Arbeitsfläche/Speedo_header.png"
       inkscape:export-xdpi="90"
       inkscape:export-ydpi="90" />
    <path
       sodipodi:type="arc"
       style="fill:none;stroke:#ff0000;stroke-width:2;stroke-miterlimit:4;stroke-opacity:1;stroke-dasharray:none"
       id="path3085-7-1-7-97"
       sodipodi:cx="48.75"
       sodipodi:cy="61.25"
       sodipodi:rx="2.34375"
       sodipodi:ry="2.265625"
       d="m 51.09375,61.25 a 2.34375,2.265625 0 1 1 -4.6875,0 2.34375,2.265625 0 1 1 4.6875,0 z"
       transform="translate(-0.60983505,979.8925)"
       inkscape:export-filename="/home/jkw/Arbeitsfläche/Speedo_header.png"
       inkscape:export-xdpi="90"
       inkscape:export-ydpi="90" />
    <path
       sodipodi:type="arc"
       style="fill:none;stroke:#ff0000;stroke-width:2;stroke-miterlimit:4;stroke-opacity:1;stroke-dasharray:none"
       id="path3085-7-1-7-28"
       sodipodi:cx="48.75"
       sodipodi:cy="61.25"
       sodipodi:rx="2.34375"
       sodipodi:ry="2.265625"
       d="m 51.09375,61.25 a 2.34375,2.265625 0 1 1 -4.6875,0 2.34375,2.265625 0 1 1 4.6875,0 z"
       transform="translate(-8.8750001,986.23717)"
       inkscape:export-filename="/home/jkw/Arbeitsfläche/Speedo_header.png"
       inkscape:export-xdpi="90"
       inkscape:export-ydpi="90" />
    <path
       style="fill:none;stroke:#ff0000;stroke-width:4;stroke-linecap:butt;stroke-linejoin:miter;stroke-opacity:1;stroke-miterlimit:4;stroke-dasharray:none"
       d="m 50.375,98.625 97.625,0 14.375,-14.375 0,-14.25 -13.875,-13.875 -46,0 -14.3125,-14.3125 0,-14.4375 14.5625,-14.5625 839.875,0"
       id="path4152"
       inkscape:connector-curvature="0"
       inkscape:export-filename="/home/jkw/Arbeitsfläche/Speedo_header.png"
       inkscape:export-xdpi="90"
       inkscape:export-ydpi="90"
       transform="translate(0,942.36217)" />
    <path
       style="fill:none;stroke:#ff0000;stroke-width:4;stroke-linecap:butt;stroke-linejoin:miter;stroke-opacity:1;stroke-miterlimit:4;stroke-dasharray:none"
       d="m 162.54617,70.313632 87.82883,0 14.51028,-14.510283 0,-14.481095 -14.53258,-14.532586 -59.43387,0 0,74.194722"
       id="path4154"
       inkscape:connector-curvature="0"
       transform="translate(0,942.36217)"
       inkscape:export-filename="/home/jkw/Arbeitsfläche/Speedo_header.png"
       inkscape:export-xdpi="90"
       inkscape:export-ydpi="90" />
    <path
       style="fill:none;stroke:#ff0000;stroke-width:4;stroke-linecap:butt;stroke-linejoin:miter;stroke-opacity:1;stroke-miterlimit:4;stroke-dasharray:none"
       d="m 264.98827,55.906331 31.46625,0 0,-14.142135 14.4073,-14.407301 42.76318,0 14.54827,14.548273 0,14.531493 -13.40874,13.408737 -12.43646,0 0,0.468234 0,0"
       id="path4156"
       inkscape:connector-curvature="0"
       transform="translate(0,942.36217)"
       inkscape:export-filename="/home/jkw/Arbeitsfläche/Speedo_header.png"
       inkscape:export-xdpi="90"
       inkscape:export-ydpi="90" />
    <path
       style="fill:none;stroke:#ff0000;stroke-width:4;stroke-linecap:butt;stroke-linejoin:miter;stroke-opacity:1;stroke-miterlimit:4;stroke-dasharray:none"
       d="m 296.5,55.6875 0,28.4375 13.875,13.875 70.75,0"
       id="path4158"
       inkscape:connector-curvature="0"
       transform="translate(0,942.36217)"
       inkscape:export-filename="/home/jkw/Arbeitsfläche/Speedo_header.png"
       inkscape:export-xdpi="90"
       inkscape:export-ydpi="90" />
    <path
       style="fill:none;stroke:#ff0000;stroke-width:4;stroke-linecap:butt;stroke-linejoin:miter;stroke-opacity:1;stroke-miterlimit:4;stroke-dasharray:none"
       d="m 367.875,55.6875 29.1875,0 -0.0511,-0.190565"
       id="path4160"
       inkscape:connector-curvature="0"
       transform="translate(0,942.36217)"
       inkscape:export-filename="/home/jkw/Arbeitsfläche/Speedo_header.png"
       inkscape:export-xdpi="90"
       inkscape:export-ydpi="90" />
    <path
       style="fill:none;stroke:#ff0000;stroke-width:4;stroke-linecap:butt;stroke-linejoin:miter;stroke-opacity:1;stroke-miterlimit:4;stroke-dasharray:none"
       d="m 441.625,70.375 12.625,0 13.875,-13.875 0,-14.875 -14.8125,-14.8125 -41.0625,0 -14.65625,14.65625 0,43.28125 13.64062,13.640625 69.64063,0"
       id="path4162"
       inkscape:connector-curvature="0"
       transform="translate(0,942.36217)"
       inkscape:export-filename="/home/jkw/Arbeitsfläche/Speedo_header.png"
       inkscape:export-xdpi="90"
       inkscape:export-ydpi="90" />
    <path
       style="fill:none;stroke:#ff0000;stroke-width:4;stroke-linecap:butt;stroke-linejoin:miter;stroke-miterlimit:4;stroke-opacity:1;stroke-dasharray:none"
       d="m 499,26.75 0,71.25 57.5,0 13.6875,-13.6875 0,-43.4375 -14.15625,-14.15625 -58.53125,0"
       id="path4164"
       inkscape:connector-curvature="0"
       transform="translate(0,942.36217)"
       sodipodi:nodetypes="ccccccc"
       inkscape:export-filename="/home/jkw/Arbeitsfläche/Speedo_header.png"
       inkscape:export-xdpi="90"
       inkscape:export-ydpi="90" />
    <path
       style="fill:none;stroke:#ff0000;stroke-width:4;stroke-linecap:butt;stroke-linejoin:miter;stroke-opacity:1;stroke-miterlimit:4;stroke-dasharray:none"
       d="m 499,56.3125 -30.5,0"
       id="path4166"
       inkscape:connector-curvature="0"
       transform="translate(0,942.36217)"
       inkscape:export-filename="/home/jkw/Arbeitsfläche/Speedo_header.png"
       inkscape:export-xdpi="90"
       inkscape:export-ydpi="90" />
    <path
       style="fill:none;stroke:#ff0000;stroke-width:4;stroke-linecap:butt;stroke-linejoin:miter;stroke-miterlimit:4;stroke-opacity:1;stroke-dasharray:none"
       d="m 635.25,27.125 -21.125,0 -14.1875,14.1875 0,43.0625 13.90625,13.90625 42.53125,0 14.26562,-14.265625 0,-42.390625 -14.60064,-14.512254 -20.85562,0.04419"
       id="path4168"
       inkscape:connector-curvature="0"
       transform="translate(0,942.36217)"
       sodipodi:nodetypes="cccccccccc"
       inkscape:export-filename="/home/jkw/Arbeitsfläche/Speedo_header.png"
       inkscape:export-xdpi="90"
       inkscape:export-ydpi="90" />
    <path
       style="fill:none;stroke:#ff0000;stroke-width:4;stroke-linecap:butt;stroke-linejoin:miter;stroke-opacity:1;stroke-miterlimit:4;stroke-dasharray:none"
       d="m 728.14321,101.16117 0,-59.220197 14.49568,-14.495689 42.77996,0 13.78859,13.788582 0,59.396974"
       id="path4170"
       inkscape:connector-curvature="0"
       transform="translate(0,942.36217)"
       inkscape:export-filename="/home/jkw/Arbeitsfläche/Speedo_header.png"
       inkscape:export-xdpi="90"
       inkscape:export-ydpi="90" />
    <path
       style="fill:none;stroke:#ff0000;stroke-width:4;stroke-linecap:butt;stroke-linejoin:miter;stroke-opacity:1;stroke-miterlimit:4;stroke-dasharray:none"
       d="m 670.86756,55.906331 57.09887,0"
       id="path4172"
       inkscape:connector-curvature="0"
       transform="translate(0,942.36217)"
       inkscape:export-filename="/home/jkw/Arbeitsfläche/Speedo_header.png"
       inkscape:export-xdpi="90"
       inkscape:export-ydpi="90" />
    <path
       style="fill:none;stroke:#ff0000;stroke-width:4;stroke-linecap:butt;stroke-linejoin:miter;stroke-opacity:1;stroke-miterlimit:4;stroke-dasharray:none"
       d="m 699.68216,101.33794 0,-70.887453"
       id="path4174"
       inkscape:connector-curvature="0"
       transform="translate(0,942.36217)"
       inkscape:export-filename="/home/jkw/Arbeitsfläche/Speedo_header.png"
       inkscape:export-xdpi="90"
       inkscape:export-ydpi="90" />
    <path
       style="fill:none;stroke:#ff0000;stroke-width:4;stroke-linecap:butt;stroke-linejoin:miter;stroke-opacity:1;stroke-miterlimit:4;stroke-dasharray:none"
       d="m 798.85388,56.436661 28.63783,0"
       id="path4176"
       inkscape:connector-curvature="0"
       transform="translate(0,942.36217)"
       inkscape:export-filename="/home/jkw/Arbeitsfläche/Speedo_header.png"
       inkscape:export-xdpi="90"
       inkscape:export-ydpi="90" />
    <path
       style="fill:none;stroke:#ff0000;stroke-width:4;stroke-linecap:butt;stroke-linejoin:miter;stroke-miterlimit:4;stroke-opacity:1;stroke-dasharray:none"
       d="m 827.375,56.25 0,-14.75 14.9375,-14.9375 43.0625,0 15.28125,15.28125 0,42.40625 -14.51563,14.515625 -44.01562,0 -14.35064,-14.43903 z"
       id="path4180"
       inkscape:connector-curvature="0"
       transform="translate(0,942.36217)"
       sodipodi:nodetypes="cccccccccc"
       inkscape:export-filename="/home/jkw/Arbeitsfläche/Speedo_header.png"
       inkscape:export-xdpi="90"
       inkscape:export-ydpi="90" />
    <path
       style="fill:none;stroke:#ff0000;stroke-width:4;stroke-linecap:butt;stroke-linejoin:miter;stroke-opacity:1;stroke-miterlimit:4;stroke-dasharray:none"
       d="m 912.0625,55.875 -11.5625,0"
       id="path4182"
       inkscape:connector-curvature="0"
       transform="translate(0,942.36217)"
       inkscape:export-filename="/home/jkw/Arbeitsfläche/Speedo_header.png"
       inkscape:export-xdpi="90"
       inkscape:export-ydpi="90" />
    <path
       style="fill:none;stroke:#ff0000;stroke-width:4;stroke-linecap:butt;stroke-linejoin:miter;stroke-opacity:1;stroke-miterlimit:4;stroke-dasharray:none"
       d="m 569.57451,55.729555 30.93592,0"
       id="path4184"
       inkscape:connector-curvature="0"
       transform="translate(0,942.36217)"
       inkscape:export-filename="/home/jkw/Arbeitsfläche/Speedo_header.png"
       inkscape:export-xdpi="90"
       inkscape:export-ydpi="90" />
    <path
       style="fill:none;stroke:#ff0000;stroke-width:2;stroke-linecap:butt;stroke-linejoin:miter;stroke-opacity:1;stroke-miterlimit:4;stroke-dasharray:none"
       d="m 42.125,104.875 111.3125,0 6.0625,-6.0625 0.375,0.375"
       id="path4186"
       inkscape:connector-curvature="0"
       transform="translate(0,942.36217)"
       inkscape:export-filename="/home/jkw/Arbeitsfläche/Speedo_header.png"
       inkscape:export-xdpi="90"
       inkscape:export-ydpi="90" />
    <path
       style="fill:none;stroke:#ff0000;stroke-width:2;stroke-linecap:butt;stroke-linejoin:miter;stroke-opacity:1;stroke-miterlimit:4;stroke-dasharray:none"
       d="m 202.85126,100.45406 -6.01041,-6.010409 0,-17.500893 84.09665,0 27.77862,27.778622 78.42484,0"
       id="path4188"
       inkscape:connector-curvature="0"
       transform="translate(0,942.36217)"
       inkscape:export-filename="/home/jkw/Arbeitsfläche/Speedo_header.png"
       inkscape:export-xdpi="90"
       inkscape:export-ydpi="90" />
    <path
       style="fill:none;stroke:#ff0000;stroke-width:2;stroke-linecap:butt;stroke-linejoin:miter;stroke-opacity:1;stroke-miterlimit:4;stroke-dasharray:none"
       d="m 371.14267,91.173282 -57.54081,0 -10.03208,-10.032077 0,-36.990524 11.53468,-11.534679 35.79728,0 12.08711,12.087106 0,7.314136 -10.63975,10.639747 -2.06608,0"
       id="path4190"
       inkscape:connector-curvature="0"
       transform="translate(0,942.36217)"
       inkscape:export-filename="/home/jkw/Arbeitsfläche/Speedo_header.png"
       inkscape:export-xdpi="90"
       inkscape:export-ydpi="90" />
    <path
       style="fill:none;stroke:#ff0000;stroke-width:2;stroke-linecap:butt;stroke-linejoin:miter;stroke-miterlimit:4;stroke-opacity:1;stroke-dasharray:none"
       d="m 470.60166,1033.3808 -57.54081,0 -10.03208,-10.0321 0,-36.9905 11.53468,-11.53468 35.79728,0 12.08711,12.08711 0,7.31413 -10.63975,10.63974 -2.06608,0"
       id="path4190-8"
       inkscape:connector-curvature="0"
       inkscape:export-filename="/home/jkw/Arbeitsfläche/Speedo_header.png"
       inkscape:export-xdpi="90"
       inkscape:export-ydpi="90" />
    <path
       style="fill:none;stroke:#ff0000;stroke-width:2;stroke-linecap:butt;stroke-linejoin:miter;stroke-opacity:1;stroke-miterlimit:4;stroke-dasharray:none"
       d="m 388.55518,65.982603 0,18.384776 20.15254,20.152541 151.6744,0 8.44109,-8.441085 32.5932,0 8.56262,8.562625 51.39597,0 5.84375,-5.844585"
       id="path4210"
       inkscape:connector-curvature="0"
       transform="translate(0,942.36217)"
       inkscape:export-filename="/home/jkw/Arbeitsfläche/Speedo_header.png"
       inkscape:export-xdpi="90"
       inkscape:export-ydpi="90" />
    <path
       style="fill:none;stroke:#ff0000;stroke-width:2;stroke-linecap:butt;stroke-linejoin:miter;stroke-opacity:1;stroke-miterlimit:4;stroke-dasharray:none"
       d="m 618.125,62.875 37.5,0"
       id="path4212"
       inkscape:connector-curvature="0"
       transform="translate(0,942.36217)"
       inkscape:export-filename="/home/jkw/Arbeitsfläche/Speedo_header.png"
       inkscape:export-xdpi="90"
       inkscape:export-ydpi="90" />
    <path
       style="fill:none;stroke:#ff0000;stroke-width:2;stroke-linecap:butt;stroke-linejoin:miter;stroke-opacity:1;stroke-miterlimit:4;stroke-dasharray:none"
       d="m 513.18274,85.251263 0,-45.608388"
       id="path4214"
       inkscape:connector-curvature="0"
       transform="translate(0,942.36217)"
       inkscape:export-filename="/home/jkw/Arbeitsfläche/Speedo_header.png"
       inkscape:export-xdpi="90"
       inkscape:export-ydpi="90" />
    <path
       style="fill:none;stroke:#ff0000;stroke-width:2;stroke-linecap:butt;stroke-linejoin:miter;stroke-opacity:1;stroke-miterlimit:4;stroke-dasharray:none"
       d="m 204.35386,49.01204 42.16124,0"
       id="path4216"
       inkscape:connector-curvature="0"
       transform="translate(0,942.36217)"
       inkscape:export-filename="/home/jkw/Arbeitsfläche/Speedo_header.png"
       inkscape:export-xdpi="90"
       inkscape:export-ydpi="90" />
    <path
       style="fill:none;stroke:#ff0000;stroke-width:2;stroke-linecap:butt;stroke-linejoin:miter;stroke-opacity:1;stroke-miterlimit:4;stroke-dasharray:none"
       d="m 846.4375,62.875 36.6875,0"
       id="path4218"
       inkscape:connector-curvature="0"
       transform="translate(0,942.36217)"
       inkscape:export-filename="/home/jkw/Arbeitsfläche/Speedo_header.png"
       inkscape:export-xdpi="90"
       inkscape:export-ydpi="90" />
    <path
       style="fill:none;stroke:#ff0000;stroke-width:2;stroke-linecap:butt;stroke-linejoin:miter;stroke-opacity:1;stroke-miterlimit:4;stroke-dasharray:none"
       d="m 832.75,99.875 4.875,4.875 51.125,0 17.0625,-17.0625 0,-13.8125 3.40625,-3.40625 3.03125,0"
       id="path4222"
       inkscape:connector-curvature="0"
       transform="translate(0,942.36217)"
       inkscape:export-filename="/home/jkw/Arbeitsfläche/Speedo_header.png"
       inkscape:export-xdpi="90"
       inkscape:export-ydpi="90" />
    <path
       style="fill:none;stroke:#ff0000;stroke-width:2;stroke-linecap:butt;stroke-linejoin:miter;stroke-miterlimit:4;stroke-opacity:1;stroke-dasharray:none"
       d="m 736.5,96.5 -1.6093,-2.340905 -0.5,-51.096595 10.2109,-10.210897 38.5234,0 10.54295,10.542948 -0.17678,51.056734 -1.66599,2.131099 0.12794,0.07387"
       id="path4224"
       inkscape:connector-curvature="0"
       transform="translate(0,942.36217)"
       sodipodi:nodetypes="ccccccccc"
       inkscape:export-filename="/home/jkw/Arbeitsfläche/Speedo_header.png"
       inkscape:export-xdpi="90"
       inkscape:export-ydpi="90" />
  </g>
</svg>
