<?xml version="1.0" encoding="UTF-8" standalone="no"?>
<!-- Created with Inkscape (http://www.inkscape.org/) -->

<svg
   xmlns:dc="http://purl.org/dc/elements/1.1/"
   xmlns:cc="http://creativecommons.org/ns#"
   xmlns:rdf="http://www.w3.org/1999/02/22-rdf-syntax-ns#"
   xmlns:svg="http://www.w3.org/2000/svg"
   xmlns="http://www.w3.org/2000/svg"
   xmlns:sodipodi="http://sodipodi.sourceforge.net/DTD/sodipodi-0.dtd"
   xmlns:inkscape="http://www.inkscape.org/namespaces/inkscape"
   width="930"
   height="110"
   id="svg3013"
   version="1.1"
   inkscape:version="0.48.3.1 r9886"
   sodipodi:docname="Zeichnung.svg">
  <defs
     id="defs3015" />
  <sodipodi:namedview
     id="base"
     pagecolor="#ffffff"
     bordercolor="#666666"
     borderopacity="1.0"
     inkscape:pageopacity="0.0"
     inkscape:pageshadow="2"
     inkscape:zoom="0.98994949"
     inkscape:cx="537.65533"
     inkscape:cy="172.87941"
     inkscape:document-units="px"
     inkscape:current-layer="layer1"
     showgrid="false"
     inkscape:window-width="1366"
     inkscape:window-height="744"
     inkscape:window-x="0"
     inkscape:window-y="24"
     inkscape:window-maximized="1" />
  <metadata
     id="metadata3018">
    <rdf:RDF>
      <cc:Work
         rdf:about="">
        <dc:format>image/svg+xml</dc:format>
        <dc:type
           rdf:resource="http://purl.org/dc/dcmitype/StillImage" />
        <dc:title></dc:title>
      </cc:Work>
    </rdf:RDF>
  </metadata>
  <g
     inkscape:label="Ebene 1"
     inkscape:groupmode="layer"
     id="layer1"
     transform="translate(0,-942.36217)">
    <path
       style="fill:#cccccc"
       d="m 3.9675139,1049.3999 c -1.38238,-1.3824 -1.53908,-4.8538 -0.2761,-6.1168 1.24269,-1.2427 4.7260595,-1.1146 6.0636495,0.223 0.9710196,0.971 8.2097096,1.115 56.0468336,1.115 l 54.931793,0 1.61629,-1.7204 c 0.92546,-0.9851 1.61629,-2.6834 1.61629,-3.9733 0,-4.075 4.38019,-6.1897 6.94666,-3.3538 1.43905,1.5901 1.6137,4.65 0.33822,5.9255 -0.49062,0.4906 -1.93029,0.892 -3.19928,0.892 -1.66096,0 -4.31615,0.044 -4.82896,2.6017 l -2.5217,2.6018 -54.747253,0 c -53.803194,0 -54.770444,0.026 -56.0926936,1.4867 -1.61274,1.782 -4.2857895,1.9265 -5.8937495,0.3186 z m 3.6244395,-3.3555 c -0.23934,-0.3873 -0.7520195,-0.5083 -1.1392795,-0.269 -0.38727,0.2394 -0.50829,0.752 -0.26895,1.1393 0.23934,0.3873 0.75202,0.5083 1.1392795,0.2689 0.38727,-0.2393 0.50829,-0.752 0.26895,-1.1392 z m 121.1668766,-8.1769 c -0.23933,-0.3873 -0.75201,-0.5083 -1.13928,-0.269 -0.38726,0.2393 -0.50829,0.752 -0.26894,1.1393 0.23933,0.3873 0.75201,0.5083 1.13928,0.2689 0.38726,-0.2393 0.50829,-0.752 0.26894,-1.1392 z m 224.21396,11.2138 c -1.4477,-1.4477 -2.47785,-1.4867 -39.25719,-1.4867 l -37.77049,0 -14.05283,-14.1238 -14.05283,-14.1237 -56.49433,0 -26.49432,0 0,10.1794 c 0,5.8001 0.12799,6.3021 2.0849,8.1769 1.35751,1.3006 2.89888,1.9975 4.41797,1.9975 2.32429,0 4.64745,2.1264 4.64745,4.2538 0,1.462 -2.79797,3.9231 -4.46013,3.9231 -2.20784,0 -4.68206,-2.7879 -4.17956,-4.7094 0.31021,-1.1863 -0.35034,-2.3814 -2.56149,-4.6344 l -2.97951,-3.0359 0.21431,-7.3764 0.21431,-11.3764 27.77047,-0.1922 57.77048,-0.1922 14.11543,14.1301 14.11544,14.1301 38.01326,0 c 32.88271,0 38.13816,-0.1505 38.93866,-1.115 1.40585,-1.6939 4.9246,-1.3928 6.27637,0.5371 0.63644,0.9086 1.15718,2.0794 1.15718,2.6017 0,1.462 -2.79797,3.9231 -4.46013,3.9231 -0.81769,0 -2.15573,-0.669 -2.97342,-1.4867 z m 3.71677,-2.9734 c 0,-0.4089 -0.33451,-0.7434 -0.74335,-0.7434 -0.40885,0 -0.74336,0.3345 -0.74336,0.7434 0,0.4088 0.33451,0.7433 0.74336,0.7433 0.40884,0 0.74335,-0.3345 0.74335,-0.7433 z m -184.40521,-2.6902 c 0,-0.4089 -0.33451,-0.7434 -0.74336,-0.7434 -0.40884,0 -0.74335,0.3345 -0.74335,0.7434 0,0.4088 0.33451,0.7433 0.74335,0.7433 0.40885,0 0.74336,-0.3345 0.74336,-0.7433 z m 192.01499,-6.4252 -10.5832,-10.6022 0,-8.3534 c 0,-7.3623 -0.17639,-8.5298 -1.48671,-9.8402 -1.65996,-1.6599 -1.85913,-3.1186 -0.7172,-5.2524 0.88208,-1.6481 5.06278,-1.9984 6.51537,-0.5458 1.24607,1.2461 1.11365,4.6889 -0.223,5.7982 -0.86906,0.7213 -1.11504,2.7526 -1.11504,9.2079 l 0,8.2824 9.48811,9.4671 9.48812,9.467 35.90042,0 c 23.74432,0 35.74485,-0.2517 35.441,-0.7433 -0.29557,-0.4782 -12.71909,-0.7434 -34.83289,-0.7434 l -34.37347,0 -8.32558,-8.3255 -8.32557,-8.3256 0,-13.2317 0,-13.2318 -12.46588,0 -12.46588,0 -7.03251,7.0619 -7.03251,7.0619 -5.82878,0 c -4.19,0 -6.14228,0.3135 -6.94382,1.115 -3.06868,3.0687 -8.79837,-1.6663 -6.38678,-5.278 1.12823,-1.6897 3.83566,-2.6093 5.32908,-1.81 0.79081,0.4232 3.89241,0.7695 6.89244,0.7695 l 5.45461,0 6.11627,-6.1482 6.11626,-6.14826 0,-6.31849 0,-6.31849 -6.51906,-6.48886 -6.51907,-6.48886 -20.44396,0 -20.44398,0 -6.11626,6.14821 -6.11627,6.14821 0,21.18754 0,21.1876 5.77745,5.7435 5.77745,5.7436 30.37552,0 30.37552,0 -1.89005,-1.4867 c -1.81242,-1.4257 -3.01562,-1.4867 -29.29437,-1.4867 l -27.40433,0 -5.74356,-5.7775 -5.74356,-5.7774 0,-18.583 0,-18.58293 6.51906,-6.48886 6.51906,-6.48885 17.9112,0 17.9112,0 6.79065,6.79064 6.79065,6.79065 0,3.8323 0,3.8323 -7.3132,7.21755 c -5.33342,5.2637 -7.81769,7.2176 -9.17673,7.2176 -2.1851,0 -4.32401,-2.0862 -4.32401,-4.2176 0,-3.5223 5.77382,-5.40648 7.6011,-2.4805 0.8735,1.3987 1.17574,1.2287 5.58146,-3.13783 4.49164,-4.4517 4.65796,-4.7507 4.65796,-8.3734 0,-3.67697 0.63165,-4.74904 -5.40681,-9.12757 l -5.4068,-5.37072 -17.84298,0 -17.84297,0 -4.99771,5.0363 -4.99771,5.0363 0,18.58852 0,18.5885 4.29585,4.251 4.29584,4.2511 27.32684,0 c 27.0866,0 27.34653,-0.015 29.56518,-1.6549 2.07488,-1.534 2.38481,-1.5731 4.2442,-0.5343 2.74045,1.5309 3.15407,5.2777 0.76719,6.9496 -1.66699,1.1676 -1.64475,1.1864 1.40107,1.1864 1.70222,0 3.30168,-0.3345 3.55437,-0.7434 0.76195,-1.2328 4.51742,-0.8361 5.83162,0.6161 1.52611,1.6863 1.58568,4.1104 0.13071,5.3179 -0.84083,0.6978 -9.85683,0.8854 -38.31854,0.7973 -20.47043,-0.063 -37.62103,-0.3134 -38.11243,-0.5556 -0.4914,-0.2423 -3.84202,-4.5484 -8.51284,-8.4258 l -7.61939,-7.9854 0,-13.0944 0,-13.0945 -23.46591,0 -5.46592,0 -6.83172,7.0619 -6.83172,7.0619 -34.90541,0 -22.90541,0 0,15.8498 c 0,7.098 0.29808,12.034 0.74335,12.3092 1.1412,0.7053 0.8824,3.8432 -0.42477,5.1504 -1.47845,1.4785 -5.05409,1.5127 -6.25978,0.06 -0.60266,-0.7262 -0.7277,-1.9434 -0.36267,-3.5309 0.30639,-1.3325 0.73829,-7.6903 0.86422,-14.1306 l 0.30714,-15.7078 -11.55749,0 -11.5575,0 0,6.2403 0,6.2404 -8.18348,8.0692 -8.18349,8.0692 -51.099083,0.3717 c -28.104504,0.2044 -51.684474,0.109 -52.399954,-0.212 -1.52323,-0.6834 -1.79818,-4.9402 -0.40885,-6.3295 1.15592,-1.1559 4.50182,-1.1477 5.66345,0.014 0.71238,0.7124 0.80285,0.3904 0.42339,-1.5069 -0.89283,-4.4642 3.80391,-7.1403 6.77321,-3.8592 1.3158,1.4539 2.28951,1.4867 44.177604,1.4867 l 42.832153,0 5.37072,-5.4068 c 5.22933,-5.2645 5.37072,-5.5047 5.37072,-9.1261 0,-3.6056 -0.15379,-3.8718 -5.03631,-8.7169 l -5.0363,-4.9978 -9.52956,0 -37.529573,0 -9.41583,-9.4158 -9.415824,-9.41583 0,-9.73589 0,-9.73589 9.859414,-9.83913 9.85942,-9.83912 391.124483,0 c 392.9816,0 461.22921,-0.12618 462.04992,-1.11504 1.4557,-1.75412 4.9857,-1.39504 6.3211,0.64302 0.8756,1.33637 0.9732,2.22787 0.4072,3.71678 -0.7345,1.93188 -0.7,1.95872 2.52174,1.95872 1.7966,0 -19.74464,-0.56756 -18.53594,-1.26126 2.0693,-1.18761 2.3116,-1.18661 4.1487,0.0171 1.9752,1.29419 2.7726,5.10876 1.263,6.04173 -0.3783,0.23387 -197.83475,0.4187 -446.12529,0.41074 l -399.437333,-0.0145 -6.15305,6.12108 -6.15304,6.12108 0,6.72302 0,6.72302 6.1482,6.11627 6.14821,6.11627 37.186713,0 9.18672,0 6.92533,7.06183 6.92533,7.062 12.48869,0 12.4887,0 0.19724,-21.37154 0.19724,-21.37146 25.26051,-0.19267 37.26051,-0.19266 8.26999,8.36222 8.26998,8.36221 0,6.14003 0,6.14004 4.08846,0 22.08845,0 0,-6.14004 0,-6.14003 8.26323,-8.35539 8.26324,-8.35539 22.13173,0 22.13173,0 8.2595,8.2595 8.2595,8.2595 0,6.23592 0,6.23593 11.522,0 11.52201,0 0,-6.20289 0,-6.20288 8.29254,-8.29254 8.29253,-8.29254 22.04858,0 22.04857,0 8.31335,8.23902 8.31335,8.23902 0,6.2564 0,6.25641 18.58388,0 6.58388,0 0,-13.6034 c 0,-9.58928 0.26322,-13.86662 0.89202,-14.49542 0.66378,-0.66378 8.42741,-0.89203 30.34112,-0.89203 l 29.44908,0 8.31336,8.23902 8.31334,8.23902 0,6.2564 0,6.25641 11.52201,0 11.522,0 0,-6.23593 0,-6.23592 8.2595,-8.2595 8.2595,-8.2595 22.0449,0 22.0449,0 7.97838,8.00321 7.97839,8.0032 0,6.49222 0,6.49222 11.55669,0 11.55667,0 -0.34939,-12.4512 c -0.19216,-6.84816 -0.40634,-13.26905 -0.47596,-14.26865 -0.13692,-1.96585 1.70921,-3.75771 3.8715,-3.75771 2.21409,0 4.55164,2.84719 3.87076,4.71469 -0.3216,0.88211 -0.70265,7.03961 -0.84676,13.68335 l -0.26201,12.07952 11.55668,0 11.55668,0 0,-6.23593 0,-6.23592 8.2595,-8.2595 8.2595,-8.2595 28.98303,0 14.98301,0 7.97843,8.00321 7.97836,8.0032 0,6.49222 0,6.49222 11.522,0 11.522,0 0,-6.14004 0,-6.14003 8.26321,-8.35539 8.26329,-8.35539 22.13168,0 22.13177,0 8.25949,8.2595 8.25949,8.2595 0,6.23592 0,6.23593 4.0446,0 c 2.22449,0 4.25132,-0.33451 4.50398,-0.74336 0.64152,-1.03799 5.09035,-0.93079 6.16985,0.14867 1.33299,1.33302 1.07638,4.65755 -0.46735,6.05462 -1.51005,1.3666 -4.24931,1.6355 -4.95914,0.4869 -0.25267,-0.4088 -2.44675,-0.7433 -4.87567,-0.7433 l -4.41627,0 0,13.2735 0,13.2735 -8.30134,8.2838 -8.30127,8.2838 -22.02762,0 -22.02754,0 -8.32558,-8.3256 -8.32558,-8.3256 0,-13.2317 0,-13.2317 -11.522,0 -11.522,0 0,22.9117 c 0,11.8059 0.27927,19.0843 0.74335,19.3711 1.03349,0.6387 0.93194,4.3459 -0.14867,5.4265 -1.26296,1.263 -4.73435,1.1063 -6.11677,-0.2761 -1.30719,-1.3072 -1.56595,-4.4451 -0.42476,-5.1504 0.47374,-0.2928 0.74336,-12.3582 0.74336,-29.7503 l 0,-29.29086 -6.14822,-6.11627 -6.14821,-6.11627 -13.38035,0 -27.38036,0 -6.48886,6.51907 -6.48886,6.51906 0,28.88807 c 0,17.1235 0.26996,29.0549 0.74336,29.3475 1.03351,0.6387 0.93194,4.3459 -0.14867,5.4265 -1.26298,1.263 -4.73436,1.1063 -6.11675,-0.2761 -1.30718,-1.3072 -1.56597,-4.4451 -0.42478,-5.1504 0.46406,-0.2868 0.74336,-7.5652 0.74336,-19.3711 l 0,-22.9117 -11.522,0 -11.52201,0 0,22.5489 c 0,12.3189 0.28509,19.1746 0.8488,20.4118 2.05913,4.5193 -4.52275,7.9227 -7.25563,3.7518 -1.00046,-1.5269 -1.07496,-2.2458 -0.38881,-3.7518 0.56372,-1.2372 0.8488,-8.0929 0.8488,-20.4118 l 0,-22.5489 -11.522,0 -11.52201,0 0,13.2439 0,13.244 -8.23902,8.3133 -8.23902,8.3134 -21.80474,0 -21.80475,0 -8.23902,-8.3134 -8.23902,-8.3133 0,-13.244 0,-13.2439 -11.522,0 -11.52201,0 0,13.2317 0,13.2317 -8.32557,8.3256 -8.32558,8.3256 -29.43686,0 c -21.9042,0 -29.66512,-0.2283 -30.32889,-0.892 -0.65101,-0.651 -0.89202,-6.4755 -0.89202,-21.5573 l 0,-20.6653 -7.96134,0 -19.96134,0 -6.83172,7.0619 -6.83172,7.0618 -5.56904,0 c -3.8678,0 -6.1271,0.3657 -7.39586,1.197 -3.39004,2.2213 -7.809,-0.58 -6.65426,-4.2183 0.74094,-2.3345 3.67472,-3.9345 5.46125,-2.9783 0.81822,0.4379 3.94226,0.7962 6.94229,0.7962 l 5.45461,0 6.11627,-6.1483 6.11626,-6.1482 0,-6.69108 0,-6.69108 -6.14821,-6.11627 -6.1482,-6.11627 -20.44315,0 -20.44315,0 -6.11627,6.14821 -6.11626,6.14821 0,21.18748 0,21.1876 5.77744,5.7436 5.77745,5.7436 30.27527,0 c 30.27528,0 30.27528,0 28.78857,-1.4868 -1.43445,-1.4344 -2.47785,-1.4867 -29.68103,-1.4867 l -28.19432,0 -5.62834,-5.7388 -5.62833,-5.7389 0,-19.3669 0,-19.36676 5.77744,-5.74356 5.77745,-5.74356 19.32822,0 19.32823,0 5.74356,5.77744 5.74357,5.77745 0,5.27302 0,5.27302 -7.07764,6.79005 c -7.417,7.1157 -9.40656,8.0342 -11.7627,5.4307 -1.61398,-1.7834 -1.56141,-4.0574 0.12915,-5.5873 1.83391,-1.65967 4.32764,-1.55066 5.87524,0.2568 1.25116,1.4613 2.71511,2.4552 5.93957,-3.13778 l 4.66631,-4.62484 0,-4.50308 0,-4.50307 -4.66597,-4.6245 -4.66597,-4.62449 -19.3305,0 -19.3305,0 -4.25102,4.29584 -4.25102,4.29585 0,19.32897 0,19.329 4.29585,4.251 4.29584,4.251 28.14398,0 c 23.22524,0 28.28823,-0.1817 28.9693,-1.04 1.6481,-2.0767 4.03319,-2.1382 6.01641,-0.155 2.34773,2.3478 2.98637,3.9281 -0.0689,5.4323 l -1.93968,1.9397 5.05651,-0.4722 c 4.10242,-0.3831 5.30999,-0.2428 6.39982,0.7435 1.65397,1.4968 1.7362,4.2029 0.17517,5.764 -1.06195,1.0619 -9.19101,1.1681 30.58033,1.1681 l 43.74849,0 4.41359,-4.4601 4.41358,-4.4602 16.23048,0 16.23047,0 4.1293,4.4602 4.12929,4.4601 25.80778,0 25.80778,0 1.79918,-1.9151 c 1.1532,-1.2276 1.7116,-2.5835 1.55524,-3.7767 -0.29793,-2.2735 1.75611,-4.7152 3.96661,-4.7152 2.10086,0 4.08845,2.2148 4.08845,4.5559 0,2.4641 -1.30718,3.621 -4.0913,3.621 -1.66097,0 -3.01362,0.7288 -4.82896,2.6018 l -2.52171,2.6017 -25.70904,0 -25.70904,0 -4.41359,-4.4601 -4.41358,-4.4601 -16.0781,0 -16.07808,0 -4.25425,4.4601 -4.25424,4.4601 -70.28356,0 -82.28355,0 -10.58319,-10.6021 z m -205.8063,7.105 c -0.23934,-0.3872 -0.75202,-0.5083 -1.13928,-0.2689 -0.38727,0.2393 -0.5083,0.752 -0.26895,1.1393 0.23934,0.3872 0.75201,0.5082 1.13928,0.2689 0.38727,-0.2393 0.50829,-0.752 0.26895,-1.1393 z m 292.1917,-4 c -0.23934,-0.3872 -0.75202,-0.5083 -1.13928,-0.2689 -0.38727,0.2393 -0.50829,0.752 -0.26895,1.1393 0.23934,0.3872 0.75202,0.5082 1.13928,0.2689 0.38727,-0.2393 0.5083,-0.752 0.26895,-1.1393 z m 216.62093,4.8069 c 0,-0.4089 -0.33451,-0.7434 -0.74336,-0.7434 -0.40884,0 -0.74335,0.3345 -0.74335,0.7434 0,0.4088 0.33451,0.7433 0.74335,0.7433 0.40885,0 0.74336,-0.3345 0.74336,-0.7433 z m 28.57993,-0.8069 c -0.23934,-0.3872 -0.75202,-0.5083 -1.13929,-0.2689 -0.38726,0.2393 -0.50829,0.752 -0.26894,1.1393 0.23934,0.3872 0.75201,0.5082 1.13928,0.2689 0.38727,-0.2393 0.50829,-0.752 0.26895,-1.1393 z m 71.23833,0 c -0.23936,-0.3872 -0.75198,-0.5083 -1.13927,-0.2689 -0.38729,0.2393 -0.5083,0.752 -0.26894,1.1393 0.23936,0.3872 0.75197,0.5082 1.13926,0.2689 0.38729,-0.2393 0.50831,-0.752 0.26895,-1.1393 z m -751.610347,-4.9 c -0.95408,-0.9541 -1.92161,-0.2167 -1.21526,0.9262 0.27361,0.4427 0.83802,0.5944 1.25424,0.3372 0.50771,-0.3138 0.49489,-0.7296 -0.039,-1.2634 z m 335.561577,0.1567 c -0.23934,-0.3873 -0.75202,-0.5083 -1.13928,-0.269 -0.38727,0.2394 -0.50829,0.752 -0.26895,1.1393 0.23934,0.3873 0.75202,0.5083 1.13928,0.2689 0.38727,-0.2393 0.5083,-0.752 0.26895,-1.1392 z m 285.34203,-1.4867 c -0.23934,-0.3873 -0.75202,-0.5083 -1.13928,-0.269 -0.38727,0.2393 -0.50829,0.752 -0.26895,1.1393 0.23934,0.3873 0.75202,0.5083 1.13928,0.2689 0.38727,-0.2393 0.50829,-0.752 0.26895,-1.1392 z m -515.9983,-6.4235 5.77744,-5.7435 0,-7.0629 0,-7.0629 -5.74356,-5.7774 -5.74356,-5.7775 -9.23122,0 -37.231233,0 -8.04574,-7.99107 -8.04573,-7.99107 -0.27867,-7.80569 -0.27866,-7.80569 8.34463,-8.36228 8.34463,-8.36229 390.537743,0 c 393.06149,0 460.48994,-0.12466 460.10984,-1.11503 -0.37963,-0.98941 -68.35071,-1.11503 -461.56216,-1.11503 l -391.134313,0 -8.37437,8.35062 -8.374374,8.35062 0,9.6636 0,9.6636 7.978384,8.00321 7.97839,8.0032 37.483433,0 9.48342,0 6.1482,6.1163 6.14821,6.1163 0,4.4945 0,4.4945 -6.38506,6.4864 -6.38506,6.4864 -43.419733,0 c -28.450924,0 -43.419724,0.2563 -43.419724,0.7433 0,0.4874 15.41913,0.7434 44.770694,0.7434 l 44.770703,0 z m 408.79213,0 5.77744,-5.7435 0,-21.1876 0,-21.18754 -6.11626,-6.14821 -6.11627,-6.14821 -26.59136,0 -26.59135,0 0,33.07926 0,33.0794 26.93018,0 26.93017,0 z m -51.77948,0.8587 c -1.48136,-1.4814 -1.51165,-5.0549 -0.0531,-6.2654 0.94299,-0.7827 1.11503,-4.166 1.11503,-21.9291 0,-17.76295 -0.17204,-21.14631 -1.11503,-21.92893 -1.41963,-1.17818 -1.44875,-5.48784 -0.045,-6.65289 1.76856,-1.46778 5.07682,-0.63219 6.32235,1.59688 1.03902,1.8595 1.00006,2.16917 -0.53407,4.24419 -1.61783,2.18826 -1.65485,2.70207 -1.65485,22.96715 0,19.7848 0.0677,20.7902 1.48671,22.0743 0.81769,0.74 1.48671,1.9627 1.48671,2.717 0,1.7946 -2.5868,4.3449 -4.40703,4.3449 -0.7885,0 -1.95928,-0.5256 -2.60175,-1.1681 z m 3.292,-3.292 c 0,-0.4089 -0.33451,-0.7434 -0.74335,-0.7434 -0.40885,0 -0.74336,0.3345 -0.74336,0.7434 0,0.4088 0.33451,0.7433 0.74336,0.7433 0.40884,0 0.74335,-0.3345 0.74335,-0.7433 z m 0,-50.2204 c 0,-0.63739 -0.33996,-0.94879 -0.75548,-0.69199 -0.41551,0.2568 -0.56303,0.77831 -0.3278,1.15891 0.63723,1.03106 1.08328,0.83881 1.08328,-0.46692 z m 148.46965,52.281 6.14821,-6.1162 0,-20.8149 0,-20.81484 -6.11627,-6.14821 -6.11626,-6.14821 -20.44398,0 -20.44396,0 -6.51907,6.48886 -6.51906,6.48886 0,20.44224 0,20.4423 6.11626,6.1482 6.11627,6.1482 20.81483,0 20.81482,0 z m -49.11653,-24.234 c -0.67664,-0.7476 -1.23025,-2.0339 -1.23025,-2.8582 0,-3.5286 5.77428,-5.40575 7.60606,-2.4726 0.88226,1.4127 1.73353,1.4867 17.10347,1.4867 15.18386,0 16.2661,-0.091 17.66171,-1.4867 2.76325,-2.76325 7.43355,-1.0475 7.43355,2.7309 0,3.5287 -5.77428,5.4058 -7.60606,2.4726 -0.8828,-1.4136 -1.73352,-1.4867 -17.29633,-1.4867 -15.56281,0 -16.41353,0.073 -17.29634,1.4867 -1.18032,1.89 -4.7167,1.9606 -6.37581,0.1273 z m 3.56232,-3.1642 c -0.23934,-0.3873 -0.75202,-0.5083 -1.13928,-0.269 -0.38727,0.2394 -0.50829,0.752 -0.26895,1.1393 0.23934,0.3873 0.75202,0.5083 1.13928,0.269 0.38727,-0.2394 0.50829,-0.7521 0.26895,-1.1393 z m 41.62788,0 c -0.23933,-0.3873 -0.75201,-0.5083 -1.13928,-0.269 -0.38726,0.2394 -0.50829,0.752 -0.26894,1.1393 0.23933,0.3873 0.75201,0.5083 1.13928,0.269 0.38726,-0.2394 0.50829,-0.7521 0.26894,-1.1393 z m 232.75594,27.3982 6.14821,-6.1162 0,-20.4441 0,-20.44393 -6.48889,-6.51906 -6.48882,-6.51907 -20.44227,0 -20.44219,0 -6.14821,6.11627 -6.14822,6.11627 0,21.18562 0,21.1856 5.74354,5.7774 5.7436,5.7775 21.18756,0 21.18747,0 z m -49.92202,-24.0427 c -2.50339,-2.5034 -0.46437,-7.0088 3.17197,-7.0088 0.89173,0 2.19416,0.669 2.89426,1.4867 1.20148,1.4032 2.19289,1.4867 17.65446,1.4867 15.57641,0 16.4271,-0.073 17.30991,-1.4867 1.39134,-2.22788 5.02047,-1.97699 6.61556,0.4573 1.14076,1.7411 1.15949,2.1486 0.17975,3.9027 -1.45244,2.6003 -5.37654,3.1153 -6.76743,0.8881 -0.91857,-1.4709 -1.60253,-1.5313 -17.33779,-1.5313 -15.46157,0 -16.45298,0.083 -17.65446,1.4867 -1.52425,1.7803 -4.45084,1.934 -6.06623,0.3186 z m 3.62445,-3.3555 c -0.23936,-0.3873 -0.75198,-0.5083 -1.13926,-0.269 -0.38729,0.2394 -0.50831,0.752 -0.26895,1.1393 0.23936,0.3873 0.75198,0.5083 1.13927,0.269 0.38729,-0.2394 0.5083,-0.7521 0.26894,-1.1393 z m 41.29546,0.3913 c 0,-0.6374 -0.33451,-0.9522 -0.74336,-0.6995 -0.40884,0.2527 -0.74335,0.7742 -0.74335,1.1589 0,0.3847 0.33451,0.6995 0.74335,0.6995 0.40885,0 0.74336,-0.5215 0.74336,-1.1589 z m -830.561627,29.3429 c -0.23935,-0.3872 -0.75202,-0.5083 -1.13929,-0.2689 -0.38726,0.2393 -0.50829,0.752 -0.26895,1.1393 0.23935,0.3872 0.75203,0.5083 1.13929,0.2689 0.38726,-0.2393 0.50829,-0.752 0.26895,-1.1393 z m 318.620047,-0.6798 c 0,-0.4089 -0.50177,-0.7434 -1.11503,-0.7434 -0.61327,0 -1.11504,0.3345 -1.11504,0.7434 0,0.4088 0.50177,0.7433 1.11504,0.7433 0.61326,0 1.11503,-0.3345 1.11503,-0.7433 z m 100.35293,0 c 0,-0.4089 -0.33451,-0.7434 -0.74335,-0.7434 -0.40885,0 -0.74336,0.3345 -0.74336,0.7434 0,0.4088 0.33451,0.7433 0.74336,0.7433 0.40884,0 0.74335,-0.3345 0.74335,-0.7433 z m -133.80391,-20.814 c 0,-0.4088 -0.33451,-0.7433 -0.74336,-0.7433 -0.40884,0 -0.74335,0.3345 -0.74335,0.7433 0,0.4089 0.33451,0.7434 0.74335,0.7434 0.40885,0 0.74336,-0.3345 0.74336,-0.7434 z m 99.60958,0 c 0,-0.4088 -0.33451,-0.7433 -0.74336,-0.7433 -0.40884,0 -0.74335,0.3345 -0.74335,0.7433 0,0.4089 0.33451,0.7434 0.74335,0.7434 0.40885,0 0.74336,-0.3345 0.74336,-0.7434 z m -184.7129,-9.0897 6.1482,-6.11628 0,-6.69108 0,-6.69108 -6.11626,-6.14821 -6.11627,-6.14821 -34.02491,0 -22.0249,0 0,18.95556 0,18.9556 21.99296,0 33.99297,0 z m -55.23587,-8.76579 c -3.2581,-1.311 -2.82933,-6.7224 0.61937,-7.81698 1.04284,-0.33098 2.28471,0.0276 3.68747,1.06469 2.04953,1.51529 -9.12287,1.56375 14.70599,1.56375 24.07076,0 24.6371,-0.0341 26.77375,-1.61384 1.8544,-1.37102 2.46817,-1.48383 4.07922,-0.74979 1.04301,0.47523 2.09032,1.36946 2.32736,1.98718 0.75114,1.95743 -0.4469,4.85669 -2.36873,5.73234 -1.56017,0.71086 -2.20196,0.58869 -4.03785,-0.76864 -2.13682,-1.57982 -2.70198,-1.61383 -26.81224,-1.61383 -23.50382,0 -12.71578,0.0679 -14.51945,1.48671 -2.10398,1.65498 -2.13825,1.66059 -4.45489,0.72841 z m 2.76534,-3.70183 c 0,-0.40885 -0.33451,-0.74336 -0.74335,-0.74336 -0.40885,0 -0.74336,0.33451 -0.74336,0.74336 0,0.40884 0.33451,0.74335 0.74336,0.74335 0.40884,0 0.74335,-0.33451 0.74335,-0.74335 z m 46.35338,0 c 0.25268,-0.40885 -0.0621,-0.74336 -0.69949,-0.74336 -0.63739,0 -1.1589,0.33451 -1.1589,0.74336 0,0.40884 0.31476,0.74335 0.69948,0.74335 0.38472,0 0.90622,-0.33451 1.15891,-0.74335 z m 139.53855,14.86712 c 0,-0.4089 -0.33451,-0.7434 -0.74336,-0.7434 -0.40884,0 -0.74335,0.3345 -0.74335,0.7434 0,0.4089 0.33451,0.7434 0.74335,0.7434 0.40885,0 0.74336,-0.3345 0.74336,-0.7434 z m -40.55209,-1.5502 c -0.23934,-0.3873 -0.75202,-0.5083 -1.13928,-0.269 -0.38727,0.2394 -0.5083,0.752 -0.26895,1.1393 0.23934,0.3873 0.75201,0.5083 1.13928,0.269 0.38727,-0.2394 0.50829,-0.7521 0.26895,-1.1393 z m 99.60958,0 c -0.23934,-0.3873 -0.75202,-0.5083 -1.13928,-0.269 -0.38727,0.2394 -0.5083,0.752 -0.26895,1.1393 0.23934,0.3873 0.75201,0.5083 1.13928,0.269 0.38727,-0.2394 0.50829,-0.7521 0.26895,-1.1393 z m 466.59691,-6.69022 c -0.23936,-0.38726 -0.75198,-0.50829 -1.13927,-0.26894 -0.38728,0.23933 -0.5083,0.75201 -0.26894,1.13928 0.23936,0.38726 0.75198,0.50829 1.13926,0.26894 0.38729,-0.23933 0.50831,-0.75201 0.26895,-1.13928 z m -214.29494,-28.184 c 0,-0.40885 -0.33451,-0.74336 -0.74336,-0.74336 -0.40884,0 -0.74335,0.33451 -0.74335,0.74336 0,0.40885 0.33451,0.74335 0.74335,0.74335 0.40885,0 0.74336,-0.3345 0.74336,-0.74335 z M 912.8389,953.12493 c -0.2393,-0.38726 -0.7519,-0.50829 -1.1392,-0.26895 -0.3873,0.23935 -0.5083,0.75202 -0.269,1.13929 0.2394,0.38726 0.752,0.50829 1.1393,0.26895 0.3873,-0.23935 0.5083,-0.75202 0.2689,-1.13929 z m 10.2872,-5.13999 c 0,-0.40885 -0.3345,-0.74336 -0.7433,-0.74336 -0.4089,0 -0.7434,0.33451 -0.7434,0.74336 0,0.40884 0.3345,0.74335 0.7434,0.74335 0.4088,0 0.7433,-0.33451 0.7433,-0.74335 z m -120.17684,97.48916 c -1.48374,-1.5486 -2.53061,-2.0251 -3.88195,-1.7668 -3.72659,0.7124 -6.2899,-4.1519 -3.60356,-6.8383 1.38241,-1.3824 4.85381,-1.5391 6.11677,-0.2761 0.49061,0.4906 0.89202,1.9441 0.89202,3.2299 0,4.8049 -0.0387,4.7983 27.94703,4.7983 l 25.22821,0 7.95754,-7.991 7.95762,-7.9911 0.20665,-8.9203 0.20665,-8.9202 2.97342,-0.3717 c 1.63538,-0.2044 3.8482,-0.966 4.9173,-1.6923 2.4692,-1.6775 5.6075,-0.6931 6.27548,1.9685 1.06545,4.2451 -3.52187,7.2003 -6.63586,4.2749 -0.92362,-0.8677 -2.4104,-1.5777 -3.30399,-1.5777 -1.56573,0 -1.6246,0.2782 -1.6246,7.6814 l 0,7.6813 -9.41586,9.4158 -9.41578,9.4159 -25.38283,0 -25.38275,0 z m -3.86106,-6.1199 c -0.23936,-0.3873 -0.75198,-0.5083 -1.13927,-0.269 -0.38729,0.2394 -0.50831,0.752 -0.26895,1.1393 0.23937,0.3873 0.75198,0.5083 1.13927,0.2689 0.38729,-0.2393 0.50831,-0.752 0.26895,-1.1392 z m 83.66669,-27.4407 c 0,-0.4088 -0.33451,-0.7433 -0.74335,-0.7433 -0.40885,0 -0.74336,0.3345 -0.74336,0.7433 0,0.4089 0.33451,0.7434 0.74336,0.7434 0.40884,0 0.74335,-0.3345 0.74335,-0.7434 z m -182.31682,31.0794 c -1.01831,-1.0183 -1.16814,-6.5719 -1.16814,-29.7064 l 0,-28.53831 6.14821,-6.11627 6.14821,-6.11626 26.34557,0 12.34558,0 6.00527,6.00529 6.00527,6.00529 0.10079,28.72876 c 0.0702,20.011 -0.12629,29.0024 -0.80274,29.8174 -1.50381,1.8119 -4.97647,1.3493 -6.42111,-0.8554 -1.14134,-1.742 -1.15985,-2.1477 -0.1781,-3.9026 0.60263,-1.0773 1.83712,-2.0655 2.74335,-2.1962 l 1.64772,-0.2375 0,-27.5713 0,-23.57133 -4.66597,-4.6245 -4.66596,-4.62449 -12.26684,0 -26.26684,0 -4.62449,4.66596 -4.62449,4.66597 0,23.58159 c 0,22.4256 0.0672,27.5815 1.37149,27.5815 1.78003,0 3.83199,2.2917 3.83199,4.2797 0,2.0703 -1.91653,3.8972 -4.08845,3.8972 -0.96371,0 -2.27786,-0.5256 -2.92032,-1.1681 z m 3.62443,-3.3555 c -0.23934,-0.3873 -0.75201,-0.5083 -1.13928,-0.269 -0.38727,0.2394 -0.50829,0.7521 -0.26895,1.1393 0.23934,0.3873 0.75202,0.5083 1.13929,0.269 0.38726,-0.2394 0.50829,-0.752 0.26894,-1.1393 z m 55.29545,0.4352 c 0,-0.6133 -0.33451,-1.1151 -0.74336,-1.1151 -0.40884,0 -0.74335,0.5018 -0.74335,1.1151 0,0.6132 0.33451,1.115 0.74335,1.115 0.40885,0 0.74336,-0.5018 0.74336,-1.115 z"
       id="path3027"
       inkscape:connector-curvature="0"
       sodipodi:nodetypes="sssscsssssscsssssssscccscsscccccssssssscccccccssssssssssssssssccsssssscccscscccccccccssssscccccccccccccccccsscccccccccccccssssssscccccccccssssssssscscccccccccsssssscccccccscscssscssscccccccccscccssscscccccccccccccccccccccccccccccccccccccccccccccccssscccccccccccccccccccssscscccccccccccccccccccccccccscccsscccccccccccccscsscscccccccsssssscccssssscccccccccccccccccccssscccccssssscccccccccccccccssscccccccccccccssssscccccccccccccsssscsssscccccccccsssssscccccccccccccsscsscssscssssssscssssssscscccscscsscscsccccccccccccccscscccccccccccccccsssccccccccccccccccssscssssssccssssssscscccccccccccccccccssssssssssssssscscsccccccccccccccccccsscsscssssssssssssssscccccsssssssssssssssssssscccccccccccccsssscssssscsssssscssscssssssscsssscssscscsssssscccccssssscscssscccccscssssccccccscccsssssssscccccccscccscccccccccssssscssscsssss" />
  </g>
</svg>
