2100 0 1 0           
32 SPATIAL - INTEROP Version - 21.0 12 ACIS 21.0 NT 24 Fri Sep 28 17:37:51 2012 
1 9.9999999999999995e-007 1e-010 
body $-1 -1 -1 $-1 $1 $-1 $-1 T 31.142083509925296 -20.324999999999999 -1.5000043556941469 131.825000000003 36.395563869997233 1.5 #
lump $-1 -1 -1 $-1 $-1 $2 $0 T 31.142083509925296 -20.324999999999999 -1.5000043556941469 131.825000000003 36.395563869997233 1.5 #
shell $-1 -1 -1 $-1 $-1 $-1 $3 $-1 $1 T 31.142083509925296 -20.324999999999999 -1.5000043556941469 131.825000000003 36.395563869997233 1.5 #
face $4 -1 -1 $-1 $5 $6 $2 $-1 $7 reversed single T 32.313585027075952 -20.324999999999999 0 42.675000000011266 27.874501747988699 1.5 F #
string_attrib-name_attrib-gen-attrib $-1 -1 $-1 $-1 $3 2 1 2 1 1 1 1 1 1 1 1 1 1 1 0 1 1 1 @15 ATTRIB_XACIS_ID @1 7 #
face $8 -1 -1 $-1 $9 $10 $2 $-1 $11 forward single T 37.523992324924947 -20.324999999999999 0 126.99500000000299 -20.324999999999996 1.5 F #
loop $-1 -1 -1 $-1 $-1 $12 $3 T 32.313585027075952 -20.324999999999999 0 42.675000000011266 27.874501747988699 1.5 unknown #
cone-surface $-1 -1 -1 $-1 5.2666204730655904e-012 -2.8969882048812703e-012 1.5 -0 -0 1 -42.675000000006001 0 0 1 I I -0 1 42.675000000006001 forward I I I I #
string_attrib-name_attrib-gen-attrib $-1 -1 $-1 $-1 $5 2 1 2 1 1 1 1 1 1 1 1 1 1 1 0 1 1 1 @15 ATTRIB_XACIS_ID @1 1 #
face $13 -1 -1 $-1 $14 $15 $2 $-1 $16 forward single T 33.77753390527527 35.325693080516551 0 38.750247600890148 36.395563869997233 1.5 F #
loop $-1 -1 -1 $-1 $-1 $17 $5 T 37.523992324924947 -20.324999999999999 0 126.99500000000299 -20.324999999999996 1.5 unknown #
plane-surface $-1 -1 -1 $-1 127.000000000003 -20.324999999999999 1.5 -3.8775164897304245e-017 -1 0 -1000 3.8775164897304244e-014 0 forward_v I I I I #
coedge $-1 -1 -1 $-1 $18 $19 $20 $21 reversed $6 $-1 #
string_attrib-name_attrib-gen-attrib $-1 -1 $-1 $-1 $9 2 1 2 1 1 1 1 1 1 1 1 1 1 1 0 1 1 1 @15 ATTRIB_XACIS_ID @2 16 #
face $22 -1 -1 $-1 $23 $24 $2 $-1 $25 forward single T 31.142083509925296 27.874501747988695 0 33.777533905275313 35.325693080516551 1.5 F #
loop $-1 -1 -1 $-1 $-1 $26 $9 T 33.77753390527527 35.325693080516551 0 38.750247600890148 36.395563869997233 1.5 unknown #
cone-surface $-1 -1 -1 $-1 38.23604683080265 26.570563870004698 1.5 -0 -0 1 -9.8249999999925386 0 0 1 I I -0 1 9.8249999999925386 forward I I I I #
coedge $-1 -1 -1 $-1 $27 $28 $29 $30 reversed $10 $-1 #
coedge $-1 -1 -1 $-1 $31 $12 $28 $32 reversed $6 $-1 #
coedge $-1 -1 -1 $-1 $12 $31 $33 $34 forward $6 $-1 #
coedge $-1 -1 -1 $-1 $35 $29 $12 $21 forward $36 $-1 #
edge $-1 -1 -1 $-1 $37 2.6451801167162392 $38 3.8533705913627401 $20 $39 forward @7 unknown T 32.313585027075952 -20.324999999999999 0 42.675000000011266 27.874501747988699 0 #
string_attrib-name_attrib-gen-attrib $-1 -1 $-1 $-1 $14 2 1 2 1 1 1 1 1 1 1 1 1 1 1 0 1 1 1 @15 ATTRIB_XACIS_ID @1 3 #
face $40 -1 -1 $-1 $41 $42 $2 $-1 $43 forward single T 41.360714729581652 34.217819253519473 -1.5 41.832520988868055 34.224431748328591 0 F #
loop $-1 -1 -1 $-1 $-1 $44 $14 T 31.142083509925296 27.874501747988695 0 33.777533905275313 35.325693080516551 1.5 unknown #
cone-surface $-1 -1 -1 $-1 35.967083509925295 31.026100363900554 1.5 -0 -0 1 -4.8250000000000002 0 0 1 I I -0 1 4.8250000000000002 forward I I I I #
coedge $-1 -1 -1 $-1 $45 $46 $47 $48 reversed $15 $-1 #
coedge $-1 -1 -1 $-1 $49 $17 $50 $51 forward $10 $-1 #
coedge $-1 -1 -1 $-1 $17 $49 $18 $32 forward $10 $-1 #
coedge $-1 -1 -1 $-1 $20 $52 $17 $30 forward $36 $-1 #
edge $-1 -1 -1 $-1 $53 5.0000000000050004e-006 $37 0.089476007675078045 $29 $54 forward @7 unknown T 37.523992324924947 -20.324999999999999 0 126.99500000000299 -20.324999999999996 0 #
coedge $-1 -1 -1 $-1 $19 $18 $55 $56 forward $6 $-1 #
edge $-1 -1 -1 $-1 $57 0 $37 0.0015 $28 $58 forward @7 unknown T 37.523992324924954 -20.324999999999999 0 37.523992324924954 -20.324999999999999 1.5 #
coedge $-1 -1 -1 $-1 $44 $59 $19 $34 reversed $24 $-1 #
edge $-1 -1 -1 $-1 $60 0 $38 0.0015 $19 $61 forward @7 unknown T 32.313585027075952 27.874501747988699 0 32.313585027075952 27.874501747988699 1.5 #
coedge $-1 -1 -1 $-1 $47 $20 $59 $62 forward $36 $-1 #
loop $-1 -1 -1 $-1 $-1 $63 $64 T 31.142083509925296 -20.324999999999999 0 131.825000000003 36.395563869997233 0 unknown #
vertex $-1 -1 -1 $-1 $30 $65 #
vertex $-1 -1 -1 $-1 $34 $66 #
ellipse-curve $-1 -1 -1 $-1 5.2666204730655904e-012 -2.8969882048812703e-012 0 0 0 1 -42.675000000006001 0 0 1 F 2.6451801167162392 F 3.8533705913627401 #
string_attrib-name_attrib-gen-attrib $-1 -1 $-1 $-1 $23 2 1 2 1 1 1 1 1 1 1 1 1 1 1 0 1 1 1 @15 ATTRIB_XACIS_ID @2 13 #
face $67 -1 -1 $-1 $68 $69 $2 $-1 $70 forward single T 45.984999999999999 -18.825000000015503 -1.5 124.99499999999999 -18.825000000015503 0 F #
loop $-1 -1 -1 $-1 $-1 $71 $23 T 41.360714729581652 34.217819253519473 -1.5 41.832520988868055 34.224431748328591 0 unknown #
cone-surface $-1 -1 -1 $-1 41.579999999997895 29.399431748359998 0 -0 -0 1 -4.8249999999685906 0 0 1 I I -0 1 4.8249999999685906 forward I I I I #
coedge $-1 -1 -1 $-1 $72 $33 $73 $74 forward $24 $-1 #
coedge $-1 -1 -1 $-1 $75 $26 $72 $76 reversed $15 $-1 #
coedge $-1 -1 -1 $-1 $26 $75 $77 $78 forward $15 $-1 #
coedge $-1 -1 -1 $-1 $79 $35 $26 $48 forward $36 $-1 #
edge $-1 -1 -1 $-1 $80 1.0997794522433959 $81 1.6231562043548251 $47 $82 forward @7 unknown T 33.77753390527527 35.325693080516551 0 38.750247600890148 36.395563869997233 0 #
coedge $-1 -1 -1 $-1 $28 $27 $83 $84 forward $10 $-1 #
coedge $-1 -1 -1 $-1 $85 $86 $27 $51 reversed $87 $-1 #
edge $-1 -1 -1 $-1 $53 -0.0015 $88 -0 $27 $89 reversed @7 unknown T 126.99500000000299 -20.324999999999999 0 126.99500000000299 -20.324999999999999 1.5 #
coedge $-1 -1 -1 $-1 $29 $63 $85 $90 forward $36 $-1 #
vertex $-1 -1 -1 $-1 $90 $91 #
straight-curve $-1 -1 -1 $-1 127.000000000003 -20.324999999999999 0 -1000 3.8775164897304244e-014 0 F 5.0000000000050004e-006 F 0.089476007675078045 #
coedge $-1 -1 -1 $-1 $83 $73 $31 $56 reversed $92 $-1 #
edge $-1 -1 -1 $-1 $57 2.6451801167162392 $60 3.8533705913627401 $31 $93 forward @7 unknown T 32.313585027075952 -20.324999999999999 1.5 42.675000000011266 27.874501747988699 1.5 #
vertex $-1 -1 -1 $-1 $84 $94 #
straight-curve $-1 -1 -1 $-1 37.523992324924954 -20.324999999999999 1.5 0 0 -1000 F 0 F 0.0015 #
coedge $-1 -1 -1 $-1 $33 $72 $35 $62 reversed $24 $-1 #
vertex $-1 -1 -1 $-1 $34 $95 #
straight-curve $-1 -1 -1 $-1 32.313585027075952 27.874501747988699 1.5 0 0 -1000 F 0 F 0.0015 #
edge $-1 -1 -1 $-1 $38 5.5714073694066517 $80 7.382964759422979 $35 $96 forward @7 unknown T 31.142083509925296 27.874501747988695 0 33.777533905275313 35.325693080516551 0 #
coedge $-1 -1 -1 $-1 $52 $97 $98 $99 forward $36 $-1 #
face $100 -1 -1 $-1 $-1 $101 $2 $-1 $102 reversed single T 31.142083509925296 -20.324999999999999 -4.3556941469193003e-006 131.825000000003 36.395563869997233 4.3556941469193003e-006 F #
point $-1 -1 -1 $-1 37.523992324924954 -20.324999999999999 0 #
point $-1 -1 -1 $-1 32.313585027075952 27.874501747988699 0 #
string_attrib-name_attrib-gen-attrib $-1 -1 $-1 $-1 $41 2 1 2 1 1 1 1 1 1 1 1 1 1 1 0 1 1 1 @15 ATTRIB_XACIS_ID @2 15 #
face $103 -1 -1 $-1 $104 $105 $2 $-1 $106 forward single T 34.689261084497751 -18.825000000015503 -1.5000043556941469 129.82499999999999 34.22595784742785 -1.4999956443058531 F #
loop $-1 -1 -1 $-1 $-1 $107 $41 T 45.984999999999999 -18.825000000015503 -1.5 124.99499999999999 -18.825000000015503 0 unknown #
plane-surface $-1 -1 -1 $-1 125 -18.825000000015503 0 0 -1 0 0 0 -1000 forward_v I I I I #
coedge $-1 -1 -1 $-1 $108 $109 $110 $111 reversed $42 $-1 #
coedge $-1 -1 -1 $-1 $59 $44 $45 $76 forward $24 $-1 #
coedge $-1 -1 -1 $-1 $55 $112 $44 $74 reversed $92 $-1 #
edge $-1 -1 -1 $-1 $60 5.5714073694066517 $113 7.382964759422979 $44 $114 forward @7 unknown T 31.142083509925296 27.874501747988695 1.5 33.777533905275313 35.325693080516551 1.5 #
coedge $-1 -1 -1 $-1 $46 $45 $112 $115 forward $15 $-1 #
edge $-1 -1 -1 $-1 $113 0 $80 0.0015 $72 $116 forward @7 unknown T 33.777533905275298 35.325693080516551 0 33.777533905275298 35.325693080516551 1.5 #
coedge $-1 -1 -1 $-1 $117 $118 $46 $78 reversed $119 $-1 #
edge $-1 -1 -1 $-1 $120 0 $81 0.0015 $46 $121 forward @7 unknown T 38.750247600890148 36.382099048960896 0 38.750247600890148 36.382099048960896 1.5 #
coedge $-1 -1 -1 $-1 $97 $47 $118 $122 forward $36 $-1 #
vertex $-1 -1 -1 $-1 $62 $123 #
vertex $-1 -1 -1 $-1 $122 $124 #
ellipse-curve $-1 -1 -1 $-1 38.23604683080265 26.570563870004698 0 0 0 -1 -9.8249999999925386 0 0 1 F 1.0997794522433959 F 1.6231562043548251 #
coedge $-1 -1 -1 $-1 $125 $55 $49 $84 reversed $92 $-1 #
edge $-1 -1 -1 $-1 $88 5.0000000000050004e-006 $57 0.089476007675078045 $49 $126 forward @7 unknown T 37.523992324924947 -20.324999999999999 1.5 126.99500000000299 -20.324999999999996 1.5 #
coedge $-1 -1 -1 $-1 $127 $50 $52 $90 reversed $87 $-1 #
coedge $-1 -1 -1 $-1 $50 $127 $125 $128 reversed $87 $-1 #
loop $-1 -1 -1 $-1 $-1 $86 $129 T 126.99500000000299 -20.324999999999999 0 131.825000000003 -15.494999999999999 1.5 unknown #
vertex $-1 -1 -1 $-1 $51 $130 #
straight-curve $-1 -1 -1 $-1 126.99500000000299 -20.324999999999999 1.5 0 0 -1000 F 0 F 0.0015 #
edge $-1 -1 -1 $-1 $131 -6.2831853071795862 $53 -4.7123889803846897 $52 $132 reversed @7 unknown T 126.99500000000299 -20.324999999999999 0 131.825000000003 -15.494999999999999 0 #
point $-1 -1 -1 $-1 126.99500000000299 -20.324999999999999 0 #
loop $-1 -1 -1 $-1 $-1 $83 $133 T 31.142083509925296 -20.324999999999999 1.5 131.825000000003 36.395563869997233 1.5 unknown #
ellipse-curve $-1 -1 -1 $-1 5.2666204730655904e-012 -2.8969882048812703e-012 1.5 0 0 1 -42.675000000006001 0 0 1 F 2.6451801167162392 F 3.8533705913627401 #
point $-1 -1 -1 $-1 37.523992324924954 -20.324999999999999 1.5 #
point $-1 -1 -1 $-1 32.313585027075952 27.874501747988699 1.5 #
ellipse-curve $-1 -1 -1 $-1 35.967083509925295 31.026100363900554 0 0 0 -1 -4.8250000000000002 0 0 1 F 5.5714073694066517 F 7.382964759422979 #
coedge $-1 -1 -1 $-1 $63 $79 $134 $135 forward $36 $-1 #
coedge $-1 -1 -1 $-1 $136 $137 $63 $99 reversed $138 $-1 #
edge $-1 -1 -1 $-1 $139 -4.7448228335800202e-006 $131 0.028186035433275018 $63 $140 forward @7 unknown T 131.82500000000297 -15.494999999999999 0 131.825000000003 12.6957802561086 0 #
string_attrib-name_attrib-gen-attrib $-1 -1 $-1 $-1 $64 2 1 2 1 1 1 1 1 1 1 1 1 1 1 0 1 1 1 @15 ATTRIB_XACIS_ID @1 0 #
loop $-1 -1 -1 $-1 $36 $141 $64 T 34.689261084497751 -18.825000000015503 -4.3556941469193003e-006 129.82499999999999 34.22595784742785 4.3556941469193003e-006 unknown #
plane-surface $-1 -1 -1 $-1 5.2666204730655904e-012 -2.8969882048812703e-012 0 0 0 1 1000 0 0 forward_v I I I I #
string_attrib-name_attrib-gen-attrib $-1 -1 $-1 $-1 $68 2 1 2 1 1 1 1 1 1 1 1 1 1 1 0 1 1 1 @15 ATTRIB_XACIS_ID @1 9 #
face $142 -1 -1 $-1 $143 $119 $2 $-1 $144 forward single T 38.750247600890148 32.488617634944148 0 113.04229865274 36.382099048960896 1.5 F #
loop $-1 -1 -1 $-1 $-1 $145 $68 T 34.689261084497751 -18.825000000015503 -1.5000043556941469 129.82499999999999 34.22595784742785 -1.4999956443058531 unknown #
plane-surface $-1 -1 -1 $-1 -0.020619237023630454 -0.13747531879231639 -1.5 0 0 -1 0 -1000 0 forward_v I I I I #
coedge $-1 -1 -1 $-1 $146 $147 $148 $149 reversed $69 $-1 #
coedge $-1 -1 -1 $-1 $150 $71 $151 $152 forward $42 $-1 #
coedge $-1 -1 -1 $-1 $71 $150 $153 $154 reversed $42 $-1 #
coedge $-1 -1 -1 $-1 $155 $156 $71 $111 forward $157 $-1 #
edge $-1 -1 -1 $-1 $158 0 $159 0.0015 $110 $160 forward @7 unknown T 41.360714729581652 34.219446164300599 -1.5 41.360714729581652 34.219446164300599 0 #
coedge $-1 -1 -1 $-1 $73 $161 $75 $115 reversed $92 $-1 #
vertex $-1 -1 -1 $-1 $74 $162 #
ellipse-curve $-1 -1 -1 $-1 35.967083509925295 31.026100363900554 1.5 0 0 -1 -4.8250000000000002 0 0 1 F 5.5714073694066517 F 7.382964759422979 #
edge $-1 -1 -1 $-1 $113 1.0997794522433959 $120 1.6231562043548251 $75 $163 forward @7 unknown T 33.77753390527527 35.325693080516551 1.5 38.750247600890148 36.395563869997233 1.5 #
straight-curve $-1 -1 -1 $-1 33.777533905275298 35.325693080516551 1.5 0 0 -1000 F 0 F 0.0015 #
coedge $-1 -1 -1 $-1 $164 $77 $161 $165 forward $119 $-1 #
coedge $-1 -1 -1 $-1 $77 $164 $79 $122 reversed $119 $-1 #
loop $-1 -1 -1 $-1 $-1 $117 $104 T 38.750247600890148 32.488617634944148 0 113.04229865274 36.382099048960896 1.5 unknown #
vertex $-1 -1 -1 $-1 $78 $166 #
straight-curve $-1 -1 -1 $-1 38.750247600890148 36.382099048960896 1.5 0 0 -1000 F 0 F 0.0015 #
edge $-1 -1 -1 $-1 $81 0 $167 0.074394005450788558 $79 $168 forward @7 unknown T 38.750247600890148 32.488617634944148 0 113.04229865274 36.382099048960896 0 #
point $-1 -1 -1 $-1 33.777533905275298 35.325693080516551 0 #
point $-1 -1 -1 $-1 38.750247600890148 36.382099048960896 0 #
coedge $-1 -1 -1 $-1 $169 $83 $86 $128 forward $92 $-1 #
straight-curve $-1 -1 -1 $-1 127.000000000003 -20.324999999999999 1.5 -1000 3.8775164897304244e-014 0 F 5.0000000000050004e-006 F 0.089476007675078045 #
coedge $-1 -1 -1 $-1 $86 $85 $137 $170 reversed $87 $-1 #
edge $-1 -1 -1 $-1 $88 4.7123889803846897 $171 6.2831853071795862 $125 $172 forward @7 unknown T 126.99500000000299 -20.324999999999999 1.5 131.825000000003 -15.494999999999999 1.5 #
face $173 -1 -1 $-1 $174 $87 $2 $-1 $175 forward single T 126.99500000000299 -20.324999999999999 0 131.825000000003 -15.494999999999999 1.5 F #
point $-1 -1 -1 $-1 126.99500000000299 -20.324999999999999 1.5 #
vertex $-1 -1 -1 $-1 $90 $176 #
ellipse-curve $-1 -1 -1 $-1 126.99500000000299 -15.494999999999999 0 0 0 1 4.8300000000000001 0 0 1 F 4.7123889803846897 F 6.2831853071795862 #
face $177 -1 -1 $-1 $64 $92 $2 $-1 $178 forward single T 31.142083509925296 -20.324999999999999 1.5 131.825000000003 36.395563869997233 1.5 F #
coedge $-1 -1 -1 $-1 $179 $180 $97 $135 reversed $181 $-1 #
edge $-1 -1 -1 $-1 $167 -1.5184364492349727 $139 -0 $97 $182 reversed @7 unknown T 113.04229865274 12.6957802561086 0 131.825000000003 32.488617634944156 0 #
coedge $-1 -1 -1 $-1 $183 $98 $180 $184 forward $138 $-1 #
coedge $-1 -1 -1 $-1 $98 $183 $127 $170 forward $138 $-1 #
loop $-1 -1 -1 $-1 $-1 $183 $185 T 131.82500000000297 -15.494999999999999 0 131.825000000003 12.6957802561086 1.5 unknown #
vertex $-1 -1 -1 $-1 $135 $186 #
straight-curve $-1 -1 -1 $-1 131.825000000003 12.691035433275021 0 -9.8455325209048204e-013 -1000 0 F -4.7448228335800202e-006 F 0.028186035433275018 #
coedge $-1 -1 -1 $-1 $187 $188 $189 $190 reversed $101 $-1 #
string_attrib-name_attrib-gen-attrib $-1 -1 $-1 $-1 $104 2 1 2 1 1 1 1 1 1 1 1 1 1 1 0 1 1 1 @15 ATTRIB_XACIS_ID @2 10 #
face $191 -1 -1 $-1 $192 $193 $2 $-1 $194 forward single T 129.82499999999999 -13.995000000015501 -1.5 129.82499999999999 13.644744822798641 0 F #
plane-surface $-1 -1 -1 $-1 38.750247600890148 36.382099048960896 1.5 0.052335956243037107 0.99862953475456906 0 0 0 -1000 forward_v I I I I #
coedge $-1 -1 -1 $-1 $195 $196 $197 $198 forward $105 $-1 #
coedge $-1 -1 -1 $-1 $199 $107 $200 $201 forward $69 $-1 #
coedge $-1 -1 -1 $-1 $107 $199 $202 $203 forward $69 $-1 #
coedge $-1 -1 -1 $-1 $204 $195 $107 $149 forward $105 $-1 #
edge $-1 -1 -1 $-1 $205 5.0000000000050004e-006 $206 0.079015000000000002 $148 $207 forward @7 unknown T 45.984999999999999 -18.825000000015503 -1.5 124.99499999999999 -18.825000000015503 -1.5 #
coedge $-1 -1 -1 $-1 $109 $108 $208 $209 forward $42 $-1 #
coedge $-1 -1 -1 $-1 $210 $211 $108 $152 reversed $101 $-1 #
edge $-1 -1 -1 $-1 $158 1.5253329424499302 $212 1.6231562043546428 $108 $213 forward @7 unknown T 41.360714729581652 34.217819253519473 0 41.832520988868055 34.224431748328591 0 #
coedge $-1 -1 -1 $-1 $214 $215 $109 $154 forward $105 $-1 #
edge $-1 -1 -1 $-1 $159 1.5253329424499302 $216 1.6231562043546428 $153 $217 forward @7 unknown T 41.360714729581652 34.217819253519473 -1.5 41.832520988868055 34.224431748328591 -1.5 #
coedge $-1 -1 -1 $-1 $218 $110 $215 $219 reversed $157 $-1 #
coedge $-1 -1 -1 $-1 $110 $218 $210 $220 reversed $157 $-1 #
loop $-1 -1 -1 $-1 $-1 $156 $221 T 35.099604661212751 31.857851647036949 -1.5000043556941469 41.360714729581652 34.22595784742785 4.3556941469193003e-006 unknown #
vertex $-1 -1 -1 $-1 $220 $222 #
vertex $-1 -1 -1 $-1 $111 $223 #
straight-curve $-1 -1 -1 $-1 41.360714729581652 34.219446164300599 0 0 0 -1000 F 0 F 0.0015 #
coedge $-1 -1 -1 $-1 $112 $224 $117 $165 reversed $92 $-1 #
point $-1 -1 -1 $-1 33.777533905275298 35.325693080516551 1.5 #
ellipse-curve $-1 -1 -1 $-1 38.23604683080265 26.570563870004698 1.5 0 0 -1 -9.8249999999925386 0 0 1 F 1.0997794522433959 F 1.6231562043548251 #
coedge $-1 -1 -1 $-1 $118 $117 $179 $225 forward $119 $-1 #
edge $-1 -1 -1 $-1 $120 0 $226 0.074394005450788558 $117 $227 forward @7 unknown T 38.750247600890148 32.488617634944148 1.5 113.04229865274 36.382099048960896 1.5 #
point $-1 -1 -1 $-1 38.750247600890148 36.382099048960896 1.5 #
vertex $-1 -1 -1 $-1 $135 $228 #
straight-curve $-1 -1 -1 $-1 38.750247600890148 36.382099048960896 0 998.62953475456891 -52.335956243037103 0 F 0 F 0.074394005450788558 #
coedge $-1 -1 -1 $-1 $224 $125 $183 $229 reversed $92 $-1 #
edge $-1 -1 -1 $-1 $171 0 $131 0.0015 $137 $230 forward @7 unknown T 131.825000000003 -15.494999999999999 0 131.825000000003 -15.494999999999999 1.5 #
vertex $-1 -1 -1 $-1 $128 $231 #
ellipse-curve $-1 -1 -1 $-1 126.99500000000299 -15.494999999999999 1.5 0 0 1 4.8300000000000001 0 0 1 F 4.7123889803846897 F 6.2831853071795862 #
string_attrib-name_attrib-gen-attrib $-1 -1 $-1 $-1 $129 2 1 2 1 1 1 1 1 1 1 1 1 1 1 0 1 1 1 @15 ATTRIB_XACIS_ID @1 2 #
face $232 -1 -1 $-1 $233 $234 $2 $-1 $235 forward single T 124.99499999999999 -18.825000000015503 -1.5 129.82499999999999 -13.9950000000155 0 F #
cone-surface $-1 -1 -1 $-1 126.99500000000299 -15.494999999999999 1.5 -0 -0 1 -4.8300000000000001 0 0 1 I I -0 1 4.8300000000000001 forward I I I I #
point $-1 -1 -1 $-1 131.825000000003 -15.494999999999999 0 #
string_attrib-name_attrib-gen-attrib $-1 -1 $-1 $-1 $133 2 1 2 1 1 1 1 1 1 1 1 1 1 1 0 1 1 1 @15 ATTRIB_XACIS_ID @2 11 #
plane-surface $-1 -1 -1 $-1 5.2666204730655904e-012 -2.8969882048812703e-012 1.5 0 0 1 1000 0 0 forward_v I I I I #
coedge $-1 -1 -1 $-1 $236 $134 $164 $225 reversed $181 $-1 #
coedge $-1 -1 -1 $-1 $134 $236 $136 $184 reversed $181 $-1 #
loop $-1 -1 -1 $-1 $-1 $236 $237 T 113.04229865274 12.6957802561086 0 131.825000000003 32.488617634944156 1.5 unknown #
ellipse-curve $-1 -1 -1 $-1 112.00500000000299 12.6957802561086 0 0 0 1 19.82 0 0 1 F 0 F 1.5184364492349727 #
coedge $-1 -1 -1 $-1 $137 $136 $169 $229 forward $138 $-1 #
edge $-1 -1 -1 $-1 $139 -0.0015 $238 -0 $136 $239 reversed @7 unknown T 131.825000000003 12.6957802561086 0 131.825000000003 12.6957802561086 1.5 #
face $240 -1 -1 $-1 $241 $138 $2 $-1 $242 forward single T 131.82500000000297 -15.494999999999999 0 131.825000000003 12.6957802561086 1.5 F #
point $-1 -1 -1 $-1 131.825000000003 12.6957802561086 0 #
coedge $-1 -1 -1 $-1 $211 $141 $243 $244 forward $101 $-1 #
coedge $-1 -1 -1 $-1 $141 $245 $246 $247 forward $101 $-1 #
coedge $-1 -1 -1 $-1 $248 $249 $141 $190 forward $193 $-1 #
edge $-1 -1 -1 $-1 $250 -4.7448228335800202e-006 $251 0.027634999999980561 $189 $252 forward @7 unknown T 129.82499999999999 -13.995000000015501 0 129.82499999999999 13.644744822798641 0 #
string_attrib-name_attrib-gen-attrib $-1 -1 $-1 $-1 $143 2 1 2 1 1 1 1 1 1 1 1 1 1 1 0 1 1 1 @15 ATTRIB_XACIS_ID @2 14 #
face $253 -1 -1 $-1 $185 $254 $2 $-1 $255 forward single T 41.832520988868055 30.441693597370641 -1.5 113.88529078400504 34.217819253519501 0 F #
loop $-1 -1 -1 $-1 $-1 $189 $143 T 129.82499999999999 -13.995000000015501 -1.5 129.82499999999999 13.644744822798641 0 unknown #
plane-surface $-1 -1 -1 $-1 129.82499999999999 13.63999999996506 0 1 0 0 0 1000 0 forward_v I I I I #
coedge $-1 -1 -1 $-1 $148 $145 $256 $257 forward $105 $-1 #
coedge $-1 -1 -1 $-1 $145 $214 $258 $259 forward $105 $-1 #
coedge $-1 -1 -1 $-1 $249 $248 $145 $198 reversed $193 $-1 #
edge $-1 -1 -1 $-1 $260 -4.7448228335800202e-006 $261 0.027634999999980561 $145 $262 forward @7 unknown T 129.82499999999999 -13.995000000015501 -1.5 129.82499999999999 13.644744822798641 -1.5 #
coedge $-1 -1 -1 $-1 $147 $146 $245 $263 forward $69 $-1 #
coedge $-1 -1 -1 $-1 $256 $246 $146 $201 reversed $234 $-1 #
edge $-1 -1 -1 $-1 $205 -0.0015 $264 -0 $146 $265 reversed @7 unknown T 124.99499999999999 -18.825000000015503 -1.5 124.99499999999999 -18.825000000015503 0 #
coedge $-1 -1 -1 $-1 $266 $267 $147 $203 reversed $268 $-1 #
edge $-1 -1 -1 $-1 $269 5.0000000000000002e-005 $206 0.0015499999999999999 $147 $270 forward @7 unknown T 45.984999999999999 -18.825000000015503 -1.5 45.984999999999999 -18.825000000015503 0 #
coedge $-1 -1 -1 $-1 $271 $148 $267 $272 forward $105 $-1 #
vertex $-1 -1 -1 $-1 $257 $273 #
vertex $-1 -1 -1 $-1 $149 $274 #
straight-curve $-1 -1 -1 $-1 125 -18.825000000015503 -1.5 -1000 0 0 F 5.0000000000050004e-006 F 0.079015000000000002 #
coedge $-1 -1 -1 $-1 $275 $276 $150 $209 reversed $254 $-1 #
edge $-1 -1 -1 $-1 $212 0 $216 0.0015 $150 $277 forward @7 unknown T 41.832520988868055 34.217819253519501 -1.5 41.832520988868055 34.217819253519501 0 #
coedge $-1 -1 -1 $-1 $278 $151 $156 $220 forward $101 $-1 #
coedge $-1 -1 -1 $-1 $151 $187 $275 $279 reversed $101 $-1 #
vertex $-1 -1 -1 $-1 $152 $280 #
ellipse-curve $-1 -1 -1 $-1 41.579999999997895 29.399431748359998 0 0 0 -1 -4.8249999999685906 0 0 1 F 1.5253329424499302 F 1.6231562043546428 #
coedge $-1 -1 -1 $-1 $196 $153 $276 $281 forward $105 $-1 #
coedge $-1 -1 -1 $-1 $153 $282 $155 $219 forward $105 $-1 #
vertex $-1 -1 -1 $-1 $154 $283 #
ellipse-curve $-1 -1 -1 $-1 41.579999999997895 29.399431748359998 -1.5 0 0 -1 -4.8249999999685906 0 0 1 F 1.5253329424499302 F 1.6231562043546428 #
coedge $-1 -1 -1 $-1 $156 $155 $284 $285 reversed $157 $-1 #
edge $-1 -1 -1 $-1 $286 2.3813071916868931 $159 3.1805096942697393 $215 $287 forward @7 unknown T 35.099604661212751 31.857851647036949 -1.5000043556941469 41.360714729581652 34.22595784742785 -1.4999956443058531 #
edge $-1 -1 -1 $-1 $158 1.5318792861149502 $288 2.3310817886977966 $210 $289 forward @7 unknown T 35.099604661212751 31.857851647036949 -4.3556941469193003e-006 41.360714729581652 34.22595784742785 4.3556941469193003e-006 #
face $290 -1 -1 $-1 $291 $157 $2 $-1 $292 forward single T 35.099604661212751 31.857851647036949 -1.5000043556941469 41.360714729581652 34.22595784742785 4.3556941469193003e-006 F #
point $-1 -1 -1 $-1 41.360714729581652 34.219446164300599 0 #
point $-1 -1 -1 $-1 41.360714729581652 34.219446164300599 -1.5 #
coedge $-1 -1 -1 $-1 $161 $169 $236 $293 forward $92 $-1 #
edge $-1 -1 -1 $-1 $226 0 $167 0.0015 $164 $294 forward @7 unknown T 113.04229865274 32.488617634944148 0 113.04229865274 32.488617634944148 1.5 #
vertex $-1 -1 -1 $-1 $293 $295 #
straight-curve $-1 -1 -1 $-1 38.750247600890148 36.382099048960896 1.5 998.62953475456891 -52.335956243037103 0 F 0 F 0.074394005450788558 #
point $-1 -1 -1 $-1 113.04229865274 32.488617634944148 0 #
edge $-1 -1 -1 $-1 $238 -4.7448228335800202e-006 $171 0.028186035433275018 $183 $296 forward @7 unknown T 131.82500000000297 -15.494999999999999 1.5 131.825000000003 12.6957802561086 1.5 #
straight-curve $-1 -1 -1 $-1 131.825000000003 -15.494999999999999 1.5 0 0 -1000 F 0 F 0.0015 #
point $-1 -1 -1 $-1 131.825000000003 -15.494999999999999 1.5 #
string_attrib-name_attrib-gen-attrib $-1 -1 $-1 $-1 $174 2 1 2 1 1 1 1 1 1 1 1 1 1 1 0 1 1 1 @15 ATTRIB_XACIS_ID @2 18 #
face $297 -1 -1 $-1 $298 $299 $2 $-1 $300 forward single T 42.909940305902403 -18.413057330087849 -1.5 43.800139529437907 -16.605550785152897 0 F #
loop $-1 -1 -1 $-1 $-1 $246 $174 T 124.99499999999999 -18.825000000015503 -1.5 129.82499999999999 -13.9950000000155 0 unknown #
cone-surface $-1 -1 -1 $-1 124.99499999999999 -13.9950000000155 0 -0 -0 1 -4.8300000000000001 0 0 1 I I -0 1 4.8300000000000001 forward I I I I #
coedge $-1 -1 -1 $-1 $180 $179 $224 $293 reversed $181 $-1 #
face $301 -1 -1 $-1 $129 $181 $2 $-1 $302 forward single T 113.04229865274 12.6957802561086 0 131.825000000003 32.488617634944156 1.5 F #
vertex $-1 -1 -1 $-1 $184 $303 #
straight-curve $-1 -1 -1 $-1 131.825000000003 12.6957802561086 1.5 0 0 -1000 F 0 F 0.0015 #
string_attrib-name_attrib-gen-attrib $-1 -1 $-1 $-1 $185 2 1 2 1 1 1 1 1 1 1 1 1 1 1 0 1 1 1 @15 ATTRIB_XACIS_ID @2 21 #
face $304 -1 -1 $-1 $237 $305 $2 $-1 $306 forward single T 113.88529078400481 13.644744822798641 -1.5 129.82499999999999 30.441693597370648 0 F #
plane-surface $-1 -1 -1 $-1 131.825000000003 12.691035433275021 1.5 1 -9.8455325209048199e-016 0 0 0 1000 forward_v I I I I #
coedge $-1 -1 -1 $-1 $307 $308 $187 $244 reversed $305 $-1 #
edge $-1 -1 -1 $-1 $250 0 $309 1.5184364492351448 $187 $310 forward @7 unknown T 113.88529078400499 13.644744822798641 0 129.82499999999999 30.441693597370648 0 #
coedge $-1 -1 -1 $-1 $188 $311 $199 $263 reversed $101 $-1 #
coedge $-1 -1 -1 $-1 $200 $312 $188 $247 reversed $234 $-1 #
edge $-1 -1 -1 $-1 $264 4.7123889803846897 $251 6.2831853071795862 $188 $313 forward @7 unknown T 124.99499999999999 -18.825000000015503 0 129.82499999999999 -13.9950000000155 0 #
coedge $-1 -1 -1 $-1 $197 $189 $312 $314 forward $193 $-1 #
coedge $-1 -1 -1 $-1 $189 $197 $307 $315 forward $193 $-1 #
vertex $-1 -1 -1 $-1 $244 $316 #
vertex $-1 -1 -1 $-1 $247 $317 #
straight-curve $-1 -1 -1 $-1 129.82499999999999 13.63999999996506 0 0 -1000 0 F -4.7448228335800202e-006 F 0.027634999999980561 #
string_attrib-name_attrib-gen-attrib $-1 -1 $-1 $-1 $192 2 1 2 1 1 1 1 1 1 1 1 1 1 1 0 1 1 1 @15 ATTRIB_XACIS_ID @2 17 #
loop $-1 -1 -1 $-1 $-1 $275 $192 T 41.832520988868055 30.441693597370641 -1.5 113.88529078400504 34.217819253519501 0 unknown #
plane-surface $-1 -1 -1 $-1 41.832520988868055 34.217819253519501 0 0.052335956242854635 0.99862953475457861 0 0 0 -1000 forward_v I I I I #
coedge $-1 -1 -1 $-1 $312 $200 $195 $257 reversed $234 $-1 #
edge $-1 -1 -1 $-1 $261 3.1415926535897931 $205 4.7123889803846897 $195 $318 forward @7 unknown T 124.99499999999999 -18.825000000015503 -1.5 129.82499999999999 -13.9950000000155 -1.5 #
coedge $-1 -1 -1 $-1 $308 $307 $196 $259 reversed $305 $-1 #
edge $-1 -1 -1 $-1 $319 1.6231562043546486 $260 3.1415926535897931 $196 $320 forward @7 unknown T 113.88529078400499 13.644744822798641 -1.5 129.82499999999999 30.441693597370648 -1.5 #
vertex $-1 -1 -1 $-1 $259 $321 #
vertex $-1 -1 -1 $-1 $257 $322 #
straight-curve $-1 -1 -1 $-1 129.82499999999999 13.63999999996506 -1.5 0 -1000 0 F -4.7448228335800202e-006 F 0.027634999999980561 #
edge $-1 -1 -1 $-1 $264 5.0000000000050004e-006 $269 0.079015000000000002 $199 $323 forward @7 unknown T 45.984999999999999 -18.825000000015503 0 124.99499999999999 -18.825000000015503 0 #
vertex $-1 -1 -1 $-1 $201 $324 #
straight-curve $-1 -1 -1 $-1 124.99499999999999 -18.825000000015503 0 0 0 -1000 F 0 F 0.0015 #
coedge $-1 -1 -1 $-1 $325 $202 $311 $326 reversed $268 $-1 #
coedge $-1 -1 -1 $-1 $202 $325 $204 $272 reversed $268 $-1 #
loop $-1 -1 -1 $-1 $-1 $266 $298 T 43.800139529437899 -18.825000000015503 -1.5 45.984999999999999 -18.413057330087838 0 unknown #
vertex $-1 -1 -1 $-1 $263 $327 #
straight-curve $-1 -1 -1 $-1 45.984999999999999 -18.825000000015503 0.050000000000000003 0 0 -1000 F 5.0000000000000002e-005 F 0.0015499999999999999 #
coedge $-1 -1 -1 $-1 $328 $204 $329 $330 forward $105 $-1 #
edge $-1 -1 -1 $-1 $206 3.1415926535897931 $331 3.5143055565474861 $204 $332 forward @7 unknown T 43.800139529437899 -18.825000000015503 -1.5 45.984999999999999 -18.413057330087838 -1.5 #
point $-1 -1 -1 $-1 124.99499999999999 -18.825000000015503 -1.5 #
point $-1 -1 -1 $-1 45.984999999999999 -18.825000000015503 -1.5 #
coedge $-1 -1 -1 $-1 $333 $208 $211 $279 forward $254 $-1 #
coedge $-1 -1 -1 $-1 $208 $333 $214 $281 reversed $254 $-1 #
straight-curve $-1 -1 -1 $-1 41.832520988868055 34.217819253519501 0 0 0 -1000 F 0 F 0.0015 #
coedge $-1 -1 -1 $-1 $334 $210 $335 $336 forward $101 $-1 #
edge $-1 -1 -1 $-1 $212 0 $309 0.072151651125404101 $275 $337 forward @7 unknown T 41.832520988868055 30.441693597370641 0 113.88529078400504 34.217819253519501 0 #
point $-1 -1 -1 $-1 41.832520988868055 34.217819253519501 0 #
edge $-1 -1 -1 $-1 $216 0 $319 0.072151651125404101 $214 $338 forward @7 unknown T 41.832520988868055 30.441693597370641 -1.5 113.88529078400504 34.217819253519501 -1.5 #
coedge $-1 -1 -1 $-1 $215 $328 $339 $340 forward $105 $-1 #
point $-1 -1 -1 $-1 41.832520988868055 34.217819253519501 -1.5 #
coedge $-1 -1 -1 $-1 $339 $335 $218 $285 forward $341 $-1 #
edge $-1 -1 -1 $-1 $288 -0.00075000000000000002 $286 0.00075000000000000002 $284 $342 forward @7 unknown T 35.099604661212751 31.857851647036949 -1.5000043556941469 35.099613372601041 31.857860358425246 4.3556941469193003e-006 #
tvertex-vertex $-1 -1 -1 $-1 $285 $343 4.3556941469193003e-006 #
ellipse-curve $-1 -1 -1 $-1 41.026112655811247 25.625957847427852 -1.5 0 0 -1 0 -8.5999999999999996 0 1 F 2.3813071916868931 F 3.1805096942697393 #
tvertex-vertex $-1 -1 -1 $-1 $336 $344 4.3556941469193003e-006 #
ellipse-curve $-1 -1 -1 $-1 41.026112655811247 25.625957847427852 0 0 0 1 8.5999999999999996 0 0 1 F 1.5318792861149502 F 2.3310817886977966 #
string_attrib-name_attrib-gen-attrib $-1 -1 $-1 $-1 $221 2 1 2 1 1 1 1 1 1 1 1 1 1 1 0 1 1 1 @15 ATTRIB_XACIS_ID @2 20 #
face $345 -1 -1 $-1 $133 $346 $2 $-1 $347 reversed single T 35.006123101921126 -16.605550785152914 -1.5000036848694196 46.096512590780954 30.043363045791718 3.6848694195038019e-006 F #
cone-surface $-1 -1 -1 $-1 41.026112655811247 25.625957847427852 0.050000000000000003 -0 -0 1 -8.5999999999999996 0 0 1 I I -0 1 8.5999999999999996 forward I I I I #
edge $-1 -1 -1 $-1 $238 0 $226 1.5184364492349727 $224 $348 forward @7 unknown T 113.04229865274 12.6957802561086 1.5 131.825000000003 32.488617634944156 1.5 #
straight-curve $-1 -1 -1 $-1 113.04229865274 32.488617634944148 1.5 0 0 -1000 F 0 F 0.0015 #
point $-1 -1 -1 $-1 113.04229865274 32.488617634944148 1.5 #
straight-curve $-1 -1 -1 $-1 131.825000000003 12.691035433275021 1.5 -9.8455325209048204e-013 -1000 0 F -4.7448228335800202e-006 F 0.028186035433275018 #
string_attrib-name_attrib-gen-attrib $-1 -1 $-1 $-1 $233 2 1 2 1 1 1 1 1 1 1 1 1 1 1 0 1 1 1 @15 ATTRIB_XACIS_ID @1 5 #
face $349 -1 -1 $-1 $350 $268 $2 $-1 $351 forward single T 43.800139529437899 -18.825000000015503 -1.5 45.984999999999999 -18.413057330087838 0 F #
loop $-1 -1 -1 $-1 $-1 $352 $233 T 42.909940305902403 -18.413057330087849 -1.5 43.800139529437907 -16.605550785152897 0 unknown #
cone-surface $-1 -1 -1 $-1 44.309940305902401 -17.1091772864043 0.050000000000000003 -0 -0 1 -1.3999999999999999 0 0 1 I I -0 1 1.3999999999999999 forward I I I I #
string_attrib-name_attrib-gen-attrib $-1 -1 $-1 $-1 $237 2 1 2 1 1 1 1 1 1 1 1 1 1 1 0 1 1 1 @15 ATTRIB_XACIS_ID @1 4 #
cone-surface $-1 -1 -1 $-1 112.00500000000299 12.6957802561086 1.5 -0 -0 1 -19.82 0 0 1 I I -0 1 19.82 forward I I I I #
point $-1 -1 -1 $-1 131.825000000003 12.6957802561086 1.5 #
string_attrib-name_attrib-gen-attrib $-1 -1 $-1 $-1 $241 2 1 2 1 1 1 1 1 1 1 1 1 1 1 0 1 1 1 @15 ATTRIB_XACIS_ID @2 12 #
loop $-1 -1 -1 $-1 $-1 $258 $241 T 113.88529078400481 13.644744822798641 -1.5 129.82499999999999 30.441693597370648 0 unknown #
cone-surface $-1 -1 -1 $-1 113.005 13.644744822798641 0 -0 -0 -1 16.82 0 0 1 I I -0 1 16.82 forward I I I I #
coedge $-1 -1 -1 $-1 $258 $243 $249 $315 reversed $305 $-1 #
coedge $-1 -1 -1 $-1 $243 $258 $333 $353 reversed $305 $-1 #
vertex $-1 -1 -1 $-1 $244 $354 #
ellipse-curve $-1 -1 -1 $-1 113.005 13.644744822798641 0 0 0 1 16.82 0 0 1 F 0 F 1.5184364492351448 #
coedge $-1 -1 -1 $-1 $245 $355 $266 $326 forward $101 $-1 #
coedge $-1 -1 -1 $-1 $246 $256 $248 $314 reversed $234 $-1 #
ellipse-curve $-1 -1 -1 $-1 124.99499999999999 -13.9950000000155 0 0 0 1 4.8300000000000001 0 0 1 F 4.7123889803846897 F 6.2831853071795862 #
edge $-1 -1 -1 $-1 $251 0 $261 0.0015 $248 $356 forward @7 unknown T 129.82499999999999 -13.9950000000155 -1.5 129.82499999999999 -13.9950000000155 0 #
edge $-1 -1 -1 $-1 $260 -0.0015 $250 0 $249 $357 forward @7 unknown T 129.82499999999999 13.644744822798641 -1.5 129.82499999999999 13.644744822798641 0 #
point $-1 -1 -1 $-1 129.82499999999999 13.644744822798641 0 #
point $-1 -1 -1 $-1 129.82499999999999 -13.9950000000155 0 #
ellipse-curve $-1 -1 -1 $-1 124.99499999999999 -13.9950000000155 -1.5 0 0 -1 -4.8300000000000001 0 0 1 F 3.1415926535897931 F 4.7123889803846897 #
vertex $-1 -1 -1 $-1 $353 $358 #
ellipse-curve $-1 -1 -1 $-1 113.005 13.644744822798641 -1.5 0 0 -1 -16.82 0 0 1 F 1.6231562043546486 F 3.1415926535897931 #
point $-1 -1 -1 $-1 129.82499999999999 13.644744822798641 -1.5 #
point $-1 -1 -1 $-1 129.82499999999999 -13.9950000000155 -1.5 #
straight-curve $-1 -1 -1 $-1 125 -18.825000000015503 0 -1000 0 0 F 5.0000000000050004e-006 F 0.079015000000000002 #
point $-1 -1 -1 $-1 124.99499999999999 -18.825000000015503 0 #
coedge $-1 -1 -1 $-1 $267 $266 $359 $360 forward $268 $-1 #
edge $-1 -1 -1 $-1 $361 4.3396760774269962 $269 4.7123889803846897 $311 $362 forward @7 unknown T 43.800139529437899 -18.825000000015503 0 45.984999999999999 -18.413057330087838 0 #
point $-1 -1 -1 $-1 45.984999999999999 -18.825000000015503 0 #
coedge $-1 -1 -1 $-1 $282 $271 $363 $364 forward $105 $-1 #
coedge $-1 -1 -1 $-1 $359 $365 $271 $330 reversed $299 $-1 #
edge $-1 -1 -1 $-1 $331 5.0851018833423902 $366 6.6511672587670319 $271 $367 forward @7 unknown T 42.909940305902403 -18.413057330087849 -1.5 43.800139529437907 -16.605550785152897 -1.5 #
vertex $-1 -1 -1 $-1 $360 $368 #
ellipse-curve $-1 -1 -1 $-1 45.984999999999999 -12.8250000000155 -1.5 0 0 -1 0 6 0 1 F 3.1415926535897931 F 3.5143055565474861 #
coedge $-1 -1 -1 $-1 $276 $275 $308 $353 forward $254 $-1 #
coedge $-1 -1 -1 $-1 $355 $278 $369 $370 forward $101 $-1 #
coedge $-1 -1 -1 $-1 $284 $371 $278 $336 reversed $341 $-1 #
edge $-1 -1 -1 $-1 $288 2.3310845819900257 $372 3.8491524471074627 $278 $373 forward @7 unknown T 34.689261084497751 30.043355676052879 -4.3556941469193003e-006 35.099613372601041 31.857860358425246 4.3556941469193003e-006 #
straight-curve $-1 -1 -1 $-1 41.832520988868055 34.217819253519501 0 998.62953475457869 -52.335956242854586 0 F 0 F 0.072151651125404101 #
straight-curve $-1 -1 -1 $-1 41.832520988868055 34.217819253519501 -1.5 998.62953475457869 -52.335956242854586 0 F 0 F 0.072151651125404101 #
coedge $-1 -1 -1 $-1 $371 $284 $282 $340 reversed $341 $-1 #
edge $-1 -1 -1 $-1 $374 0.86323653327722683 $286 2.3813043983946645 $282 $375 forward @7 unknown T 34.689261084497751 30.043355676052879 -1.5000043556941469 35.099613372601041 31.857860358425246 -1.4999956443058531 #
loop $-1 -1 -1 $-1 $-1 $335 $350 T 34.689261084497751 30.043355676052879 -1.5000043556941469 35.099613372601041 31.857860358425246 4.3556941469193003e-006 unknown #
straight-curve $-1 -1 -1 $-1 35.099612173215647 31.85785900436175 -0.75 0 0 -1000 F -0.00075000000000000002 F 0.00075000000000000002 #
point $-1 -1 -1 $-1 35.099609016906896 31.857856002731097 -1.5 #
point $-1 -1 -1 $-1 35.099609016906896 31.857856002731097 0 #
string_attrib-name_attrib-gen-attrib $-1 -1 $-1 $-1 $291 2 1 2 1 1 1 1 1 1 1 1 1 1 1 0 1 1 1 @15 ATTRIB_XACIS_ID @1 8 #
loop $-1 -1 -1 $-1 $-1 $369 $291 T 35.006123101921126 -16.605550785152914 -1.5000036848694196 46.096512590780954 30.043363045791718 3.6848694195038019e-006 unknown #
cone-surface $-1 -1 -1 $-1 -0.10348740921904 0.014123756142511022 0.050000000000000003 -0 -0 1 -46.199999999999996 0 0 1 I I -0 1 46.199999999999996 forward I I I I #
ellipse-curve $-1 -1 -1 $-1 112.00500000000299 12.6957802561086 1.5 0 0 1 19.82 0 0 1 F 0 F 1.5184364492349727 #
string_attrib-name_attrib-gen-attrib $-1 -1 $-1 $-1 $298 2 1 2 1 1 1 1 1 1 1 1 1 1 1 0 1 1 1 @15 ATTRIB_XACIS_ID @2 19 #
face $376 -1 -1 $-1 $221 $341 $2 $-1 $377 forward single T 34.689261084497751 30.043355676052879 -1.5000043556941469 35.099613372601041 31.857860358425246 4.3556941469193003e-006 F #
cone-surface $-1 -1 -1 $-1 45.984999999999999 -12.8250000000155 0.050000000000000003 -0 -0 1 -6 0 0 1 I I -0 1 6 forward I I I I #
coedge $-1 -1 -1 $-1 $365 $359 $355 $378 reversed $299 $-1 #
edge $-1 -1 -1 $-1 $309 -0 $319 0.0015 $333 $379 reversed @7 unknown T 113.88529078400481 30.441693597370648 -1.5 113.88529078400499 30.441693597370648 0 #
point $-1 -1 -1 $-1 113.88529078400499 30.441693597370648 0 #
coedge $-1 -1 -1 $-1 $311 $334 $352 $378 forward $101 $-1 #
straight-curve $-1 -1 -1 $-1 129.82499999999999 -13.9950000000155 0 0 0 -1000 F 0 F 0.0015 #
straight-curve $-1 -1 -1 $-1 129.82499999999999 13.644744822798641 0 0 0 1000 F -0.0015 F 0 #
point $-1 -1 -1 $-1 113.88529078400499 30.441693597370648 -1.5 #
coedge $-1 -1 -1 $-1 $352 $329 $325 $360 reversed $299 $-1 #
edge $-1 -1 -1 $-1 $361 0 $331 0.0015 $325 $380 forward @7 unknown T 43.800139529437899 -18.413057330087849 -1.5 43.800139529437899 -18.413057330087849 0 #
vertex $-1 -1 -1 $-1 $326 $381 #
ellipse-curve $-1 -1 -1 $-1 45.984999999999999 -12.8250000000155 0 0 0 1 6 0 0 1 F 4.3396760774269962 F 4.7123889803846897 #
coedge $-1 -1 -1 $-1 $382 $383 $328 $364 reversed $346 $-1 #
edge $-1 -1 -1 $-1 $366 1.2028143752074589 $374 2.2783589916393865 $328 $384 forward @7 unknown T 35.006123101921126 -16.605550785152904 -1.5000036848694196 46.096512590780954 30.043363045791718 -1.4999963151305804 #
coedge $-1 -1 -1 $-1 $329 $352 $382 $385 forward $299 $-1 #
vertex $-1 -1 -1 $-1 $385 $386 #
ellipse-curve $-1 -1 -1 $-1 44.309940305902401 -17.1091772864043 -1.5 0 0 -1 -1.3999999999999999 0 0 1 F 5.0851018833423902 F 6.6511672587670319 #
point $-1 -1 -1 $-1 43.800139529437899 -18.413057330087849 -1.5 #
coedge $-1 -1 -1 $-1 $383 $382 $334 $370 reversed $346 $-1 #
edge $-1 -1 -1 $-1 $372 -6.9907479720240762 $387 -5.9152033555921486 $334 $388 reversed @7 unknown T 35.006123101921126 -16.605550785152914 -3.6848694195038019e-006 46.096512590780954 30.043363045791718 3.6848694195038019e-006 #
coedge $-1 -1 -1 $-1 $335 $339 $383 $389 reversed $341 $-1 #
tvertex-vertex $-1 -1 -1 $-1 $370 $390 3.6848694195038019e-006 #
ellipse-curve $-1 -1 -1 $-1 36.009261084497751 30.90133464073935 0 0 0 1 1.3200000000000001 0 0 1 F 2.3310845819900257 F 3.8491524471074627 #
tvertex-vertex $-1 -1 -1 $-1 $389 $391 3.6848694195038019e-006 #
ellipse-curve $-1 -1 -1 $-1 36.009261084497751 30.90133464073935 -1.5 0 0 -1 0 -1.3200000000000001 0 1 F 0.86323653327722683 F 2.3813043983946645 #
string_attrib-name_attrib-gen-attrib $-1 -1 $-1 $-1 $350 2 1 2 1 1 1 1 1 1 1 1 1 1 1 0 1 1 1 @15 ATTRIB_XACIS_ID @1 6 #
cone-surface $-1 -1 -1 $-1 36.009261084497751 30.90133464073935 0.050000000000000003 -0 -0 1 -1.3200000000000001 0 0 1 I I -0 1 1.3200000000000001 forward I I I I #
edge $-1 -1 -1 $-1 $387 2.7736107020023475 $361 4.3396760774269891 $355 $392 forward @7 unknown T 42.909940305902403 -18.413057330087849 0 43.800139529437899 -16.605550785152897 0 #
straight-curve $-1 -1 -1 $-1 113.88529078400481 30.441693597370648 0 0 0 1000 F -0.0015 F 0 #
straight-curve $-1 -1 -1 $-1 43.800139529437899 -18.413057330087849 0 0 0 -1000 F 0 F 0.0015 #
point $-1 -1 -1 $-1 43.800139529437899 -18.413057330087849 0 #
coedge $-1 -1 -1 $-1 $369 $363 $365 $385 reversed $346 $-1 #
coedge $-1 -1 -1 $-1 $363 $369 $371 $389 forward $346 $-1 #
ellipse-curve $-1 -1 -1 $-1 -0.10348740921904 0.014123756142511022 -1.5 0 0 1 0 -46.199999999999996 0 1 F 1.2028143752074589 F 2.2783589916393865 #
edge $-1 -1 -1 $-1 $387 -0.00075000000000000002 $366 0.00075000000000000002 $365 $393 forward @7 unknown T 43.003663020163501 -16.605550785152897 -1.5 43.003663020163501 -16.605550785152897 0 #
point $-1 -1 -1 $-1 43.003663020163501 -16.605550785152897 -1.5 #
vertex $-1 -1 -1 $-1 $378 $394 #
ellipse-curve $-1 -1 -1 $-1 -0.10348740921904 0.014123756142511022 0 0 0 1 46.199999999999996 0 0 1 F 5.9152033555921486 F 6.9907479720240762 #
edge $-1 -1 -1 $-1 $372 -0.00075000000000000002 $374 0.00075000000000000002 $383 $395 forward @7 unknown T 35.006123101921126 30.043355676052879 -1.5000036848694196 35.006130471659965 30.043363045791718 3.6848694195038019e-006 #
point $-1 -1 -1 $-1 35.006126786790546 30.043359360922299 0 #
point $-1 -1 -1 $-1 35.006126786790546 30.043359360922299 -1.5 #
ellipse-curve $-1 -1 -1 $-1 44.309940305902401 -17.1091772864043 0 0 0 1 1.3999999999999999 0 0 1 F 2.7736107020023475 F 4.3396760774269891 #
straight-curve $-1 -1 -1 $-1 43.003663020163501 -16.605550785152897 -0.75 0 0 -1000 F -0.00075000000000000002 F 0.00075000000000000002 #
point $-1 -1 -1 $-1 43.003663020163501 -16.605550785152897 0 #
straight-curve $-1 -1 -1 $-1 35.006129181894494 30.043356560611652 -0.75 0 0 -1000 F -0.00075000000000000002 F 0.00075000000000000002 #
End-of-ACIS-data 