G75*
G70*
%OFA0B0*%
%FSLAX24Y24*%
%IPPOS*%
%LPD*%
%AMOC8*
5,1,8,0,0,1.08239X$1,22.5*
%
%ADD10C,0.0160*%
%ADD11C,0.0220*%
%ADD12C,0.0050*%
%ADD13C,0.0060*%
%ADD14C,0.0070*%
%ADD15C,0.0080*%
%ADD16C,0.0040*%
%ADD17R,0.0193X0.0598*%
%ADD18R,0.0180X0.0300*%
%ADD19C,0.0010*%
D10*
X006910Y003949D02*
X006910Y014737D01*
X006516Y015130D01*
X005571Y015130D01*
X003918Y016784D01*
X003918Y020288D01*
X004233Y020603D01*
X012619Y020603D01*
X016319Y016508D01*
X016319Y009973D01*
X015807Y009461D01*
X014548Y009461D01*
X014311Y009225D01*
X014311Y005012D01*
X013642Y004343D01*
X013603Y004343D02*
X012776Y003516D01*
X007343Y003516D01*
X006910Y003949D01*
D11*
X007855Y006772D02*
X007855Y006796D01*
X008394Y009776D02*
X008418Y009776D01*
X012095Y010800D02*
X012119Y010800D01*
X015244Y010800D02*
X015268Y010800D01*
X012658Y006481D02*
X012658Y006457D01*
X007469Y017496D02*
X007469Y017520D01*
D12*
X006305Y016976D02*
X006305Y016625D01*
X006188Y016625D02*
X006422Y016625D01*
X006188Y016859D02*
X006305Y016976D01*
X006053Y016917D02*
X005995Y016976D01*
X005878Y016976D01*
X005820Y016917D01*
X005820Y016684D01*
X005878Y016625D01*
X005995Y016625D01*
X006053Y016684D01*
X005987Y020736D02*
X005686Y020736D01*
X005836Y020736D02*
X005836Y021186D01*
X005686Y021036D01*
X005526Y020961D02*
X005451Y020886D01*
X005226Y020886D01*
X005226Y020736D02*
X005226Y021186D01*
X005451Y021186D01*
X005526Y021111D01*
X005526Y020961D01*
X005066Y021186D02*
X004916Y021186D01*
X004991Y021186D02*
X004991Y020811D01*
X004916Y020736D01*
X004841Y020736D01*
X004766Y020811D01*
X014161Y017328D02*
X014236Y017253D01*
X014311Y017253D01*
X014386Y017328D01*
X014386Y017704D01*
X014311Y017704D02*
X014461Y017704D01*
X014621Y017704D02*
X014846Y017704D01*
X014921Y017629D01*
X014921Y017478D01*
X014846Y017403D01*
X014621Y017403D01*
X014621Y017253D02*
X014621Y017704D01*
X015082Y017629D02*
X015157Y017704D01*
X015307Y017704D01*
X015382Y017629D01*
X015382Y017554D01*
X015307Y017478D01*
X015382Y017403D01*
X015382Y017328D01*
X015307Y017253D01*
X015157Y017253D01*
X015082Y017328D01*
X015232Y017478D02*
X015307Y017478D01*
X015235Y015066D02*
X015160Y014991D01*
X015235Y015066D02*
X015385Y015066D01*
X015461Y014991D01*
X015461Y014916D01*
X015160Y014615D01*
X015461Y014615D01*
X015000Y014841D02*
X014925Y014766D01*
X014700Y014766D01*
X014700Y014615D02*
X014700Y015066D01*
X014925Y015066D01*
X015000Y014991D01*
X015000Y014841D01*
X014540Y015066D02*
X014390Y015066D01*
X014465Y015066D02*
X014465Y014691D01*
X014390Y014615D01*
X014315Y014615D01*
X014239Y014691D01*
X014051Y009834D02*
X013818Y009834D01*
X013818Y009659D01*
X013935Y009717D01*
X013993Y009717D01*
X014051Y009659D01*
X014051Y009542D01*
X013993Y009484D01*
X013876Y009484D01*
X013818Y009542D01*
X013683Y009542D02*
X013625Y009484D01*
X013508Y009484D01*
X013450Y009542D01*
X013450Y009775D01*
X013508Y009834D01*
X013625Y009834D01*
X013683Y009775D01*
X012951Y007207D02*
X013010Y007148D01*
X013010Y007090D01*
X012951Y007032D01*
X013010Y006973D01*
X013010Y006915D01*
X012951Y006856D01*
X012835Y006856D01*
X012776Y006915D01*
X012641Y006915D02*
X012583Y006856D01*
X012466Y006856D01*
X012408Y006915D01*
X012408Y007148D01*
X012466Y007207D01*
X012583Y007207D01*
X012641Y007148D01*
X012776Y007148D02*
X012835Y007207D01*
X012951Y007207D01*
X012951Y007032D02*
X012893Y007032D01*
X009068Y009534D02*
X009068Y009651D01*
X009010Y009710D01*
X009010Y009844D02*
X009068Y009903D01*
X009068Y010019D01*
X009010Y010078D01*
X008952Y010078D01*
X008893Y010019D01*
X008893Y009844D01*
X009010Y009844D01*
X008893Y009844D02*
X008776Y009961D01*
X008718Y010078D01*
X008776Y009710D02*
X008718Y009651D01*
X008718Y009534D01*
X008776Y009476D01*
X009010Y009476D01*
X009068Y009534D01*
X008090Y008108D02*
X007974Y008108D01*
X007915Y008050D01*
X007780Y008050D02*
X007722Y008108D01*
X007605Y008108D01*
X007547Y008050D01*
X007547Y007817D01*
X007605Y007758D01*
X007722Y007758D01*
X007780Y007817D01*
X007915Y007758D02*
X008149Y007992D01*
X008149Y008050D01*
X008090Y008108D01*
X008149Y007758D02*
X007915Y007758D01*
D13*
X007959Y004981D02*
X007709Y004731D01*
X007709Y004231D01*
X007959Y003981D01*
X008459Y003981D01*
X008709Y004231D01*
X008709Y004731D01*
X008459Y004981D01*
X007959Y004981D01*
X011843Y004731D02*
X011843Y004231D01*
X012093Y003981D01*
X012593Y003981D01*
X012843Y004231D01*
X012843Y004731D01*
X012593Y004981D01*
X012093Y004981D01*
X011843Y004731D01*
X012819Y013132D02*
X008369Y013132D01*
X008369Y016032D01*
X012819Y016032D01*
X012819Y013132D01*
X014244Y013620D02*
X014494Y013370D01*
X014994Y013370D01*
X015244Y013620D01*
X015244Y014120D01*
X014994Y014370D01*
X014494Y014370D01*
X014244Y014120D01*
X014244Y013620D01*
X014416Y016008D02*
X014916Y016008D01*
X015166Y016258D01*
X015166Y016758D01*
X014916Y017008D01*
X014416Y017008D01*
X014166Y016758D01*
X014166Y016258D01*
X014416Y016008D01*
X008549Y013492D02*
X008551Y013521D01*
X008557Y013549D01*
X008566Y013576D01*
X008580Y013601D01*
X008596Y013625D01*
X008616Y013645D01*
X008638Y013664D01*
X008662Y013678D01*
X008689Y013690D01*
X008716Y013698D01*
X008745Y013702D01*
X008773Y013702D01*
X008802Y013698D01*
X008829Y013690D01*
X008856Y013678D01*
X008880Y013664D01*
X008902Y013645D01*
X008922Y013625D01*
X008938Y013601D01*
X008952Y013576D01*
X008961Y013549D01*
X008967Y013521D01*
X008969Y013492D01*
X008967Y013463D01*
X008961Y013435D01*
X008952Y013408D01*
X008938Y013383D01*
X008922Y013359D01*
X008902Y013339D01*
X008880Y013320D01*
X008856Y013306D01*
X008829Y013294D01*
X008802Y013286D01*
X008773Y013282D01*
X008745Y013282D01*
X008716Y013286D01*
X008689Y013294D01*
X008662Y013306D01*
X008638Y013320D01*
X008616Y013339D01*
X008596Y013359D01*
X008580Y013383D01*
X008566Y013408D01*
X008557Y013435D01*
X008551Y013463D01*
X008549Y013492D01*
X007491Y018461D02*
X006991Y018461D01*
X006741Y018711D01*
X006741Y020211D01*
X006991Y020461D01*
X007491Y020461D01*
X007741Y020211D01*
X007741Y018711D01*
X007491Y018461D01*
X006741Y018711D02*
X006491Y018461D01*
X005991Y018461D01*
X005741Y018711D01*
X005741Y020211D01*
X005991Y020461D01*
X006491Y020461D01*
X006741Y020211D01*
X005741Y020211D02*
X005491Y020461D01*
X004991Y020461D01*
X004741Y020211D01*
X004741Y018711D01*
X004991Y018461D01*
X005491Y018461D01*
X005741Y018711D01*
D14*
X007548Y014082D02*
X007864Y013767D01*
X007864Y014187D01*
X008179Y014082D02*
X007548Y014082D01*
X007548Y013542D02*
X008074Y013542D01*
X008179Y013437D01*
X008179Y013227D01*
X008074Y013122D01*
X007548Y013122D01*
D15*
X009351Y008567D02*
X009351Y008370D01*
X011241Y008370D01*
X011241Y006654D01*
X011241Y008370D02*
X011241Y008567D01*
X009351Y008370D02*
X009351Y006654D01*
X012697Y010681D02*
X012697Y010918D01*
X013445Y011430D02*
X013918Y011430D01*
X014666Y010918D02*
X014666Y010681D01*
X013918Y010170D02*
X013445Y010170D01*
D16*
X013506Y008254D02*
X013659Y008254D01*
X013736Y008177D01*
X013736Y008101D01*
X013659Y008024D01*
X013736Y007947D01*
X013736Y007870D01*
X013659Y007794D01*
X013506Y007794D01*
X013429Y007870D01*
X013276Y007794D02*
X012969Y007794D01*
X013122Y007794D02*
X013122Y008254D01*
X012969Y008101D01*
X012815Y008177D02*
X012815Y008024D01*
X012739Y007947D01*
X012509Y007947D01*
X012662Y007947D02*
X012815Y007794D01*
X012815Y008177D02*
X012739Y008254D01*
X012509Y008254D01*
X012509Y007794D01*
X011826Y007787D02*
X011826Y007940D01*
X011749Y008017D01*
X011365Y008017D01*
X011365Y008170D02*
X011595Y008170D01*
X011519Y008324D01*
X011519Y008400D01*
X011595Y008477D01*
X011749Y008477D01*
X011826Y008400D01*
X011826Y008247D01*
X011749Y008170D01*
X011826Y007787D02*
X011749Y007710D01*
X011365Y007710D01*
X011365Y008170D02*
X011365Y008477D01*
X013429Y008177D02*
X013506Y008254D01*
X013583Y008024D02*
X013659Y008024D01*
X011698Y005744D02*
X011544Y005744D01*
X011467Y005667D01*
X011698Y005744D02*
X011774Y005667D01*
X011774Y005590D01*
X011467Y005283D01*
X011774Y005283D01*
X011314Y005283D02*
X011007Y005283D01*
X010854Y005283D02*
X010700Y005437D01*
X010777Y005437D02*
X010547Y005437D01*
X010547Y005283D02*
X010547Y005744D01*
X010777Y005744D01*
X010854Y005667D01*
X010854Y005514D01*
X010777Y005437D01*
X011007Y005590D02*
X011161Y005744D01*
X011161Y005283D01*
X008602Y005432D02*
X008602Y005125D01*
X008526Y005048D01*
X008372Y005048D01*
X008296Y005125D01*
X008602Y005432D01*
X008526Y005509D01*
X008372Y005509D01*
X008296Y005432D01*
X008296Y005125D01*
X008142Y005048D02*
X007835Y005048D01*
X007682Y005048D02*
X007528Y005202D01*
X007605Y005202D02*
X007375Y005202D01*
X007375Y005048D02*
X007375Y005509D01*
X007605Y005509D01*
X007682Y005432D01*
X007682Y005279D01*
X007605Y005202D01*
X007835Y005355D02*
X007989Y005509D01*
X007989Y005048D01*
D17*
X009546Y006315D03*
X010046Y006315D03*
X010546Y006315D03*
X011046Y006315D03*
X011046Y008906D03*
X010546Y008906D03*
X010046Y008906D03*
X009546Y008906D03*
D18*
X007855Y005878D03*
X012658Y005563D03*
X013170Y008674D03*
D19*
X015785Y010243D02*
X015810Y010218D01*
X015911Y010218D01*
X015936Y010243D01*
X015936Y010293D01*
X015911Y010318D01*
X015911Y010366D02*
X015936Y010366D01*
X015911Y010366D02*
X015810Y010466D01*
X015785Y010466D01*
X015785Y010366D01*
X015810Y010318D02*
X015785Y010293D01*
X015785Y010243D01*
M02*
