G75*
G70*
%OFA0B0*%
%FSLAX24Y24*%
%IPPOS*%
%LPD*%
%AMOC8*
5,1,8,0,0,1.08239X$1,22.5*
%
%ADD10C,0.0160*%
%ADD11R,0.0473X0.0434*%
%ADD12R,0.0340X0.0490*%
%ADD13R,0.0276X0.0906*%
%ADD14R,0.0434X0.0473*%
%ADD15R,0.0788X0.0473*%
%ADD16OC8,0.0640*%
D10*
X006910Y003949D02*
X006910Y014737D01*
X006516Y015130D01*
X005571Y015130D01*
X003918Y016784D01*
X003918Y020288D01*
X004233Y020603D01*
X012619Y020603D01*
X016319Y016508D01*
X016319Y009973D01*
X015807Y009461D01*
X014548Y009461D01*
X014311Y009225D01*
X014311Y005012D01*
X013642Y004343D01*
X013603Y004343D02*
X012776Y003516D01*
X007343Y003516D01*
X006910Y003949D01*
D11*
X007520Y005878D03*
X008189Y005878D03*
X008189Y006784D03*
X007520Y006784D03*
X012323Y006469D03*
X012993Y006469D03*
X012993Y005563D03*
X012323Y005563D03*
X012835Y008674D03*
X013504Y008674D03*
X007804Y017508D03*
X007134Y017508D03*
D12*
X008599Y016472D03*
X009099Y016472D03*
X009599Y016472D03*
X010099Y016472D03*
X010599Y016472D03*
X011099Y016472D03*
X011599Y016472D03*
X012099Y016472D03*
X012599Y016472D03*
X012599Y012702D03*
X012099Y012702D03*
X011599Y012702D03*
X011099Y012702D03*
X010599Y012702D03*
X010099Y012702D03*
X009599Y012702D03*
X009099Y012702D03*
X008599Y012702D03*
D13*
X009546Y008922D03*
X010046Y008922D03*
X010546Y008922D03*
X011046Y008922D03*
X011046Y006300D03*
X010546Y006300D03*
X010046Y006300D03*
X009546Y006300D03*
D14*
X008406Y009441D03*
X008406Y010111D03*
X012107Y010465D03*
X012107Y011134D03*
X015256Y011134D03*
X015256Y010465D03*
D15*
X014410Y010347D03*
X014410Y011252D03*
X012953Y011252D03*
X012953Y010347D03*
D16*
X014744Y013870D03*
X014666Y016508D03*
X007241Y018961D03*
X007241Y019961D03*
X006241Y019961D03*
X006241Y018961D03*
X005241Y018961D03*
X005241Y019961D03*
X008209Y004481D03*
X012343Y004481D03*
M02*
