G75*
G70*
%OFA0B0*%
%FSLAX24Y24*%
%IPPOS*%
%LPD*%
%AMOC8*
5,1,8,0,0,1.08239X$1,22.5*
%
%ADD10C,0.0160*%
%ADD11R,0.0433X0.0394*%
%ADD12R,0.0300X0.0450*%
%ADD13R,0.0236X0.0866*%
%ADD14R,0.0394X0.0433*%
%ADD15R,0.0748X0.0433*%
%ADD16OC8,0.0600*%
%ADD17C,0.0100*%
%ADD18C,0.0356*%
D10*
X006910Y003949D02*
X006910Y014737D01*
X006516Y015130D01*
X005571Y015130D01*
X003918Y016784D01*
X003918Y020288D01*
X004233Y020603D01*
X012619Y020603D01*
X016319Y016508D01*
X016319Y009973D01*
X015807Y009461D01*
X014548Y009461D01*
X014311Y009225D01*
X014311Y005012D01*
X013642Y004343D01*
X013603Y004343D02*
X012776Y003516D01*
X007343Y003516D01*
X006910Y003949D01*
D11*
X007520Y005878D03*
X008189Y005878D03*
X008189Y006784D03*
X007520Y006784D03*
X012323Y006469D03*
X012993Y006469D03*
X012993Y005563D03*
X012323Y005563D03*
X012835Y008674D03*
X013504Y008674D03*
X007804Y017508D03*
X007134Y017508D03*
D12*
X008599Y016472D03*
X009099Y016472D03*
X009599Y016472D03*
X010099Y016472D03*
X010599Y016472D03*
X011099Y016472D03*
X011599Y016472D03*
X012099Y016472D03*
X012599Y016472D03*
X012599Y012702D03*
X012099Y012702D03*
X011599Y012702D03*
X011099Y012702D03*
X010599Y012702D03*
X010099Y012702D03*
X009599Y012702D03*
X009099Y012702D03*
X008599Y012702D03*
D13*
X009546Y008922D03*
X010046Y008922D03*
X010546Y008922D03*
X011046Y008922D03*
X011046Y006300D03*
X010546Y006300D03*
X010046Y006300D03*
X009546Y006300D03*
D14*
X008406Y009441D03*
X008406Y010111D03*
X012107Y010465D03*
X012107Y011134D03*
X015256Y011134D03*
X015256Y010465D03*
D15*
X014410Y010347D03*
X014410Y011252D03*
X012953Y011252D03*
X012953Y010347D03*
D16*
X014744Y013870D03*
X014666Y016508D03*
X007241Y018961D03*
X007241Y019961D03*
X006241Y019961D03*
X006241Y018961D03*
X005241Y018961D03*
X005241Y019961D03*
X008209Y004481D03*
X012343Y004481D03*
D17*
X012343Y005170D01*
X010768Y005170D01*
X010546Y005392D01*
X010546Y006300D01*
X011046Y006300D02*
X011046Y005601D01*
X011122Y005524D01*
X011674Y005524D01*
X011752Y005603D01*
X011752Y006823D01*
X012835Y007906D01*
X012835Y008674D01*
X013093Y008269D02*
X013138Y008269D01*
X013214Y008346D01*
X013230Y008337D01*
X013268Y008327D01*
X013456Y008327D01*
X013456Y008625D01*
X013553Y008625D01*
X013553Y008722D01*
X013871Y008722D01*
X013871Y008890D01*
X013861Y008928D01*
X013841Y008963D01*
X013813Y008991D01*
X013779Y009010D01*
X013741Y009020D01*
X013553Y009020D01*
X013553Y008722D01*
X013456Y008722D01*
X013456Y009020D01*
X013268Y009020D01*
X013230Y009010D01*
X013214Y009001D01*
X013138Y009078D01*
X012533Y009078D01*
X012411Y008956D01*
X012411Y008391D01*
X012533Y008269D01*
X012578Y008269D01*
X012578Y008013D01*
X011534Y006969D01*
X011495Y006874D01*
X011495Y005781D01*
X011371Y005781D01*
X011371Y006819D01*
X011250Y006940D01*
X010842Y006940D01*
X010796Y006894D01*
X010750Y006940D01*
X010342Y006940D01*
X010296Y006894D01*
X010250Y006940D01*
X009842Y006940D01*
X009796Y006894D01*
X009750Y006940D01*
X009342Y006940D01*
X009220Y006819D01*
X009220Y005781D01*
X009342Y005659D01*
X009750Y005659D01*
X009788Y005698D01*
X009788Y005499D01*
X009756Y005467D01*
X008467Y005467D01*
X008467Y005474D01*
X008492Y005474D01*
X008613Y005596D01*
X008613Y006161D01*
X008492Y006283D01*
X007887Y006283D01*
X007855Y006251D01*
X007823Y006283D01*
X007778Y006283D01*
X007778Y006380D01*
X007823Y006380D01*
X007899Y006456D01*
X007915Y006447D01*
X007953Y006437D01*
X008141Y006437D01*
X008141Y006735D01*
X008238Y006735D01*
X008238Y006437D01*
X008426Y006437D01*
X008464Y006447D01*
X008498Y006467D01*
X008526Y006495D01*
X008546Y006529D01*
X008556Y006567D01*
X008556Y006735D01*
X008238Y006735D01*
X008238Y006832D01*
X008556Y006832D01*
X008556Y007000D01*
X008546Y007039D01*
X008526Y007073D01*
X008498Y007101D01*
X008464Y007120D01*
X008426Y007131D01*
X008238Y007131D01*
X008238Y006832D01*
X008141Y006832D01*
X008141Y007131D01*
X007953Y007131D01*
X007915Y007120D01*
X007899Y007111D01*
X007823Y007188D01*
X007218Y007188D01*
X007197Y007168D01*
X007197Y014794D01*
X007154Y014899D01*
X006760Y015293D01*
X006679Y015374D01*
X006573Y015418D01*
X005690Y015418D01*
X004205Y016903D01*
X004205Y020169D01*
X004352Y020315D01*
X004877Y020315D01*
X004733Y020171D01*
X004733Y019751D01*
X005030Y019454D01*
X005451Y019454D01*
X005741Y019743D01*
X006023Y019461D01*
X005733Y019171D01*
X005733Y018751D01*
X006030Y018454D01*
X006451Y018454D01*
X006741Y018743D01*
X007030Y018454D01*
X007384Y018454D01*
X007479Y018358D01*
X007479Y017891D01*
X007424Y017836D01*
X007409Y017845D01*
X007371Y017855D01*
X007183Y017855D01*
X007183Y017557D01*
X007086Y017557D01*
X007086Y017855D01*
X006898Y017855D01*
X006860Y017845D01*
X006826Y017825D01*
X006798Y017797D01*
X006778Y017763D01*
X006768Y017725D01*
X006768Y017557D01*
X007086Y017557D01*
X007086Y017460D01*
X007183Y017460D01*
X007183Y017161D01*
X007371Y017161D01*
X007409Y017172D01*
X007424Y017181D01*
X007479Y017126D01*
X007479Y011300D01*
X007518Y011205D01*
X007591Y011133D01*
X008148Y010575D01*
X008148Y010535D01*
X008123Y010535D01*
X008002Y010413D01*
X008002Y009808D01*
X008078Y009731D01*
X008069Y009716D01*
X008059Y009678D01*
X008059Y009490D01*
X008357Y009490D01*
X008357Y009393D01*
X008059Y009393D01*
X008059Y009205D01*
X008069Y009167D01*
X008089Y009133D01*
X008117Y009105D01*
X008151Y009085D01*
X008189Y009075D01*
X008357Y009075D01*
X008357Y009393D01*
X008454Y009393D01*
X008454Y009075D01*
X008623Y009075D01*
X008661Y009085D01*
X008695Y009105D01*
X008723Y009133D01*
X008743Y009167D01*
X008753Y009205D01*
X008753Y009393D01*
X008454Y009393D01*
X008454Y009490D01*
X008753Y009490D01*
X008753Y009678D01*
X008743Y009716D01*
X008733Y009731D01*
X008810Y009808D01*
X008810Y010413D01*
X008689Y010535D01*
X008663Y010535D01*
X008663Y010733D01*
X008624Y010827D01*
X008552Y010900D01*
X008552Y010900D01*
X007994Y011457D01*
X007994Y017104D01*
X008106Y017104D01*
X008228Y017225D01*
X008228Y017274D01*
X008339Y017274D01*
X008341Y017272D01*
X008341Y016883D01*
X008241Y016783D01*
X008241Y016161D01*
X008363Y016040D01*
X008835Y016040D01*
X008849Y016054D01*
X008863Y016040D01*
X009335Y016040D01*
X009341Y016046D01*
X009341Y016046D01*
X009341Y014989D01*
X009381Y014894D01*
X009841Y014433D01*
X009914Y014361D01*
X010008Y014322D01*
X013929Y014322D01*
X014237Y014014D01*
X014237Y013660D01*
X014534Y013363D01*
X014955Y013363D01*
X015252Y013660D01*
X015252Y014081D01*
X014955Y014378D01*
X014601Y014378D01*
X014182Y014797D01*
X014087Y014837D01*
X010166Y014837D01*
X009856Y015146D01*
X009856Y016046D01*
X009856Y016046D01*
X009863Y016040D01*
X010335Y016040D01*
X010349Y016054D01*
X010363Y016040D01*
X010835Y016040D01*
X010849Y016054D01*
X010863Y016040D01*
X011335Y016040D01*
X011349Y016054D01*
X011363Y016040D01*
X011835Y016040D01*
X011849Y016054D01*
X011863Y016040D01*
X012335Y016040D01*
X012349Y016054D01*
X012363Y016040D01*
X012835Y016040D01*
X012956Y016161D01*
X012956Y016783D01*
X012835Y016904D01*
X012363Y016904D01*
X012349Y016890D01*
X012335Y016904D01*
X011863Y016904D01*
X011856Y016898D01*
X011856Y017035D01*
X012095Y017274D01*
X013535Y017274D01*
X014158Y016652D01*
X014158Y016298D01*
X014456Y016001D01*
X014876Y016001D01*
X015173Y016298D01*
X015173Y016718D01*
X014876Y017016D01*
X014522Y017016D01*
X013788Y017750D01*
X013693Y017789D01*
X011937Y017789D01*
X011843Y017750D01*
X011770Y017678D01*
X011381Y017288D01*
X011356Y017229D01*
X011356Y019108D01*
X011420Y019134D01*
X011528Y019243D01*
X011587Y019384D01*
X011587Y019538D01*
X011528Y019679D01*
X011420Y019788D01*
X011278Y019847D01*
X011124Y019847D01*
X010983Y019788D01*
X010874Y019679D01*
X010816Y019538D01*
X010816Y019384D01*
X010841Y019322D01*
X010841Y018516D01*
X010790Y018567D01*
X010648Y018626D01*
X010495Y018626D01*
X010356Y018569D01*
X010356Y019670D01*
X010317Y019764D01*
X009975Y020107D01*
X009902Y020179D01*
X009808Y020219D01*
X007701Y020219D01*
X007604Y020315D01*
X012491Y020315D01*
X016005Y016427D01*
X016032Y011986D01*
X016032Y010092D01*
X015688Y009749D01*
X014490Y009749D01*
X014385Y009705D01*
X014304Y009624D01*
X014068Y009388D01*
X014024Y009282D01*
X014024Y005197D01*
X013878Y005052D01*
X013485Y004619D01*
X013462Y004596D01*
X013440Y004587D01*
X012657Y003804D01*
X007462Y003804D01*
X007371Y003895D01*
X007197Y004093D01*
X007197Y005494D01*
X007218Y005474D01*
X007823Y005474D01*
X007855Y005506D01*
X007887Y005474D01*
X007952Y005474D01*
X007952Y004941D01*
X007702Y004691D01*
X007702Y004271D01*
X007999Y003973D01*
X008419Y003973D01*
X008717Y004271D01*
X008717Y004691D01*
X008467Y004941D01*
X008467Y004952D01*
X009914Y004952D01*
X010008Y004991D01*
X010081Y005063D01*
X010264Y005246D01*
X010296Y005323D01*
X010327Y005246D01*
X010550Y005024D01*
X010622Y004951D01*
X010717Y004912D01*
X012057Y004912D01*
X011835Y004691D01*
X011835Y004271D01*
X012133Y003973D01*
X012553Y003973D01*
X012850Y004271D01*
X012850Y004691D01*
X012600Y004941D01*
X012600Y005159D01*
X012626Y005159D01*
X012658Y005191D01*
X012690Y005159D01*
X013295Y005159D01*
X013417Y005281D01*
X013417Y005846D01*
X013295Y005968D01*
X013250Y005968D01*
X013250Y006065D01*
X013295Y006065D01*
X013417Y006186D01*
X013417Y006752D01*
X013295Y006873D01*
X012690Y006873D01*
X012613Y006796D01*
X012598Y006806D01*
X012560Y006816D01*
X012372Y006816D01*
X012372Y006517D01*
X012275Y006517D01*
X012275Y006816D01*
X012109Y006816D01*
X012981Y007688D01*
X013053Y007760D01*
X013093Y007855D01*
X013093Y008269D01*
X013093Y008265D02*
X014024Y008265D01*
X014024Y008363D02*
X013819Y008363D01*
X013813Y008357D02*
X013841Y008385D01*
X013861Y008419D01*
X013871Y008457D01*
X013871Y008625D01*
X013553Y008625D01*
X013553Y008327D01*
X013741Y008327D01*
X013779Y008337D01*
X013813Y008357D01*
X013871Y008462D02*
X014024Y008462D01*
X014024Y008560D02*
X013871Y008560D01*
X014024Y008659D02*
X013553Y008659D01*
X013553Y008757D02*
X013456Y008757D01*
X013456Y008856D02*
X013553Y008856D01*
X013553Y008954D02*
X013456Y008954D01*
X013163Y009053D02*
X014024Y009053D01*
X014024Y009151D02*
X011371Y009151D01*
X011371Y009053D02*
X012507Y009053D01*
X012411Y008954D02*
X011371Y008954D01*
X011371Y008856D02*
X012411Y008856D01*
X012411Y008757D02*
X011371Y008757D01*
X011371Y008659D02*
X012411Y008659D01*
X012411Y008560D02*
X011371Y008560D01*
X011371Y008462D02*
X012411Y008462D01*
X012439Y008363D02*
X011332Y008363D01*
X011371Y008403D02*
X011371Y009441D01*
X011303Y009509D01*
X011303Y010022D01*
X011264Y010117D01*
X010396Y010985D01*
X010323Y011057D01*
X010229Y011096D01*
X009576Y011096D01*
X009392Y011280D01*
X009506Y011280D01*
X009648Y011339D01*
X009756Y011447D01*
X009815Y011589D01*
X009815Y011742D01*
X009756Y011884D01*
X009648Y011993D01*
X009506Y012051D01*
X009408Y012051D01*
X009356Y012103D01*
X009356Y012276D01*
X009363Y012270D01*
X009835Y012270D01*
X009849Y012284D01*
X009863Y012270D01*
X010335Y012270D01*
X010349Y012284D01*
X010363Y012270D01*
X010835Y012270D01*
X010849Y012284D01*
X010863Y012270D01*
X011335Y012270D01*
X011341Y012276D01*
X011341Y011698D01*
X011258Y011615D01*
X011219Y011520D01*
X011219Y010591D01*
X011258Y010496D01*
X011377Y010378D01*
X011449Y010306D01*
X011544Y010267D01*
X011702Y010267D01*
X011702Y010162D01*
X011824Y010041D01*
X012375Y010041D01*
X012493Y009923D01*
X013413Y009923D01*
X013535Y010044D01*
X013535Y010649D01*
X013413Y010771D01*
X012508Y010771D01*
X012434Y010844D01*
X012443Y010860D01*
X012447Y010874D01*
X012493Y010828D01*
X013413Y010828D01*
X013535Y010950D01*
X013535Y011555D01*
X013413Y011676D01*
X012493Y011676D01*
X012372Y011555D01*
X012372Y011485D01*
X012361Y011491D01*
X012323Y011501D01*
X012155Y011501D01*
X012155Y011183D01*
X012058Y011183D01*
X012058Y011501D01*
X011890Y011501D01*
X011852Y011491D01*
X011831Y011478D01*
X011856Y011540D01*
X011856Y012177D01*
X011881Y012118D01*
X012046Y011953D01*
X012118Y011881D01*
X012213Y011841D01*
X014717Y011841D01*
X014999Y011559D01*
X014999Y011558D01*
X014988Y011558D01*
X014870Y011676D01*
X013950Y011676D01*
X013828Y011555D01*
X013828Y010950D01*
X013950Y010828D01*
X014855Y010828D01*
X014929Y010755D01*
X014920Y010739D01*
X014916Y010725D01*
X014870Y010771D01*
X013950Y010771D01*
X013828Y010649D01*
X013828Y010044D01*
X013950Y009923D01*
X014870Y009923D01*
X014991Y010044D01*
X014991Y010115D01*
X015002Y010109D01*
X015040Y010098D01*
X015208Y010098D01*
X015208Y010417D01*
X015305Y010417D01*
X015305Y010513D01*
X015603Y010513D01*
X015603Y010701D01*
X015593Y010739D01*
X015584Y010755D01*
X015661Y010832D01*
X015661Y011437D01*
X015539Y011558D01*
X015514Y011558D01*
X015514Y011717D01*
X015475Y011812D01*
X015402Y011884D01*
X014969Y012317D01*
X014874Y012356D01*
X012840Y012356D01*
X012841Y012357D01*
X012869Y012385D01*
X012889Y012419D01*
X012899Y012457D01*
X012899Y012677D01*
X012624Y012677D01*
X012624Y012727D01*
X012899Y012727D01*
X012899Y012947D01*
X012889Y012985D01*
X012869Y013019D01*
X012841Y013047D01*
X012807Y013067D01*
X012769Y013077D01*
X012624Y013077D01*
X012624Y012727D01*
X012574Y012727D01*
X012574Y013077D01*
X012429Y013077D01*
X012400Y013069D01*
X012335Y013134D01*
X011863Y013134D01*
X011849Y013120D01*
X011835Y013134D01*
X011363Y013134D01*
X011349Y013120D01*
X011335Y013134D01*
X010863Y013134D01*
X010849Y013120D01*
X010835Y013134D01*
X010363Y013134D01*
X010349Y013120D01*
X010335Y013134D01*
X009863Y013134D01*
X009849Y013120D01*
X009835Y013134D01*
X009363Y013134D01*
X009349Y013120D01*
X009335Y013134D01*
X008863Y013134D01*
X008849Y013120D01*
X008835Y013134D01*
X008363Y013134D01*
X008241Y013013D01*
X008241Y012391D01*
X008345Y012287D01*
X008345Y011654D01*
X008384Y011559D01*
X008457Y011487D01*
X009323Y010621D01*
X009418Y010581D01*
X010071Y010581D01*
X010788Y009864D01*
X010788Y009509D01*
X010755Y009475D01*
X010722Y009495D01*
X010684Y009505D01*
X010555Y009505D01*
X010555Y008931D01*
X010537Y008931D01*
X010537Y009505D01*
X010408Y009505D01*
X010370Y009495D01*
X010337Y009475D01*
X010250Y009562D01*
X009842Y009562D01*
X009803Y009524D01*
X009803Y009565D01*
X009875Y009636D01*
X009933Y009778D01*
X009933Y009931D01*
X009875Y010073D01*
X009766Y010182D01*
X009624Y010240D01*
X009471Y010240D01*
X009329Y010182D01*
X009221Y010073D01*
X009162Y009931D01*
X009162Y009778D01*
X009221Y009636D01*
X009288Y009569D01*
X009288Y009509D01*
X009220Y009441D01*
X009220Y008403D01*
X009342Y008281D01*
X009750Y008281D01*
X009796Y008327D01*
X009842Y008281D01*
X010250Y008281D01*
X010337Y008368D01*
X010370Y008349D01*
X010408Y008339D01*
X010537Y008339D01*
X010537Y008913D01*
X010555Y008913D01*
X010555Y008339D01*
X010684Y008339D01*
X010722Y008349D01*
X010755Y008368D01*
X010842Y008281D01*
X011250Y008281D01*
X011371Y008403D01*
X011046Y008922D02*
X011046Y009971D01*
X010178Y010839D01*
X009469Y010839D01*
X008603Y011705D01*
X008603Y012698D01*
X008599Y012702D01*
X008241Y012697D02*
X007994Y012697D01*
X007994Y012599D02*
X008241Y012599D01*
X008241Y012500D02*
X007994Y012500D01*
X007994Y012402D02*
X008241Y012402D01*
X008329Y012303D02*
X007994Y012303D01*
X007994Y012205D02*
X008345Y012205D01*
X008345Y012106D02*
X007994Y012106D01*
X007994Y012008D02*
X008345Y012008D01*
X008345Y011909D02*
X007994Y011909D01*
X007994Y011811D02*
X008345Y011811D01*
X008345Y011712D02*
X007994Y011712D01*
X007994Y011614D02*
X008362Y011614D01*
X008429Y011515D02*
X007994Y011515D01*
X008035Y011417D02*
X008527Y011417D01*
X008626Y011318D02*
X008134Y011318D01*
X008232Y011220D02*
X008724Y011220D01*
X008823Y011121D02*
X008331Y011121D01*
X008429Y011023D02*
X008921Y011023D01*
X009020Y010924D02*
X008528Y010924D01*
X008625Y010826D02*
X009118Y010826D01*
X009217Y010727D02*
X008663Y010727D01*
X008663Y010629D02*
X009315Y010629D01*
X009457Y010235D02*
X008810Y010235D01*
X008810Y010333D02*
X010319Y010333D01*
X010221Y010432D02*
X008792Y010432D01*
X008693Y010530D02*
X010122Y010530D01*
X010418Y010235D02*
X009638Y010235D01*
X009812Y010136D02*
X010516Y010136D01*
X010615Y010038D02*
X009889Y010038D01*
X009930Y009939D02*
X010713Y009939D01*
X010788Y009841D02*
X009933Y009841D01*
X009918Y009742D02*
X010788Y009742D01*
X010788Y009644D02*
X009878Y009644D01*
X009824Y009545D02*
X009803Y009545D01*
X009546Y009853D02*
X009546Y008922D01*
X009220Y008954D02*
X007197Y008954D01*
X007197Y008856D02*
X009220Y008856D01*
X009220Y008757D02*
X007197Y008757D01*
X007197Y008659D02*
X009220Y008659D01*
X009220Y008560D02*
X007197Y008560D01*
X007197Y008462D02*
X009220Y008462D01*
X009260Y008363D02*
X007197Y008363D01*
X007197Y008265D02*
X012578Y008265D01*
X012578Y008166D02*
X007197Y008166D01*
X007197Y008068D02*
X012578Y008068D01*
X012534Y007969D02*
X007197Y007969D01*
X007197Y007871D02*
X012436Y007871D01*
X012337Y007772D02*
X007197Y007772D01*
X007197Y007674D02*
X012239Y007674D01*
X012140Y007575D02*
X007197Y007575D01*
X007197Y007477D02*
X012042Y007477D01*
X011943Y007378D02*
X007197Y007378D01*
X007197Y007280D02*
X011845Y007280D01*
X011746Y007181D02*
X007830Y007181D01*
X008141Y007083D02*
X008238Y007083D01*
X008238Y006984D02*
X008141Y006984D01*
X008141Y006886D02*
X008238Y006886D01*
X008238Y006787D02*
X009220Y006787D01*
X009220Y006689D02*
X008556Y006689D01*
X008556Y006590D02*
X009220Y006590D01*
X009220Y006492D02*
X008523Y006492D01*
X008238Y006492D02*
X008141Y006492D01*
X008141Y006590D02*
X008238Y006590D01*
X008238Y006689D02*
X008141Y006689D01*
X007836Y006393D02*
X009220Y006393D01*
X009220Y006295D02*
X007778Y006295D01*
X007520Y005878D02*
X007520Y006784D01*
X007263Y006380D02*
X007263Y006283D01*
X007218Y006283D01*
X007197Y006262D01*
X007197Y006400D01*
X007218Y006380D01*
X007263Y006380D01*
X007204Y006393D02*
X007197Y006393D01*
X007197Y006295D02*
X007263Y006295D01*
X007210Y007181D02*
X007197Y007181D01*
X008189Y005878D02*
X008209Y005859D01*
X008209Y005130D01*
X008209Y004481D01*
X008574Y004128D02*
X011978Y004128D01*
X011880Y004226D02*
X008672Y004226D01*
X008717Y004325D02*
X011835Y004325D01*
X011835Y004423D02*
X008717Y004423D01*
X008717Y004522D02*
X011835Y004522D01*
X011835Y004620D02*
X008717Y004620D01*
X008689Y004719D02*
X011863Y004719D01*
X011962Y004817D02*
X008590Y004817D01*
X008492Y004916D02*
X010709Y004916D01*
X010560Y005014D02*
X010032Y005014D01*
X010130Y005113D02*
X010461Y005113D01*
X010363Y005211D02*
X010229Y005211D01*
X010290Y005310D02*
X010301Y005310D01*
X010046Y005392D02*
X009863Y005209D01*
X008288Y005209D01*
X008209Y005130D01*
X007952Y005113D02*
X007197Y005113D01*
X007197Y005211D02*
X007952Y005211D01*
X007952Y005310D02*
X007197Y005310D01*
X007197Y005408D02*
X007952Y005408D01*
X007952Y005014D02*
X007197Y005014D01*
X007197Y004916D02*
X007926Y004916D01*
X007828Y004817D02*
X007197Y004817D01*
X007197Y004719D02*
X007729Y004719D01*
X007702Y004620D02*
X007197Y004620D01*
X007197Y004522D02*
X007702Y004522D01*
X007702Y004423D02*
X007197Y004423D01*
X007197Y004325D02*
X007702Y004325D01*
X007746Y004226D02*
X007197Y004226D01*
X007197Y004128D02*
X007845Y004128D01*
X007943Y004029D02*
X007253Y004029D01*
X007340Y003931D02*
X012784Y003931D01*
X012882Y004029D02*
X012609Y004029D01*
X012707Y004128D02*
X012981Y004128D01*
X013079Y004226D02*
X012806Y004226D01*
X012850Y004325D02*
X013178Y004325D01*
X013276Y004423D02*
X012850Y004423D01*
X012850Y004522D02*
X013375Y004522D01*
X013486Y004620D02*
X012850Y004620D01*
X012823Y004719D02*
X013576Y004719D01*
X013665Y004817D02*
X012724Y004817D01*
X012626Y004916D02*
X013755Y004916D01*
X013844Y005014D02*
X012600Y005014D01*
X012600Y005113D02*
X013939Y005113D01*
X014024Y005211D02*
X013347Y005211D01*
X013417Y005310D02*
X014024Y005310D01*
X014024Y005408D02*
X013417Y005408D01*
X013417Y005507D02*
X014024Y005507D01*
X014024Y005605D02*
X013417Y005605D01*
X013417Y005704D02*
X014024Y005704D01*
X014024Y005802D02*
X013417Y005802D01*
X013362Y005901D02*
X014024Y005901D01*
X014024Y005999D02*
X013250Y005999D01*
X013328Y006098D02*
X014024Y006098D01*
X014024Y006196D02*
X013417Y006196D01*
X013417Y006295D02*
X014024Y006295D01*
X014024Y006393D02*
X013417Y006393D01*
X013417Y006492D02*
X014024Y006492D01*
X014024Y006590D02*
X013417Y006590D01*
X013417Y006689D02*
X014024Y006689D01*
X014024Y006787D02*
X013381Y006787D01*
X012993Y006469D02*
X012993Y005563D01*
X012735Y005968D02*
X012690Y005968D01*
X012658Y005936D01*
X012626Y005968D01*
X012021Y005968D01*
X012010Y005957D01*
X012010Y006157D01*
X012015Y006152D01*
X012049Y006132D01*
X012087Y006122D01*
X012275Y006122D01*
X012275Y006420D01*
X012372Y006420D01*
X012372Y006122D01*
X012560Y006122D01*
X012598Y006132D01*
X012613Y006141D01*
X012690Y006065D01*
X012735Y006065D01*
X012735Y005968D01*
X012735Y005999D02*
X012010Y005999D01*
X012010Y006098D02*
X012657Y006098D01*
X012372Y006196D02*
X012275Y006196D01*
X012275Y006295D02*
X012372Y006295D01*
X012372Y006393D02*
X012275Y006393D01*
X012275Y006590D02*
X012372Y006590D01*
X012372Y006689D02*
X012275Y006689D01*
X012275Y006787D02*
X012372Y006787D01*
X012179Y006886D02*
X014024Y006886D01*
X014024Y006984D02*
X012277Y006984D01*
X012376Y007083D02*
X014024Y007083D01*
X014024Y007181D02*
X012474Y007181D01*
X012573Y007280D02*
X014024Y007280D01*
X014024Y007378D02*
X012671Y007378D01*
X012770Y007477D02*
X014024Y007477D01*
X014024Y007575D02*
X012868Y007575D01*
X012967Y007674D02*
X014024Y007674D01*
X014024Y007772D02*
X013058Y007772D01*
X013093Y007871D02*
X014024Y007871D01*
X014024Y007969D02*
X013093Y007969D01*
X013093Y008068D02*
X014024Y008068D01*
X014024Y008166D02*
X013093Y008166D01*
X013456Y008363D02*
X013553Y008363D01*
X013553Y008462D02*
X013456Y008462D01*
X013456Y008560D02*
X013553Y008560D01*
X013871Y008757D02*
X014024Y008757D01*
X014024Y008856D02*
X013871Y008856D01*
X013846Y008954D02*
X014024Y008954D01*
X014024Y009250D02*
X011371Y009250D01*
X011371Y009348D02*
X014051Y009348D01*
X014127Y009447D02*
X011365Y009447D01*
X011303Y009545D02*
X014225Y009545D01*
X014324Y009644D02*
X011303Y009644D01*
X011303Y009742D02*
X014475Y009742D01*
X014886Y009939D02*
X015879Y009939D01*
X015977Y010038D02*
X014984Y010038D01*
X015208Y010136D02*
X015305Y010136D01*
X015305Y010098D02*
X015473Y010098D01*
X015511Y010109D01*
X015545Y010128D01*
X015573Y010156D01*
X015593Y010191D01*
X015603Y010229D01*
X015603Y010417D01*
X015305Y010417D01*
X015305Y010098D01*
X015305Y010235D02*
X015208Y010235D01*
X015208Y010333D02*
X015305Y010333D01*
X015305Y010432D02*
X016032Y010432D01*
X016032Y010530D02*
X015603Y010530D01*
X015603Y010629D02*
X016032Y010629D01*
X016032Y010727D02*
X015596Y010727D01*
X015654Y010826D02*
X016032Y010826D01*
X016032Y010924D02*
X015661Y010924D01*
X015661Y011023D02*
X016032Y011023D01*
X016032Y011121D02*
X015661Y011121D01*
X015661Y011220D02*
X016032Y011220D01*
X016032Y011318D02*
X015661Y011318D01*
X015661Y011417D02*
X016032Y011417D01*
X016032Y011515D02*
X015582Y011515D01*
X015514Y011614D02*
X016032Y011614D01*
X016032Y011712D02*
X015514Y011712D01*
X015475Y011811D02*
X016032Y011811D01*
X016032Y011909D02*
X015377Y011909D01*
X015279Y012008D02*
X016032Y012008D01*
X016031Y012106D02*
X015180Y012106D01*
X015082Y012205D02*
X016030Y012205D01*
X016030Y012303D02*
X014983Y012303D01*
X014823Y012099D02*
X015256Y011666D01*
X015256Y011134D01*
X015138Y011252D01*
X014410Y011252D01*
X013828Y011220D02*
X013535Y011220D01*
X013535Y011318D02*
X013828Y011318D01*
X013828Y011417D02*
X013535Y011417D01*
X013535Y011515D02*
X013828Y011515D01*
X013887Y011614D02*
X013476Y011614D01*
X013535Y011121D02*
X013828Y011121D01*
X013828Y011023D02*
X013535Y011023D01*
X013509Y010924D02*
X013854Y010924D01*
X013906Y010727D02*
X013457Y010727D01*
X013535Y010629D02*
X013828Y010629D01*
X013828Y010530D02*
X013535Y010530D01*
X013535Y010432D02*
X013828Y010432D01*
X013828Y010333D02*
X013535Y010333D01*
X013535Y010235D02*
X013828Y010235D01*
X013828Y010136D02*
X013535Y010136D01*
X013528Y010038D02*
X013835Y010038D01*
X013934Y009939D02*
X013429Y009939D01*
X012953Y010347D02*
X012225Y010347D01*
X012107Y010465D01*
X012048Y010524D01*
X011595Y010524D01*
X011477Y010642D01*
X011477Y011469D01*
X011599Y011591D01*
X011599Y012702D01*
X012099Y012702D02*
X012099Y012264D01*
X012264Y012099D01*
X014823Y012099D01*
X014747Y011811D02*
X011856Y011811D01*
X011856Y011909D02*
X012090Y011909D01*
X011991Y012008D02*
X011856Y012008D01*
X011856Y012106D02*
X011893Y012106D01*
X011856Y011712D02*
X014846Y011712D01*
X014933Y011614D02*
X014944Y011614D01*
X014858Y010826D02*
X012453Y010826D01*
X012058Y011086D02*
X011760Y011086D01*
X011760Y010898D01*
X011770Y010860D01*
X011779Y010844D01*
X011734Y010799D01*
X011734Y011362D01*
X011766Y011394D01*
X011760Y011371D01*
X011760Y011183D01*
X012058Y011183D01*
X012058Y011086D01*
X012058Y011121D02*
X011734Y011121D01*
X011734Y011023D02*
X011760Y011023D01*
X011760Y010924D02*
X011734Y010924D01*
X011734Y010826D02*
X011760Y010826D01*
X011734Y011220D02*
X011760Y011220D01*
X011760Y011318D02*
X011734Y011318D01*
X011846Y011515D02*
X012372Y011515D01*
X012430Y011614D02*
X011856Y011614D01*
X012058Y011417D02*
X012155Y011417D01*
X012155Y011318D02*
X012058Y011318D01*
X012058Y011220D02*
X012155Y011220D01*
X011219Y011220D02*
X009452Y011220D01*
X009551Y011121D02*
X011219Y011121D01*
X011219Y011023D02*
X010358Y011023D01*
X010457Y010924D02*
X011219Y010924D01*
X011219Y010826D02*
X010555Y010826D01*
X010654Y010727D02*
X011219Y010727D01*
X011219Y010629D02*
X010752Y010629D01*
X010851Y010530D02*
X011245Y010530D01*
X011323Y010432D02*
X010949Y010432D01*
X011048Y010333D02*
X011422Y010333D01*
X011245Y010136D02*
X011729Y010136D01*
X011702Y010235D02*
X011146Y010235D01*
X011297Y010038D02*
X012379Y010038D01*
X012477Y009939D02*
X011303Y009939D01*
X011303Y009841D02*
X015780Y009841D01*
X015553Y010136D02*
X016032Y010136D01*
X016032Y010235D02*
X015603Y010235D01*
X015603Y010333D02*
X016032Y010333D01*
X014916Y010727D02*
X014914Y010727D01*
X016029Y012402D02*
X012878Y012402D01*
X012899Y012500D02*
X016029Y012500D01*
X016028Y012599D02*
X012899Y012599D01*
X012899Y012796D02*
X016027Y012796D01*
X016026Y012894D02*
X012899Y012894D01*
X012884Y012993D02*
X016026Y012993D01*
X016025Y013091D02*
X012378Y013091D01*
X012574Y012993D02*
X012624Y012993D01*
X012624Y012894D02*
X012574Y012894D01*
X012574Y012796D02*
X012624Y012796D01*
X012624Y012697D02*
X016028Y012697D01*
X016025Y013190D02*
X007994Y013190D01*
X007994Y013288D02*
X016024Y013288D01*
X016023Y013387D02*
X014978Y013387D01*
X015077Y013485D02*
X016023Y013485D01*
X016022Y013584D02*
X015175Y013584D01*
X015252Y013682D02*
X016022Y013682D01*
X016021Y013781D02*
X015252Y013781D01*
X015252Y013879D02*
X016020Y013879D01*
X016020Y013978D02*
X015252Y013978D01*
X015252Y014076D02*
X016019Y014076D01*
X016019Y014175D02*
X015158Y014175D01*
X015060Y014273D02*
X016018Y014273D01*
X016017Y014372D02*
X014961Y014372D01*
X014509Y014470D02*
X016017Y014470D01*
X016016Y014569D02*
X014411Y014569D01*
X014312Y014667D02*
X016016Y014667D01*
X016015Y014766D02*
X014214Y014766D01*
X014036Y014579D02*
X014744Y013870D01*
X014511Y013387D02*
X007994Y013387D01*
X007994Y013485D02*
X014412Y013485D01*
X014314Y013584D02*
X007994Y013584D01*
X007994Y013682D02*
X014237Y013682D01*
X014237Y013781D02*
X007994Y013781D01*
X007994Y013879D02*
X014237Y013879D01*
X014237Y013978D02*
X007994Y013978D01*
X007994Y014076D02*
X014175Y014076D01*
X014076Y014175D02*
X007994Y014175D01*
X007994Y014273D02*
X013978Y014273D01*
X014036Y014579D02*
X010059Y014579D01*
X009599Y015040D01*
X009599Y016472D01*
X009841Y016898D02*
X009835Y016904D01*
X009363Y016904D01*
X009356Y016898D01*
X009356Y017068D01*
X009388Y017068D01*
X009530Y017126D01*
X009638Y017235D01*
X009697Y017376D01*
X009697Y017530D01*
X009638Y017672D01*
X009530Y017780D01*
X009388Y017839D01*
X009235Y017839D01*
X009093Y017780D01*
X008985Y017672D01*
X008926Y017530D01*
X008926Y017432D01*
X008881Y017386D01*
X008856Y017328D01*
X008856Y017430D01*
X008817Y017524D01*
X008664Y017678D01*
X008591Y017750D01*
X008496Y017789D01*
X008228Y017789D01*
X008228Y017791D01*
X008106Y017913D01*
X007994Y017913D01*
X007994Y018516D01*
X007955Y018611D01*
X007882Y018683D01*
X007748Y018818D01*
X007748Y019171D01*
X007458Y019461D01*
X007701Y019704D01*
X009650Y019704D01*
X009841Y019512D01*
X009841Y016898D01*
X009841Y016933D02*
X009356Y016933D01*
X009356Y017031D02*
X009841Y017031D01*
X009841Y017130D02*
X009533Y017130D01*
X009632Y017228D02*
X009841Y017228D01*
X009841Y017327D02*
X009676Y017327D01*
X009697Y017425D02*
X009841Y017425D01*
X009841Y017524D02*
X009697Y017524D01*
X009659Y017622D02*
X009841Y017622D01*
X009841Y017721D02*
X009589Y017721D01*
X009436Y017819D02*
X009841Y017819D01*
X009841Y017918D02*
X007994Y017918D01*
X007994Y018016D02*
X009841Y018016D01*
X009841Y018115D02*
X007994Y018115D01*
X007994Y018213D02*
X009841Y018213D01*
X009841Y018312D02*
X007994Y018312D01*
X007994Y018410D02*
X009841Y018410D01*
X009841Y018509D02*
X007994Y018509D01*
X007956Y018607D02*
X009841Y018607D01*
X009841Y018706D02*
X007860Y018706D01*
X007882Y018683D02*
X007882Y018683D01*
X007762Y018804D02*
X009841Y018804D01*
X009841Y018903D02*
X007748Y018903D01*
X007748Y019001D02*
X009841Y019001D01*
X009841Y019100D02*
X007748Y019100D01*
X007721Y019198D02*
X009841Y019198D01*
X009841Y019297D02*
X007623Y019297D01*
X007524Y019395D02*
X009841Y019395D01*
X009841Y019494D02*
X007491Y019494D01*
X007589Y019592D02*
X009761Y019592D01*
X009663Y019691D02*
X007688Y019691D01*
X007241Y019961D02*
X009756Y019961D01*
X010099Y019619D01*
X010099Y016472D01*
X010341Y016046D02*
X010356Y016046D01*
X010841Y016046D02*
X010856Y016046D01*
X011341Y016046D02*
X011356Y016046D01*
X011841Y016046D02*
X011856Y016046D01*
X012341Y016046D02*
X012356Y016046D01*
X012841Y016046D02*
X014410Y016046D01*
X014312Y016145D02*
X012940Y016145D01*
X012956Y016243D02*
X014213Y016243D01*
X014158Y016342D02*
X012956Y016342D01*
X012956Y016440D02*
X014158Y016440D01*
X014158Y016539D02*
X012956Y016539D01*
X012956Y016637D02*
X014158Y016637D01*
X014074Y016736D02*
X012956Y016736D01*
X012905Y016834D02*
X013976Y016834D01*
X013877Y016933D02*
X011856Y016933D01*
X011856Y017031D02*
X013779Y017031D01*
X013680Y017130D02*
X011950Y017130D01*
X012049Y017228D02*
X013582Y017228D01*
X013642Y017532D02*
X014666Y016508D01*
X015020Y016145D02*
X016007Y016145D01*
X016006Y016243D02*
X015118Y016243D01*
X015173Y016342D02*
X016006Y016342D01*
X015993Y016440D02*
X015173Y016440D01*
X015173Y016539D02*
X015904Y016539D01*
X015815Y016637D02*
X015173Y016637D01*
X015156Y016736D02*
X015726Y016736D01*
X015637Y016834D02*
X015058Y016834D01*
X014959Y016933D02*
X015548Y016933D01*
X015459Y017031D02*
X014507Y017031D01*
X014409Y017130D02*
X015370Y017130D01*
X015281Y017228D02*
X014310Y017228D01*
X014212Y017327D02*
X015192Y017327D01*
X015103Y017425D02*
X014113Y017425D01*
X014015Y017524D02*
X015014Y017524D01*
X014925Y017622D02*
X013916Y017622D01*
X013818Y017721D02*
X014836Y017721D01*
X014747Y017819D02*
X011356Y017819D01*
X011356Y017721D02*
X011813Y017721D01*
X011715Y017622D02*
X011356Y017622D01*
X011356Y017524D02*
X011616Y017524D01*
X011518Y017425D02*
X011356Y017425D01*
X011356Y017327D02*
X011419Y017327D01*
X011599Y017142D02*
X011989Y017532D01*
X013642Y017532D01*
X014391Y018213D02*
X011356Y018213D01*
X011356Y018115D02*
X014480Y018115D01*
X014569Y018016D02*
X011356Y018016D01*
X011356Y017918D02*
X014658Y017918D01*
X014302Y018312D02*
X011356Y018312D01*
X011356Y018410D02*
X014213Y018410D01*
X014124Y018509D02*
X011356Y018509D01*
X011356Y018607D02*
X014035Y018607D01*
X013946Y018706D02*
X011356Y018706D01*
X011356Y018804D02*
X013857Y018804D01*
X013768Y018903D02*
X011356Y018903D01*
X011356Y019001D02*
X013679Y019001D01*
X013590Y019100D02*
X011356Y019100D01*
X011484Y019198D02*
X013501Y019198D01*
X013412Y019297D02*
X011550Y019297D01*
X011587Y019395D02*
X013323Y019395D01*
X013234Y019494D02*
X011587Y019494D01*
X011564Y019592D02*
X013145Y019592D01*
X013055Y019691D02*
X011517Y019691D01*
X011417Y019789D02*
X012966Y019789D01*
X012877Y019888D02*
X010194Y019888D01*
X010095Y019986D02*
X012788Y019986D01*
X012699Y020085D02*
X009997Y020085D01*
X009893Y020183D02*
X012610Y020183D01*
X012521Y020282D02*
X007638Y020282D01*
X006877Y020315D02*
X006741Y020179D01*
X006604Y020315D01*
X006877Y020315D01*
X006843Y020282D02*
X006638Y020282D01*
X006736Y020183D02*
X006745Y020183D01*
X006741Y019743D02*
X007023Y019461D01*
X006741Y019179D01*
X006458Y019461D01*
X006741Y019743D01*
X006793Y019691D02*
X006688Y019691D01*
X006589Y019592D02*
X006892Y019592D01*
X006990Y019494D02*
X006491Y019494D01*
X006524Y019395D02*
X006957Y019395D01*
X006858Y019297D02*
X006623Y019297D01*
X006721Y019198D02*
X006760Y019198D01*
X006778Y018706D02*
X006703Y018706D01*
X006604Y018607D02*
X006877Y018607D01*
X006975Y018509D02*
X006506Y018509D01*
X005975Y018509D02*
X004205Y018509D01*
X004205Y018607D02*
X004958Y018607D01*
X005054Y018511D02*
X005191Y018511D01*
X005191Y018911D01*
X005291Y018911D01*
X005291Y019011D01*
X005691Y019011D01*
X005691Y019147D01*
X005427Y019411D01*
X005291Y019411D01*
X005291Y019011D01*
X005191Y019011D01*
X005191Y019411D01*
X005054Y019411D01*
X004791Y019147D01*
X004791Y019011D01*
X005191Y019011D01*
X005191Y018911D01*
X004791Y018911D01*
X004791Y018775D01*
X005054Y018511D01*
X005191Y018607D02*
X005291Y018607D01*
X005291Y018511D02*
X005427Y018511D01*
X005691Y018775D01*
X005691Y018911D01*
X005291Y018911D01*
X005291Y018511D01*
X005291Y018706D02*
X005191Y018706D01*
X005191Y018804D02*
X005291Y018804D01*
X005291Y018903D02*
X005191Y018903D01*
X005191Y019001D02*
X004205Y019001D01*
X004205Y018903D02*
X004791Y018903D01*
X004791Y018804D02*
X004205Y018804D01*
X004205Y018706D02*
X004860Y018706D01*
X004791Y019100D02*
X004205Y019100D01*
X004205Y019198D02*
X004841Y019198D01*
X004940Y019297D02*
X004205Y019297D01*
X004205Y019395D02*
X005038Y019395D01*
X004990Y019494D02*
X004205Y019494D01*
X004205Y019592D02*
X004892Y019592D01*
X004793Y019691D02*
X004205Y019691D01*
X004205Y019789D02*
X004733Y019789D01*
X004733Y019888D02*
X004205Y019888D01*
X004205Y019986D02*
X004733Y019986D01*
X004733Y020085D02*
X004205Y020085D01*
X004220Y020183D02*
X004745Y020183D01*
X004843Y020282D02*
X004318Y020282D01*
X005191Y019395D02*
X005291Y019395D01*
X005291Y019297D02*
X005191Y019297D01*
X005191Y019198D02*
X005291Y019198D01*
X005291Y019100D02*
X005191Y019100D01*
X005291Y019001D02*
X005733Y019001D01*
X005733Y018903D02*
X005691Y018903D01*
X005691Y018804D02*
X005733Y018804D01*
X005778Y018706D02*
X005621Y018706D01*
X005523Y018607D02*
X005877Y018607D01*
X005733Y019100D02*
X005691Y019100D01*
X005640Y019198D02*
X005760Y019198D01*
X005858Y019297D02*
X005541Y019297D01*
X005443Y019395D02*
X005957Y019395D01*
X005990Y019494D02*
X005491Y019494D01*
X005589Y019592D02*
X005892Y019592D01*
X005793Y019691D02*
X005688Y019691D01*
X005741Y020179D02*
X005604Y020315D01*
X005877Y020315D01*
X005741Y020179D01*
X005745Y020183D02*
X005736Y020183D01*
X005638Y020282D02*
X005843Y020282D01*
X007241Y018961D02*
X007737Y018465D01*
X007737Y017532D01*
X007748Y017544D01*
X007737Y017532D02*
X007737Y011351D01*
X008406Y010681D01*
X008406Y010111D01*
X008810Y010136D02*
X009284Y010136D01*
X009206Y010038D02*
X008810Y010038D01*
X008810Y009939D02*
X009165Y009939D01*
X009162Y009841D02*
X008810Y009841D01*
X008744Y009742D02*
X009177Y009742D01*
X009218Y009644D02*
X008753Y009644D01*
X008753Y009545D02*
X009288Y009545D01*
X009226Y009447D02*
X008454Y009447D01*
X008357Y009447D02*
X007197Y009447D01*
X007197Y009545D02*
X008059Y009545D01*
X008059Y009644D02*
X007197Y009644D01*
X007197Y009742D02*
X008068Y009742D01*
X008002Y009841D02*
X007197Y009841D01*
X007197Y009939D02*
X008002Y009939D01*
X008002Y010038D02*
X007197Y010038D01*
X007197Y010136D02*
X008002Y010136D01*
X008002Y010235D02*
X007197Y010235D01*
X007197Y010333D02*
X008002Y010333D01*
X008020Y010432D02*
X007197Y010432D01*
X007197Y010530D02*
X008118Y010530D01*
X008095Y010629D02*
X007197Y010629D01*
X007197Y010727D02*
X007996Y010727D01*
X007898Y010826D02*
X007197Y010826D01*
X007197Y010924D02*
X007799Y010924D01*
X007701Y011023D02*
X007197Y011023D01*
X007197Y011121D02*
X007602Y011121D01*
X007512Y011220D02*
X007197Y011220D01*
X007197Y011318D02*
X007479Y011318D01*
X007479Y011417D02*
X007197Y011417D01*
X007197Y011515D02*
X007479Y011515D01*
X007479Y011614D02*
X007197Y011614D01*
X007197Y011712D02*
X007479Y011712D01*
X007479Y011811D02*
X007197Y011811D01*
X007197Y011909D02*
X007479Y011909D01*
X007479Y012008D02*
X007197Y012008D01*
X007197Y012106D02*
X007479Y012106D01*
X007479Y012205D02*
X007197Y012205D01*
X007197Y012303D02*
X007479Y012303D01*
X007479Y012402D02*
X007197Y012402D01*
X007197Y012500D02*
X007479Y012500D01*
X007479Y012599D02*
X007197Y012599D01*
X007197Y012697D02*
X007479Y012697D01*
X007479Y012796D02*
X007197Y012796D01*
X007197Y012894D02*
X007479Y012894D01*
X007479Y012993D02*
X007197Y012993D01*
X007197Y013091D02*
X007479Y013091D01*
X007479Y013190D02*
X007197Y013190D01*
X007197Y013288D02*
X007479Y013288D01*
X007479Y013387D02*
X007197Y013387D01*
X007197Y013485D02*
X007479Y013485D01*
X007479Y013584D02*
X007197Y013584D01*
X007197Y013682D02*
X007479Y013682D01*
X007479Y013781D02*
X007197Y013781D01*
X007197Y013879D02*
X007479Y013879D01*
X007479Y013978D02*
X007197Y013978D01*
X007197Y014076D02*
X007479Y014076D01*
X007479Y014175D02*
X007197Y014175D01*
X007197Y014273D02*
X007479Y014273D01*
X007479Y014372D02*
X007197Y014372D01*
X007197Y014470D02*
X007479Y014470D01*
X007479Y014569D02*
X007197Y014569D01*
X007197Y014667D02*
X007479Y014667D01*
X007479Y014766D02*
X007197Y014766D01*
X007168Y014864D02*
X007479Y014864D01*
X007479Y014963D02*
X007090Y014963D01*
X006992Y015061D02*
X007479Y015061D01*
X007479Y015160D02*
X006893Y015160D01*
X006795Y015258D02*
X007479Y015258D01*
X007479Y015357D02*
X006696Y015357D01*
X007479Y015455D02*
X005653Y015455D01*
X005555Y015554D02*
X007479Y015554D01*
X007479Y015652D02*
X005456Y015652D01*
X005358Y015751D02*
X007479Y015751D01*
X007479Y015849D02*
X005259Y015849D01*
X005161Y015948D02*
X007479Y015948D01*
X007479Y016046D02*
X005062Y016046D01*
X004964Y016145D02*
X007479Y016145D01*
X007479Y016243D02*
X004865Y016243D01*
X004767Y016342D02*
X007479Y016342D01*
X007479Y016440D02*
X004668Y016440D01*
X004570Y016539D02*
X007479Y016539D01*
X007479Y016637D02*
X004471Y016637D01*
X004373Y016736D02*
X007479Y016736D01*
X007479Y016834D02*
X004274Y016834D01*
X004205Y016933D02*
X007479Y016933D01*
X007479Y017031D02*
X004205Y017031D01*
X004205Y017130D02*
X007475Y017130D01*
X007183Y017228D02*
X007086Y017228D01*
X007086Y017161D02*
X007086Y017460D01*
X006768Y017460D01*
X006768Y017292D01*
X006778Y017254D01*
X006798Y017219D01*
X006826Y017191D01*
X006860Y017172D01*
X006898Y017161D01*
X007086Y017161D01*
X007086Y017327D02*
X007183Y017327D01*
X007183Y017425D02*
X007086Y017425D01*
X007086Y017524D02*
X004205Y017524D01*
X004205Y017622D02*
X006768Y017622D01*
X006768Y017721D02*
X004205Y017721D01*
X004205Y017819D02*
X006820Y017819D01*
X007086Y017819D02*
X007183Y017819D01*
X007183Y017721D02*
X007086Y017721D01*
X007086Y017622D02*
X007183Y017622D01*
X006768Y017425D02*
X004205Y017425D01*
X004205Y017327D02*
X006768Y017327D01*
X006793Y017228D02*
X004205Y017228D01*
X004205Y017918D02*
X007479Y017918D01*
X007479Y018016D02*
X004205Y018016D01*
X004205Y018115D02*
X007479Y018115D01*
X007479Y018213D02*
X004205Y018213D01*
X004205Y018312D02*
X007479Y018312D01*
X007427Y018410D02*
X004205Y018410D01*
X007804Y017508D02*
X007827Y017532D01*
X008445Y017532D01*
X008599Y017378D01*
X008599Y016472D01*
X008241Y016440D02*
X007994Y016440D01*
X007994Y016342D02*
X008241Y016342D01*
X008241Y016243D02*
X007994Y016243D01*
X007994Y016145D02*
X008258Y016145D01*
X008356Y016046D02*
X007994Y016046D01*
X007994Y015948D02*
X009341Y015948D01*
X009341Y015849D02*
X007994Y015849D01*
X007994Y015751D02*
X009341Y015751D01*
X009341Y015652D02*
X007994Y015652D01*
X007994Y015554D02*
X009341Y015554D01*
X009341Y015455D02*
X007994Y015455D01*
X007994Y015357D02*
X009341Y015357D01*
X009341Y015258D02*
X007994Y015258D01*
X007994Y015160D02*
X009341Y015160D01*
X009341Y015061D02*
X007994Y015061D01*
X007994Y014963D02*
X009352Y014963D01*
X009410Y014864D02*
X007994Y014864D01*
X007994Y014766D02*
X009509Y014766D01*
X009607Y014667D02*
X007994Y014667D01*
X007994Y014569D02*
X009706Y014569D01*
X009804Y014470D02*
X007994Y014470D01*
X007994Y014372D02*
X009903Y014372D01*
X010139Y014864D02*
X016014Y014864D01*
X016014Y014963D02*
X010040Y014963D01*
X009942Y015061D02*
X016013Y015061D01*
X016013Y015160D02*
X009856Y015160D01*
X009856Y015258D02*
X016012Y015258D01*
X016012Y015357D02*
X009856Y015357D01*
X009856Y015455D02*
X016011Y015455D01*
X016010Y015554D02*
X009856Y015554D01*
X009856Y015652D02*
X016010Y015652D01*
X016009Y015751D02*
X009856Y015751D01*
X009856Y015849D02*
X016009Y015849D01*
X016008Y015948D02*
X009856Y015948D01*
X010599Y016472D02*
X010599Y018213D01*
X010571Y018241D01*
X010448Y018607D02*
X010356Y018607D01*
X010356Y018706D02*
X010841Y018706D01*
X010841Y018804D02*
X010356Y018804D01*
X010356Y018903D02*
X010841Y018903D01*
X010841Y019001D02*
X010356Y019001D01*
X010356Y019100D02*
X010841Y019100D01*
X010841Y019198D02*
X010356Y019198D01*
X010356Y019297D02*
X010841Y019297D01*
X010816Y019395D02*
X010356Y019395D01*
X010356Y019494D02*
X010816Y019494D01*
X010838Y019592D02*
X010356Y019592D01*
X010348Y019691D02*
X010885Y019691D01*
X010985Y019789D02*
X010292Y019789D01*
X011099Y019359D02*
X011099Y016472D01*
X011599Y016472D02*
X011599Y017142D01*
X010841Y018607D02*
X010694Y018607D01*
X011099Y019359D02*
X011201Y019461D01*
X009187Y017819D02*
X008200Y017819D01*
X008621Y017721D02*
X009033Y017721D01*
X008964Y017622D02*
X008719Y017622D01*
X008817Y017524D02*
X008926Y017524D01*
X008919Y017425D02*
X008856Y017425D01*
X009099Y017241D02*
X009311Y017453D01*
X009099Y017241D02*
X009099Y016472D01*
X008856Y016046D02*
X008841Y016046D01*
X008241Y016539D02*
X007994Y016539D01*
X007994Y016637D02*
X008241Y016637D01*
X008241Y016736D02*
X007994Y016736D01*
X007994Y016834D02*
X008292Y016834D01*
X008341Y016933D02*
X007994Y016933D01*
X007994Y017031D02*
X008341Y017031D01*
X008341Y017130D02*
X008132Y017130D01*
X008228Y017228D02*
X008341Y017228D01*
X008319Y013091D02*
X007994Y013091D01*
X007994Y012993D02*
X008241Y012993D01*
X008241Y012894D02*
X007994Y012894D01*
X007994Y012796D02*
X008241Y012796D01*
X008860Y011900D02*
X008881Y011851D01*
X009044Y011687D01*
X009044Y011628D01*
X008860Y011812D01*
X008860Y011900D01*
X008861Y011811D02*
X008921Y011811D01*
X008960Y011712D02*
X009019Y011712D01*
X009099Y011996D02*
X009430Y011666D01*
X009784Y011515D02*
X011219Y011515D01*
X011219Y011417D02*
X009726Y011417D01*
X009598Y011318D02*
X011219Y011318D01*
X011258Y011614D02*
X009815Y011614D01*
X009815Y011712D02*
X011341Y011712D01*
X011341Y011811D02*
X009787Y011811D01*
X009732Y011909D02*
X011341Y011909D01*
X011341Y012008D02*
X009612Y012008D01*
X009356Y012106D02*
X011341Y012106D01*
X011341Y012205D02*
X009356Y012205D01*
X009099Y011996D02*
X009099Y012702D01*
X009548Y009855D02*
X009546Y009853D01*
X009220Y009348D02*
X008753Y009348D01*
X008753Y009250D02*
X009220Y009250D01*
X009220Y009151D02*
X008733Y009151D01*
X008454Y009151D02*
X008357Y009151D01*
X008357Y009250D02*
X008454Y009250D01*
X008454Y009348D02*
X008357Y009348D01*
X008059Y009348D02*
X007197Y009348D01*
X007197Y009250D02*
X008059Y009250D01*
X008078Y009151D02*
X007197Y009151D01*
X007197Y009053D02*
X009220Y009053D01*
X010267Y009545D02*
X010788Y009545D01*
X010555Y009447D02*
X010537Y009447D01*
X010537Y009348D02*
X010555Y009348D01*
X010555Y009250D02*
X010537Y009250D01*
X010537Y009151D02*
X010555Y009151D01*
X010555Y009053D02*
X010537Y009053D01*
X010537Y008954D02*
X010555Y008954D01*
X010555Y008856D02*
X010537Y008856D01*
X010537Y008757D02*
X010555Y008757D01*
X010555Y008659D02*
X010537Y008659D01*
X010537Y008560D02*
X010555Y008560D01*
X010555Y008462D02*
X010537Y008462D01*
X010537Y008363D02*
X010555Y008363D01*
X010746Y008363D02*
X010760Y008363D01*
X010345Y008363D02*
X010332Y008363D01*
X011304Y006886D02*
X011499Y006886D01*
X011495Y006787D02*
X011371Y006787D01*
X011371Y006689D02*
X011495Y006689D01*
X011495Y006590D02*
X011371Y006590D01*
X011371Y006492D02*
X011495Y006492D01*
X011495Y006393D02*
X011371Y006393D01*
X011371Y006295D02*
X011495Y006295D01*
X011495Y006196D02*
X011371Y006196D01*
X011371Y006098D02*
X011495Y006098D01*
X011495Y005999D02*
X011371Y005999D01*
X011371Y005901D02*
X011495Y005901D01*
X011495Y005802D02*
X011371Y005802D01*
X010803Y005513D02*
X010803Y005499D01*
X010814Y005488D01*
X010803Y005513D01*
X010803Y005507D02*
X010806Y005507D01*
X010046Y005392D02*
X010046Y006300D01*
X009788Y005605D02*
X008613Y005605D01*
X008613Y005704D02*
X009297Y005704D01*
X009220Y005802D02*
X008613Y005802D01*
X008613Y005901D02*
X009220Y005901D01*
X009220Y005999D02*
X008613Y005999D01*
X008613Y006098D02*
X009220Y006098D01*
X009220Y006196D02*
X008579Y006196D01*
X008524Y005507D02*
X009788Y005507D01*
X009287Y006886D02*
X008556Y006886D01*
X008556Y006984D02*
X011549Y006984D01*
X011648Y007083D02*
X008516Y007083D01*
X008475Y004029D02*
X012077Y004029D01*
X012685Y003832D02*
X007434Y003832D01*
X012343Y005170D02*
X012343Y005544D01*
X012323Y005563D01*
X012981Y007688D02*
X012981Y007688D01*
X014921Y016046D02*
X016007Y016046D01*
D18*
X012619Y018752D03*
X011201Y019461D03*
X010571Y018241D03*
X009311Y017453D03*
X006241Y016430D03*
X009430Y011666D03*
X009548Y009855D03*
X007933Y008437D03*
X010178Y004422D03*
M02*
