  0
SECTION
  2
HEADER
  9
$ACADVER
  1
AC1009
  9
$INSBASE
 10
0.0
 20
0.0
 30
0.0
  9
$EXTMIN
 10
0.0
 20
0.0
 30
0.0
  9
$EXTMAX
 10
0.0
 20
0.0
 30
0.0
  0
ENDSEC
  0
SECTION
  2
TABLES
  0
TABLE
  2
VPORT
 70
0
  0
ENDTAB
  0
TABLE
  2
LTYPE
 70
1
  0
LTYPE
  2
CONTINUOUS
 70
0
  3
Solid line
 72
65
 73
0
 40
0.0
  0
ENDTAB
  0
TABLE
  2
LAYER
 70
1
  0
LAYER
  2
PYDXF
 70
64
 62
7
  6
continuous
  0
ENDTAB
  0
TABLE
  2
STYLE
 70
1
  0
STYLE
  2
STANDARD
 70
0
 40
0
 41
1.0
 50
0.0
 71
0
 42
1
 3
ARIAL.TTF
 4

  0
ENDTAB
  0
TABLE
  2
VIEW
 70
0
  0
ENDTAB
  0
ENDSEC
  0
SECTION
  2
BLOCKS
  0
ENDSEC
  0
SECTION
  2
ENTITIES
  0
POLYLINE
  8
0
 62
250
 70
1
 66
1
 10
0.0
 20
0.0
 30
0.0
  0
VERTEX
  8
0
 10
32.3135850271
 20
27.874501748
 42
-0.179846740404
  0
VERTEX
  8
0
 10
31.1420835099
 20
31.0261003639
  0
VERTEX
  8
0
 10
31.1420835099
 20
31.0261003639
 42
0.179846740404
  0
VERTEX
  8
0
 10
32.3135850271
 20
27.874501748
  0
SEQEND
  8
0
  0
POLYLINE
  8
0
 62
250
 70
1
 66
1
 10
0.0
 20
0.0
 30
0.0
  0
VERTEX
  8
0
 10
49.08
 20
-18.825
 42
-0.414213562373
  0
VERTEX
  8
0
 10
44.255
 20
-14.0
  0
VERTEX
  8
0
 10
44.255
 20
-14.0
 42
0.414213562373
  0
VERTEX
  8
0
 10
49.08
 20
-18.825
  0
SEQEND
  8
0
  0
POLYLINE
  8
0
 62
250
 70
1
 66
1
 10
0.0
 20
0.0
 30
0.0
  0
VERTEX
  8
0
 10
37.6457979652
 20
26.6061041004
 42
-0.155590956623
  0
VERTEX
  8
0
 10
36.755
 20
29.3994317484
  0
VERTEX
  8
0
 10
36.755
 20
29.3994317484
 42
0.155590956623
  0
VERTEX
  8
0
 10
37.6457979652
 20
26.6061041004
  0
SEQEND
  8
0
  0
POLYLINE
  8
0
 62
250
 70
1
 66
1
 10
0.0
 20
0.0
 30
0.0
  0
VERTEX
  8
0
 10
41.8325209889
 20
34.2178192535
  0
VERTEX
  8
0
 10
113.880552464
 20
30.4419419222
 42
-0.398959545974
  0
VERTEX
  8
0
 10
129.825
 20
13.64
  0
VERTEX
  8
0
 10
129.825
 20
-14.0
 42
-0.414213562373
  0
VERTEX
  8
0
 10
125.0
 20
-18.825
  0
VERTEX
  8
0
 10
49.08
 20
-18.825
 42
-0.414213562373
  0
VERTEX
  8
0
 10
44.255
 20
-14.0
 42
-0.0689004701155
  0
VERTEX
  8
0
 10
44.4365172909
 20
-12.689010553
 42
0.226924119116
  0
VERTEX
  8
0
 10
37.6457979652
 20
26.6061041004
 42
-0.155590956623
  0
VERTEX
  8
0
 10
36.755
 20
29.3994317484
 42
-0.429633905967
  0
SEQEND
  8
0
  0
POLYLINE
  8
0
 62
250
 70
1
 66
1
 10
0.0
 20
0.0
 30
0.0
  0
VERTEX
  8
0
 10
113.037560333
 20
32.4888659598
 42
-0.398959545974
  0
VERTEX
  8
0
 10
131.825
 20
12.6910354333
  0
VERTEX
  8
0
 10
131.825
 20
-15.5
 42
-0.414213562373
  0
VERTEX
  8
0
 10
127.0
 20
-20.325
  0
VERTEX
  8
0
 10
37.5239923249
 20
-20.325
 42
0.311581227793
  0
VERTEX
  8
0
 10
32.3135850271
 20
27.874501748
 42
-0.179846740404
  0
VERTEX
  8
0
 10
31.1420835099
 20
31.0261003639
 42
-0.282089090074
  0
VERTEX
  8
0
 10
33.7775339053
 20
35.3256930805
 42
-0.131596030079
  0
VERTEX
  8
0
 10
38.7502476009
 20
36.382099049
  0
SEQEND
  8
0
  0
POLYLINE
  8
0
 62
250
 70
1
 66
1
 10
0.0
 20
0.0
 30
0.0
  0
VERTEX
  8
0
 10
113.880552464
 20
30.4419419222
 42
-0.398959545974
  0
VERTEX
  8
0
 10
129.825
 20
13.64
  0
VERTEX
  8
0
 10
129.825
 20
13.64
 42
0.398959545974
  0
VERTEX
  8
0
 10
113.880552464
 20
30.4419419222
  0
SEQEND
  8
0
  0
POLYLINE
  8
0
 62
250
 70
1
 66
1
 10
0.0
 20
0.0
 30
0.0
  0
VERTEX
  8
0
 10
41.8325209889
 20
34.2178192535
  0
VERTEX
  8
0
 10
113.880552464
 20
30.4419419222
  0
VERTEX
  8
0
 10
113.880552464
 20
30.4419419222
  0
VERTEX
  8
0
 10
41.8325209889
 20
34.2178192535
  0
SEQEND
  8
0
  0
POLYLINE
  8
0
 62
250
 70
1
 66
1
 10
0.0
 20
0.0
 30
0.0
  0
VERTEX
  8
0
 10
36.755
 20
29.3994317484
  0
VERTEX
  8
0
 10
36.755
 20
29.3994317484
 42
-0.429633905967
  0
VERTEX
  8
0
 10
41.8325209889
 20
34.2178192535
  0
VERTEX
  8
0
 10
41.8325209889
 20
34.2178192535
 42
0.429633905967
  0
SEQEND
  8
0
  0
POLYLINE
  8
0
 62
250
 70
1
 66
1
 10
0.0
 20
0.0
 30
0.0
  0
VERTEX
  8
0
 10
37.6457979652
 20
26.6061041004
  0
VERTEX
  8
0
 10
37.6457979652
 20
26.6061041004
 42
-0.226924119116
  0
VERTEX
  8
0
 10
44.4365172909
 20
-12.689010553
  0
VERTEX
  8
0
 10
44.4365172909
 20
-12.689010553
 42
0.226924119116
  0
SEQEND
  8
0
  0
POLYLINE
  8
0
 62
250
 70
1
 66
1
 10
0.0
 20
0.0
 30
0.0
  0
VERTEX
  8
0
 10
44.255
 20
-14.0
  0
VERTEX
  8
0
 10
44.255
 20
-14.0
 42
-0.0689004701155
  0
VERTEX
  8
0
 10
44.4365172909
 20
-12.689010553
  0
VERTEX
  8
0
 10
44.4365172909
 20
-12.689010553
 42
0.0689004701156
  0
SEQEND
  8
0
  0
POLYLINE
  8
0
 62
250
 70
1
 66
1
 10
0.0
 20
0.0
 30
0.0
  0
VERTEX
  8
0
 10
125.0
 20
-18.825
  0
VERTEX
  8
0
 10
49.08
 20
-18.825
  0
VERTEX
  8
0
 10
49.08
 20
-18.825
  0
VERTEX
  8
0
 10
125.0
 20
-18.825
  0
SEQEND
  8
0
  0
POLYLINE
  8
0
 62
250
 70
1
 66
1
 10
0.0
 20
0.0
 30
0.0
  0
VERTEX
  8
0
 10
129.825
 20
-14.0
 42
-0.414213562373
  0
VERTEX
  8
0
 10
125.0
 20
-18.825
  0
VERTEX
  8
0
 10
125.0
 20
-18.825
 42
0.414213562373
  0
VERTEX
  8
0
 10
129.825
 20
-14.0
  0
SEQEND
  8
0
  0
POLYLINE
  8
0
 62
250
 70
1
 66
1
 10
0.0
 20
0.0
 30
0.0
  0
VERTEX
  8
0
 10
129.825
 20
13.64
  0
VERTEX
  8
0
 10
129.825
 20
-14.0
  0
VERTEX
  8
0
 10
129.825
 20
-14.0
  0
VERTEX
  8
0
 10
129.825
 20
13.64
  0
SEQEND
  8
0
  0
POLYLINE
  8
0
 62
250
 70
1
 66
1
 10
0.0
 20
0.0
 30
0.0
  0
VERTEX
  8
0
 10
41.8325209889
 20
34.2178192535
  0
VERTEX
  8
0
 10
113.880552464
 20
30.4419419222
 42
-0.398959545974
  0
VERTEX
  8
0
 10
129.825
 20
13.64
  0
VERTEX
  8
0
 10
129.825
 20
-14.0
 42
-0.414213562373
  0
VERTEX
  8
0
 10
125.0
 20
-18.825
  0
VERTEX
  8
0
 10
49.08
 20
-18.825
 42
-0.414213562373
  0
VERTEX
  8
0
 10
44.255
 20
-14.0
 42
-0.0689004701155
  0
VERTEX
  8
0
 10
44.4365172909
 20
-12.689010553
 42
0.226924119116
  0
VERTEX
  8
0
 10
37.6457979652
 20
26.6061041004
 42
-0.155590956623
  0
VERTEX
  8
0
 10
36.755
 20
29.3994317484
 42
-0.429633905967
  0
SEQEND
  8
0
  0
POLYLINE
  8
0
 62
250
 70
1
 66
1
 10
0.0
 20
0.0
 30
0.0
  0
VERTEX
  8
0
 10
113.037560333
 20
32.4888659598
 42
-0.398959545974
  0
VERTEX
  8
0
 10
131.825
 20
12.6910354333
  0
VERTEX
  8
0
 10
131.825
 20
12.6910354333
 42
0.398959545974
  0
VERTEX
  8
0
 10
113.037560333
 20
32.4888659598
  0
SEQEND
  8
0
  0
POLYLINE
  8
0
 62
250
 70
1
 66
1
 10
0.0
 20
0.0
 30
0.0
  0
VERTEX
  8
0
 10
38.7502476009
 20
36.382099049
  0
VERTEX
  8
0
 10
113.037560333
 20
32.4888659598
  0
VERTEX
  8
0
 10
113.037560333
 20
32.4888659598
  0
VERTEX
  8
0
 10
38.7502476009
 20
36.382099049
  0
SEQEND
  8
0
  0
POLYLINE
  8
0
 62
250
 70
1
 66
1
 10
0.0
 20
0.0
 30
0.0
  0
VERTEX
  8
0
 10
33.7775339053
 20
35.3256930805
 42
-0.131596030079
  0
VERTEX
  8
0
 10
38.7502476009
 20
36.382099049
  0
VERTEX
  8
0
 10
38.7502476009
 20
36.382099049
 42
0.131596030079
  0
VERTEX
  8
0
 10
33.7775339053
 20
35.3256930805
  0
SEQEND
  8
0
  0
POLYLINE
  8
0
 62
250
 70
1
 66
1
 10
0.0
 20
0.0
 30
0.0
  0
VERTEX
  8
0
 10
31.1420835099
 20
31.0261003639
  0
VERTEX
  8
0
 10
31.1420835099
 20
31.0261003639
 42
-0.282089090074
  0
VERTEX
  8
0
 10
33.7775339053
 20
35.3256930805
  0
VERTEX
  8
0
 10
33.7775339053
 20
35.3256930805
 42
0.282089090074
  0
SEQEND
  8
0
  0
POLYLINE
  8
0
 62
250
 70
1
 66
1
 10
0.0
 20
0.0
 30
0.0
  0
VERTEX
  8
0
 10
32.3135850271
 20
27.874501748
  0
VERTEX
  8
0
 10
32.3135850271
 20
27.874501748
 42
-0.311581227793
  0
VERTEX
  8
0
 10
37.5239923249
 20
-20.325
  0
VERTEX
  8
0
 10
37.5239923249
 20
-20.325
 42
0.311581227793
  0
SEQEND
  8
0
  0
POLYLINE
  8
0
 62
250
 70
1
 66
1
 10
0.0
 20
0.0
 30
0.0
  0
VERTEX
  8
0
 10
127.0
 20
-20.325
  0
VERTEX
  8
0
 10
37.5239923249
 20
-20.325
  0
VERTEX
  8
0
 10
37.5239923249
 20
-20.325
  0
VERTEX
  8
0
 10
127.0
 20
-20.325
  0
SEQEND
  8
0
  0
POLYLINE
  8
0
 62
250
 70
1
 66
1
 10
0.0
 20
0.0
 30
0.0
  0
VERTEX
  8
0
 10
131.825
 20
-15.5
 42
-0.414213562373
  0
VERTEX
  8
0
 10
127.0
 20
-20.325
  0
VERTEX
  8
0
 10
127.0
 20
-20.325
 42
0.414213562373
  0
VERTEX
  8
0
 10
131.825
 20
-15.5
  0
SEQEND
  8
0
  0
POLYLINE
  8
0
 62
250
 70
1
 66
1
 10
0.0
 20
0.0
 30
0.0
  0
VERTEX
  8
0
 10
131.825
 20
12.6910354333
  0
VERTEX
  8
0
 10
131.825
 20
-15.5
  0
VERTEX
  8
0
 10
131.825
 20
-15.5
  0
VERTEX
  8
0
 10
131.825
 20
12.6910354333
  0
SEQEND
  8
0
  0
POLYLINE
  8
0
 62
250
 70
1
 66
1
 10
0.0
 20
0.0
 30
0.0
  0
VERTEX
  8
0
 10
131.825
 20
12.6910354333
  0
VERTEX
  8
0
 10
131.825
 20
-15.5
 42
-0.414213562373
  0
VERTEX
  8
0
 10
127.0
 20
-20.325
  0
VERTEX
  8
0
 10
37.5239923249
 20
-20.325
 42
0.311581227793
  0
VERTEX
  8
0
 10
32.3135850271
 20
27.874501748
 42
-0.179846740404
  0
VERTEX
  8
0
 10
31.1420835099
 20
31.0261003639
 42
-0.282089090074
  0
VERTEX
  8
0
 10
33.7775339053
 20
35.3256930805
 42
-0.131596030079
  0
VERTEX
  8
0
 10
38.7502476009
 20
36.382099049
  0
VERTEX
  8
0
 10
113.037560333
 20
32.4888659598
 42
-0.398959545974
  0
SEQEND
  8
0
  0
ENDSEC
  0
EOF
